<svg id="Layer_1" data-name="Layer 1" xmlns="http://www.w3.org/2000/svg" viewBox="0 0 100 100"><defs><style>.cls-1,.cls-3{fill:#f27d00;}.cls-2{fill:#003882;}.cls-3{fill-rule:evenodd;}</style></defs><title>Artboard 1</title><path class="cls-1" d="M14.75,55.13a31.2,31.2,0,0,1,.41,3.66A12.27,12.27,0,0,1,10,57.11a8.62,8.62,0,0,1,1.2-3.18A11.12,11.12,0,0,1,9,56.55,11.39,11.39,0,0,1,5.6,52.7c.82-.41,1.73-.82,2.8-1.23-1.07.41-2.05.72-3,1a10.74,10.74,0,0,1-1.14-4.8v-.6a14.64,14.64,0,0,1,4.36.73,17.28,17.28,0,0,1-4.2-2,10.34,10.34,0,0,1,2.27-4.86,37.44,37.44,0,0,1,3,3.41,35.64,35.64,0,0,1-2.68-3.85,12.16,12.16,0,0,1,4.8-3.22,19.45,19.45,0,0,1,1.41,5,20.6,20.6,0,0,1,.64-5.55,12.14,12.14,0,0,1,2.43-.22,13.6,13.6,0,0,1,3.4.44A28,28,0,0,1,17.24,43a28.33,28.33,0,0,1,3.82-5.62,12.09,12.09,0,0,1,4.51,3.1A17.79,17.79,0,0,1,20,45.85a16,16,0,0,1,7.86-1.64,10.45,10.45,0,0,1,.6,3.44,12.17,12.17,0,0,1-.22,2.11,21.24,21.24,0,0,1-7.73.29,24.24,24.24,0,0,1,7.1,1.67,11.17,11.17,0,0,1-3.44,4.45,15.65,15.65,0,0,1-5.75-2.75,14.52,14.52,0,0,1,3.1,4.36,13,13,0,0,1-5.11,1h-.73a26.12,26.12,0,0,1-.88-3.69Zm-6-6.63A5.52,5.52,0,1,0,14.27,43,5.54,5.54,0,0,0,8.75,48.5Z"/><path class="cls-2" d="M40,50.43l.09.06v7a7.66,7.66,0,0,1-.57,3.44c-.82,1.61-3,2.24-5.14,2.3l-.47-1.92c3.31-.28,3.78-.85,3.72-3a4.72,4.72,0,0,1-2.27.54c-2.71,0-4-2.59-4-5,0-2.15,1.23-5.17,4-5.17A7.08,7.08,0,0,1,40,50.43Zm-4.14.22c-1.45,0-1.83,2-1.83,3.09s.38,3,1.77,3a3.39,3.39,0,0,0,1.77-.67V51.21A3,3,0,0,0,35.85,50.65Z"/><path class="cls-2" d="M41.82,46.39a1.55,1.55,0,0,1,3.09,0,1.55,1.55,0,0,1-3.09,0Zm.31,2.46h2.53v9.72H42.13Z"/><path class="cls-2" d="M51,48.6a9.54,9.54,0,0,1,1.8.25l-1,2.11a4.44,4.44,0,0,0-1.11-.16,2.25,2.25,0,0,0-1.51.54v7.23H46.64V50.65A6.27,6.27,0,0,1,51,48.6Z"/><path class="cls-2" d="M61,51.72,61,57a5.87,5.87,0,0,1-4.48,1.8,3.44,3.44,0,0,1-3.38-3.44,3.31,3.31,0,0,1,3.57-3.25h1.83v-.32a1.24,1.24,0,0,0-1.33-1.13,5.57,5.57,0,0,0-2.55.79l-.79-1.8a7.39,7.39,0,0,1,3.72-1.07A3.2,3.2,0,0,1,61,51.72Zm-3.85,2.4a1.22,1.22,0,0,0-1.39,1.23,1.47,1.47,0,0,0,1.45,1.45,2.32,2.32,0,0,0,1.33-.47V54.15Z"/><path class="cls-2" d="M67.78,53a2.86,2.86,0,0,1,2,2.65c0,2.18-2,3.19-3.91,3.19a5.54,5.54,0,0,1-3.44-1.36l1-1.73a4.4,4.4,0,0,0,2.37,1,1.53,1.53,0,0,0,1.48-.7c.38-.94-1.23-1.26-2-1.57-1.23-.51-2.58-1-2.58-2.78a3.25,3.25,0,0,1,3.5-3.12,6.88,6.88,0,0,1,3.19,1.1l-1,1.77a4.21,4.21,0,0,0-2.12-.76c-.57,0-1.1.22-1.2.76S66.27,52.29,67.78,53Z"/><path class="cls-2" d="M76.21,53a2.85,2.85,0,0,1,2,2.65c0,2.18-2,3.19-3.91,3.19a5.54,5.54,0,0,1-3.44-1.36l1-1.73a4.39,4.39,0,0,0,2.34,1c.54,0,1.26-.13,1.48-.7.41-.94-1.2-1.26-1.92-1.57-1.23-.51-2.59-1-2.59-2.78a3.24,3.24,0,0,1,3.5-3.12,6.83,6.83,0,0,1,3.19,1.1l-1,1.77a4.2,4.2,0,0,0-2.11-.76c-.57,0-1.11.22-1.2.76S74.69,52.29,76.21,53Z"/><path class="cls-2" d="M83.08,56.45a1.41,1.41,0,0,0,1,.41c.78,0,1.86-.38,1.89-3.28a4.64,4.64,0,0,0-.16-1.29,1.8,1.8,0,0,0-1.77-1.58,1.6,1.6,0,0,0-1.57,1.14,4.39,4.39,0,0,0-.29,1.73c0,.22,0,.44,0,.63A3.86,3.86,0,0,0,83.08,56.45Zm1.08-7.85c3,0,4.51,2.52,4.51,5,0,1.61-.79,5.24-4.61,5.24-3.09,0-4.45-2.65-4.45-5.24C79.61,50.05,82.08,48.6,84.16,48.6Z"/><path class="cls-2" d="M94,57c-1.1,0-1.26-.22-1.26-1V44.3h-2.4V56.07a2.64,2.64,0,0,0,.79,2,3.77,3.77,0,0,0,2.9.76l.29,0V57Z"/><path class="cls-1" d="M56.14,65h1.61c0-.57-.28-1.07-.79-1.07S56.2,64.4,56.14,65ZM56,67.43a2.37,2.37,0,0,1-.79-1.83c0-1.1.48-2.36,1.8-2.36s1.7.91,1.7,2.33H56.11c0,1,.47,1.61,1.17,1.61a3.28,3.28,0,0,0,1.23-.38l.25.51a4.39,4.39,0,0,1-.85.41A2.22,2.22,0,0,1,56,67.43Zm-.25-5.05,2.14-1.26.38.76-2,1Z"/><path class="cls-1" d="M52.89,64h-.44v-.66h.44V62.19h.92v1.14h.75V64h-.75v2.65c0,.48.22.57.75.6v.57c-1,.09-1.67-.35-1.67-1.14Z"/><path class="cls-1" d="M48.82,65.44c0,.82.25,1.74,1,1.74s1-.92,1-1.74-.25-1.54-1-1.54S48.82,64.66,48.82,65.44Zm-1,0a2,2,0,1,1,4,0,2,2,0,1,1-4,0Z"/><path class="cls-3" d="M46.11,67.75H47V64.69a1.34,1.34,0,0,0-1.35-1.42,2.47,2.47,0,0,0-1.36.41V61.12h-.92v6.63h.92V64.43A1.93,1.93,0,0,1,45.38,64c.51,0,.73.47.73.95Z"/><path class="cls-1" d="M59.58,62a.59.59,0,0,1,.6-.56.59.59,0,0,1,.6.56.6.6,0,0,1-.6.6A.6.6,0,0,1,59.58,62Zm.13,1.36h.91v4.42h-.91Z"/><path class="cls-1" d="M61.41,67.27l.35-.56a1.77,1.77,0,0,0,1.1.41c.44,0,.85-.22.85-.63s-.25-.42-.94-.7-1.23-.44-1.23-1.23a1.37,1.37,0,0,1,1.51-1.32,2.76,2.76,0,0,1,1.33.41l-.35.59a1.85,1.85,0,0,0-1-.31.64.64,0,0,0-.72.54c0,.37.6.5,1,.66.25.12,1.2.44,1.2,1.29a1.57,1.57,0,0,1-1.74,1.39A2.35,2.35,0,0,1,61.41,67.27Z"/></svg>