<?xml version="1.0" encoding="utf-8"?>
<!-- Generator: Adobe Illustrator 23.0.4, SVG Export Plug-In . SVG Version: 6.00 Build 0)  -->
<svg version="1.1" id="Layer_1" xmlns:xodm="http://www.corel.com/coreldraw/odm/2003"
	 xmlns="http://www.w3.org/2000/svg" xmlns:xlink="http://www.w3.org/1999/xlink" x="0px" y="0px" viewBox="0 0 100 100"
	 style="enable-background:new 0 0 100 100;" xml:space="preserve">
<style type="text/css">
	.st0{fill-rule:evenodd;clip-rule:evenodd;fill:#AD033B;}
	.st1{fill-rule:evenodd;clip-rule:evenodd;fill:#FFFFFF;}
	.st2{fill:#FFFFFF;}
</style>
<g>
	<rect x="1.8" y="38.2" class="st0" width="96.4" height="24"/>
	<path class="st1" d="M18.8,49.3l-3.1-7.8c-1-2.4-2.3-3.4-3.4-3.6c-0.1,0-0.2-0.1-0.3-0.1h-1.6c0,0,0,0,0,0s1.1,0.1,1.6,0.5
		c0.8,0.6,1.3,1.9,1.1,3.7l-1,7.8c-0.1,1-0.4,2.5-0.4,2.5h1.4c0,0,0.1-1.2,0.2-2.3l0.9-7.6l3.1,8c0.4,1,0.6,1.5,1.4,2.1l3.7-10.1
		l0.9,8.5c0.1,0.6,0.1,1.4,0.1,1.4h1.8c0,0-0.2-1-0.3-1.9l-1.1-8.7c0-0.4-0.1-1.1-0.1-1.1h-2.2l0,0c0,0.4-0.1,0.7-0.3,1.1L18.8,49.3
		C18.8,49.3,18.8,49.3,18.8,49.3z"/>
	<path class="st1" d="M66.2,54.4c0,0,0,1,0,1.4V60c0,0.3,0,0.8,0,0.8c0.4,0.1,0.7,0.2,1.3,0.2c1.5,0,2.5-0.9,2.5-2.3
		c0-1.2-0.8-2.1-1.8-2.1c-0.2,0-0.4,0-0.6,0.1l-0.4,0.8c0.2-0.1,0.4-0.2,0.7-0.2c0.9,0,1.2,0.7,1.2,1.6c0,0.9-0.5,1.5-1.4,1.5
		c-0.2,0-0.5,0-0.7-0.1v-5.8H66.2L66.2,54.4z"/>
	<path class="st1" d="M72.2,56.5v4h0.8v-2.3c0-0.8,0.3-1.2,0.9-1.2c0.5,0,1,0.5,1,1.4v2.2h0.7v-2.2c0-0.8,0.2-1.3,0.9-1.3
		c0.7,0,0.9,0.6,0.9,1.5v2.1h0.7v-2.3c0-1.1-0.3-1.8-1.5-1.8c-0.6,0-1,0.3-1.3,0.8c-0.3-0.5-0.7-0.8-1.3-0.8c-0.6,0-0.9,0.2-1.2,0.7
		v-0.6H72.2C72.2,56.5,72.2,56.5,72.2,56.5z"/>
	<polygon class="st1" points="34.9,40.9 34.9,52.5 36.5,52.5 36.5,40.9 	"/>
	<g>
		<path class="st1" d="M43.1,51.4c-2,0-3.5-1.3-3.5-3.5H46c0.1-2.3-1.6-4.1-3.9-4.1c-2.6,0-4.4,1.8-4.4,4.3c0,2.5,2,4.4,5,4.4
			c0.8,0,1.7-0.1,2.4-0.4l0.9-1.7H46C45.2,51.1,44.2,51.4,43.1,51.4z M41.9,45.1c1.2,0,2,0.6,2.2,1.9h-4.5
			C39.9,45.8,40.8,45.1,41.9,45.1z"/>
	</g>
	<path class="st1" d="M47.1,44.3v8.2h1.5v-5.1c0-1.1,0.3-2.1,1.8-2.1c1.5,0,2,1,2,2.9v4.3h1.5V48c0-0.8,0.1-1.9-0.4-2.7
		c-0.5-0.8-1.6-1.2-2.5-1.2c-1.1,0-1.8,0.5-2.3,1.4v-1.1L47.1,44.3C47.1,44.3,47.1,44.3,47.1,44.3z"/>
	<path class="st1" d="M55.6,44.4v8.1h1.5v-5.1c0-1,0.2-2.1,1.8-2.1c1.5,0,2,1,2,2.9v4.3h1.5V48c0-0.8,0.1-1.9-0.4-2.6
		c-0.5-0.8-1.6-1.2-2.5-1.2c-1.1,0-1.8,0.5-2.3,1.3v-1.1H55.6L55.6,44.4z"/>
	<g>
		<polygon class="st1" points="64.3,44.6 64.3,52.4 65.8,52.4 65.8,44.6 		"/>
		<path class="st1" d="M64,42.3c0-0.7,0.5-1.2,1.1-1.2c0.6,0,1.1,0.5,1.1,1.2c0,0.7-0.5,1.2-1.1,1.2C64.5,43.5,64,43,64,42.3
			L64,42.3z"/>
	</g>
	<path class="st1" d="M73.1,44.6v4.5c0,1.3-0.8,2.3-1.9,2.3c-1.4,0-1.9-1-1.9-2.6v-4.2h-1.5v4.5c0,2.4,0.9,3.6,2.8,3.6
		c1.2,0,1.8-0.4,2.4-1.3v1.1h1.5v-7.9L73.1,44.6C73.1,44.6,73.1,44.6,73.1,44.6z"/>
	<path class="st1" d="M76.6,44.5v7.9h1.5v-4.6c0-1.6,0.6-2.5,1.9-2.5c1,0,1.9,0.9,1.9,2.7v4.3h1.5V48c0-1.6,0.4-2.6,1.9-2.6
		c1.3,0,1.8,1.1,1.8,2.9v4.2h1.5v-4.6c0-2.2-0.6-3.6-2.9-3.6c-1.2,0-2,0.6-2.6,1.5c-0.6-1-1.4-1.5-2.6-1.5c-1.1,0-1.7,0.4-2.3,1.4
		v-1.1H76.6C76.6,44.5,76.6,44.5,76.6,44.5z"/>
	<rect x="1.8" y="54.1" class="st2" width="96.4" height="0.8"/>
	<polygon class="st1" points="70.3,56.5 70.3,60.6 71.1,60.6 71.1,56.5 	"/>
	<path class="st1" d="M70.2,55.6c0-0.4,0.2-0.6,0.5-0.6s0.5,0.3,0.5,0.6c0,0.3-0.2,0.6-0.5,0.6S70.2,55.9,70.2,55.6L70.2,55.6z"/>
	<polygon class="st1" points="31.1,40.8 31.1,52.4 32.7,52.4 32.7,40.8 	"/>
	<g>
		<polygon class="st1" points="27.4,44.6 27.4,52.4 29,52.4 29,44.6 		"/>
		<path class="st1" d="M27.1,42.3c0-0.7,0.5-1.2,1.1-1.2c0.6,0,1.1,0.5,1.1,1.2c0,0.6-0.5,1.2-1.1,1.2
			C27.6,43.5,27.1,42.9,27.1,42.3L27.1,42.3z"/>
	</g>
</g>
</svg>
