<?xml version="1.0" encoding="utf-8"?>
<!-- Generator: Adobe Illustrator 23.0.4, SVG Export Plug-In . SVG Version: 6.00 Build 0)  -->
<svg version="1.1" id="Layer_1" xmlns:xodm="http://www.corel.com/coreldraw/odm/2003"
	 xmlns="http://www.w3.org/2000/svg" xmlns:xlink="http://www.w3.org/1999/xlink" x="0px" y="0px" viewBox="0 0 100 100"
	 style="enable-background:new 0 0 100 100;" xml:space="preserve">
<style type="text/css">
	.st0{fill-rule:evenodd;clip-rule:evenodd;fill:#696E6E;}
	.st1{fill:#696E6E;}
	.st2{fill:none;}
	.st3{fill:#373535;}
	.st4{fill:#373535;stroke:#373535;stroke-width:0.4179;stroke-miterlimit:2.6131;}
	.st5{fill-rule:evenodd;clip-rule:evenodd;fill:#373535;stroke:#373535;stroke-width:0.4179;stroke-miterlimit:2.6131;}
	.st6{fill-rule:evenodd;clip-rule:evenodd;fill:#373535;}
	.st7{fill-rule:evenodd;clip-rule:evenodd;fill:#FBC751;}
	.st8{fill-rule:evenodd;clip-rule:evenodd;fill:#3A3C52;}
</style>
<g id="Layer_x0020_1">
	<g id="_105553647060896">
		<g>
			<g>
				<polygon class="st0" points="18.4,53.8 20.2,53.8 20.2,62.6 18.4,62.6 				"/>
				<polygon class="st0" points="40,55.2 40,53.7 35.4,53.7 35.4,62.7 40,62.7 40,61.1 37.3,61.1 37.3,58.9 39.8,58.9 39.8,57.3 
					37.3,57.3 37.3,55.2 				"/>
				<polygon class="st0" points="41.1,62.7 41.1,53.7 42.5,53.7 46.6,59.6 46.6,53.7 48.5,53.7 48.5,62.6 46.3,62.6 43,57.8 
					43.1,62.6 				"/>
				<polygon class="st0" points="49.6,53.7 54.9,53.8 54.9,55.5 53.1,55.5 53.1,62.7 51.4,62.7 51.4,55.4 49.6,55.4 				"/>
				<path class="st0" d="M60.4,55.9c1.2,0,2.2,1,2.2,2.2c0,1.3-1,2.2-2.2,2.2c-1.2,0-2.2-1-2.2-2.2C58.2,56.9,59.2,55.9,60.4,55.9z
					 M60.4,53.7c2.4,0,4.3,2,4.3,4.4c0,2.4-1.9,4.4-4.3,4.4c-2.4,0-4.3-2-4.3-4.4C56,55.7,58,53.7,60.4,53.7z"/>
				<path class="st0" d="M69.3,56.6c0.7,0,1.2,0,2,0c-0.1-1.6-0.8-2.8-2.8-2.9c-1.7,0-2.6,1.5-2.5,2.8c0.1,1.3,2.6,2.3,3.2,3.6
					c0.2,0.4,0,1.2-0.7,1c-0.5-0.1-0.9-0.8-1-1.3c-0.5,0-1.3-0.1-1.8-0.1c0,1.5,1,3,2.5,3.1c1.5,0.1,3.1-1.1,2.9-2.5
					c-0.1-1.5-1.5-2.3-2.6-3.2c-1-1-0.5-1.7,0.1-1.6C69.1,55.5,69.2,55.9,69.3,56.6z"/>
				<path class="st0" d="M78.5,53.9c0,2.9,0,5.8,0,8.7c3.5,0,6.8,0.3,6.8-4.3C85.3,53.5,81.8,53.9,78.5,53.9z M80.4,56.2
					c0,1.4,0,2.8,0,4.2c1.5,0,2.9,0.1,2.9-2.1C83.3,56,81.8,56.1,80.4,56.2z"/>
				<path class="st0" d="M42.6,68.4l-0.9,2.3h1.7C43.4,70.7,42.6,68.4,42.6,68.4z M38.8,73.5l3.1-8.5h1.5l2.9,8.5h-1.7l-0.5-1.3H41
					l-0.5,1.3C40.5,73.5,38.8,73.5,38.8,73.5z"/>
				<path class="st1" d="M13.2,53.8c-0.6,0-1.1,0.1-1.6,0.3c-0.5,0.3-1,0.5-1.4,1c-0.5,0.4-0.8,0.9-1,1.5c-0.2,0.6-0.3,1.3-0.3,2
					c0,0.6,0.3,1.3,0.6,1.9c0.4,0.7,0.9,1.2,1.6,1.6c0.7,0.5,1.5,0.6,2.4,0.6c0.8,0,1.6-0.3,2.4-0.9c0.8-0.5,1.3-1.3,1.5-2.1h-2.2
					c-0.5,0.7-1.1,1.1-1.8,1c-0.6,0-1.2-0.3-1.6-0.6c-0.5-0.4-0.8-1-0.8-1.7c-0.1-0.7,0.1-1.3,0.5-1.8c0.4-0.5,1-0.8,1.7-0.8
					c0.4,0,0.8,0,1.1,0.2c0.4,0.1,0.7,0.4,0.9,0.9h2.2c-0.1-0.5-0.4-1-0.7-1.4c-0.4-0.5-0.8-0.9-1.4-1.2
					C14.6,54,13.9,53.8,13.2,53.8z"/>
				<path class="st1" d="M61.2,65v8.4h2.4c0.6,0,1.2-0.1,1.7-0.4c0.5-0.3,0.8-0.5,1-0.9c0.3-0.4,0.3-0.8,0.3-1.2
					c0-0.5-0.1-0.9-0.3-1.3c-0.3-0.3-0.6-0.6-1.1-0.8c0.6-0.3,1.2-0.9,1.2-1.7c0-0.5-0.2-1-0.7-1.5c-0.5-0.4-1.1-0.6-2-0.6
					C63.7,65,61.2,65,61.2,65z M62.8,66.5h0.5c0.3,0,0.6,0,0.9,0.2c0.2,0.1,0.3,0.3,0.3,0.6c0,0.4-0.1,0.6-0.3,0.8
					c-0.2,0.1-0.5,0.2-1,0.2h-0.4C62.8,68.2,62.8,66.5,62.8,66.5z M62.8,69.7h0.9c0.3,0,0.6,0,0.9,0.2c0.3,0.2,0.4,0.5,0.4,0.8
					c0,0.8-0.5,1.2-1.4,1.2h-0.8V69.7z"/>
				<path class="st1" d="M71.8,70.8c1.1-0.4,2.5,0.3,3.3,0.9C73.7,72.5,72.1,71.5,71.8,70.8z M76.2,71c-1.4-1.3-3-1.9-4.8-1.4
					c-0.2-4.1,5.5-4.3,5.5-0.3C76.8,69.9,76.6,70.7,76.2,71z M73.9,65c-5.5,0-5.3,8.4-0.1,8.5c1.1,0,1.7-0.1,2.5-0.6
					c0.5,0.4,1.3,0.6,2,0.6v-1.3c-0.5,0-0.8-0.1-1-0.3C79.3,69.8,78.4,65,73.9,65z"/>
				<path class="st1" d="M79.5,70.7c0,0.8,0.3,1.5,0.8,2c0.5,0.5,1.5,0.8,2.2,0.8c0.5,0,1.2-0.2,1.7-0.5c0.4-0.3,0.8-0.6,1-1
					c0.2-0.4,0.3-0.9,0.3-1.4V65H84v5.7c0,0.4-0.1,0.8-0.4,1c-0.3,0.2-0.8,0.3-1.1,0.3c-0.3,0-0.9-0.1-1.1-0.3
					c-0.3-0.3-0.4-0.6-0.4-1V65h-1.5C79.5,65,79.5,70.7,79.5,70.7z"/>
				<polygon class="st0" points="91.2,55.2 91.2,53.8 86.2,53.8 86.2,62.8 91.2,62.8 91.2,61.2 88.3,61.2 88.3,59 91.1,59 
					91.1,57.4 88.3,57.4 88.3,55.2 				"/>
				<polygon class="st0" points="23.6,62.6 21.3,62.6 21.3,53.9 24.3,53.9 26.8,58.6 26.8,53.9 29.1,53.9 34.3,62.6 31.7,62.6 
					28.5,57.4 28.4,62.6 26.6,62.6 23.6,57.2 				"/>
				<path class="st0" d="M25.3,67.2c1.2,0,2.1,1,2.1,2.1c0,1.2-0.9,2.2-2.1,2.2s-2.1-1-2.1-2.2C23.1,68.1,24.1,67.2,25.3,67.2z
					 M25.3,65c2.3,0,4.2,1.9,4.2,4.3c0,2.3-1.9,4.3-4.2,4.3c-2.3,0-4.2-1.9-4.2-4.3C21,66.9,22.9,65,25.3,65z"/>
				<path class="st0" d="M34.9,73.6c0,0.1,0,0,0,0.2c1.4,0.8-0.1,1.7-1.3,1.3c0-0.2,0-0.3,0-0.5c1.4,0.3,1.2-0.2,0.8-0.5
					c-0.2-0.2-0.2-0.1-0.2-0.4c0-0.1,0,0.1,0,0c-4-0.5-5.1-6.5-1-8.2c2.3-1,4.9,0.4,5.6,2.6h-2.2c-1-1.9-4.3-1.2-4.1,1.5
					c0.2,2.1,2.8,3.2,4.1,1.3h2.2C38.3,72.4,36.6,73.6,34.9,73.6z"/>
				<polygon class="st0" points="49.4,73.4 47.2,73.4 47.2,65.1 50.1,65.1 52.5,69.6 52.5,65 54.9,65 59.9,73.5 57.3,73.5 
					54.2,68.5 54.2,73.5 52.4,73.5 49.4,68.3 				"/>
				<polygon class="st0" points="67.5,65.1 69.3,65.1 69.3,73.4 67.5,73.4 				"/>
				<polygon class="st0" points="91.2,66.4 91.2,65 86.4,65 86.4,73.5 91.2,73.5 91.2,72.1 88.4,72.1 88.4,70 91.1,70 91.1,68.5 
					88.4,68.5 88.4,66.4 				"/>
				<polygon class="st0" points="11,73.5 8.8,73.5 8.8,65.1 11.7,65.1 14.1,69.7 14.1,65 16.5,65 21.6,73.6 19,73.6 15.9,68.5 
					15.8,73.6 14,73.6 11,68.4 				"/>
			</g>
			<g>
				<path class="st2" d="M14.1,80.6c0-1-1.1-1.7-2.1-1.8c-1.3-0.1-2.5,0.9-2.4,2.6c0,1.4,0.7,2.4,2.1,2.4c1.4,0,2.3-0.4,2.3-2
					c-0.8,0-1.5,0-2.3,0"/>
				<path class="st3" d="M13.6,80.6c0-0.3-0.2-0.5-0.4-0.8c-0.3-0.3-0.7-0.4-1.1-0.5l0,0c0,0-0.1,0-0.2,0l0,0
					c-0.4,0-0.8,0.2-1.1,0.5c-0.3,0.3-0.5,0.7-0.5,1.3l0,0c0,0.1,0,0.2,0,0.3c0,0.6,0.2,1.1,0.5,1.4c0.2,0.3,0.6,0.4,1.1,0.4l0,0
					c0.6,0,1,0,1.3-0.3c0.2-0.1,0.3-0.3,0.3-0.6h-0.5c-0.2,0-0.3,0-1.1,0v-1.1h1.1c0.2,0,0.5,0,1.2,0h0.6l0,0.6c0,1-0.3,1.7-0.9,2
					c-0.5,0.4-1.2,0.5-2,0.5c-0.8,0-1.5-0.3-2-0.8c-0.5-0.5-0.7-1.3-0.7-2.1c0-0.1,0-0.3,0-0.4c0-0.8,0.4-1.5,0.9-2
					c0.5-0.5,1.2-0.8,1.8-0.8l0,0c0.1,0,0.2,0,0.3,0c0.6,0.1,1.3,0.3,1.8,0.8c0.5,0.4,0.8,1,0.8,1.6L13.6,80.6z"/>
				<path class="st3" d="M17.5,78.5c0.8,0,1.9-0.2,2.6,0.2c0.3,0.1,0.5,0.3,0.7,0.6c0.2,0.3,0.3,0.6,0.3,1s-0.1,0.7-0.3,1
					c-0.2,0.3-0.5,0.5-0.8,0.6l1.4,2.3h-1.3l-1.3-2.1h-0.1l0,2.1h-1.1C17.6,84.1,17.5,78.5,17.5,78.5z M18.7,80.9l0.4,0
					c0.5,0,0.9,0,0.9-0.6c0-0.3-0.1-0.5-0.3-0.5c-0.3-0.1-0.7-0.1-1-0.1V80.9z"/>
				<path class="st3" d="M24.6,78.5h1.3v2.7c0,0.5,0,0.8,0.1,1c0,0.2,0.2,0.4,0.3,0.5c0.2,0.1,0.3,0.2,0.5,0.2
					c0.2,0,0.4-0.1,0.5-0.2c0.1-0.1,0.3-0.3,0.3-0.5c0-0.2,0.1-0.5,0.1-1v-2.7h1.3v2.3c0,1,0,1.6-0.2,2c-0.2,0.5-0.4,0.8-0.8,1
					c-0.3,0.3-0.8,0.3-1.3,0.3c-0.6,0-1-0.1-1.4-0.4c-0.3-0.3-0.6-0.7-0.7-1.1c-0.1-0.3-0.2-1-0.2-1.8
					C24.6,80.8,24.6,78.5,24.6,78.5z"/>
				<path class="st4" d="M33.6,82L33.6,82v2.1h-1.1v-5.6c0.8,0,1.8-0.1,2.6,0.2c0.3,0.1,0.5,0.3,0.7,0.6c0.2,0.3,0.3,0.6,0.3,1
					C36,81.6,34.7,82.1,33.6,82z M33.5,80.9h0.4c0.5,0,0.9,0,0.9-0.6c0-0.3-0.1-0.5-0.3-0.5c-0.3-0.1-0.6-0.1-1-0.1
					C33.5,79.6,33.5,80.9,33.5,80.9z"/>
				<path class="st5" d="M41.3,79.5c0.9,0,1.7,0.8,1.7,1.7c0,0.9-0.8,1.7-1.7,1.7s-1.7-0.8-1.7-1.7C39.6,80.3,40.4,79.5,41.3,79.5z
					 M41.3,78.4c1.5,0,2.8,1.3,2.8,2.8S42.8,84,41.3,84c-1.5,0-2.8-1.3-2.8-2.8S39.8,78.4,41.3,78.4z"/>
				<path class="st4" d="M54.7,78.5c-0.4,0-0.7,0-1,0.2c-0.3,0.1-0.6,0.3-0.9,0.6c-0.3,0.3-0.5,0.6-0.6,1c-0.1,0.4-0.2,0.8-0.2,1.3
					c0,0.4,0.1,0.8,0.4,1.2c0.3,0.4,0.6,0.8,1,1c0.4,0.3,0.9,0.4,1.5,0.4c0.5,0,1-0.3,1.5-0.6c0.5-0.4,0.8-0.8,0.9-1.3h-1.4
					c-0.3,0.5-0.7,0.7-1.1,0.7c-0.4,0-0.8-0.2-1-0.4c-0.3-0.3-0.5-0.6-0.5-1c0-0.4,0.1-0.8,0.3-1.2c0.3-0.3,0.6-0.5,1-0.5
					c0.3,0,0.5,0,0.8,0.1c0.2,0.1,0.4,0.3,0.5,0.5h1.4c-0.1-0.3-0.2-0.6-0.5-0.9c-0.2-0.3-0.5-0.6-0.9-0.8
					C55.6,78.6,55.1,78.5,54.7,78.5z"/>
				<polygon class="st5" points="59.7,78.5 60.8,78.5 60.8,84.1 59.7,84.1 				"/>
				<polygon class="st6" points="64.6,84 63.2,84 63.2,78.5 65,78.5 66.7,81.4 66.7,78.5 68.2,78.5 71.5,84 69.8,84 67.8,80.7 
					67.7,84 66.5,84 64.6,80.6 				"/>
				<path class="st4" d="M74.9,82L74.9,82l0,2.1h-1.2v-5.6c0.8,0,1.9-0.1,2.6,0.2c0.3,0.1,0.5,0.3,0.7,0.6c0.2,0.3,0.3,0.6,0.3,1
					C77.4,81.6,76.2,82.1,74.9,82z M74.9,80.9h0.4c0.5,0,0.9,0,0.9-0.6c0-0.3-0.1-0.5-0.3-0.5c-0.3-0.1-0.7-0.1-1-0.1
					C74.9,79.6,74.9,80.9,74.9,80.9z"/>
				<path class="st5" d="M82.5,79.5c0.9,0,1.7,0.8,1.7,1.7c0,0.9-0.8,1.7-1.7,1.7c-0.9,0-1.7-0.8-1.7-1.7
					C80.8,80.3,81.5,79.5,82.5,79.5z M82.5,78.4c1.5,0,2.8,1.3,2.8,2.8S84,84,82.5,84c-1.5,0-2.8-1.3-2.8-2.8S81,78.4,82.5,78.4z"/>
				<path class="st3" d="M87.6,78.5c0.8,0,1.8-0.2,2.6,0.2c0.3,0.1,0.5,0.3,0.7,0.6c0.2,0.3,0.3,0.6,0.3,1s-0.1,0.7-0.3,1
					c-0.2,0.3-0.5,0.5-0.9,0.6l1.4,2.3h-1.2l-1.4-2.1h-0.1v2.1h-1.1C87.6,84.1,87.6,78.5,87.6,78.5z M88.7,80.9l0.4,0
					c0.5,0,0.9,0,0.9-0.6c0-0.3-0.1-0.5-0.3-0.5c-0.3-0.1-0.7-0.1-1-0.1V80.9z"/>
			</g>
			<polygon class="st7" points="8.8,76.1 91.4,76.1 91.4,77.3 8.8,77.3 			"/>
		</g>
		<path class="st8" d="M33,25.7l-6.8-10.1c-10.9,1-17.1,6.8-17.6,18.3c0.3,9.6,5.7,17,15.6,17h20.1V31.2l13.5,19.6h8.8V30.8
			l13.6,20.2h10.9L68.8,15.8H58.2v18.4l-12-18.4h-11v25.1c-3.7,0-7.3,0-10.9,0c-5.9-0.5-8.9-12.7,0-15C24.2,26,33,25.7,33,25.7z"/>
	</g>
</g>
</svg>
