<?xml version="1.0" encoding="utf-8"?>
<!-- Generator: Adobe Illustrator 23.0.4, SVG Export Plug-In . SVG Version: 6.00 Build 0)  -->
<svg version="1.1" id="Layer_1" xmlns:xodm="http://www.corel.com/coreldraw/odm/2003"
	 xmlns="http://www.w3.org/2000/svg" xmlns:xlink="http://www.w3.org/1999/xlink" x="0px" y="0px" viewBox="0 0 100 100"
	 style="enable-background:new 0 0 100 100;" xml:space="preserve">
<style type="text/css">
	.st0{fill:none;stroke:#FFFFFF;stroke-width:0.289;stroke-miterlimit:2.6131;}
	.st1{fill-rule:evenodd;clip-rule:evenodd;fill:#91D9F8;stroke:#373535;stroke-width:0.6647;stroke-miterlimit:2.6131;}
	.st2{fill-rule:evenodd;clip-rule:evenodd;fill:#91D9F8;stroke:#91D9F8;stroke-width:0.6647;stroke-miterlimit:2.6131;}
	.st3{fill-rule:evenodd;clip-rule:evenodd;fill:#91D9F8;stroke:#FFFFFF;stroke-width:0.289;stroke-miterlimit:2.6131;}
	.st4{fill-rule:evenodd;clip-rule:evenodd;fill:#FFFFFF;stroke:#91D9F8;stroke-width:0.6647;stroke-miterlimit:2.6131;}
</style>
<g id="Layer_x0020_1">
	<g id="_105553648479136">
		<path class="st0" d="M29.8,44.3c0.5,0.3,0.8-0.2,0.8-0.3c0-0.2,0.2-0.5,0.4-0.5c0.6-0.2,1.1,0.6,1,1.1c-0.2,0.9,0.4,4.1-0.8,4.9
			c-0.2,0.2-0.8,0.2-0.9,0.1c-0.1-0.1-0.1-0.3-0.3-0.8c-0.5-1.2-0.7-2-1.3-3.1C28.3,44.5,29.3,44,29.8,44.3z"/>
		<path class="st1" d="M36.2,37.9c0,0-1.3,0.5-1.2,1c0.1,0.5,0.7,1.6,0.7,1.6s0.4,0.6,1.4-0.2c0.8-0.6,1.8-2.5,0.1-2.5
			C36.9,37.8,36.2,37.9,36.2,37.9z"/>
		<polygon class="st2" points="52.6,66 52.7,70.2 55.6,71.2 55.2,74.5 52.7,73.8 52.6,77 49.2,76.1 49.4,72.7 45.1,71.4 45.3,67.8 
			49.4,69.2 49.1,65.5 52.7,65.4 		"/>
		<path class="st3" d="M27.1,45.7l1.3,4.1c0.5,1.6,2.2,2.2,3,1.8c1.3-0.6,2-2.8,2.1-5.1c0.1-1.7,0-3.4-1.2-4.6
			c-0.4-0.4-1.4-0.3-2.6-0.3c-0.6,0-1.3,0-1.6,0c-0.3,0-0.4,0.2-0.5,0.4C25.1,45.2,26,43.8,27.1,45.7z M29.8,44.3
			c0.5,0.3,0.8-0.2,0.8-0.3c0-0.2,0.2-0.5,0.4-0.5c0.6-0.2,1.1,0.6,1,1.1c-0.2,0.9,0.4,4.1-0.8,4.9c-0.2,0.2-0.8,0.2-0.9,0.1
			c-0.1-0.1-0.1-0.3-0.3-0.8c-0.5-1.2-0.7-2-1.3-3.1C28.3,44.5,29.3,44,29.8,44.3z"/>
		<polygon class="st2" points="65.1,31.8 67.4,34.2 71.7,24.5 61.7,27.1 63.9,29.6 60.6,32.7 62.5,34.5 		"/>
		<ellipse class="st2" cx="50" cy="47.4" rx="17.5" ry="18.6"/>
		<ellipse class="st4" cx="50.3" cy="46.5" rx="14.7" ry="15.4"/>
		<path class="st3" d="M18.9,51.2c-0.3-0.2-0.4-0.8-0.3-1.3c0.1-0.9,0.3-1.9,1.2-1.8c0.7,0.1,1.3,0.2,1.8-0.1
			c0.5-0.3,1.1-1.2,1.5-1.7c0.1-0.2,0.5-0.4,0.6-0.4c0.2,0,0.5,0.1,0.6,0.5c0.3,0.7,1.2,2.2,0.7,2.7c-0.5,0.5-0.7-0.4-1.1-0.9
			c-0.6-0.7-1.7,0.4-2.2,1.5c-0.3,0.5,0.1,0.8,0.5,1.4c0.2,0.3,0.4,0.9,0.7,1.3c0.7,1,1-0.9,2.7-1.9c0.1-0.1,0.5-0.1,0.6,0.2
			c0.6,1.8-2.7,2.6-2.1,4.6c0.5,1.6,0.6,2.6,0.5,2.8c-0.2,0.5-1-1.1-1.8-2.6C21.9,53.9,20.2,51.9,18.9,51.2z"/>
		<path class="st3" d="M29,40.1c0.1,0.5,0.3,0.7,0.4,0.7c0.1,0,0.2-0.4,0.4-1c0.3-1,0.8-2.5,0.4-2.6c-0.1-0.1-0.3,0-0.4,0.1
			c-0.3,0.1-0.6,0.3-0.7,0.7C28.9,38.7,29,39.8,29,40.1z"/>
		<path class="st3" d="M41.8,32.6c-0.5,1.9-0.1,3.6,0.2,4.9c0.5,2.7,1.7,4.1,3.3,4c2.5-0.2,2.6-3.1,2.5-5.9c0-1.6,0.2-3.3,0.1-4.3
			c-0.1-1.4-1.1-1.5-1.4-1.3c-0.6,0.5-0.5,2.7-0.6,3.5l-0.1,4.7c0,1.8-0.9,1.7-1.5,1c-0.3-0.4-0.5-1.1-0.6-1.6
			c-0.3-1.8-0.1-4.2-0.3-5.2C43.4,31.3,42.2,31.2,41.8,32.6z"/>
		<path class="st3" d="M49.7,35.6c0-1.5-0.1-3.1,0.1-4.5c1-7.2,3.5-0.8,3.9-1.4l2.1-3.5c0.5-0.8,2.4,0.9,3,3.6c0.4,1.8,0,4-0.2,4.8
			c-0.5,2.4-1.6,2.3-1.3-4.4c0.1-1.8-1.6-2.5-2.3-0.2c-0.2,0.6-0.1,1.6-0.2,2.6c-0.2,1.6,0,3.1-0.2,3.7c-0.8,1.9-1.4-1.4-1.5-3
			c-0.1-1.3-0.7-2.5-0.7-2.7c-0.1-0.9-1.3-0.8-1.3-0.3L51,32l-0.1,3.7C50.9,39.5,49.7,38.4,49.7,35.6z"/>
		<path class="st3" d="M37.6,63.3c-0.8-3.4-1.8-7.8,0.3-6.7c0.9,0.5,1.7,1.9,2.1,2.1c0.2,0.1,0.3-0.3,0.3-0.8c0-1.1,0.1-2.4,0-3.5
			c0-0.4,0.4-0.7,0.7-1c0.3-0.4,0.7-0.8,1.1-1.1c0.2-0.1,0.3-0.3,0.5-0.3c0.8,0.1,1,1.4,1.6,3.4c0.5,1.6,1.4,3.4,1.4,6L45,61.6
			c-0.5-0.9-2.4-5.1-3.1-5.2c-0.6-0.1-1,1.5-1,3.8c0,0.7,1.5,2.9,0.9,3.5c-0.2,0.2-1.2-1.4-3.1-3.7c-0.4-0.4-0.8-0.4-0.9-0.2
			c-0.1,0.3,0.1,1.4,0.1,1.9C38.3,64.7,38.8,68.6,37.6,63.3z"/>
		<path class="st3" d="M46.3,56c1.9,3.8,4.2,3.3,5.2,1.1c0.6-1.2,0.3-3.1,0.4-4.8c0.1-2.4-0.3-5.1-1.6-5c-0.4,0.1-0.6,0.4-0.6,0.8
			l0.1,7.4c0.1,2-0.5,2.1-1.1,1.3c-0.8-1.1-1.4-3.6-1.5-4.4c-0.1-0.7-0.3-1.4-0.5-1.9c-0.3-1-0.5-1.6-1.1-1
			c-0.3,0.3-0.6,0.7-0.8,1.5C44.6,52.2,45.7,54.2,46.3,56z"/>
		<path class="st3" d="M53.2,43.5c0,1.6-0.1,3.5,0,5.3c0,0.6,0.1,1.2,0.1,1.7c0,0.1-0.2,0-0.3,0.1c-0.2,0.2-0.1,0.7,0.2,0.7
			c0.1,0,0.4,0.1,0.4,0.1c0,1.1,1.1,3.6,1.8,2.8l3.2-3.5c0.5-0.6,0.2-1,0-1.1c-0.4-0.1-2.9,2.7-3,1.5c-0.2-3.1-0.3-6-0.3-7.7
			c0-0.8,0.2-1.4-0.2-1.6c-0.2-0.1-0.5,0.7-1.1,1.1C53.7,43.4,53.2,43.4,53.2,43.5z"/>
		<path class="st3" d="M58,45.8c0.1,0.6,0.5,0.9,0.9,1.3c0.3,0.4,0.5,0.9,0.8,1.6c0.9,1.4,1.5,0.1,1.3-0.1c-0.5-0.5-0.9-0.8-0.9-1.3
			c0-0.9,1.1-1.8,2.3-1.3c0.4,0.2,0.5,1.6,1.1,2.3c0.5,0.5,1,0.3,0.8-0.9c-0.1-0.6,0-1.3,0-2.2c0-1.6,0.1-3.4,0.2-4.4
			c0.1-1.6,0.5-2.8,0.3-2.9l-1.4-0.2l-1,3.6c-0.2,0.6-0.3,2.3-0.8,3.2c-0.3,0.6-1,0.8-1.6,0.3c-1-0.9,0.2-4.1-0.9-4.6
			C58.3,40,57.6,44.2,58,45.8z"/>
		<path class="st3" d="M69.9,37.7c-1.8,1.2-1.7,1.8-1.2,3.8c1.1-0.3,1.8-0.6,2.2-0.7c0.5-0.1,0.6,0.3,0.3,0.8
			c-0.5,0.8-2.1,1.4-2.5,2.2c-0.4,0.8,0,1.8,0.8,1.5c0.6-0.2,1.6-1.7,1.9-1.5c0.7,0.3-0.2,1.4-1.3,2.2c-3.7,2.7-3.4-1.7-3.4-3.9
			c0-0.9-0.3-1.8,0-2.7C67.8,34.9,74.2,34.8,69.9,37.7z"/>
		<path class="st3" d="M72.6,35.5l0.6,0.8c0.1,0.8-0.1,5.3,0.6,7.3c0.3,0.9,1,1.3,1.3,0.7c0.1-0.4,0-1.2,0.1-2.1h1
			c1,0.6,2.9,2.9,2.9,0.9l0.5-0.6l0.7-0.1l-3.8-2.9c7-2.3,3.4-6.4-2.1-5.3c0,0-0.3,0.4-0.8,0.7c-0.3,0.1-0.8,0.2-1,0.2
			C72.1,34.9,72.6,35.5,72.6,35.5z M75.2,36.3c-0.2,1.6,0.3,3,0.9,2.5l1.9-1.5c0.6-0.6,0.8-1.1,0.5-1.4c-0.5-0.5-2.1-0.5-2.8-0.2
			C75.3,35.9,75.2,36.1,75.2,36.3z"/>
		<path class="st0" d="M75.2,36.3c-0.2,1.6,0.3,3,0.9,2.5l1.9-1.5c0.6-0.6,0.8-1.1,0.5-1.4c-0.5-0.5-2.1-0.5-2.8-0.2
			C75.3,35.9,75.2,36.1,75.2,36.3z"/>
		<path class="st3" d="M36.9,46.7c-0.6-0.3-0.8-1.5-1.1-2.1c-0.8-1.5-1.3-3-1.8-4c-0.5-1-1.1-1.4-1-2.1c0.2-1,1.6-1.4,3.1-1.6
			c1.4-0.3,2.7-0.5,3.5-0.1c2.8,1.5-4.2,4-2.1,5.2c0.7,0.4,1.4,0.1,2,0.1c0.4,0,1-0.1,1.6-0.1c0.3,0,0.6-0.1,0.8,0.1
			c0.4,0.3-0.6,1.4-0.8,1.6c-0.5,0.6-0.7,0.5-1.1,0.5c-0.9,0-1.8,0-2.2-0.1C36,43.4,38.5,47.4,36.9,46.7z M36.2,37.9
			c0,0-1.3,0.5-1.2,1c0.1,0.5,0.7,1.6,0.7,1.6s0.4,0.6,1.4-0.2c0.8-0.6,1.8-2.5,0.1-2.5C36.9,37.8,36.2,37.9,36.2,37.9z"/>
	</g>
</g>
</svg>
