<?xml version="1.0" encoding="utf-8"?>
<!-- Generator: Adobe Illustrator 23.0.4, SVG Export Plug-In . SVG Version: 6.00 Build 0)  -->
<svg version="1.1" id="Layer_1" xmlns:xodm="http://www.corel.com/coreldraw/odm/2003"
	 xmlns="http://www.w3.org/2000/svg" xmlns:xlink="http://www.w3.org/1999/xlink" x="0px" y="0px" viewBox="0 0 100 100"
	 style="enable-background:new 0 0 100 100;" xml:space="preserve">
<style type="text/css">
	.st0{fill:#F27D00;}
	.st1{fill:#003882;}
	.st2{fill-rule:evenodd;clip-rule:evenodd;fill:#F27D00;}
</style>
<g>
	<path class="st0" d="M14.7,55.1c0.3,1.4,0.3,2.6,0.4,3.7c-1.9-0.2-3.7-0.8-5.2-1.7c0.3-1.2,0.4-1.8,1.2-3.2
		c-0.8,1.3-1.2,1.7-2.1,2.6c-1.5-1-2.6-2.3-3.4-3.8c0.8-0.4,1.7-0.8,2.8-1.2c-1.1,0.4-2.1,0.7-3,1c-0.7-1.5-1.1-3.1-1.1-4.8
		c0-0.2,0-0.4,0-0.6c1.4,0,2.7,0.2,4.4,0.7c-1.7-0.6-3-1.2-4.2-2c0.3-1.8,1.1-3.5,2.3-4.9c0.9,0.9,1.9,2,3,3.4
		c-1.1-1.4-2-2.7-2.7-3.8c1.3-1.4,2.9-2.5,4.8-3.2c0.6,1.4,1.1,3,1.4,5c0-2.1,0.2-4,0.6-5.6c0.8-0.2,1.6-0.2,2.4-0.2
		c1.2,0,2.3,0.2,3.4,0.4c-0.5,1.8-1.1,3.5-2.5,6.1c1.5-2.7,2.6-4.2,3.8-5.6c1.8,0.7,3.3,1.8,4.5,3.1c-1.1,1.8-2.9,3.7-5.6,5.4
		c3.2-1.5,5.9-1.8,7.9-1.6c0.4,1.1,0.6,2.2,0.6,3.4c0,0.7-0.1,1.4-0.2,2.1c-1.9,0.5-4.1,0.7-7.7,0.3c3.4,0.4,5.5,1,7.1,1.7
		c-0.7,1.7-1.9,3.3-3.4,4.4c-1.7-0.4-3.7-1.2-5.7-2.7c1.5,1.5,2.5,3,3.1,4.4c-1.5,0.7-3.3,1-5.1,1c-0.3,0-0.5,0-0.7,0
		C15.3,57.7,15,56.6,14.7,55.1L14.7,55.1z M8.8,48.5c0,3,2.5,5.5,5.5,5.5c3.1,0,5.5-2.5,5.5-5.5S17.3,43,14.3,43
		C11.2,43,8.8,45.5,8.8,48.5z"/>
	<path class="st1" d="M40,50.4L40,50.4l0.1,7c0,1.1-0.1,2.5-0.6,3.4c-0.8,1.6-3,2.2-5.1,2.3l-0.5-1.9c3.3-0.3,3.8-0.9,3.7-3
		c-0.7,0.3-1.5,0.6-2.3,0.5c-2.7,0-4-2.6-4-5c0-2.1,1.2-5.2,4-5.2C37,48.6,38.7,49.3,40,50.4z M35.9,50.6c-1.5,0-1.8,2-1.8,3.1
		c0,1,0.4,3,1.8,3c0.7,0,1.2-0.3,1.8-0.7v-4.9C37,50.9,36.5,50.6,35.9,50.6z"/>
	<path class="st1" d="M41.8,46.4c0-0.9,0.7-1.5,1.5-1.5c0.9,0,1.5,0.7,1.5,1.5c0,0.9-0.7,1.5-1.5,1.5C42.5,47.9,41.8,47.2,41.8,46.4
		z M42.1,48.8h2.5v9.7h-2.5V48.8z"/>
	<path class="st1" d="M51,48.6c0.8,0,1.8,0.3,1.8,0.3l-1,2.1c0,0-0.5-0.2-1.1-0.2c-0.6,0-1.1,0.2-1.5,0.5v7.2h-2.5v-7.9
		C47.5,49.6,49.4,48.6,51,48.6z"/>
	<path class="st1" d="M61,51.7l0,5.3c0,0-1.5,1.8-4.5,1.8c-1.9,0-3.4-1.6-3.4-3.4c0-1.9,1.5-3.2,3.6-3.2h1.8v-0.3
		c0-0.7-0.7-1.1-1.3-1.1c-1.3,0-2.6,0.8-2.6,0.8l-0.8-1.8c0,0,1.6-1.1,3.7-1.1C59.2,48.6,61,49.7,61,51.7z M57.1,54.1
		c-0.9,0-1.4,0.5-1.4,1.2c0,0.7,0.6,1.5,1.5,1.5c0.5,0,1-0.3,1.3-0.5v-2.2L57.1,54.1z"/>
	<path class="st1" d="M67.8,53c0.9,0.4,2,1.2,2,2.7c0,2.2-2.1,3.2-3.9,3.2c-2,0-3.4-1.4-3.4-1.4l1-1.7c0,0,1.2,1,2.4,1
		c0.5,0,1.2-0.1,1.5-0.7c0.4-0.9-1.2-1.3-2-1.6c-1.2-0.5-2.6-1-2.6-2.8c0-2,1.8-3.1,3.5-3.1c1.5,0,3.2,1.1,3.2,1.1l-1,1.8
		c0,0-1-0.7-2.1-0.8c-0.6,0-1.1,0.2-1.2,0.8C65,52.1,66.3,52.3,67.8,53z"/>
	<path class="st1" d="M76.2,53c0.9,0.4,2,1.2,2,2.7c0,2.2-2.1,3.2-3.9,3.2c-2,0-3.4-1.4-3.4-1.4l1-1.7c0,0,1.2,1,2.3,1
		c0.5,0,1.3-0.1,1.5-0.7c0.4-0.9-1.2-1.3-1.9-1.6c-1.2-0.5-2.6-1-2.6-2.8c0-2,1.7-3.1,3.5-3.1c1.5,0,3.2,1.1,3.2,1.1l-1,1.8
		c0,0-1-0.7-2.1-0.8c-0.6,0-1.1,0.2-1.2,0.8C73.5,52.1,74.7,52.3,76.2,53z"/>
	<path class="st1" d="M83.1,56.5c0.3,0.3,0.6,0.4,1,0.4c0.8,0,1.9-0.4,1.9-3.3c0-0.4,0-0.9-0.2-1.3c-0.2-0.9-0.7-1.6-1.8-1.6
		c-0.7,0-1.3,0.4-1.6,1.1c-0.2,0.4-0.3,1-0.3,1.7c0,0.2,0,0.4,0,0.6C82.4,55,82.5,55.9,83.1,56.5z M84.2,48.6c3,0,4.5,2.5,4.5,5
		c0,1.6-0.8,5.2-4.6,5.2c-3.1,0-4.4-2.7-4.4-5.2C79.6,50,82.1,48.6,84.2,48.6z"/>
	<path class="st1" d="M94,57c-1.1,0-1.3-0.2-1.3-0.9V44.3h-2.4v11.8c0,0.8,0.3,1.5,0.8,2c0.7,0.6,1.6,0.9,2.9,0.8l0.3,0V57
		C94.3,57,94,57,94,57z"/>
	<path class="st0" d="M56.1,65h1.6c0-0.6-0.3-1.1-0.8-1.1C56.4,63.9,56.2,64.4,56.1,65z M56,67.4c-0.5-0.4-0.8-1.1-0.8-1.8
		c0-1.1,0.5-2.4,1.8-2.4c1.3,0,1.7,0.9,1.7,2.3h-2.6c0,1,0.5,1.6,1.2,1.6c0.4,0,0.8-0.2,1.2-0.4l0.3,0.5c-0.3,0.2-0.5,0.3-0.9,0.4
		C57.3,67.9,56.5,67.9,56,67.4z M55.7,62.4l2.1-1.3l0.4,0.8l-2,1L55.7,62.4z"/>
	<path class="st0" d="M52.9,64h-0.4v-0.7h0.4v-1.1h0.9v1.1h0.8V64h-0.8v2.7c0,0.5,0.2,0.6,0.8,0.6v0.6c-1,0.1-1.7-0.3-1.7-1.1
		C52.9,66.7,52.9,64,52.9,64z"/>
	<path class="st0" d="M48.8,65.4c0,0.8,0.3,1.7,1,1.7c0.9,0,1-0.9,1-1.7c0-0.7-0.3-1.5-1-1.5C49.1,63.9,48.8,64.7,48.8,65.4z
		 M47.8,65.4c0-1.2,0.8-2.2,2-2.2c1.3,0,2,1,2,2.2c0,1.2-0.7,2.4-2,2.4C48.5,67.8,47.8,66.6,47.8,65.4z"/>
	<path class="st2" d="M46.1,67.7H47v-3.1c0-0.8-0.5-1.4-1.4-1.4c-0.5,0-0.9,0.2-1.4,0.4v-2.6h-0.9v6.6h0.9v-3.3
		c0.3-0.3,0.7-0.5,1.1-0.5c0.5,0,0.7,0.5,0.7,0.9C46.1,64.9,46.1,67.7,46.1,67.7z"/>
	<path class="st0" d="M59.6,62c0-0.3,0.3-0.6,0.6-0.6s0.6,0.3,0.6,0.6c0,0.3-0.3,0.6-0.6,0.6S59.6,62.3,59.6,62z M59.7,63.3h0.9v4.4
		h-0.9V63.3z"/>
	<path class="st0" d="M61.4,67.3l0.3-0.6c0.3,0.3,0.8,0.4,1.1,0.4c0.4,0,0.9-0.2,0.9-0.6c0-0.3-0.3-0.4-0.9-0.7
		c-0.6-0.2-1.2-0.4-1.2-1.2c0-0.9,0.8-1.3,1.5-1.3c0.4,0,0.9,0.2,1.3,0.4L64,64.2c-0.4-0.2-0.7-0.3-0.9-0.3c-0.4,0-0.7,0.2-0.7,0.5
		c0,0.4,0.6,0.5,1,0.7c0.3,0.1,1.2,0.4,1.2,1.3c0,1-0.9,1.4-1.7,1.4C62.4,67.8,61.9,67.6,61.4,67.3z"/>
</g>
</svg>
