<?xml version="1.0" encoding="utf-8"?>
<!-- Generator: Adobe Illustrator 23.0.4, SVG Export Plug-In . SVG Version: 6.00 Build 0)  -->
<svg version="1.1" id="Layer_1" xmlns:xodm="http://www.corel.com/coreldraw/odm/2003"
	 xmlns="http://www.w3.org/2000/svg" xmlns:xlink="http://www.w3.org/1999/xlink" x="0px" y="0px" viewBox="0 0 100 100"
	 style="enable-background:new 0 0 100 100;" xml:space="preserve">
<style type="text/css">
	.st0{fill-rule:evenodd;clip-rule:evenodd;fill:#373535;}
	.st1{fill-rule:evenodd;clip-rule:evenodd;fill:#FFF215;}
	.st2{fill-rule:evenodd;clip-rule:evenodd;fill:#70D0F6;}
	.st3{fill-rule:evenodd;clip-rule:evenodd;fill:#1561AC;}
	.st4{fill-rule:evenodd;clip-rule:evenodd;fill:#EE3338;}
	.st5{fill-rule:evenodd;clip-rule:evenodd;fill:#C96F4E;}
	.st6{fill-rule:evenodd;clip-rule:evenodd;fill:#FFFFFF;}
	.st7{fill-rule:evenodd;clip-rule:evenodd;fill:#C23033;}
	.st8{fill-rule:evenodd;clip-rule:evenodd;fill:#2BB455;}
	.st9{fill-rule:evenodd;clip-rule:evenodd;fill:#B72E31;}
</style>
<g id="Layer_x0020_1">
	<path class="st0" d="M73.8,20.1c0-0.1,0-0.1,0-0.1c0-0.2-0.1-0.3-0.2-0.4c0,0.1-0.1,0.2-0.2,0.3l0,0L73.8,20.1L73.8,20.1L73.8,20.1
		z M71.9,21.9c0.4,0.1,0.7,0.2,1.1,0.4l0,0v-0.1l0,0c0-0.1,0-0.1,0-0.1l0,0l-0.6-0.3l0,0C72.2,21.9,72.1,22,71.9,21.9L71.9,21.9
		L71.9,21.9C71.9,21.9,71.9,21.9,71.9,21.9z M50,89.2c0,0-12.6,5.2-14.7,1.9c0,0-2.6-0.5-2.4-1.7c0,0-1.9-0.3-1.7-1.7
		c0,0-1.5-0.6-1.2-1.4l0,0L16.7,69.2l0,0c0,0-1.2-0.8-1.4-1.2c-0.2-0.4-7.4-13.6-7.4-13.6s-0.2-1.1,0-2.2c0.2-1-0.2-16.1-0.2-16.1
		s0.4-1.5,0-2.5c-0.4-1.1,0.7-2.2,1.4-3c0.7-0.9,2.1-2.4,3.3-5s2.7-2.8,3.7-3.3s4.3-3,4.3-3s0.1-1.1,1.4-1.9c1.3-0.7,1.9-3,1.9-3
		s1-2.3,5.3-3.3c0,0,6.8-2.8,7.6-3.3c0.7-0.4-8.4,7.1-8.4,7.1l0,0l-0.6,1.1l5-1.8l-3.5,3.5l0,0c0,0,6.5-4.3,8.1-5l0,0v0.8l0,0
		c0,0-10.1,5.1-12.6,8.2l0,0l0.1,1l0.5-0.3l0,0c0,0,5.1-4.5,12-7.8l0,0l0.3,0.6l0,0c0,0-5.6,2.4-10.8,6.8l0,0l1.7-0.1l0,0
		c0,0,3.3-3.1,9.3-6.1l0,0v0.6l0,0c0,0-4.3,2.6-7,4.5c0,0,3.7-0.6,5-0.6c0,0-8.1,3.4-11.4,8.2l0,0l-0.5,3l50.4-2l0,0
		c0,0-0.4-1.2-0.2-2.8c0,0-1.7-2.2-7.6-5.4c0,0,2.6-0.1,5.2,0.7c-0.2-0.1-0.4-0.4-0.3-0.6l0,0l-0.5-0.3l0,0
		c-0.2,0.1-0.4,0.2-0.6,0.1c-0.5,0-0.9-0.3-0.9-0.7c0-0.1,0-0.1,0-0.2l0,0L68.6,20l0,0c-0.1,0.1-0.3,0.1-0.6,0.1
		c-0.5,0-0.9-0.4-0.9-0.7l0,0v-0.1l-0.4-0.2l0,0c-0.2,0.1-0.4,0.2-0.7,0.2c-0.6-0.1-0.9-0.4-0.9-0.7c0-0.1,0.1-0.2,0.1-0.2l0,0
		l-0.5-0.2l0,0c-0.1,0.2-0.4,0.2-0.7,0.2c-0.4,0-0.7-0.2-0.7-0.6c0-0.1,0-0.1,0.1-0.2l0,0L63,17.4l0,0c-0.1,0.1-0.2,0.2-0.4,0.2
		c-0.4,0-0.6-0.2-0.6-0.5C61.9,17,62,17,62,17l0,0l-0.7-0.3l0.1-0.2l0,0c0.2,0.1,0.6,0.2,0.8,0.3c0.1-0.1,0.2-0.1,0.4-0.1
		c0.3,0,0.6,0.2,0.6,0.4l0,0l0.5,0.2l0,0c0.1-0.1,0.3-0.1,0.5-0.1c0.4,0,0.7,0.3,0.7,0.6l0,0l0.6,0.3l0,0c0.1-0.1,0.4-0.2,0.7-0.2
		c0.5,0,0.9,0.3,0.9,0.7c0,0.1,0,0.1,0,0.2l0,0l0.4,0.2l0,0c0.2-0.2,0.5-0.4,0.8-0.4c0.5,0.1,0.9,0.4,0.9,0.7c0,0.1-0.1,0.2-0.2,0.4
		l0,0l0.4,0.1l0,0c0.1-0.2,0.4-0.2,0.7-0.2c0.6,0,0.9,0.3,0.9,0.7c0,0.1-0.1,0.2-0.1,0.3l0,0l0.3,0.2l0,0c0.2-0.2,0.5-0.4,0.9-0.4
		c0.5,0,0.9,0.3,0.9,0.7c0,0.1-0.1,0.3-0.2,0.4l0,0l0.4,0.2l0.1-1.1l0,0c0,0,0.3,0,0.6-0.2c0-0.1,0-0.2,0-0.2l0,0l-0.4-0.2l0,0
		c-0.2,0.1-0.4,0.1-0.6,0.1c-0.5-0.1-0.9-0.4-0.9-0.7l0,0v-0.1l-0.5-0.2l0,0c-0.2,0.1-0.4,0.2-0.6,0.2c-0.5-0.1-0.9-0.4-0.9-0.7
		c0-0.1,0-0.1,0-0.1l0,0l-0.4-0.2l0,0c-0.2,0.1-0.4,0.1-0.6,0.1c-0.5,0-0.9-0.3-0.9-0.7l0,0l-0.5-0.2l0,0c-0.2,0.2-0.4,0.2-0.7,0.2
		c-0.6-0.1-0.9-0.4-0.9-0.7c0-0.1,0-0.1,0.1-0.2l0,0l-0.6-0.2l0,0c-0.1,0.1-0.4,0.2-0.6,0.2c-0.4,0-0.7-0.2-0.7-0.6
		c0-0.1,0-0.1,0.1-0.2l0,0l-0.4-0.2l0,0c-0.1,0.1-0.2,0.2-0.5,0.2c-0.3,0-0.6-0.2-0.6-0.4c0-0.1,0.1-0.1,0.1-0.2l0,0l-0.6-0.2v-0.3
		l0,0c0.2,0.1,0.5,0.2,0.8,0.4c0.1-0.1,0.2-0.1,0.3-0.1c0.3,0,0.6,0.2,0.6,0.4l0,0l0.5,0.2l0,0c0.1-0.1,0.3-0.1,0.5-0.1
		c0.4,0.1,0.7,0.3,0.7,0.6c0,0.1,0,0.1,0,0.1l0,0l0.6,0.2l0,0c0.2-0.2,0.4-0.2,0.7-0.2c0.5,0,0.9,0.4,0.9,0.7c0,0.1,0,0.2-0.1,0.2
		l0,0l0.4,0.2l0,0c0.1-0.2,0.5-0.4,0.9-0.4c0.5,0.1,0.9,0.4,0.9,0.7c-0.1,0.2-0.1,0.3-0.2,0.4l0,0l0.3,0.2l0,0
		c0.2-0.2,0.5-0.4,0.9-0.4c0.5,0,0.9,0.3,0.9,0.7c0,0.1-0.1,0.2-0.2,0.4l0,0l0.3,0.2l0,0c0.2-0.2,0.5-0.4,0.9-0.4
		c0.1,0,0.2,0,0.3,0.1l0,0l-1.6-1.2l0,0c-0.4,0-0.8-0.2-0.9-0.6l0,0l-0.6-0.4l0,0c-0.1,0.1-0.2,0.1-0.4,0.1c-0.5,0-0.9-0.3-0.9-0.7
		c0-0.1,0-0.1,0-0.2l0,0l-0.4-0.2l0,0c-0.2,0.2-0.5,0.4-0.8,0.4c-0.6-0.1-0.9-0.4-0.9-0.7c0-0.1,0.1-0.2,0.1-0.3l0,0l-0.5-0.2l0,0
		c-0.1,0.2-0.4,0.3-0.7,0.3c-0.4,0-0.7-0.2-0.7-0.6c0-0.1,0.1-0.2,0.1-0.2l0,0l-0.3-0.1l0,0c-0.1,0.1-0.3,0.2-0.6,0.2
		c-0.3,0-0.6-0.2-0.6-0.5c0,0,0-0.1,0.1-0.1c-0.4-0.1-0.7-0.2-1.1-0.4l0,0l0.1-0.2l0,0c0,0,0.4,0.1,1.1,0.4c0.1-0.1,0.3-0.1,0.5-0.1
		c0.3,0,0.6,0.2,0.6,0.4c0,0.1,0,0.1,0,0.1l0,0l0.4,0.1l0,0c0.2-0.1,0.4-0.2,0.6-0.2c0.4,0,0.7,0.3,0.7,0.6c0,0.1,0,0.1,0,0.1l0,0
		l0.6,0.2l0,0c0.1-0.1,0.2-0.1,0.4-0.1l0,0l-0.2-0.1l0.4,0.1l0,0c0.1,0,0.1,0,0.2,0c0.2,0,0.4,0.1,0.5,0.1l0,0l4.3,0.9l0,0
		c-0.3-0.5-0.9-1.2-2-1.9l0,0l-8.3-6.2l11.5,5.3l0,0c0,0,2.3,0.1,4.3,5.8l0,0l5.5,2.8l0,0c0,0,3.1,3.5,3.8,4
		c0.7,0.6,2.5,3.7,2.5,3.7l0,0l1.1,1.1l0,0c0,0,0.8,0.1,0.7,2c-0.1,1.9,0,3.5,0,3.5s0.2,1.6-0.1,2.3c0,0,0.7,1.3,0.5,2.7
		c-0.2,1.4-0.4,11.8-0.4,11.8s-1.4,4.8-3.1,6.4l0,0l-3.7,8.3l0,0c0,0-1,1.4-2.1,1.5c-1.1,0.1-2.6,1.9-2.6,1.9s-1.7,1.4-3.4,0.7
		c0,0-3,0.9-3.5-1.4c0,0-1.9,0.4-1.7-1.6c0,0,0-1.3,0.4-1.6l0,0l5-8.4l1.2-2.8l2.5-9.3l0,0c0,0-0.7-0.7-0.1-2c0,0-1.1,0-0.6-2
		c0,0-1.1-0.3-0.6-1.9c0,0-0.7-0.6-0.2-1.5c0,0-1-0.4-0.5-1.6c0,0-0.9-0.5-0.4-1.2c0,0-0.9-0.3-0.6-1.9c0,0-0.3,0.2-1-0.9
		c0,0-0.9-0.5-0.9-1.2c0.1-0.7-52.2,0.6-52.2,0.6l0,0l-0.2,5.8l-3.2,9.3l2.3,8.7l1.1,2.7l3.4,7.5l2.9,3.3l40.6,2l0.2,14.5l0,0
		c0,0-0.3,0.9-1.4,0.9c0,0,0.4,1.2-1.6,1.9c0,0-0.2,1.3-2.4,1.7c0,0-0.3,1.4-4.8,1.1c0,0-6.7-0.4-9.6-2.8l0,0L50,89.2L50,89.2
		L50,89.2z"/>
	<path class="st0" d="M73.6,19.6c0,0.1-0.1,0.2-0.2,0.3l0,0L73.3,20l0.5,0.2l0.1-0.1V20l0,0c-0.1-0.2-0.1-0.3-0.2-0.4l0,0l-0.1-0.1
		L73.6,19.6C73.6,19.6,73.6,19.6,73.6,19.6z M73.7,19.7c0.1,0.1,0.1,0.2,0.1,0.3c0,0,0,0.1,0,0.1c-0.1-0.1-0.2-0.1-0.3-0.2
		C73.6,19.9,73.7,19.8,73.7,19.7L73.7,19.7L73.7,19.7z"/>
	<path class="st0" d="M72.4,21.9c-0.1,0.1-0.2,0.1-0.4,0.1l0,0h-0.1V22l1.1,0.4v-0.1v-0.1l0,0v-0.1l0,0l0,0l-0.1-0.1L72.4,21.9
		L72.4,21.9C72.4,21.9,72.4,21.9,72.4,21.9z M72.4,21.9c0.1,0,0.4,0.2,0.5,0.2c0,0.1,0,0.1,0,0.1l0,0l0,0l0,0
		C72.7,22.2,72.3,22,72,22C72.2,22,72.3,22,72.4,21.9L72.4,21.9C72.4,21.9,72.4,21.9,72.4,21.9z"/>
	<path class="st0" d="M62.1,7.6l8.3,6.2l0,0c0.9,0.5,1.5,1.1,1.9,1.7c-0.2,0-4.1-0.9-4.1-0.9c-0.1-0.1-0.3-0.2-0.5-0.2h-0.2l0,0l0,0
		l0,0l-0.4-0.1l0,0L67,14.4l0,0c0,0,0.1,0.1,0.1,0.1c-0.1,0-0.2,0.1-0.2,0.1c0-0.1-0.4-0.2-0.5-0.2v-0.1l0,0c0-0.4-0.4-0.6-0.8-0.7
		c-0.2,0-0.4,0.1-0.6,0.2c0,0-0.2-0.1-0.3-0.1v-0.1l0,0c0-0.1-0.1-0.2-0.1-0.3c-0.1-0.1-0.3-0.2-0.5-0.2c-0.2,0-0.4,0.1-0.5,0.2
		c-0.1-0.1-1.1-0.4-1.1-0.4l0,0V13l-0.1,0.2l0,0c0,0,1,0.4,1.1,0.4c0,0.1-0.1,0.1-0.1,0.1c0,0.1,0,0.1,0,0.1c0,0.1,0.1,0.2,0.2,0.3
		c0.1,0.1,0.2,0.2,0.4,0.2c0.2,0,0.4-0.1,0.6-0.2c0,0,0.2,0.1,0.3,0.1c-0.1,0.1-0.1,0.1-0.1,0.2v0.1c0,0.1,0.1,0.2,0.2,0.4
		c0.1,0.1,0.4,0.2,0.6,0.2c0.3,0,0.6-0.1,0.7-0.3c0.1,0,0.4,0.2,0.4,0.2c-0.1,0.1-0.1,0.2-0.1,0.3l0,0c0,0.2,0.1,0.4,0.2,0.5
		c0.2,0.1,0.4,0.2,0.7,0.2c0.3,0.1,0.6-0.1,0.8-0.3c0.1,0,0.3,0.1,0.3,0.2v0.1c0,0,0,0,0,0.1c0,0.1,0.1,0.3,0.2,0.4
		c0.2,0.2,0.4,0.3,0.7,0.3c0.2,0,0.3-0.1,0.4-0.1c0.1,0,0.5,0.4,0.5,0.4c0.1,0.3,0.4,0.6,0.9,0.6l0,0l0,0l0,0c0,0,1.1,0.8,1.4,1.1
		c-0.1-0.1-0.1-0.1-0.1-0.1c-0.4,0-0.7,0.2-0.9,0.4c-0.1,0-0.2-0.1-0.2-0.1c0.1-0.1,0.1-0.2,0.1-0.4v-0.1c0-0.1-0.1-0.3-0.2-0.4
		c-0.2-0.2-0.4-0.3-0.7-0.3c-0.4,0-0.7,0.1-0.9,0.4c0,0-0.2-0.1-0.2-0.1c0.1-0.1,0.2-0.2,0.2-0.4l0,0c0-0.4-0.4-0.7-0.9-0.7
		c-0.4,0-0.7,0.1-0.9,0.4c-0.1,0-0.2-0.1-0.3-0.1c0-0.1,0.1-0.2,0.1-0.2l0,0c0-0.4-0.4-0.7-0.9-0.8c-0.3,0-0.6,0.1-0.7,0.2
		c-0.1,0-0.4-0.2-0.5-0.2V16l0,0c0-0.1-0.1-0.3-0.2-0.4c-0.1-0.2-0.4-0.2-0.6-0.2c-0.2-0.1-0.4,0-0.5,0.1c-0.1-0.1-0.4-0.2-0.4-0.2
		c-0.1-0.2-0.3-0.4-0.6-0.4c0,0-0.2,0.1-0.3,0.1l-0.9-0.4l0,0v0.4l0,0c0,0,0.5,0.2,0.6,0.2c0,0.1-0.1,0.2-0.1,0.2l0,0
		c0,0.1,0.1,0.2,0.2,0.3c0.1,0.1,0.2,0.2,0.4,0.2c0.2,0,0.4-0.1,0.5-0.2c0.1,0,0.2,0.1,0.3,0.1c0,0.1-0.1,0.2-0.1,0.2
		c0,0.1,0,0.1,0,0.1c0,0.3,0.4,0.6,0.8,0.6c0.2,0,0.5-0.1,0.7-0.2c0,0,0.4,0.2,0.4,0.2c0,0.1-0.1,0.2-0.1,0.2l0,0
		c0,0.2,0.1,0.4,0.2,0.5c0.2,0.2,0.4,0.2,0.7,0.2c0.2,0.1,0.5-0.1,0.7-0.2c0.1,0,0.4,0.2,0.4,0.2c0,0.1,0.1,0.3,0.2,0.4
		c0.2,0.2,0.4,0.3,0.7,0.3c0.2,0,0.4-0.1,0.6-0.1c0,0,0.3,0.2,0.4,0.2c0,0.1,0,0.1,0,0.1l0,0c0,0.4,0.4,0.7,0.9,0.7
		c0.2,0,0.4-0.1,0.6-0.1c0.1,0,0.4,0.2,0.4,0.2v0.1l0,0c0,0.2,0.1,0.4,0.2,0.5c0.2,0.2,0.4,0.2,0.7,0.2c0.2,0.1,0.4,0,0.6-0.1
		c0,0,0.4,0.2,0.4,0.2c-0.1,0.1-0.1,0.2-0.1,0.2c-0.2,0.2-0.5,0.2-0.5,0.2l0,0h-0.1l0,0c0,0-0.1,1-0.1,1.1c-0.1-0.1-0.2-0.1-0.2-0.2
		c0.1-0.1,0.2-0.2,0.2-0.4v-0.1c0-0.4-0.4-0.7-0.9-0.7c-0.4,0-0.7,0.1-0.9,0.4l-0.2-0.1c0.1-0.1,0.1-0.2,0.1-0.3c0-0.1,0-0.1,0-0.1
		c0-0.1-0.1-0.3-0.2-0.4c-0.2-0.2-0.4-0.3-0.7-0.3c-0.3,0-0.6,0.1-0.7,0.3c-0.1-0.1-0.2-0.1-0.3-0.2c0.1-0.1,0.1-0.2,0.1-0.3l0,0
		c0-0.2-0.1-0.3-0.2-0.5c-0.2-0.1-0.4-0.2-0.7-0.2c-0.3-0.1-0.6,0.1-0.8,0.3c-0.1-0.1-0.3-0.1-0.4-0.2c0.1-0.1,0.1-0.1,0.1-0.1
		s0,0,0-0.1c0-0.1-0.1-0.3-0.2-0.4c-0.2-0.2-0.5-0.3-0.7-0.3c-0.3,0-0.5,0.1-0.7,0.2c-0.1,0-0.5-0.2-0.6-0.2c0-0.4-0.4-0.6-0.8-0.7
		c-0.2,0-0.4,0.1-0.5,0.1c0,0-0.4-0.1-0.4-0.1c0-0.3-0.3-0.5-0.6-0.5c-0.1,0-0.2,0-0.4,0.1l-0.8-0.3l0,0l-0.2,0.2l0,0
		c0,0,0.7,0.3,0.7,0.3c0,0.1-0.1,0.1-0.1,0.1c0,0.1,0,0.1,0,0.1c0,0.1,0.1,0.2,0.2,0.2c0.1,0.1,0.2,0.2,0.4,0.2
		c0.2,0,0.4-0.1,0.5-0.2c0.1,0,0.2,0.1,0.3,0.1c0,0.1-0.1,0.2-0.1,0.2s0,0,0,0.1c0,0.3,0.4,0.6,0.8,0.6c0.2,0,0.5-0.1,0.7-0.2
		c0.1,0,0.4,0.2,0.4,0.2c0,0.1-0.1,0.2-0.1,0.2l0,0c0,0.2,0.1,0.3,0.2,0.5c0.2,0.1,0.4,0.2,0.7,0.2c0.2,0,0.6-0.1,0.7-0.2
		c0,0,0.3,0.1,0.4,0.1c0,0.1,0,0.1,0,0.1s0,0,0,0.1c0,0.1,0.1,0.3,0.2,0.4c0.2,0.2,0.4,0.3,0.7,0.3c0.2,0,0.4-0.1,0.6-0.1
		c0,0,0.4,0.1,0.4,0.2s0,0.1,0,0.1l0,0c0,0.2,0.1,0.3,0.2,0.4c0.2,0.2,0.5,0.3,0.7,0.3c0.2,0,0.4-0.1,0.6-0.1c0,0,0.4,0.2,0.4,0.2
		c0,0.2,0.1,0.3,0.2,0.4C68.6,21,66.2,21,66.2,21l0,0L66,21.1l0.1,0.1l0,0c5.8,3.2,7.6,5.4,7.6,5.4c-0.1,0.2-0.1,0.5-0.1,0.7
		c0,1.1,0.2,1.8,0.3,2c-0.1,0-50.1,1.9-50.2,1.9c0-0.1,0.5-2.9,0.5-2.9c3.2-4.7,11.3-8.1,11.3-8.1l0,0v-0.1l0,0
		c-1.1,0-4,0.4-4.8,0.6c2.7-1.9,6.7-4.4,6.8-4.4l0,0l0,0v-0.7l-0.1,0.1l0,0c-5.9,3-9.3,6.1-9.3,6.1s-1.2,0.1-1.5,0.1
		c5-4.3,10.6-6.7,10.6-6.7l0,0l0.1-0.1l-0.3-0.7H37l0,0c-6.8,3.3-12,7.8-12.1,7.9l0,0l0,0l0,0c0,0-0.2,0.2-0.4,0.2
		c0-0.1-0.1-0.9-0.1-0.9c2.4-3,12.5-8,12.6-8.1l0,0l0,0v-0.9L37,12.6l0,0c-1.4,0.6-6.3,3.8-7.7,4.7c0.5-0.5,3.2-3.2,3.2-3.2l0,0
		v-0.1l0,0c0,0-4.6,1.7-4.8,1.7c0.1-0.1,0.5-1,0.5-1c6.9-5.7,8.2-6.7,8.4-7l0,0l0,0l0,0l0,0c0-0.1,0-0.1,0-0.1l0,0
		c0-0.1-0.1-0.1-0.1,0c-0.7,0.4-7.5,3.3-7.5,3.3c-4.3,1.1-5.3,3.3-5.3,3.3c0,0.1-0.6,2.4-1.9,3.1c-1.2,0.7-1.4,1.7-1.4,1.8
		c-0.1,0.1-3.3,2.5-4.2,3l0,0l-0.6,0.3l0,0c-0.9,0.4-2.1,1-3.1,3c-1.1,2.2-2.3,3.7-3,4.6l0,0l-0.2,0.3L8.7,31l0,0
		c-0.6,0.7-1.2,1.4-1.2,2.2c0,0.1,0,0.3,0.1,0.4c0.2,0.4,0.2,0.7,0.2,1.1c0,0.7-0.2,1.4-0.2,1.4c0,0.1,0.4,9.7,0.4,14
		c0,1.1-0.1,1.9-0.1,2c-0.1,0.4-0.1,0.7-0.1,1.1c0,0.6,0.1,1.1,0.1,1.1C8,54.5,15.1,67.6,15.2,68s1.4,1.2,1.4,1.2s13,17,13.2,17.3
		c-0.1,0.1-0.1,0.1-0.1,0.2c0,0.1,0,0.2,0.1,0.2c0.2,0.5,1.1,0.9,1.2,0.9c0,0,0,0,0,0.1c0,1.2,1.5,1.5,1.7,1.6c0,0,0,0,0,0.1
		c0,1.1,2.3,1.5,2.5,1.5c2.1,3.3,14.2-1.6,14.7-1.9c0,0,0.9-0.2,1-0.2c2.8,2.5,9.5,2.8,9.6,2.8c4.3,0.3,4.8-0.9,4.9-1.1
		c1.9-0.4,2.3-1.6,2.3-1.7c1.5-0.5,1.7-1.2,1.7-1.7c0-0.1,0-0.2,0-0.2c1.1-0.1,1.4-1,1.4-1l0,0l0,0l0,0c0-0.2-0.2-14.5-0.2-14.5l0,0
		v-0.1l0,0c0,0-40.6-2-40.7-2c0-0.1-2.8-3.3-2.8-3.3l-3.4-7.5l0,0l-1.1-2.7l-2.3-8.7l0,0l3.2-9.2c0-0.1,0.1-5.4,0.2-5.8
		c17.8-0.5,51.5-1.2,52.1-0.7c-0.1,0.7,0.9,1.2,0.9,1.2c0.4,0.7,0.7,0.9,0.9,1c0.1,0,0.1,0,0.1,0c0,0.2-0.1,0.4-0.1,0.6
		c0,0.9,0.6,1.2,0.7,1.2c-0.1,0.1-0.1,0.3-0.1,0.4c0,0.1,0,0.1,0,0.2c0.1,0.4,0.5,0.6,0.6,0.6c-0.1,0.2-0.1,0.4-0.1,0.6
		c0,0.7,0.5,0.9,0.6,1c-0.1,0.2-0.1,0.5-0.1,0.7c0,0.6,0.4,0.9,0.4,0.9c-0.1,0.2-0.2,0.4-0.2,0.7s0.1,0.4,0.2,0.6
		c0.2,0.4,0.5,0.5,0.6,0.5C80,42.5,80,42.7,80,43c0,0.5,0.2,0.8,0.3,1c0.2,0.1,0.3,0.2,0.4,0.2c-0.2,0.4-0.2,0.7-0.2,1
		c0,0.6,0.2,0.9,0.3,1c0,0.1-2.5,9.3-2.5,9.3l0,0l-1.2,2.8L72,66.5l0,0c-0.3,0.3-0.3,1.7-0.3,1.7c-0.1,0.7,0,1.1,0.4,1.4
		c0.4,0.4,1.1,0.2,1.2,0.2c0.1,0.6,0.5,1.1,1,1.3c1.1,0.6,2.5,0.1,2.5,0.1c1.7,0.6,3.5-0.7,3.5-0.7s1.4-1.7,2.5-1.9
		c1.1-0.1,2.1-1.4,2.2-1.5l3.7-8.3c1.7-1.7,3.1-6.4,3.1-6.4c0-0.1,0.2-10.4,0.4-11.8c0-0.2,0.1-0.4,0.1-0.6c0-1.1-0.6-2-0.6-2.1
		c0.1-0.3,0.2-0.7,0.2-1.1c0-0.6-0.1-1.1-0.1-1.2c0,0-0.1-0.7-0.1-1.7c0-0.5,0.1-1.1,0.1-1.7c0-0.1,0-0.2,0-0.3
		c0-1.6-0.7-1.8-0.7-1.8l0,0l0,0l0,0l-1.1-1c-0.1-0.1-1.8-3.1-2.6-3.7c-0.7-0.6-3.8-4-3.8-4L78,18.6c-2-5.6-4.3-5.8-4.4-5.8
		L62.1,7.6L62.1,7.6L62.1,7.6L62.1,7.6L62.1,7.6z M72.4,15.5c-0.4-0.7-1.1-1.3-2-1.9c0,0-6.4-4.8-7.9-5.9c0.7,0.4,11.1,5.1,11.1,5.1
		c0.1,0,2.3,0.1,4.3,5.8l5.4,2.8c0.1,0.1,3.1,3.5,3.8,4c0.8,0.6,2.5,3.6,2.6,3.6c0,0.1,1.1,1.1,1.1,1.1s0.7,0.2,0.7,1.7
		c0,0.1-0.1,0.2-0.1,0.3c0,0.6,0,1.2,0,1.7c0,1.1,0,1.7,0,1.7s0.1,0.6,0.1,1.2c0,0.4-0.1,0.8-0.2,1.1l0,0l0,0V38l0,0
		c0,0,0.6,0.9,0.6,2c0,0.2,0,0.4-0.1,0.6c-0.2,1.4-0.4,11.6-0.4,11.8c0,0.1-1.4,4.8-3.1,6.4l-3.6,8.3c-0.1,0-1.1,1.4-2.1,1.5
		c-1.1,0.2-2.5,1.9-2.6,1.9c0,0-1.7,1.3-3.3,0.7c-0.1,0-1.5,0.5-2.6-0.1c-0.4-0.2-0.7-0.7-0.9-1.3l0,0v-0.1h-0.1l0,0
		c0,0-0.7,0.2-1.2-0.2c-0.3-0.2-0.4-0.7-0.4-1.3c0,0,0-1.3,0.3-1.6c0.1,0,5.1-8.4,5.1-8.4c0-0.1,1.2-2.8,1.2-2.8l2.6-9.3l0,0V46l0,0
		c0,0-0.7-0.7-0.1-1.9l0,0l0.1-0.1h-0.1l0,0c0,0-0.2,0-0.4-0.2c-0.2-0.2-0.4-0.7-0.1-1.8l0,0V42h-0.1l0,0c0,0-0.3-0.1-0.6-0.5
		c-0.2-0.3-0.2-0.7,0-1.3l0,0l0,0l0,0l0,0c-0.1-0.1-0.7-0.6-0.2-1.5l0,0v-0.1l0,0l0,0c-0.1,0-1-0.4-0.5-1.5l0,0l0,0L78.8,37l0,0
		c0,0-0.4-0.2-0.5-0.6c-0.1-0.2,0-0.4,0.1-0.6l0,0v-0.1h-0.1l0,0c0,0-0.9-0.3-0.6-1.9l0,0v-0.1h-0.1l-0.1,0.1l0,0
		c-0.1-0.1-0.4-0.2-0.9-1c0,0-0.9-0.4-0.8-1.1l0,0v-0.1h-0.1l0,0c-0.6-0.7-50.1,0.6-52.2,0.6l0,0h-0.1l-0.2,5.9l0,0l-3.2,9.3l0,0
		l0,0l0,0l2.4,8.7l1,2.7l3.4,7.5l2.9,3.3l0,0H30l0,0c0,0,40.5,2,40.6,2c0,0.1,0.1,14.5,0.1,14.5s-0.3,0.9-1.4,0.9l0,0h-0.1v0.1l0,0
		c0,0,0.1,0.1,0.1,0.2c0,0.4-0.2,1.1-1.7,1.6l0,0l0,0l0,0l0,0c0,0.1-0.3,1.4-2.3,1.7l0,0l0,0v0.1l0,0c0,0-0.4,1.4-4.8,1.1
		c-0.1,0-6.7-0.4-9.5-2.8l0,0h-0.1l-1.1,0.1l0,0l0,0c-0.1,0.1-12.6,5.2-14.6,1.9l0,0l0,0l0,0l0,0c-0.1,0-2.5-0.4-2.5-1.5
		c0-0.1,0-0.1,0-0.1l0,0v-0.1l0,0l0,0c-0.1,0-1.7-0.3-1.7-1.5c0-0.1,0-0.1,0-0.1l0,0l0,0l-0.1-0.1l0,0c0,0-0.9-0.3-1.2-0.8
		c0-0.1,0-0.2,0-0.2c0-0.1,0-0.1,0-0.2l0,0v-0.1L16.7,69.1l0,0c0,0-1.2-0.8-1.4-1.2c-0.1-0.4-7-13.1-7.3-13.6l0,0l0,0l0,0
		c0,0-0.1-0.4-0.1-1.1c0-0.3,0.1-0.7,0.1-1c0.1-0.2,0.1-1,0.1-2.1c0-4.3-0.3-13.6-0.3-14c0-0.1,0.2-0.7,0.2-1.4
		c0-0.4-0.1-0.8-0.2-1.1c-0.1-0.2-0.1-0.3-0.1-0.4c0-0.7,0.6-1.4,1.2-2.1l0,0l0.4-0.4l0.2-0.3l0,0c0.7-0.9,1.9-2.4,3-4.7
		c0.9-2,2.1-2.5,3-3l0,0l0.6-0.3l0,0c0.9-0.6,4.2-3,4.3-3l0,0l0,0l0,0l0,0c0,0,0.1-1.1,1.4-1.8c1.2-0.7,1.9-3,1.9-3.1
		c0,0,1.1-2.3,5.3-3.3c0.3-0.1,6-2.5,7.4-3.2c-1.1,0.9-6.1,5.1-8.2,6.8c0,0.1-0.6,1.2-0.6,1.2l0,0L27.4,16l0,0c0,0,4.5-1.7,4.9-1.8
		c-0.2,0.3-3.3,3.4-3.3,3.4l0,0l0.1,0.1l0,0c0.1-0.1,6.3-4.3,8-5c0,0.1,0,0.6,0,0.7c-0.4,0.2-10.2,5.1-12.6,8.1v0.1
		c0,0.1,0.1,1,0.1,1l0,0v0.1l0.6-0.4l0,0c0.1-0.1,5.2-4.5,12-7.8c0.1,0.1,0.2,0.5,0.2,0.6c-0.4,0.2-5.9,2.5-10.8,6.7l0,0L26.4,22
		l1.8-0.1l0,0c0.1,0,3.4-3.1,9.3-6.1c0,0.1,0,0.4,0,0.5c-0.2,0.1-4.3,2.7-7,4.5l0,0l0.1,0.1l0,0c0,0,3.3-0.5,4.7-0.6
		c-1.2,0.6-8.2,3.8-11.2,8c0,0.1-0.5,3-0.5,3l0,0v0.1l50.5-2L74,29.4l0,0c0,0-0.2-0.9-0.2-2.1c0-0.2,0-0.4,0-0.7
		c0,0-1.7-2.2-7.5-5.4c0.6,0,2.8,0,5.1,0.7l0,0l0.1-0.1l0,0c-0.2-0.1-0.4-0.3-0.4-0.5l0,0v-0.1l-0.5-0.3v0.1l0,0
		C70.4,21,70.2,21,69.9,21c-0.2,0-0.5-0.1-0.6-0.3c-0.1-0.1-0.2-0.2-0.2-0.4l0,0v-0.2l0,0l-0.5-0.2l0,0l0,0
		c-0.2,0.1-0.4,0.1-0.6,0.1c-0.2,0-0.5-0.1-0.7-0.2c-0.1-0.1-0.2-0.2-0.2-0.4c0-0.1,0-0.1,0-0.1l0,0l0.1-0.1l-0.5-0.2h-0.1l0,0
		c-0.2,0.2-0.4,0.2-0.7,0.2c-0.3,0-0.6-0.1-0.7-0.2c-0.1-0.1-0.2-0.3-0.2-0.4l0,0l0.1-0.2v-0.1l-0.6-0.2l-0.1,0.1l0,0
		c-0.1,0.1-0.4,0.2-0.6,0.2c-0.4-0.1-0.7-0.3-0.7-0.6l0,0l0.1-0.2h-0.1L63,17.3v0.1l0,0c-0.1,0.1-0.3,0.1-0.4,0.1
		c-0.2,0-0.4-0.1-0.4-0.2C62,17.3,62,17.2,62,17.1l0,0l0,0L62,17L62,16.9l0,0c0,0-0.6-0.2-0.6-0.2c0-0.1,0-0.1,0.1-0.1
		s0.7,0.3,0.7,0.3l0,0h0.1l0,0c0.1-0.1,0.2-0.1,0.3-0.1c0.3,0,0.6,0.2,0.5,0.4l0,0l0,0l0.6,0.2l0,0l0,0c0.1-0.1,0.3-0.1,0.5-0.1
		c0.4,0,0.7,0.2,0.7,0.6l0,0l0,0l0.7,0.4l0,0l0,0c0.2-0.1,0.4-0.2,0.7-0.2c0.2,0,0.5,0.1,0.7,0.2c0.1,0.1,0.1,0.2,0.1,0.4l0,0v0.2
		l0,0l0.4,0.2h0.1l0,0c0.1-0.2,0.4-0.3,0.7-0.3c0.2,0,0.5,0.1,0.7,0.2c0.1,0.1,0.2,0.3,0.2,0.4s-0.1,0.2-0.1,0.3l0,0l-0.1,0.1
		l0.4,0.2l0,0l0,0c0.2-0.2,0.4-0.3,0.7-0.3c0.3,0.1,0.6,0.1,0.7,0.3c0.1,0.1,0.2,0.2,0.2,0.4c0,0.1-0.1,0.2-0.1,0.3l0,0h-0.1
		l0.5,0.2v-0.1l0,0c0.1-0.2,0.5-0.4,0.8-0.3c0.5,0,0.9,0.3,0.9,0.7c0,0.1-0.1,0.2-0.2,0.4l0,0v0.1l0.5,0.2l0,0c0,0,0.1-1.1,0.1-1.1
		c0.1,0,0.3-0.1,0.5-0.3l0.1-0.2l0,0v-0.1l0,0L73.3,20h-0.1l0,0c-0.1,0.1-0.3,0.1-0.5,0.1c-0.2,0-0.5-0.1-0.7-0.2
		c-0.1-0.1-0.2-0.2-0.2-0.4l0,0l0,0v-0.1v-0.1l-0.5-0.2v0.1l0,0c-0.2,0.1-0.4,0.1-0.6,0.1c-0.4,0-0.9-0.3-0.8-0.7l0,0v-0.2h-0.1
		l-0.4-0.2h-0.1l0,0c-0.1,0.1-0.3,0.1-0.5,0.1c-0.2,0-0.5-0.1-0.7-0.2c-0.1-0.1-0.2-0.2-0.2-0.4l0,0l0,0l-0.5-0.3v0.1l0,0
		c-0.2,0.1-0.4,0.2-0.7,0.2c-0.3,0-0.6-0.1-0.7-0.2C66,17.1,66,17,66,16.8l0,0l0.1-0.2H66l-0.6-0.2l0,0l0,0
		c-0.1,0.1-0.4,0.2-0.6,0.2c-0.4-0.1-0.7-0.3-0.7-0.6l0,0l0.1-0.2l-0.1-0.1l-0.4-0.2v0.1l0,0c-0.1,0.1-0.3,0.1-0.5,0.1
		c-0.1,0-0.3-0.1-0.4-0.1c-0.1-0.1-0.1-0.2-0.1-0.2l0,0l0,0l0.1-0.2l-0.1-0.1l0,0c0,0-0.5-0.2-0.5-0.2c0,0,0-0.1,0-0.2
		C62.4,14.7,63,15,63,15l0,0l0,0l0.3-0.1l0,0c0.3,0.1,0.5,0.2,0.5,0.4l0,0l0,0l0.6,0.2l0,0l0,0c0.1-0.1,0.3-0.1,0.5-0.1
		c0.2,0,0.4,0.1,0.6,0.2c0.1,0.1,0.1,0.2,0.1,0.3l0,0v0.1l0,0l0.6,0.3v-0.1l0,0c0.2-0.1,0.4-0.2,0.7-0.2c0.5,0,0.9,0.3,0.9,0.7l0,0
		l-0.1,0.2l0.1,0.1l0.4,0.2l0.1-0.1l0,0c0.1-0.2,0.4-0.4,0.8-0.4c0.5,0,0.9,0.3,0.9,0.7c0,0.2-0.1,0.3-0.2,0.4l0,0h-0.1l0.4,0.2
		v-0.1l0,0c0.2-0.2,0.5-0.4,0.8-0.3c0.2,0,0.5,0.1,0.7,0.2c0.1,0.1,0.2,0.2,0.2,0.4c0,0.1-0.1,0.2-0.2,0.4l0,0h-0.1l0.5,0.2l0,0l0,0
		c0.1-0.3,0.5-0.4,0.9-0.4l0,0l0.3,0.1l0.1-0.1l-1.7-1.2l0,0c-0.4-0.1-0.8-0.3-0.8-0.6c-0.1,0-0.6-0.4-0.6-0.4l0,0h-0.1l0,0l0,0
		c-0.1,0.1-0.2,0.1-0.4,0.1c-0.2,0-0.5-0.1-0.7-0.2c-0.1-0.1-0.2-0.2-0.2-0.4l0,0l0.1-0.2v-0.1l-0.4-0.2l-0.1,0.1l0,0
		c-0.1,0.2-0.4,0.3-0.7,0.3s-0.6-0.1-0.7-0.2c-0.1-0.1-0.2-0.3-0.2-0.4s0.1-0.2,0.1-0.3l0,0v-0.1l-0.6-0.2l-0.1,0.1l0,0
		c-0.1,0.2-0.4,0.3-0.7,0.3c-0.2-0.1-0.4-0.1-0.6-0.2c-0.1-0.1-0.1-0.2-0.1-0.4c0-0.1,0-0.1,0.1-0.2l0,0H65l-0.5-0.2l0,0l0,0
		c-0.1,0.1-0.2,0.2-0.5,0.2c-0.1,0-0.3-0.1-0.4-0.1c-0.1-0.1-0.1-0.2-0.1-0.2c0,0,0,0,0-0.1l0,0l0.1-0.1h-0.1l0,0c0,0-0.9-0.3-1-0.4
		c0,0,0,0,0-0.1c0.1,0.1,1.1,0.4,1.1,0.4l0,0h0.1l0,0c0.1-0.1,0.2-0.2,0.4-0.2c0.2,0,0.3,0.1,0.4,0.2c0.1,0.1,0.1,0.2,0.1,0.2l0,0
		v0.1h0.1l0.4,0.2l0,0l0,0c0.1-0.1,0.3-0.2,0.6-0.2c0.4,0,0.7,0.2,0.7,0.6l0,0v0.1h0.1l0.6,0.2H67l0,0c0.1-0.1,0.2-0.1,0.3-0.2l0,0
		h0.1l-0.1-0.1l0,0c0.1,0,0.2,0.1,0.2,0.1h0.2c0.2,0,0.4,0.1,0.5,0.1L72.4,15.5L72.4,15.5l0.1,0.1L72.4,15.5L72.4,15.5L72.4,15.5z"
		/>
	<path class="st1" d="M81.2,52.4c0,0,0.1-4.3,0.1-6.8l0,0L79.1,45l0,0c0,0-0.9-6.1-2.9-9.2l0,0l1.5-2.2l-4.6-5.7l-2.2,0.6l0,0
		c0,0-6-4-7.9-4.9l0,0l0.6-2.3l0,0c0,0-4.6-1.9-8.1-2.5l0,0l-1.2,2.2l0,0c0,0-5.9-0.1-9,0.1l0,0l-1.2-2.3l0,0c0,0-5.6,1.1-8.5,2.7
		l0,0l0.4,2.5l0,0c0,0-5.3,2.8-7.1,4.9l0,0l-2.8-0.6l0,0c0,0-4.3,5-4.8,6.1l0,0l2,2.4l0,0c0,0-1.7,3.9-2.2,8.4l0,0l-1.7,0.2L19,52.1
		l6,13.7l4.5,0.4l0.9,4.8l-2.2,2.4l14.2,4.5l28.9-3l-1.7-2.8l0.7-5.4l5.4-1.5l-0.4-3.7l3.8-6.9L81.2,52.4
		C81.2,52.4,81.2,52.4,81.2,52.4z"/>
	<path class="st0" d="M44,18.4c-0.2,0.1-5.8,1.2-8.7,2.8l0,0l-0.2,0.1l0,0c0,0,0.2,2,0.3,2.5c-1.1,0.6-5,2.8-6.6,4.6
		c-0.5-0.1-3-0.6-3-0.6l0,0l-0.2,0.2l0,0c-0.4,0.6-4.3,5.1-4.8,6.2l0,0l-0.1,0.2l0,0c0,0,1.8,2,2.1,2.4c-0.4,0.9-1.7,4.1-2.1,7.9
		c-0.5,0.1-1.8,0.2-1.8,0.2l0,0l-0.3,7.1l6.1,14l0,0c0,0,3.8,0.3,4.4,0.4c0.1,0.6,0.7,3.8,0.9,4.2c-0.3,0.2-2.5,2.7-2.5,2.7l0,0
		l15,4.6L72,75.1l0,0c0,0-1.9-3-2-3.2c0.1-0.2,0.6-4.5,0.6-5c0.6-0.2,5.4-1.5,5.4-1.5s-0.3-3.7-0.4-4c0.1-0.2,3.6-6.6,3.7-6.7
		c0.1-0.1,2.2-2,2.2-2l0,0v-0.2l0,0c0,0,0.2-4.3,0.2-6.8l0,0v-0.3l0,0c0,0-1.9-0.6-2.3-0.7c-0.2-1.2-1.1-5.9-2.7-8.8
		c0.2-0.4,1.5-2.2,1.5-2.2l0,0l-5-6.2l0,0c0,0-2,0.6-2.4,0.6c-0.9-0.6-5.4-3.5-7.4-4.6c0.1-0.4,0.6-2.3,0.6-2.3l0,0l-0.4-0.2l0,0
		c-0.2-0.1-4.7-1.9-8.2-2.5l0,0l-0.4-0.1l0,0c0,0-1,1.9-1.2,2.3c-1.2-0.1-5.8-0.1-8.5,0.1c-0.2-0.4-1.2-2.4-1.2-2.4l0,0L44,18.4
		L44,18.4L44,18.4z M54.8,21.3c0,0,0.8-1.4,1.1-1.9c2.8,0.5,6.2,1.7,7.3,2.2c-0.2,0.6-0.6,2.3-0.6,2.3l0,0l0.3,0.1l0,0
		c1.9,0.9,7.7,4.8,7.9,4.9l0,0l0.2,0.1l0,0c0,0,1.6-0.4,2.1-0.6c0.4,0.4,3.8,4.8,4.2,5.2c-0.3,0.4-1.5,2.2-1.5,2.2l0,0l0.2,0.2l0,0
		c1.9,3,2.8,9,2.8,9l0,0v0.2l0,0c0,0,1.7,0.5,2.2,0.6c-0.1,2.2-0.2,5.5-0.2,6.3c-0.2,0.2-2,1.8-2,1.8l0,0l-3.9,7.2l0,0
		c0,0,0.2,2.8,0.3,3.4c-0.6,0.2-5.3,1.5-5.3,1.5l0,0L69.1,72l0,0c0,0,1,1.5,1.4,2.3c-1.4,0.1-27.8,2.9-28,2.9
		c-0.2-0.1-12.2-3.8-13.4-4.1c0.6-0.6,1.8-2,1.8-2l0,0l-1.1-5.3l0,0c0,0-4-0.3-4.5-0.3c-0.2-0.5-5.7-13.2-5.8-13.4
		c0-0.2,0.3-5.5,0.3-6.2c0.5-0.1,1.7-0.1,1.7-0.1l0,0v-0.4l0,0c0.5-4.3,2.2-8.2,2.2-8.3l0,0l0.1-0.2l0,0c0,0-1.7-2-2-2.4
		c0.6-1.1,3.2-4.1,4.4-5.6c0.4,0.1,2.9,0.6,2.9,0.6l0,0l0.2-0.2l0,0c1.6-1.9,6.8-4.8,6.8-4.8l0,0l0.3-0.1l0,0c0,0-0.3-2.1-0.4-2.5
		c2.5-1.2,6.6-2.2,7.8-2.4c0.2,0.4,1.2,2.2,1.2,2.2l0,0h0.3l0,0c3-0.2,8.9-0.1,9-0.1l0,0l0.3,0.1L54.8,21.3
		C54.8,21.3,54.8,21.3,54.8,21.3z"/>
	<path class="st2" d="M28.1,64.7c0,0,3.5,2.5,2.4,3.9l0,0l-0.7,0.9l0.7,1l0,0c0,0,10.6,0.5,14.9,1.2c0,0,17.6,0.2,19.3-1.1
		c1.7-1.2,4.9-0.2,5.2,0l0,0v-2l0,0c0,0-0.9-1.7,2-3.3c0,0,2.9-3.2,3.5-4.7c0.6-1.6,1.4-1.6,1.4-1.6l0,0l0.7-1.5l-1.6-0.4L73.1,58
		l-5.3,2.4l-3.6,2l-6.2-0.9l-6.6-2.1l-3.7-0.8l-2.3,1.5l-3.2,2.5l-6.2,0.2l-3.2-0.9l-2.5,1.2L28.1,64.7
		C28.1,64.7,28.1,64.7,28.1,64.7z"/>
	<path class="st0" d="M75.7,57L73,57.9l0,0c-0.1,0-5.3,2.4-5.3,2.4s-3.1,1.7-3.5,2c-0.1,0-6.2-0.9-6.2-0.9l-6.6-2.1l-3.7-0.8l0,0
		l-0.1-0.1l-2.4,1.7l0,0c0,0-2.8,2.1-3.2,2.4c-0.1,0-6.1,0.2-6.1,0.2c-0.1-0.1-3.3-0.9-3.3-0.9l0,0l-2.5,1.3l0,0l-2.5,1.5l0,0
		l0.1,0.1l0,0c0.1,0,2.5,1.8,2.5,3.1c0,0.2,0,0.4-0.2,0.6l0,0l-0.8,1l0.9,1.2h0.1l0,0c0.1,0,10.6,0.4,14.9,1.2
		c0.7,0,17.6,0.2,19.4-1.1c1.7-1.2,4.8-0.2,5.1,0l0,0l0.2,0.1v-2.4l0,0l0,0c0-0.1-0.8-1.6,1.9-3.1l0,0l0,0h0.1l0,0
		c0.1-0.1,2.9-3.2,3.5-4.8c0.6-1.5,1.2-1.5,1.2-1.5l0,0h0.1l0.1-0.1l0.7-1.6L75.7,57L75.7,57C75.7,57,75.7,57,75.7,57z M73.2,58.2
		c0,0,2.4-0.8,2.5-0.9c0.1,0,1.2,0.2,1.4,0.3c-0.1,0.2-0.5,1.2-0.6,1.3c-0.2,0.1-0.9,0.3-1.4,1.7c-0.6,1.5-3.3,4.5-3.5,4.7
		c-1.8,1-2.2,2-2.2,2.7c0,0.4,0.1,0.6,0.2,0.7c0,0.1,0,1.5,0,1.8c-0.9-0.3-3.6-1.1-5.2,0.1c-1.3,1-13.1,1.1-19.2,1
		c-4-0.7-14-1.1-14.7-1.2c-0.1-0.1-0.6-0.7-0.7-0.9c0.1-0.1,0.7-0.8,0.7-0.8c0.2-0.2,0.2-0.4,0.2-0.7c0-1.3-1.9-2.8-2.5-3.3
		c0.2-0.2,2.1-1.3,2.1-1.3s2.2-1.1,2.4-1.2c0.1,0.1,3.2,0.9,3.2,0.9l0,0l6.2-0.2l3.3-2.5l0,0c0,0,2-1.4,2.3-1.5
		c0.1,0.1,3.6,0.8,3.6,0.8l6.6,2.1l6.2,0.9l0,0h0.1l3.7-2l0,0C67.9,60.6,73.2,58.2,73.2,58.2L73.2,58.2L73.2,58.2
		C73.2,58.2,73.2,58.2,73.2,58.2z"/>
	<path class="st3" d="M55,68.4c-2.4,1.4-4.6,0.2-4.7,0.2l0,0l-0.2-0.1l-0.2,0.1l0,0c-2.2,1.5-5.2,0.1-5.3,0.1l0,0l-0.2-0.1l-0.2,0.2
		l0,0c-2.1,1.5-5.3,0.2-5.3,0.2l0,0l-0.2-0.1l-0.1,0.1l0,0c-2.5,1.2-5.2,0.1-5.3,0.1l0,0l-0.2-0.1l-0.2,0.2l0,0
		c-0.7,0.6-2.5,0.5-3.2,0.4l0,0l-0.1,0.7l0,0c0.1,0,2.3,0.2,3.5-0.5c0.7,0.2,3.1,0.9,5.5-0.1c0.7,0.2,3.5,1.2,5.7-0.2
		c0.7,0.3,3.3,1.2,5.6-0.1c0.6,0.3,2.8,1.1,5.1-0.1c0.6,0.4,2.7,1.4,5.6,0.1c0.7,0.3,3.6,1.3,5.8,0c0.5,0.2,1.9,0.6,2.8,0.2l0,0
		l-0.2-0.7l0,0c-0.7,0.2-2-0.1-2.5-0.3l0,0l-0.2-0.1l-0.2,0.1l0,0c-2.2,1.4-5.4,0-5.4-0.1l0,0l-0.2-0.1l-0.2,0.1l0,0
		c-3.1,1.5-5,0.1-5.1,0l0,0l-0.2-0.2L55,68.4L55,68.4L55,68.4z"/>
	<path class="st1" d="M50.6,81.7c0,0-10.3,4.6-19.4,4.6c0,0-3.5,0.2,2.2,0.8c0,0,5.4-0.3,10.8-2c5.8-1.9,9.2-3.4,9.2-3.4l0,0H50.6
		L50.6,81.7z"/>
	<path class="st3" d="M50.2,59.8c-2.5,1.1-4.5,0.7-4.5,0.7l0,0l-0.2,0.7l0,0c0.1,0,2.2,0.4,4.8-0.6c0.5,0.3,1.9,1.1,5,0.6l0,0
		l-0.1-0.7l0,0c-3.4,0.6-4.5-0.5-4.5-0.5l0,0l-0.2-0.2L50.2,59.8C50.2,59.8,50.2,59.8,50.2,59.8z"/>
	<path class="st3" d="M50,61.2c-2.8,1.2-4.5,0.5-4.6,0.5c-0.1-0.1-0.7-0.5-0.7-0.5l0,0l-0.4,0.6l0.7,0.5l0,0l0,0
		c0.1,0.1,2,1,5.1-0.4c0.6,0.4,2.8,1.2,5.4,0.1c0.5,0.2,1.9,0.7,4,0.1l0,0l-0.2-0.7l0,0c-2.2,0.6-3.5-0.1-3.5-0.2l0,0l-0.2-0.1
		l-0.2,0.1l0,0c-2.7,1.3-4.9,0-5-0.1l0,0l-0.2-0.1L50,61.2C50,61.2,50,61.2,50,61.2z"/>
	<path class="st3" d="M60.8,62.4l-0.2-0.1l0,0c0,0-1.1,0.5-1.2,0.5c-2.7,0.7-3.7-0.2-3.7-0.2l0,0l-0.2-0.2l-0.2,0.2l0,0
		c-2.4,1.4-5,0.1-5,0.1l0,0l-0.1-0.1L50,62.8l0,0c-3.1,1.2-5.4,0.2-5.4,0.2l0,0l-0.2-0.1h-0.1l0,0c-0.1,0.1-3.5,1.1-5.3,0.1l0,0
		l-0.2-0.1l-0.2,0.1l0,0c-0.1,0.1-2,1.3-4.5,0.2l0,0l-0.2-0.1l-0.1,0.1l0,0c-1.5,0.6-4.3,1.2-5,0.4l0,0l-0.6,0.5l0,0
		c1.2,1.2,4.9,0.1,5.7-0.2c2.4,0.9,4.4,0.1,5-0.2c1.9,0.9,4.8,0.1,5.5-0.1c0.6,0.2,2.8,1,5.8-0.1c0.6,0.2,3,1.1,5.4-0.1
		c0.5,0.3,1.8,0.9,4.2,0.2l0,0h0.1l0,0c0,0,0.7-0.3,0.9-0.4c0.7,0.2,3.7,1.1,5.9-0.3l0,0l-0.4-0.6l0,0
		C63.9,63.7,60.8,62.4,60.8,62.4L60.8,62.4C60.8,62.4,60.8,62.4,60.8,62.4z"/>
	<path class="st3" d="M71.2,63.5c-3.2,1.3-5.1,0.4-5.2,0.3l0,0l-0.2-0.1l-0.2,0.1l0,0c-2.3,1.5-5.1,0.2-5.1,0.2l0,0l-0.2-0.1
		l-0.2,0.1l0,0c-2.4,1.4-4.5,0.1-4.6,0.1l0,0l-0.2-0.1l-0.2,0.1l0,0c-3.6,1.4-5.1,0.2-5.1,0.1l0,0l-0.2-0.2l-0.2,0.1l0,0
		c-3.2,1.6-5,0.2-5,0.1l0,0l-0.2-0.1l-0.2,0.1l0,0c-3.2,1.6-5.1,0.3-5.1,0.2l0,0l-0.2-0.2l-0.2,0.1l0,0c-2.4,1.3-4.8,0.3-4.9,0.3
		l0,0l-0.1-0.1l-0.1,0.1l0,0c-2.9,1.1-4.5,0.6-4.5,0.6l0,0L28.7,66l0,0c0.1,0,1.8,0.6,4.9-0.6c0.6,0.2,2.8,0.9,5.2-0.2
		c0.6,0.4,2.5,1.2,5.5-0.2c0.6,0.4,2.5,1.3,5.4-0.1c0.6,0.4,2.4,1.2,5.6-0.1c0.6,0.4,2.8,1.2,5.1-0.1c0.7,0.3,3.2,1.2,5.5-0.2
		c0.6,0.3,2.5,0.9,5.5-0.3c0.3,0.1,1,0.3,1.7,0.2l0,0l-0.1-0.7l0,0c-0.6,0.1-1.4-0.2-1.4-0.2l0,0h-0.1L71.2,63.5
		C71.2,63.5,71.2,63.5,71.2,63.5z"/>
	<path class="st3" d="M71.6,61.8c-2.7,1.6-5.2,0.6-5.3,0.6l0,0L65.9,63l0,0c0.1,0.1,2.9,1.2,5.9-0.5c0.5,0.2,1.7,0.6,3.1,0.1l0,0
		l-0.2-0.7l0,0c-1.4,0.5-2.7-0.1-2.7-0.1l0,0l-0.2-0.1L71.6,61.8C71.6,61.8,71.6,61.8,71.6,61.8z"/>
	<path class="st3" d="M71.7,60.2c-2.9,1.6-4.7,0.9-4.8,0.8l0,0l-0.3,0.6l0,0c0.1,0.1,2.1,1,5.3-0.7c0.6,0.2,2,0.7,3.4,0.1l0,0
		L75,60.4l0,0C73.6,61,72,60.2,72,60.2l0,0l-0.2-0.1L71.7,60.2L71.7,60.2z"/>
	<path class="st3" d="M66.5,65.2L66.3,65l-0.2,0.1l0,0c-2.8,1.7-5.2,0.2-5.3,0.1l0,0l-0.2-0.1l-0.2,0.2l0,0c-2.9,1.9-4.8,0.2-5,0.2
		l0,0l-0.2-0.2l-0.2,0.2l0,0c-2.4,1.6-4.6,0.1-4.8,0.1l0,0L50,65.4l-0.2,0.1l0,0c-2.2,1.7-5,0.2-5.1,0.2l0,0l-0.2-0.1l-0.2,0.1l0,0
		c-2.8,2-5.1,0.2-5.2,0.1l0,0l-0.2-0.1l-0.2,0.1l0,0c-2.5,1.5-4.7,0.3-4.8,0.2l0,0l-0.2-0.1L33.3,66l0,0c-1.5,0.7-3.1,0.8-3.1,0.8
		l0,0v0.7l0,0c0.1,0,1.7-0.1,3.2-0.8c0.7,0.3,2.7,1.1,5.2-0.2c0.7,0.4,3.1,1.7,5.8-0.1c0.7,0.4,3.3,1.3,5.6-0.1
		c0.7,0.4,2.9,1.3,5.1-0.1c0.7,0.4,2.8,1.5,5.5-0.2c0.7,0.4,3,1.3,5.8-0.2c0.6,0.2,2.8,0.9,5.4-0.3l0,0l-0.4-0.6l0,0
		C68.7,66.2,66.6,65.2,66.5,65.2L66.5,65.2L66.5,65.2z"/>
	<path class="st3" d="M66.3,66.8c-2.7,1.4-5.5,0.1-5.5,0.1l0,0l-0.2-0.1L60.4,67l0,0c-2.3,1.5-4.8,0.1-4.9,0l0,0l-0.2-0.1L55,67l0,0
		c-2.5,1.6-4.6,0.2-4.7,0.1l0,0l-0.2-0.2l-0.2,0.2l0,0c-2.4,1.7-5.1,0.2-5.2,0.1l0,0l-0.2-0.1l-0.2,0.1l0,0
		c-2.8,1.8-5.3,0.2-5.4,0.2l0,0l-0.2-0.1l-0.2,0.1l0,0c-2.8,1.5-4.7,0.2-4.8,0.1l0,0l-0.2-0.1l-0.2,0.1l0,0
		c-1.2,0.6-2.4,0.6-2.4,0.6l0,0v0.7l0,0c0.1,0,1.2,0,2.6-0.7c0.6,0.4,2.6,1.2,5.2-0.1c0.7,0.4,3.2,1.4,5.9-0.2
		c0.7,0.4,3.3,1.4,5.6-0.1c0.6,0.4,2.8,1.3,5.1-0.1c0.7,0.3,3.1,1.3,5.4,0c0.7,0.2,3.3,1.1,5.9-0.2c0.4,0.1,1.7,0.5,2.5,0.2l0,0
		l-0.2-0.7l0,0c-0.6,0.2-1.9-0.2-2.2-0.3l0,0l-0.2-0.1L66.3,66.8C66.3,66.8,66.3,66.8,66.3,66.8z"/>
	<path class="st3" d="M55.2,70c-2.2,1.8-4.9,0.2-5,0.1l0,0L50,70l-0.2,0.1l0,0c-2.7,1.7-5,0.1-5.1,0.1l0,0L44.4,70l-0.2,0.1l0,0
		c-2.1,1.3-4.8,0.2-4.8,0.1l0,0l-0.3-0.1l-0.2,0.2l0,0c-0.1,0.1-0.5,0.2-0.7,0.2l0,0l0.1,0.7l0,0c0.1,0,0.6-0.1,0.9-0.4
		c0.7,0.3,3.1,1,5.1-0.1c0.7,0.4,3,1.4,5.6,0c0.7,0.4,3.3,1.4,5.4-0.1c0.5,0.3,1.6,0.9,3.2,0.7c0.2-0.1,1.5-0.3,2.1-0.7
		c0.6,0.2,1.9,0.9,3.2,0.9l0,0v-0.7l0,0c-1.4,0-3-0.9-3-0.9l0,0l-0.3-0.2l-0.2,0.2l0,0c-0.2,0.2-1.3,0.6-1.9,0.7
		c-1.7,0.2-2.8-0.7-2.8-0.7l0,0l-0.2-0.2L55.2,70C55.2,70,55.2,70,55.2,70z"/>
	<path class="st4" d="M50,34.4c4.3,0,7.9,3.2,7.9,7.2c0,4-3.5,7.3-7.9,7.3s-7.9-3.3-7.9-7.3S45.7,34.4,50,34.4L50,34.4L50,34.4z"/>
	<polygon class="st4" points="49.6,33.4 50,22 50.2,33.4 	"/>
	<g id="_105553641143616">
		<path class="st4" d="M46.2,34.2l-4.5-10.5L46.8,34l0,0C46.6,34.1,46.4,34.2,46.2,34.2L46.2,34.2L46.2,34.2z"/>
		<path class="st4" d="M43.5,36.1l-8.6-8l9,7.6l0,0C43.8,35.8,43.6,36,43.5,36.1L43.5,36.1L43.5,36.1z"/>
		<path class="st4" d="M41.7,38.9l-11.3-4.3l11.5,3.8l0,0C41.9,38.5,41.7,38.7,41.7,38.9L41.7,38.9C41.7,38.9,41.7,38.9,41.7,38.9z"
			/>
		<path class="st4" d="M41.2,42L29,42.2l12.1-0.7v0.2l0,0C41.2,41.8,41.2,41.9,41.2,42L41.2,42L41.2,42z"/>
		<path class="st4" d="M42,45.2l-11,4.5l10.8-5l0,0C41.9,44.8,41.9,45,42,45.2L42,45.2C42,45.2,42,45.2,42,45.2z"/>
		<path class="st4" d="M47.9,33.7l-1.4-7.1l1.9,7.1l0,0C48.2,33.6,48.1,33.7,47.9,33.7L47.9,33.7C47.9,33.7,47.9,33.7,47.9,33.7z"/>
		<path class="st4" d="M44.8,35.1L40.4,29l4.7,5.8l0,0C45,34.8,44.9,35,44.8,35.1L44.8,35.1C44.8,35.1,44.8,35.1,44.8,35.1z"/>
		<path class="st4" d="M42.4,37.4l-6.6-4l6.9,3.7l0,0C42.6,37.2,42.5,37.3,42.4,37.4L42.4,37.4L42.4,37.4z"/>
		<path class="st4" d="M41.2,40.5l-7.8-1.4l7.9,0.9l0,0C41.3,40.2,41.3,40.4,41.2,40.5L41.2,40.5C41.2,40.5,41.2,40.5,41.2,40.5z"/>
		<path class="st4" d="M41.4,43.7l-7.7,1.6l7.6-2l0,0C41.4,43.4,41.4,43.6,41.4,43.7L41.4,43.7C41.4,43.7,41.4,43.7,41.4,43.7z"/>
		<path class="st4" d="M48.7,33.5v-3.3l0.6,3.2l0,0C49,33.5,48.8,33.5,48.7,33.5L48.7,33.5L48.7,33.5z"/>
		<path class="st4" d="M47,33.9l-0.7-3.2l1.2,3l0,0C47.4,33.8,47.2,33.9,47,33.9L47,33.9C47,33.9,47,33.9,47,33.9z"/>
		<path class="st4" d="M45.5,34.6l-1.4-3l1.9,2.7l0,0C45.8,34.4,45.6,34.5,45.5,34.6L45.5,34.6L45.5,34.6z"/>
		<path class="st4" d="M44.1,35.5l-2-2.5l2.4,2.2l0,0C44.4,35.3,44.3,35.4,44.1,35.5L44.1,35.5C44.1,35.5,44.1,35.5,44.1,35.5z"/>
		<path class="st4" d="M43,36.6l-0.1,0.1l-2.7-2.2l3,1.9l0,0C43.2,36.4,43.2,36.5,43,36.6L43,36.6L43,36.6z"/>
		<path class="st4" d="M42,38.1l-3.1-1.7l3.3,1.2l0,0C42.2,37.8,42.1,37.9,42,38.1L42,38.1L42,38.1z"/>
		<path class="st4" d="M41.4,39.7l-3.3-1.1l3.5,0.5l0,0C41.5,39.4,41.4,39.5,41.4,39.7L41.4,39.7C41.4,39.7,41.4,39.7,41.4,39.7z"/>
		<path class="st4" d="M41.2,41.2L41.2,41.2l-3.6-0.3l3.7-0.2l0,0C41.2,40.8,41.2,41,41.2,41.2L41.2,41.2L41.2,41.2z"/>
		<path class="st4" d="M41.2,42.8l-3.5,0.4l3.4-0.9l0,0C41.2,42.5,41.2,42.6,41.2,42.8L41.2,42.8C41.2,42.8,41.2,42.8,41.2,42.8z"/>
		<path class="st4" d="M41.7,44.5l-3.2,0.8l3-1.3l0,0C41.5,44.2,41.7,44.4,41.7,44.5L41.7,44.5C41.7,44.5,41.7,44.5,41.7,44.5z"/>
	</g>
	<g id="_105553644724608">
		<path class="st4" d="M53.7,34.3l4.6-10.5l-5.1,10.3l0,0C53.4,34.2,53.5,34.2,53.7,34.3L53.7,34.3C53.7,34.3,53.7,34.3,53.7,34.3z"
			/>
		<path class="st4" d="M56.5,36.2l8.6-8l-9,7.7l0,0C56.2,36,56.3,36.1,56.5,36.2L56.5,36.2C56.5,36.2,56.5,36.2,56.5,36.2z"/>
		<path class="st4" d="M58.2,38.9l11.3-4.3l-11.4,3.8l0,0C58.1,38.6,58.2,38.7,58.2,38.9L58.2,38.9C58.2,38.9,58.2,38.9,58.2,38.9z"
			/>
		<path class="st4" d="M58.8,42.1l12.1,0.2l-12.1-0.7v0.2l0,0C58.8,41.8,58.8,42,58.8,42.1L58.8,42.1L58.8,42.1z"/>
		<path class="st4" d="M57.9,45.2l11,4.5l-10.8-5l0,0C58.1,44.9,58,45.1,57.9,45.2L57.9,45.2C57.9,45.2,57.9,45.2,57.9,45.2z"/>
		<path class="st4" d="M52,33.7l1.4-7.1l-1.9,7l0,0C51.7,33.7,51.9,33.7,52,33.7L52,33.7L52,33.7z"/>
		<path class="st4" d="M55.2,35.2l4.3-6.1l-4.8,5.8l0,0C54.9,35,55,35,55.2,35.2L55.2,35.2C55.2,35.2,55.2,35.2,55.2,35.2z"/>
		<path class="st4" d="M57.5,37.5l6.6-4l-6.9,3.7l0,0C57.4,37.3,57.4,37.4,57.5,37.5L57.5,37.5L57.5,37.5z"/>
		<path class="st4" d="M58.7,40.6l7.8-1.4l-7.9,0.9l0,0C58.6,40.3,58.7,40.4,58.7,40.6L58.7,40.6C58.7,40.6,58.7,40.6,58.7,40.6z"/>
		<path class="st4" d="M58.5,43.8l7.7,1.6l-7.6-2l0,0C58.6,43.4,58.6,43.6,58.5,43.8L58.5,43.8C58.5,43.8,58.5,43.8,58.5,43.8z"/>
		<path class="st4" d="M51.3,33.6v-3.2l-0.6,3.2l0,0C50.9,33.6,51.1,33.6,51.3,33.6L51.3,33.6C51.3,33.6,51.3,33.6,51.3,33.6z"/>
		<path class="st4" d="M52.9,34l0.7-3.2l-1.3,3l0,0C52.6,33.9,52.7,34,52.9,34L52.9,34L52.9,34z"/>
		<path class="st4" d="M54.5,34.7l1.4-2.9L54,34.4l0,0C54.1,34.5,54.3,34.6,54.5,34.7L54.5,34.7C54.5,34.7,54.5,34.7,54.5,34.7z"/>
		<path class="st4" d="M55.8,35.6l2-2.5l-2.4,2.2l0,0C55.5,35.4,55.7,35.5,55.8,35.6L55.8,35.6L55.8,35.6z"/>
		<path class="st4" d="M56.9,36.6l0.1,0.1l2.7-2.2l-3,1.9l0,0C56.7,36.5,56.8,36.6,56.9,36.6L56.9,36.6L56.9,36.6z"/>
		<path class="st4" d="M57.9,38.2l3.2-1.7l-3.4,1.2l0,0C57.7,37.8,57.8,38,57.9,38.2L57.9,38.2L57.9,38.2z"/>
		<path class="st4" d="M58.6,39.8l3.3-1l-3.5,0.5l0,0C58.4,39.4,58.5,39.6,58.6,39.8L58.6,39.8C58.6,39.8,58.6,39.8,58.6,39.8z"/>
		<path class="st4" d="M58.7,41.2L58.7,41.2l3.6-0.2l-3.6-0.2l0,0C58.7,40.9,58.7,41.1,58.7,41.2L58.7,41.2
			C58.7,41.2,58.7,41.2,58.7,41.2z"/>
		<path class="st4" d="M58.7,42.9l3.5,0.4l-3.5-0.9l0,0C58.7,42.6,58.7,42.8,58.7,42.9L58.7,42.9C58.7,42.9,58.7,42.9,58.7,42.9z"/>
		<path class="st4" d="M58.2,44.6l3.1,0.7l-2.9-1.3l0,0C58.4,44.3,58.3,44.4,58.2,44.6L58.2,44.6L58.2,44.6z"/>
	</g>
	<path class="st5" d="M29.2,61.3c0,0,0.9-0.3,2.4-2l0,0l6.5-6.2l23-2.4l0,0c0,0,2.4,0.7,3.1,1.6c0.7,0.9,2.2,0.7,2.4,1.4
		c0.2,0.7,1.1,1.1,1.1,1.1s1.4,0.3,1.8,1c0.4,0.6,1.5,0.9,1.5,0.9l0,0l2.2,0.3v0.7l-8.7,4l-6.7-0.3l-9-2.8l-2.5,0.6l-4.5,3.3
		l-5.6-0.2l-3-0.5l-2.8,1.2L29.2,61.3C29.2,61.3,29.2,61.3,29.2,61.3z"/>
	<path class="st6" d="M36.9,56.7l25.9-0.2l-2.2-9.3l-1.7-1.3l0,0c0,0-4.5-1.2-9,0.2c0,0-5.5-1.7-10.6,1.1l0,0l-0.4,1.6L36.9,56.7
		L36.9,56.7z"/>
	<path class="st0" d="M49.8,46c-0.4-0.1-5.8-1.7-10.7,1.1l0,0h-0.1l-0.4,1.7l0,0l-1.9,8l0,0L63,56.6l-2.3-9.5l-1.8-1.3l0,0l0,0
		C58.8,45.8,54.3,44.6,49.8,46L49.8,46C49.8,46,49.8,46,49.8,46z M49.9,46.2c4.3-1.4,8.6-0.2,8.8-0.2c0.1,0.1,1.5,1.2,1.7,1.2
		c0,0.1,2.1,8.8,2.2,9.1c-0.4,0-25.2,0.2-25.5,0.2c0.1-0.3,1.8-7.7,1.8-7.7s0.4-1.4,0.4-1.6C44.3,44.6,49.8,46.2,49.9,46.2
		L49.9,46.2L49.9,46.2L49.9,46.2C49.9,46.2,49.9,46.2,49.9,46.2z"/>
	<path class="st1" d="M32.1,87.7c0,0,4.3,0.4,10.7-1.4c0,0,8-2.5,12.2-4.5l0,0h2.3l0,0c0,0-10.5,5.1-19,6.7c0,0-3.8,0.9-6.6-0.4l0,0
		l-0.6-0.6L32.1,87.7L32.1,87.7z"/>
	<path class="st1" d="M36,90.7c0,0,1.9,0.6,5.2-0.4c0,0,9.8-2.3,23-9l0,0l1.7,0.7l0,0c0,0-12.9,5.8-17.6,7.2s-8.6,3.7-12,1.9l0,0
		L36,90.7L36,90.7z"/>
	<path class="st1" d="M61,84.8c0,0,4.5,1.6,8.6,1.3c0,0-0.6,1.4-6.6,0.6l0,0L60.1,86L61,84.8C61,84.8,61,84.8,61,84.8z"/>
	<path class="st1" d="M55,87.5c0,0,4.1,1.6,11.8,1.4c0,0,0.2,1.7-4.5,1.4c-4.4-0.3-8-1.7-8-1.7l0,0L55,87.5C55,87.5,55,87.5,55,87.5
		z"/>
	<path class="st1" d="M39.9,84.7l2-0.4l-5.4-2.8l0,0c0,0-2-0.2-2.2,0.6C34.2,82.7,39.9,84.7,39.9,84.7L39.9,84.7L39.9,84.7z"/>
	<path class="st4" d="M7.8,37.5c0,0-2.2,4.3,2.7,6.1c0,0,6.9,2.6,8.3,3.2c1.8,0.7,4.8,1.2,4.9,4.5c0.1,2,0.9,3.4,0.9,3.4
		s1.1,2.9-1.2,4l0,0l-0.1-0.9l0,0c0,0,0.2-2.2-2.1-2.3c0,0-6.9-0.3-10.7-2c-3.7-1.8-4.6-3-4.1-6.2c0.4-2.7,0.4-2.1-0.1-4.8
		c-0.6-2.8-0.4-4.6,1.4-5.8l0,0L7.8,37.5C7.8,37.5,7.8,37.5,7.8,37.5z"/>
	<path class="st4" d="M16,68.5c0.5,0.2,3,1.7,5.4,3.6C23.7,74,25,73,25,73c0.9-1.4,4-3.5,11.3-2.5C39.2,70.9,43.2,71,47,71l0,0
		l-0.1-0.1l0,0c0,0,0.9,0.1,2.4,0.1l0,0h0.1l0,0c1.1,0,2.1,0.1,3,0.1l0,0H53l0,0c3.2,0,7.1-0.1,10.5-0.6c7.4-1,10.4,1.2,11.3,2.5
		c0,0,1.5,0.9,3.7-1.1c2.7-2.4,4.5-3.2,5-3.5c0.2-0.1,1.5,3.5-0.7,5.4c0,0-1.1,1.7-0.8,3.1c0.4,1.4-0.3,3.5-2.4,4.1
		c-2,0.6-3.7,0-4.6,2.6c-0.9,2.3-2.2,3.1-4.6,3.2c-3.2,0.2-8.4-0.5-9.8-2c-0.6-0.7-0.7-2.4,4.3-2.2c0,0,1.7-0.7-1.4-1.3
		c0,0-2-0.2-4.8-0.3c-3.2,0.1-9.5,0.3-13.1,0.1c-4.9-0.3-9.5,0.2-9.5,0.2c-3.1,0.6-1.4,1.3-1.4,1.3c5-0.2,5,1.4,4.3,2.2
		c-1.4,1.5-6.6,2.2-9.8,2c-2.4-0.1-3.7-0.9-4.6-3.2c-1-2.6-2.6-2-4.6-2.6c-2-0.6-2.7-2.7-2.4-4.1c0.3-1.4-0.8-3.1-0.8-3.1
		C14.7,71.8,15.8,68.4,16,68.5L16,68.5L16,68.5L16,68.5z"/>
	<path class="st7" d="M16.7,69.2c0,0-1.5,2.7,5.1,3.8c0,0,2.3,0.4,3.3,4.3c0,0,0.6,1.5,3.4,3.2c2.8,1.7,3,2.5,1.3,2.7
		c-1.7,0.1-4.9,0.9-2.5,2.7c0,0,2.1,1.4,9.3-0.2c0,0,0.9-0.2,1.4-0.7c1.1-0.6,1.3-2.1-1.4-2.1c0,0-3.5,0.5-4.8-1.6
		c-1.3-2-6.1-5.8-6.1-5.8s-1.7-0.9-0.9-2.7c0,0-1.5,1.4-3.6-0.5c-2-1.9-4.1-3-4.1-3l0,0L16.7,69.2L16.7,69.2z"/>
	<path class="st8" d="M27.9,13.9c0,0,2.3-3,5.5-4.4l0,0l-5.3,4.7L27.9,13.9L27.9,13.9z"/>
	<path class="st8" d="M18.6,33.2c0-0.2,0.2-2.1,1.9-4.1c1.7-1.9,2-6,2-6s0.7-8.5,4.8-9.7l0,0l0.1,0.5l0,0c0,0-1.8,1.2-2.6,4.6
		c-0.7,3.5-0.9,1.9-1.2,6.5c0,0-0.6,2.9-2.4,3.9c-1.8,0.9-1.1,3.9-1.1,3.9s0.6,1.4-0.7,1.1C17.9,33.7,18.6,33.4,18.6,33.2L18.6,33.2
		C18.6,33.2,18.6,33.2,18.6,33.2z"/>
	<path class="st8" d="M17.4,32.9c-0.5-0.2-1,0.1-0.3-1.2c0,0,2.8-2.7,3.4-4.7c0.9-2.8,1.5-6.9,2-8.2c0.5-1.2,1.1-5.4,5.3-6.6l0,0
		l-0.1,0.5l0,0c0,0-2.4-0.2-4.3,4.6c-1.9,4.7-1.7,6.8-2,8.2c-0.2,1.4-1.9,4.3-2.7,5.5C18,32.4,17.9,33.1,17.4,32.9L17.4,32.9
		C17.4,32.9,17.4,32.9,17.4,32.9z"/>
	<path class="st8" d="M19.4,27.7c0,0,1.4-2.4,1.6-5.5c0.2-3.1,1.6-4.3,1.6-4.3s-2.3,0.9-2.4,4c-0.1,3-0.8,4.1-0.8,4.8
		C19.5,27.4,19.4,27.7,19.4,27.7L19.4,27.7C19.4,27.7,19.4,27.7,19.4,27.7z"/>
	<path class="st8" d="M28.9,16.6l-3.7,2.3l-0.6,1.6l0,0c0,0,2.8-1.8,4.1-3.5l0,0L28.9,16.6C28.9,16.6,28.9,16.6,28.9,16.6z"/>
	<polygon class="st8" points="25.9,17.1 28.2,16.3 25.8,18 	"/>
	<path class="st8" d="M19.6,44.7l0.7-0.2l0,0c0,0,1.2-6.1,2.5-7.9l0,0l-2-1.9l1.7-2.9l0.6-2.5l0,0c0,0-3.8,5.1-3.7,14.6l0,0
		L19.6,44.7L19.6,44.7z"/>
	<path class="st6" d="M18.3,46.6c0,0,0.7-8.2,1-10.1c0,0-1.1,1.9-1.5,5.1c0,0,1.1,0.1,0.1,1.2c0,0,0.6,1.3-0.3,1.3
		c0,0-0.2,1.2,0.1,2.2l0,0L18.3,46.6C18.3,46.6,18.3,46.6,18.3,46.6z"/>
	<path class="st8" d="M18.5,35.3c0,0-2,3.3-1.8,5.8l0,0l0.7,0.3l0,0c0,0,0.4-4.5,1.2-5.6l0,0L18.5,35.3L18.5,35.3z"/>
	<path class="st8" d="M14.4,40.2c0,0-0.9,1.4,0.4,0.9s1.2-2.5,1.2-2.5s0.5-2.9,0.4-4.3l0,0L15.9,34l0,0c0,0-0.7,4.5-1,5.5
		C14.5,40.5,14.4,40.2,14.4,40.2L14.4,40.2C14.4,40.2,14.4,40.2,14.4,40.2z"/>
	<path class="st8" d="M12.3,27.2l6.9-5.9l0.2-0.8l0,0c0,0-3.3,2.6-4.4,2.8c-1,0.1-1.6,1.8-1.6,1.8l0,0L12.3,27.2
		C12.3,27.2,12.3,27.2,12.3,27.2z"/>
	<path class="st8" d="M8.4,33.2c0,0,9.3-10,10.6-10.8l0,0l0.4-0.6l0,0c0,0-10.6,9.2-11,10.8C8.1,34.2,8.4,33.2,8.4,33.2L8.4,33.2
		L8.4,33.2z"/>
	<path class="st8" d="M18.9,23.5c0,0-7.4,7.4-9.5,10.1c0,0-1.6,1.8-1.4,3.7c0.2,1.9,0.6,4.8,0.6,4.8l0,0L9.6,43l0,0
		c0,0-0.2-2-0.7-3.7c-0.5-1.7,0.2-3.3,1.8-4.6c1.5-1.4,8.2-8.3,8.2-8.3s0.6-0.7,0.4-3.1l0,0L18.9,23.5
		C18.9,23.5,18.9,23.5,18.9,23.5z"/>
	<path class="st8" d="M12.5,44.1L12.2,43l-1.1-4.6l0,0c0,0-0.5-2.1-0.2-3c0,0-2.5,1.9-1.4,4c1.1,2,1.1,3.6,1.1,3.6l0,0l0.1,0.4
		L12.5,44.1L12.5,44.1z"/>
	<path class="st8" d="M12.2,39.1c0,0,0.5-5.8,4-9.5l0,0l-3.8,4l0,0c0,0-1.2,2.3-0.8,4.2l0,0L12.2,39.1
		C12.2,39.1,12.2,39.1,12.2,39.1z"/>
	<path class="st6" d="M14.7,33.4c0,0-2,2.8-1.5,6.1l0,0l0.4,1.5l0,0C13.5,41,15.1,36.5,14.7,33.4L14.7,33.4
		C14.7,33.4,14.7,33.4,14.7,33.4z"/>
	<path class="st8" d="M16.2,30.5c0,0,0.9-1.6,2.2-2.4c0,0-0.4,2.2-1.9,2.4l0,0L16.2,30.5L16.2,30.5z"/>
	<path class="st8" d="M21.4,29.3c0,0,1,0.1,2.1-1.6c0,0,4.9-4.7,8.2-5.9c0,0-4,0.8-7.1,3.7c-3.2,3-0.7,0.7-0.7,0.7s-0.9,2.1-2,2.8
		l0,0L21.4,29.3L21.4,29.3z"/>
	<path class="st8" d="M8.7,53l-0.6-0.2l0,0c0,0-0.2,1.6,2,5l0,0l1.2,0.6l0,0c0,0-2.2-3.9-2.2-4.3l0,0L8.7,53L8.7,53z"/>
	<polygon class="st8" points="12.9,58.6 10.8,54.2 9.4,53.3 11.8,58 	"/>
	<path class="st8" d="M15.1,58.4c-0.1,0-2-3-2.3-3.7l0,0l-1.1-0.3l1.7,4.1l0,0C13.5,58.4,15.2,58.4,15.1,58.4L15.1,58.4
		C15.1,58.4,15.1,58.4,15.1,58.4z"/>
	<polygon class="st8" points="14.6,55 15.6,56.4 14.5,56.5 13.3,54.6 	"/>
	<polygon class="st8" points="23.3,58.4 22.1,56.2 21.4,55.9 22.5,58.4 	"/>
	<polygon class="st8" points="22.1,58.2 20.8,55.8 19.5,55.6 21.2,58.2 	"/>
	<polygon class="st8" points="20.7,58.4 19.1,55.6 18.6,55.9 19.6,58.4 	"/>
	<path class="st8" d="M15.5,45.4c0,0,0-1.7-0.6-1.5c0,0-0.4,0.1-0.4,0.6c0,0.5,0,0.6,0,0.6l0,0L15.5,45.4
		C15.5,45.4,15.5,45.4,15.5,45.4z"/>
	<path class="st8" d="M13,44.4c0,0,0.4-1.2-0.1-1.6c-0.4-0.4,0-1.2,0.7-0.9c0.7,0.3,1.8,1.1,3.4,1c1.7-0.1,1.1,0.9,0.2,0.9
		c0,0,0,1,0,1.5c0,0.5-0.3,0.2-0.3,0.2l0,0l-0.2-1.6l0,0c0,0,0.4-0.1-0.7-0.2c-1.1-0.1-2-0.6-2.2-0.9c-0.2-0.3-0.3,0-0.3,0.6
		c0,0.6,0,1.3,0,1.3l0,0L13,44.4C13,44.4,13,44.4,13,44.4z"/>
	<path class="st8" d="M17.5,41.9c0,0-1.8,0.7-1.8-0.1l0,0v-0.4l0,0c0,0-0.6,1.1-1.9,0.2c0,0-0.7-0.2-0.3,0.2c0,0,0.9,0.7,3.7,0.7
		c0.6,0,0.6,0,0.6-0.6S17.5,41.9,17.5,41.9L17.5,41.9C17.5,41.9,17.5,41.9,17.5,41.9z"/>
	<path class="st8" d="M16.2,32.5c0,0,0.4,1.5,3.5,1.8c0,0,0.6,0.2,0.2,0.4c0,0-1.2,0.7-3.7-1.2c0,0-0.8-0.5-0.4-1
		C16,32.1,16.2,32.5,16.2,32.5L16.2,32.5C16.2,32.5,16.2,32.5,16.2,32.5z"/>
	<polygon class="st8" points="24.4,24.6 26.4,23.1 24.3,23.8 	"/>
	<path class="st8" d="M16.5,68.2c0,0,1.5,0.3,2.5,1.1c1.1,0.8,2.9,1.9,2.9,1.9s1.9,1.2,0.6,1.4c-1.3,0.1-1.9-1.1-1.9-1.1
		s-2.7-2.5-4.2-2.8C14.9,68.3,16.5,68.2,16.5,68.2L16.5,68.2C16.5,68.2,16.5,68.2,16.5,68.2z"/>
	<path class="st8" d="M17.9,68l1-0.2l0,0c0,0,3,1.9,4.5,2.4c1.4,0.5,2.2,0.9,1.4,1.4s-1.5,0.5-1.9-0.1c-0.8-1.2-4.1-3-4.1-3l0,0
		L17.9,68C17.9,68,17.9,68,17.9,68z"/>
	<path class="st8" d="M20.9,67.5c0,0,1.9,1.2,3.9,1.9c0,0,2.2,0.2,1.4,1.1c0,0-0.9,0.6-2-0.4s-3.4-1.8-3.4-1.8l0,0l-0.9-0.7
		L20.9,67.5C20.9,67.5,20.9,67.5,20.9,67.5z"/>
	<path class="st8" d="M22.8,67.3l1.4,1.2l0,0c0,0-1.6-0.1-2.1-0.9C21.5,66.8,22.8,67.3,22.8,67.3L22.8,67.3
		C22.8,67.3,22.8,67.3,22.8,67.3z"/>
	<path class="st8" d="M26.8,68.8c0,0-2.2-0.4-2.2-1.4c0,0,0.3-1.1,1.2-0.4c1,0.7,1,1.4,1,1.4l0,0V68.8L26.8,68.8z"/>
	<path class="st8" d="M27.2,69.6c0,0-2.4-0.9-3.1-2.4l0,0L23.5,67l0,0c0,0,1.4,1.9,2.8,2.3c0,0,0.2,0.8,0.8,0.6
		C27.7,69.8,27.2,69.6,27.2,69.6L27.2,69.6C27.2,69.6,27.2,69.6,27.2,69.6z"/>
	<path class="st8" d="M23.5,72.3c0,0,0.6,0.4,2.5-1.1c1.9-1.5,1.5-0.9,2-0.9l0,0v0.4l0,0c0,0-2.1,0.1-3.3,1.7
		c-0.7,1.1-1.6,0.2-1.6,0.2l0,0L23.5,72.3C23.5,72.3,23.5,72.3,23.5,72.3z"/>
	<path class="st8" d="M14.9,56.7c0,0,1.9,0.2,2.9-0.1c0,0,0.9-0.4,0.9,0.1c0,0,0.4,0.6-1.6,0.6c-2-0.1-2.2-0.4-2.2-0.4l0,0
		L14.9,56.7C14.9,56.7,14.9,56.7,14.9,56.7z"/>
	<path class="st8" d="M15.7,55c0,0,0.4,0.2,0.5,0.9c0.2,0.6,0.6,0.4,0.6,0.4s0.3-0.2,0.1-0.7c-0.2-0.4-0.4-0.5-0.4-0.5l0,0L15.7,55
		C15.7,55,15.7,55,15.7,55z"/>
	<path class="st8" d="M18,58.9c0,0-0.2-0.4-0.3-0.6c-0.1-0.2-0.2-0.5-0.5-0.4c-0.4,0.1-0.5,0.2-0.2,0.5c0.2,0.3,0.4,0.6,0.4,0.6l0,0
		L18,58.9C18,58.9,18,58.9,18,58.9z"/>
	<path class="st8" d="M70.8,11.9l2.3,1l0,0c0,0,2.2,0.6,3.5,3.5c1.3,2.9,3.7,7.6,3.7,7.6s-0.8,0-0.9,0.6c0,0-0.4-0.3-1.5,0.2l0,0
		l-2-7l0,0c0,0-0.6-3-2.4-4.2l0,0l-3-1.9L70.8,11.9C70.8,11.9,70.8,11.9,70.8,11.9z"/>
	<path class="st8" d="M77.3,25.7c0.2-0.2-2.3-8.9-2.3-8.9s-0.2-2.5-4.5-4.6l0,0l2.7,2.7l0,0c0,0,1.1,0.9,1.6,4.3
		c0.6,3.5,1.5,8.8,1.5,8.8s-0.3-1.6,0.8-1.5C77.2,26.4,77.1,25.9,77.3,25.7L77.3,25.7L77.3,25.7z"/>
	<path class="st8" d="M72.7,14.9c0,0,0.9,0.4,1.4,3.1c0,0,2,13.2,2.2,13.4c0,0-2-1.3-2.2-4.5l0,0l-0.6-5.3l0,0c0,0-0.1-0.7,0.4-1
		c0,0,0.7-0.8-0.3-1.3l0,0l-0.2-0.2L73,16.3l0,0c0,0-0.5-1.7-1.2-2.2C71.1,13.6,72.7,14.9,72.7,14.9L72.7,14.9
		C72.7,14.9,72.7,14.9,72.7,14.9z"/>
	<path class="st8" d="M73.1,23.2c0,0-2.2-1.7-5.6-1.8c0,0,5.3,3.1,6,4.3l0,0L73.1,23.2C73.1,23.2,73.1,23.2,73.1,23.2z"/>
	<path class="st8" d="M88.6,39.4v-3.8l0,0c0,0,0.2-1.1-1.4-1.5c0,0-0.4,0.1-0.4-1.3l0,0l0.1-4.6l0,0c0,0,0.2-1.2-0.9-2.2l0,0
		L79,20.4l-0.7-1.2l0,0c0,0,4,2.2,4.3,2.2c0,0,0.7,0.2,1.4,1.2c0.7,1.1,2.1,2,2.4,2.4c0.2,0.3,3.7,3.8,3,9.8c0,0-0.5,4.1-0.5,4.3
		l0,0L88.6,39.4C88.6,39.4,88.6,39.4,88.6,39.4z"/>
	<path class="st8" d="M88.9,43.4c0,0,2.2-11.8,0.7-13.7c0,0,1.9,0.6,1.4,6.7c-0.5,6.1-1,6.4-1,6.4l0,0L88.9,43.4L88.9,43.4z"/>
	<path class="st8" d="M90.7,42.5c-0.1,0,0.8-3.1,0.7-3.7c0,0,0.4,1.8,0.3,2.8C91.7,41.7,91,42.5,90.7,42.5L90.7,42.5L90.7,42.5z"/>
	<path class="st8" d="M84.5,45.5c0,0,0.5-5.1,1-6.7c0,0,0.1-0.6,0.4-0.8l0,0l2.2-1.1l0,0c0,0,0.5,5,0.2,6.9l0,0L84.5,45.5
		C84.5,45.5,84.5,45.5,84.5,45.5z"/>
	<polygon class="st6" points="85.9,27.4 85.8,26.7 79.3,21.4 79.1,21.6 85.8,28 	"/>
	<polygon class="st8" points="77.4,58.5 79,55.6 80.3,55.6 79,58.5 	"/>
	<polygon class="st8" points="79.6,58.5 81.1,55.5 83,55.3 81.4,58.7 	"/>
	<polygon class="st8" points="82.3,58.8 84.1,55 85.6,54.8 83.7,58.7 	"/>
	<polygon class="st8" points="84.4,58.8 86.5,54.6 88.1,54.1 85.7,58.8 	"/>
	<path class="st8" d="M86.3,58.8l2.5-5l2.4-1.2l0,0c0,0-1.8,5-2.8,5.9l0,0L86.3,58.8L86.3,58.8z"/>
	<path class="st8" d="M72,68.5c0,0,1.4-0.6,2.4-1.9l0,0l1.6,0.2l0,0c0,0-2.4,3.9-4,2.3l0,0L72,68.5C72,68.5,72,68.5,72,68.5z"/>
	<path class="st8" d="M76.6,67c0,0-1.2,2.4-2.8,2.7c0,0,0,1.1,1.4,1.4c0,0,1.1,0.3,1.9-0.7c0,0-0.9-1.3,0.4-3.2l0,0L76.6,67
		C76.6,67,76.6,67,76.6,67z"/>
	<path class="st8" d="M77.4,70.1c0,0-0.6-1.4,1.2-2.8l0,0l1.4,0.1l0,0c0,0-1.9,2.1-2.4,2.6C77.3,70.1,77.4,70.1,77.4,70.1L77.4,70.1
		L77.4,70.1z"/>
	<path class="st8" d="M77.7,70.5c0,0,2.7-2.8,2.8-3l0,0l1.6,0.2l0,0c0,0-0.4,0.7-2.2,1.2c0,0-0.6,0.2-1,1
		C78.5,70.7,77.7,70.5,77.7,70.5L77.7,70.5C77.7,70.5,77.7,70.5,77.7,70.5z"/>
	<path class="st8" d="M79.1,70.5c0,0,0.2-0.9,1.4-1.4c1.3-0.6,2.3-1.2,2.3-1.2l0,0l0.6,0.1l0,0c0,0-0.1,0.4-1.6,0.9
		c-1.4,0.6-2.1,1.6-2.1,1.6s-0.2,0.2-0.4,0.2C79,70.6,79.1,70.5,79.1,70.5L79.1,70.5C79.1,70.5,79.1,70.5,79.1,70.5z"/>
	<polygon class="st8" points="72.5,16.2 69,15.3 72.7,17.5 	"/>
	<path class="st1" d="M33.6,89.3c0,0,4.5,0.2,9.4-1.2c0,0,9.2-2.9,16.3-6.4l0,0h2.4l0,0c0,0-8.2,4.1-15.8,6.7
		c-6.2,2-10,2.6-12.1,1.4l0,0L33.6,89.3L33.6,89.3z"/>
	<path class="st1" d="M57.8,86.3c0,0,7.5,1.9,11.1,1c0,0-0.1,2-7.7,1.1c0,0-2.4-0.1-4.3-0.8l0,0L57.8,86.3
		C57.8,86.3,57.8,86.3,57.8,86.3z"/>
	<path class="st1" d="M52.7,88.6c0,0,5.9,2.4,11.6,2.1c0,0-0.6,2-7.2,0.6c0,0-3.3-0.6-5.4-2l0,0L52.7,88.6
		C52.7,88.6,52.7,88.6,52.7,88.6z"/>
	<path class="st1" d="M42.6,83.8l-2.5-1.2l0,0c0,0-1-0.9,0.4-1.1c0,0,1.1-0.2,2.2,0.6c1.1,0.9,1.5,1.4,1.5,1.4l0,0L42.6,83.8
		C42.6,83.8,42.6,83.8,42.6,83.8z"/>
	<path class="st1" d="M45.3,83.1l-0.9-0.6l0,0c0,0-1.1-0.7,0.5-0.7c0,0,1-0.3,2.3,0.6l0,0L45.3,83.1L45.3,83.1z"/>
	<path class="st0" d="M50,55.3l-0.1,0.1l0.8,1.2h12.4l-2.5-2.1h-0.1l0,0C60.5,54.5,54,53.4,50,55.3L50,55.3L50,55.3z M60.5,54.8
		c0.1,0,1.5,1.2,1.9,1.6c-0.7,0-11.4,0-11.5,0c-0.1-0.1-0.4-0.7-0.6-0.9C54,53.8,60,54.7,60.5,54.8L60.5,54.8L60.5,54.8z"/>
	<path class="st0" d="M58.7,46l1.7,8.5l2.6,2.4l-2.4-9.7l-2-1.6L58.7,46C58.7,46,58.7,46,58.7,46z M59.1,46.4
		c0.4,0.4,1.2,1.1,1.3,1.1c0,0.1,1.9,7.9,2.1,8.7c-0.5-0.4-1.8-1.6-1.9-1.7C60.7,54.3,59.2,47.1,59.1,46.4L59.1,46.4L59.1,46.4z"/>
	<polygon class="st0" points="49.6,46 49.6,55.3 49.9,55.3 49.9,46 	"/>
	<path class="st0" d="M39.1,54.6L39.1,54.6l-2.5,2.2h12.4l0.8-1.3l-0.1-0.1l0,0C45.7,53.5,39.1,54.6,39.1,54.6L39.1,54.6L39.1,54.6z
		 M49.3,55.6c-0.1,0.2-0.4,0.8-0.6,0.9c-0.1,0-10.8,0-11.4,0c0.4-0.4,1.9-1.6,1.9-1.7C39.6,54.8,45.6,53.9,49.3,55.6L49.3,55.6
		C49.3,55.6,49.3,55.6,49.3,55.6z"/>
	<path class="st0" d="M40.6,46.4l-1.5,0.7l-2.4,10l2.6-2.4l1.6-8.4L40.6,46.4C40.6,46.4,40.6,46.4,40.6,46.4z M40.4,46.8
		c-0.1,0.5-1.4,7.7-1.5,7.8c0,0-1.3,1.2-1.8,1.7c0.2-0.8,2.1-8.8,2.2-9C39.4,47.2,40.1,46.9,40.4,46.8L40.4,46.8
		C40.4,46.8,40.4,46.8,40.4,46.8z"/>
	<path class="st0" d="M65.3,58.6l-21.8-23l-0.6,0.2l-1.2-1.3l0,0c0,0-0.7-0.6-1.6,0.1c0,0-0.2-0.9,1-1.1c0,0,0.9,0.2,1.8-0.8l0,0
		l-0.1-0.3l0,0c0,0-0.1,0.9-2.1,0.9c0,0-1.3,0.2-0.7,1.7c0,0,0.5,0.9-0.2,1.9l0,0l-6.4,7.7l-3.4-3.5l5.6-7.6l0,0
		c0,0,0.7-0.9,2.2-0.6c1.4,0.3,1.5-0.1,1.7-0.3c0.2-0.2,1.2-2.5,2.9-1.9l0,0l2.9,3.4l-0.2,0.5L66,57.9l0,0c0,0,0.4,0.2,0,0.6
		C65.5,58.9,65.3,58.6,65.3,58.6L65.3,58.6C65.3,58.6,65.3,58.6,65.3,58.6z"/>
	<path class="st0" d="M39.3,32.6l-0.1,0.2l-0.1,0.1l0,0C39,33,38.9,33.3,37.6,33c-1.5-0.3-2.2,0.6-2.2,0.6l0,0l-5.7,7.6l3.5,3.6
		l6.4-7.8l0,0c0.4-0.4,0.4-0.9,0.4-1.2c0-0.4-0.1-0.7-0.1-0.7c-0.1-0.2-0.1-0.4-0.1-0.6s0-0.4,0.1-0.5c0.2-0.4,0.7-0.5,0.7-0.5
		c1.5-0.1,1.9-0.6,2-0.9c0,0.1,0.1,0.2,0.1,0.2c-0.8,0.9-1.7,0.7-1.7,0.7c-0.4,0.1-0.8,0.2-0.9,0.5c-0.2,0.3-0.1,0.6-0.1,0.6l0,0
		v0.1l0.1-0.1l0,0c0.8-0.6,1.5-0.1,1.6-0.1l0,0l1.2,1.2l0.1,0.1l0,0c0,0,0.5-0.2,0.6-0.2c0.1,0.1,21.8,22.9,21.8,22.9l0,0l0,0l0,0
		c0,0,0.1,0.1,0.3,0.1c0.1,0,0.3-0.1,0.5-0.2c0.1-0.1,0.2-0.2,0.2-0.4v-0.1c-0.1-0.2-0.2-0.2-0.2-0.3c0,0-20.7-22.6-21-23.1
		c0-0.1,0.2-0.6,0.2-0.6l0,0l-2.9-3.3l0,0C40.6,30.3,39.6,32,39.3,32.6L39.3,32.6C39.3,32.6,39.3,32.6,39.3,32.6z M39.3,32.8
		L39.3,32.8l0.1-0.2l0,0c0.4-0.6,1.3-2.2,2.8-1.7c0,0,2.7,3.1,2.8,3.3l-0.2,0.5l0,0l21.1,23.2l0,0c0.1,0,0.2,0.1,0.2,0.2v0.1
		c0,0.1-0.1,0.2-0.2,0.3c-0.1,0.1-0.2,0.2-0.4,0.2c-0.1,0-0.2-0.1-0.2-0.1l0,0l-21.8-23l0,0c0,0-0.6,0.2-0.6,0.2
		c0-0.1-1.2-1.2-1.2-1.2s-0.7-0.6-1.6,0c0,0,0,0,0-0.1c0-0.1,0.1-0.2,0.1-0.4c0.1-0.2,0.4-0.4,0.9-0.4c0.1,0,1,0.1,1.9-0.8l0,0v-0.1
		l-0.2-0.4v0.1l0,0c0,0-0.1,0.8-2,0.9c0,0-0.5,0.1-0.8,0.5c-0.1,0.2-0.1,0.4-0.1,0.6s0.1,0.4,0.1,0.6c0,0.1,0.2,0.3,0.2,0.7
		c0,0.3-0.1,0.7-0.4,1.2c0,0-6,7.2-6.4,7.7c-0.1-0.1-3.3-3.5-3.3-3.5c0.1,0,5.6-7.5,5.6-7.5s0.7-0.8,2.1-0.5
		C38.9,33.4,39.1,33.1,39.3,32.8L39.3,32.8C39.3,32.8,39.3,32.8,39.3,32.8z"/>
	<path class="st9" d="M30,58c0.4,0.7,2,2.5,2,2.5s0.4,0.2,1.2-0.7c0,0,2-2.1,2.5-3.2c0.4-1,2.4-3.2,3.3-3.8l0,0l-1.3-1.1l-1.9,1.7
		l-1.4,0.3L30,57.3l0,0C30,57.3,29.8,57.6,30,58L30,58L30,58z"/>
	<path class="st9" d="M40.5,52.5c0,0,0.9,1.4,1.4,2.5c0,0,0.1,1.3,0.9,0.8l0,0l0.9-0.7l0,0c0,0,0.7-0.2-0.1-1c-0.8-0.7-1.6-3-1.6-3
		l0,0L40.5,52.5C40.5,52.5,40.5,52.5,40.5,52.5z"/>
	<polygon class="st0" points="38.6,50.2 42.2,47.2 42,46.8 38.6,49.4 	"/>
	<path class="st0" d="M41.9,46.8l-3.4,2.6l0.1,0.9l3.7-3.2L41.9,46.8L41.9,46.8L41.9,46.8z M42,46.9c0,0.1,0.1,0.2,0.1,0.2
		c-0.1,0.1-3.3,2.8-3.4,3c-0.1-0.2-0.1-0.7-0.1-0.7C38.6,49.4,41.9,47,42,46.9L42,46.9L42,46.9z"/>
	<polygon class="st0" points="42.7,46.8 45.9,44.1 45.6,43.9 42.3,46.4 	"/>
	<path class="st0" d="M45.6,43.8l-3.4,2.5l0.4,0.5l3.3-2.7L45.6,43.8L45.6,43.8L45.6,43.8z M45.6,43.9c0.1,0.1,0.1,0.2,0.2,0.2
		c-0.1,0.1-3,2.5-3.1,2.6c-0.1-0.1-0.3-0.3-0.4-0.4C42.5,46.3,45.6,44,45.6,43.9L45.6,43.9C45.6,43.9,45.6,43.9,45.6,43.9z"/>
	<polygon class="st0" points="42,45.9 45.4,43.6 45.5,43.8 42.2,46.2 	"/>
	<path class="st0" d="M45.4,43.6L42,45.9l0.2,0.3l3.3-2.5L45.4,43.6L45.4,43.6C45.4,43.6,45.4,43.6,45.4,43.6z M45.4,43.7
		C45.4,43.7,45.4,43.7,45.4,43.7c0,0.1-3.1,2.4-3.2,2.4c0-0.1-0.1-0.1-0.1-0.2C42.2,45.9,45.3,43.7,45.4,43.7L45.4,43.7
		C45.4,43.7,45.4,43.7,45.4,43.7z"/>
	<path class="st0" d="M45.4,42.8l0.9,0.9l1.8-1.5l-0.7-0.8l0,0c0,0-0.2-0.2-0.5,0.1C46.6,41.8,45.4,42.8,45.4,42.8L45.4,42.8
		C45.4,42.8,45.4,42.8,45.4,42.8z"/>
	<path class="st0" d="M47.1,41.3c-0.1,0-0.2,0.1-0.3,0.1c-0.2,0.3-1.4,1.3-1.5,1.3l0,0v0.1l0.9,0.9l1.9-1.5l-0.8-0.8l0,0
		C47.4,41.4,47.3,41.3,47.1,41.3L47.1,41.3L47.1,41.3z M46.9,41.5c0.1-0.1,0.1-0.1,0.2-0.1c0.1,0,0.2,0.1,0.2,0.1s0.6,0.6,0.7,0.7
		c-0.1,0.1-1.6,1.4-1.7,1.4c0-0.1-0.7-0.7-0.8-0.8C45.6,42.6,46.7,41.8,46.9,41.5L46.9,41.5C46.9,41.5,46.9,41.5,46.9,41.5z"/>
	<polygon class="st4" points="49.8,7.4 51.1,11.1 55.4,11.1 52,13.4 53.2,17.1 49.8,14.8 46.4,17.1 47.7,13.4 44.3,11.1 48.5,11.1 	
		"/>
	<path class="st1" d="M49.7,5.2c0,0-1.7,4.9-1.8,5.1c-0.2,0-6.2,0-6.2,0s4.9,3.3,5,3.4c-0.1,0.2-1.9,5.4-1.9,5.4s4.9-3.3,5-3.3
		c0.2,0.1,5,3.3,5,3.3s-1.8-5.3-1.9-5.4c0.1-0.1,5-3.4,5-3.4s-5.9,0-6.2,0c-0.1-0.2-1.9-5.4-1.9-5.4l0,0L49.7,5.2L49.7,5.2z
		 M48,10.6h0.1l0,0c0,0,1.5-4.2,1.7-4.9c0.2,0.7,1.7,4.9,1.7,4.9s4.8,0,5.5,0c-0.6,0.4-4.5,3-4.5,3s1.5,4.2,1.7,4.9
		c-0.6-0.4-4.5-3-4.5-3s-3.8,2.6-4.5,3c0.2-0.7,1.7-4.9,1.7-4.9s-3.8-2.6-4.5-3C43.4,10.6,48,10.6,48,10.6L48,10.6
		C48,10.6,48,10.6,48,10.6z"/>
	<path class="st1" d="M78,25.6c0.4-0.2,0.9-0.2,1-0.1c0.1,0.2-0.1,0.6-0.6,0.8s-0.9,0.2-1,0C77.4,26.1,77.6,25.7,78,25.6L78,25.6
		C78,25.6,78,25.6,78,25.6z"/>
	<path class="st1" d="M78.8,26.4c0.6-0.4,1.2-0.4,1.3-0.2c0.2,0.2-0.1,0.7-0.6,1.1c-0.6,0.4-1.2,0.4-1.4,0.2
		C77.9,27.2,78.2,26.7,78.8,26.4L78.8,26.4L78.8,26.4z"/>
	<path class="st1" d="M79.5,27.5c0.6-0.4,1.2-0.4,1.5-0.1c0.2,0.2-0.1,0.8-0.7,1.2C79.7,29,79,29,78.9,28.8
		C78.6,28.5,78.9,27.9,79.5,27.5L79.5,27.5C79.5,27.5,79.5,27.5,79.5,27.5z"/>
	<path class="st1" d="M80.4,28.8c0.6-0.4,1.3-0.4,1.5-0.1c0.2,0.3-0.1,0.9-0.7,1.3c-0.6,0.4-1.4,0.4-1.5,0.1
		C79.5,29.8,79.8,29.2,80.4,28.8L80.4,28.8L80.4,28.8z"/>
	<path class="st1" d="M81.2,30.3c0.6-0.4,1.4-0.5,1.5-0.2c0.2,0.4-0.1,0.9-0.7,1.3c-0.6,0.4-1.4,0.5-1.5,0.1
		C80.3,31.2,80.6,30.6,81.2,30.3L81.2,30.3L81.2,30.3z"/>
	<path class="st1" d="M82.2,31.7c0.7-0.3,1.4-0.2,1.6,0.2c0.2,0.4-0.1,1-0.8,1.3c-0.7,0.4-1.4,0.2-1.7-0.1
		C81.1,32.6,81.5,32,82.2,31.7L82.2,31.7C82.2,31.7,82.2,31.7,82.2,31.7z"/>
	<path class="st1" d="M83.1,33.5c0.7-0.3,1.4-0.2,1.6,0.2c0.2,0.4-0.1,1-0.8,1.3c-0.7,0.3-1.4,0.2-1.7-0.1
		C82.1,34.4,82.4,33.9,83.1,33.5L83.1,33.5C83.1,33.5,83.1,33.5,83.1,33.5z"/>
	<path class="st1" d="M84,35.3c0.7-0.3,1.5-0.2,1.6,0.2c0.2,0.4-0.2,1-1,1.2c-0.7,0.2-1.5,0.1-1.7-0.2C82.8,36.1,83.2,35.5,84,35.3
		L84,35.3C84,35.3,84,35.3,84,35.3z"/>
	<path class="st1" d="M86.3,37.3c0.1,0.1,0.1,0.1,0.1,0.2l0,0L85.5,38l0,0c-0.2,0.1-0.2,0.4-0.2,0.6c-0.7,0.2-1.5,0.2-1.7-0.2
		c-0.2-0.4,0.3-1,1.1-1.2C85.4,36.8,86.2,36.9,86.3,37.3L86.3,37.3C86.3,37.3,86.3,37.3,86.3,37.3z"/>
	<path class="st1" d="M80.4,24.5c0.4-0.1,0.8-0.1,1,0.1c0.1,0.2-0.1,0.4-0.4,0.5c-0.4,0.1-0.9,0.1-1-0.1
		C79.8,24.8,80,24.6,80.4,24.5L80.4,24.5L80.4,24.5z"/>
	<path class="st1" d="M81.2,25.3c0.5-0.2,1.1-0.2,1.3,0.1c0.2,0.2,0,0.6-0.5,0.7c-0.5,0.2-1.1,0.2-1.3-0.1
		C80.5,25.8,80.7,25.5,81.2,25.3L81.2,25.3L81.2,25.3z"/>
	<path class="st1" d="M82.1,26.3c0.6-0.2,1.2-0.2,1.4,0.1c0.2,0.2,0,0.6-0.6,0.8c-0.5,0.2-1.2,0.2-1.4-0.1
		C81.3,26.9,81.6,26.5,82.1,26.3L82.1,26.3C82.1,26.3,82.1,26.3,82.1,26.3z"/>
	<path class="st1" d="M83.2,27.4c0.6-0.2,1.2-0.2,1.5,0.1c0.2,0.2,0.1,0.7-0.5,0.9c-0.6,0.2-1.2,0.2-1.5-0.1
		C82.4,28,82.6,27.6,83.2,27.4L83.2,27.4L83.2,27.4z"/>
	<path class="st1" d="M84.1,28.7c0.6-0.2,1.2-0.2,1.5,0.1c0.2,0.2,0.1,0.7-0.5,0.9c-0.6,0.2-1.3,0.1-1.5-0.1
		C83.3,29.3,83.5,28.9,84.1,28.7L84.1,28.7L84.1,28.7z"/>
	<path class="st1" d="M84.2,31.1c-0.2-0.4,0-0.8,0.6-1c0.6-0.1,1.4,0.1,1.7,0.4l0,0l0,0v0.6l0,0c-0.1,0.2-0.3,0.3-0.6,0.4
		C85.3,31.6,84.5,31.5,84.2,31.1L84.2,31.1L84.2,31.1z"/>
	<path class="st1" d="M85,32.9c-0.3-0.4-0.1-0.9,0.6-1.1c0.3-0.1,0.6-0.1,0.9,0l0,0v0.9l0,0c-0.1,0.2,0,0.5,0,0.7
		C85.9,33.4,85.3,33.2,85,32.9L85,32.9C85,32.9,85,32.9,85,32.9z"/>
	<path class="st1" d="M86.2,35.3c-0.4-0.4-0.1-0.9,0.6-1.1l0,0h0.1l0,0l0,0c1.2,0.3,1.5,1,1.5,1.3c-0.1,0.1-0.2,0.2-0.4,0.2
		C87.3,35.9,86.5,35.6,86.2,35.3L86.2,35.3C86.2,35.3,86.2,35.3,86.2,35.3z"/>
	<path class="st1" d="M78.6,29c0.3,0.1,0.4,0.6,0.1,1c-0.2,0.4-0.6,0.7-0.9,0.6c-0.3-0.1-0.4-0.6-0.1-1C77.9,29.2,78.4,28.9,78.6,29
		L78.6,29L78.6,29z"/>
	<path class="st1" d="M77.7,27.9c0.2,0.1,0.3,0.5,0.1,0.9c-0.2,0.4-0.6,0.6-0.7,0.5c-0.2-0.1-0.3-0.5-0.1-0.9
		C77.2,28,77.5,27.9,77.7,27.9L77.7,27.9C77.7,27.9,77.7,27.9,77.7,27.9z"/>
	<path class="st1" d="M79.3,30.3c0.2,0.1,0.3,0.6,0.1,1.1c-0.2,0.5-0.7,0.8-0.9,0.7c-0.2-0.1-0.2-0.6-0.1-1.1
		C78.6,30.5,79,30.2,79.3,30.3L79.3,30.3L79.3,30.3z"/>
	<path class="st1" d="M79.9,31.7c0.3,0.1,0.4,0.6,0.2,1.1c-0.2,0.5-0.6,0.8-0.9,0.7c-0.2-0.1-0.4-0.6-0.1-1.1
		C79.3,31.9,79.7,31.6,79.9,31.7L79.9,31.7L79.9,31.7z"/>
	<path class="st1" d="M80.8,33c0.3,0.1,0.4,0.7,0.2,1.2c-0.2,0.6-0.6,0.9-0.9,0.8c-0.3-0.1-0.4-0.6-0.2-1.2
		C80,33.2,80.5,32.9,80.8,33L80.8,33L80.8,33z"/>
	<path class="st1" d="M81.5,34.9c0.4,0.1,0.5,0.7,0.2,1.3c-0.2,0.6-0.7,0.9-1.1,0.8c-0.4-0.1-0.4-0.7-0.2-1.2
		C80.7,35.2,81.2,34.8,81.5,34.9L81.5,34.9L81.5,34.9z"/>
	<path class="st1" d="M82.2,36.9c0.4,0.1,0.4,0.7,0.2,1.2c-0.2,0.6-0.7,1-1,0.9c-0.4-0.1-0.5-0.7-0.2-1.2
		C81.4,37.1,81.9,36.8,82.2,36.9L82.2,36.9C82.2,36.9,82.2,36.9,82.2,36.9z"/>
	<path class="st1" d="M82.9,38.8c0.3,0.1,0.2,0.7-0.1,1.2c-0.4,0.6-0.9,0.8-1.2,0.7c-0.2-0.2-0.2-0.7,0.1-1.2
		C82.1,38.9,82.6,38.6,82.9,38.8L82.9,38.8C82.9,38.8,82.9,38.8,82.9,38.8z"/>
	<path class="st1" d="M83.7,40.5c0.2,0.1,0.2,0.7-0.1,1.2c-0.3,0.6-0.9,0.8-1.1,0.6c-0.3-0.1-0.3-0.7,0.1-1.2
		C82.9,40.5,83.4,40.3,83.7,40.5L83.7,40.5C83.7,40.5,83.7,40.5,83.7,40.5z"/>
	<path class="st1" d="M84.1,42.3c0.3,0.2,0.3,0.7-0.1,1.2c-0.4,0.5-0.9,0.8-1.2,0.6c-0.2-0.2-0.2-0.7,0.1-1.2
		C83.3,42.4,83.9,42.1,84.1,42.3L84.1,42.3C84.1,42.3,84.1,42.3,84.1,42.3z"/>
	<path class="st1" d="M77.5,32.6c0.1-0.1,0.2-0.2,0.2-0.3c0.2,0.4,0.4,0.7,0.6,1.1c-0.2,0.2-0.5,0.4-0.7,0.2
		C77.4,33.5,77.3,33.1,77.5,32.6L77.5,32.6L77.5,32.6z"/>
	<path class="st1" d="M78.1,34.1c0.1-0.2,0.2-0.3,0.3-0.4c0.1,0.4,0.3,0.7,0.5,1.1c-0.2,0.3-0.6,0.5-0.8,0.4
		C77.9,35.1,77.9,34.6,78.1,34.1L78.1,34.1C78.1,34.1,78.1,34.1,78.1,34.1z"/>
	<path class="st1" d="M78.7,35.6c0.1-0.2,0.2-0.4,0.3-0.5c0.2,0.4,0.4,0.8,0.5,1.2c-0.2,0.2-0.4,0.4-0.7,0.3
		C78.6,36.6,78.5,36.1,78.7,35.6L78.7,35.6L78.7,35.6z"/>
	<path class="st1" d="M79.3,37.3c0.1-0.2,0.2-0.4,0.4-0.6c0.2,0.5,0.3,1,0.5,1.4c-0.2,0.2-0.4,0.4-0.7,0.3
		C79.2,38.3,79.1,37.8,79.3,37.3L79.3,37.3C79.3,37.3,79.3,37.3,79.3,37.3z"/>
	<path class="st1" d="M79.8,39c0.1-0.3,0.3-0.5,0.4-0.7c0.2,0.5,0.3,1,0.4,1.4c-0.2,0.4-0.5,0.5-0.7,0.4
		C79.7,40.1,79.6,39.5,79.8,39L79.8,39L79.8,39z"/>
	<path class="st1" d="M80.2,40.8c0.2-0.4,0.4-0.6,0.6-0.7c0.1,0.5,0.3,1,0.4,1.4c-0.2,0.3-0.6,0.5-0.8,0.4
		C80.1,41.8,80,41.3,80.2,40.8L80.2,40.8C80.2,40.8,80.2,40.8,80.2,40.8z"/>
	<path class="st1" d="M80.9,42.5c0.1-0.2,0.3-0.4,0.4-0.5c0.1,0.5,0.2,1,0.4,1.4c-0.3,0.2-0.6,0.4-0.9,0.2
		C80.5,43.6,80.6,43,80.9,42.5L80.9,42.5L80.9,42.5z"/>
	<path class="st1" d="M81.1,44.6c0.2-0.2,0.4-0.5,0.7-0.6c0.1,0.5,0.2,0.9,0.3,1.3c-0.3,0.4-0.8,0.7-1.1,0.5
		C80.8,45.7,80.8,45.1,81.1,44.6L81.1,44.6L81.1,44.6z"/>
	<path class="st1" d="M77,31.1c0.2,0.2,0.4,0.6,0.5,0.8c-0.2,0.4-0.5,0.6-0.7,0.6c-0.2-0.1-0.2-0.5-0.1-0.9
		C76.7,31.4,76.9,31.3,77,31.1L77,31.1C77,31.1,77,31.1,77,31.1z"/>
	<path class="st1" d="M33.6,79.7v-0.2l0,0c-0.3,0.1-0.4-0.1-0.4-0.4c0-0.2,0-0.4,0-0.7l0,0l0.1-1.6l0,0l0.9,2.4l0.2-0.1l0.9-2.5l0,0
		v2.7L35,79.4v0.2l1.4-0.1v-0.2h-0.2l-0.1-3l0.2-0.1V76l-1.2,0.1l-0.6,1.9l0,0l-0.6-1.7l-1.3,0.1v0.2h0.3L32.8,79l0,0
		c0,0.2,0,0.5-0.4,0.5l0,0v0.2L33.6,79.7L33.6,79.7z"/>
	<path class="st1" d="M38.6,79.3c-0.7,0.1-0.9-0.7-0.9-1.5c0-0.9,0.2-1.6,0.9-1.6s0.8,0.7,0.8,1.6C39.4,78.6,39.3,79.3,38.6,79.3
		L38.6,79.3L38.6,79.3z M38.6,79.6c0.9-0.1,1.8-0.7,1.8-1.9c0-1.2-0.9-1.9-1.8-1.9s-1.8,0.7-1.8,1.9C36.8,78.9,37.7,79.6,38.6,79.6
		L38.6,79.6L38.6,79.6z"/>
	<path class="st1" d="M41.5,80.6c0.2,0.1,0.4,0.2,0.6,0.2c0.3,0.1,0.7-0.1,0.7-0.4c0-0.2-0.1-0.4-0.5-0.4c-0.1,0-0.1,0-0.2,0l0,0
		l0.2-0.3H42l-0.2,0.5h0.1l0,0c0,0,0.1,0,0.1,0c0.1,0,0.2,0.1,0.2,0.2c0,0.1-0.1,0.1-0.2,0.1c-0.1,0-0.2-0.1-0.4-0.1l0,0L41.5,80.6
		C41.5,80.6,41.5,80.6,41.5,80.6z M43.5,78.8c-0.2,0.3-0.5,0.6-0.9,0.6c-0.8-0.1-0.9-1.2-0.9-1.9c0-0.4,0.1-1.2,0.6-1.1
		c0.6,0.1,0.9,0.7,1.1,1.1l0,0h0.2l-0.2-1.2l0,0c-0.1,0.1-0.2,0.1-0.4,0.1c-0.1,0-0.2-0.1-0.3-0.1c-0.1-0.1-0.2-0.1-0.4-0.1
		c-0.8-0.1-1.6,0.4-1.6,1.9c0,0.9,0.7,1.7,1.6,1.9c0.7,0.1,1.1-0.4,1.4-0.9l0,0L43.5,78.8C43.5,78.8,43.5,78.8,43.5,78.8z"/>
	<path class="st1" d="M44.9,80v-0.3l0,0c-0.2,0-0.5-0.1-0.5-0.2c0-0.1,0.1-0.1,0.1-0.2l0,0l0.1-0.4l1.2,0.1l0.2,0.7l-0.3,0.1V80
		l1.4,0.1v-0.2L47,79.8l-1.1-3.3l-0.9-0.1l0.1,0.4L44.2,79l0,0c-0.1,0.2-0.1,0.6-0.5,0.6l0,0v0.2L44.9,80C44.9,80,44.9,80,44.9,80z
		 M45.3,77L45.3,77l0.5,1.6l-1.1-0.1L45.3,77C45.3,77,45.3,77,45.3,77z"/>
	<path class="st1" d="M48.3,80.1v-0.2l0,0c-0.3,0-0.4-0.2-0.4-0.4c0-0.2,0.1-0.4,0.1-0.7l0,0l0.1-1.6l0,0l0.9,2.4h0.2l0.9-2.4l0,0
		l0.1,2.7h-0.3v0.2h1.5v-0.2h-0.3l-0.1-3l0.3-0.1v-0.2H50l-0.6,1.8l0,0l-0.6-1.8h-1.2v0.2l0.3,0.1l-0.1,2.5l0,0
		c0,0.2-0.1,0.4-0.5,0.4l0,0v0.3L48.3,80.1C48.3,80.1,48.3,80.1,48.3,80.1z"/>
	<path class="st1" d="M51.9,79.7l-0.3,0.1V80l1.9-0.2l0,0c1-0.1,1.3-0.5,1.3-1.1c0-0.7-0.6-0.8-1.3-0.9l0,0l0,0l0,0
		c0.6-0.1,1.1-0.3,1.1-0.9c0-0.7-0.7-0.8-1.4-0.7l0,0l-1.5,0.1v0.2h0.3V79.7C51.9,79.7,51.9,79.7,51.9,79.7z M52.8,78.2
		c0.1-0.1,0.1-0.1,0.2-0.1c0.7-0.1,0.9,0.2,0.9,0.7c0,0.6-0.2,0.7-0.8,0.8c-0.1,0-0.2,0-0.2,0l0,0L52.8,78.2
		C52.8,78.2,52.8,78.2,52.8,78.2z M52.8,76.7c0.1-0.1,0.2-0.1,0.3-0.1c0.5-0.1,0.6,0.2,0.6,0.6c0,0.3-0.1,0.6-0.6,0.7l0,0h-0.3V76.7
		C52.8,76.7,52.8,76.7,52.8,76.7z"/>
	<polygon class="st1" points="55.3,76.4 55.6,76.4 55.6,79.3 55.3,79.4 55.3,79.6 56.9,79.5 56.9,79.2 56.5,79.2 56.5,76.2 
		56.9,76.2 56.9,75.9 55.3,76.1 	"/>
	<path class="st1" d="M59,78.8c0.2,0.1,0.3,0.1,0.3,0.4c0,0.1-0.1,0.1-0.2,0.1c-0.7,0-0.8-0.7-0.8-1.6c0-0.9,0.1-1.6,0.8-1.6
		s0.9,0.7,0.9,1.6c0,0.5-0.1,0.9-0.2,1.2c-0.1-0.2-0.3-0.2-0.6-0.2c-0.1,0-0.1,0-0.2,0l0,0V78.8L59,78.8z M60.8,79.6
		c-0.1,0-0.2,0.1-0.3,0.1c-0.2,0-0.4-0.2-0.5-0.5c0.5-0.3,0.9-0.8,0.9-1.5c0-1.2-0.9-1.9-1.8-1.9c-0.9,0-1.7,0.7-1.7,1.9
		c0,1.2,0.9,1.9,1.7,1.9c0.1,0,0.2,0,0.3-0.1c0.1,0.4,0.4,0.7,0.8,0.7c0.2,0,0.5-0.1,0.6-0.2l0,0L60.8,79.6
		C60.8,79.6,60.8,79.6,60.8,79.6z"/>
	<path class="st1" d="M63.6,75.9v0.3l0,0c0.2,0.1,0.4,0.1,0.4,0.6l0,0v1.5l0,0c0,0.5-0.2,0.9-0.8,0.9c-0.5-0.1-0.8-0.3-0.8-0.9l0,0
		v-2.2h0.4v-0.2l-1.5-0.1v0.2l0.2,0.1v2.2l0,0c0,0.7,0.6,1.2,1.4,1.2c1.2,0.1,1.3-0.7,1.3-1.2l0,0v-1.7l0,0c0-0.2,0.1-0.4,0.4-0.4
		l0,0V76L63.6,75.9L63.6,75.9z"/>
	<path class="st1" d="M66.2,78l0.3,0.1l0,0c0.4,0.1,0.4,0.4,0.4,0.7l0,0h0.2v-1.4l-0.2-0.1l0,0c0,0.2-0.1,0.6-0.4,0.5l0,0l-0.3-0.1
		v-1.2l0,0c0.1,0,0.2,0,0.4,0c0.6,0.1,1,0.5,1.3,1.1l0,0h0.2l-0.2-1.2l0,0c-0.2,0.1-0.5,0-0.7,0l0,0L65,76.1v0.2l0.2,0.1v3H65v0.2
		l2.1,0.4l0,0c0.3,0.1,0.6,0.1,0.7,0.2l0,0l0.3-1.1l-0.2-0.1l0,0c-0.3,0.5-0.7,0.8-1.4,0.7c-0.1,0-0.3-0.1-0.4-0.1l0,0L66.2,78
		C66.2,78,66.2,78,66.2,78z"/>
	<path class="st1" d="M34.8,72.2c0.1,0,0.1,0,0.2,0c0.4,0,0.5,0.3,0.5,0.6c0,0.2-0.1,0.6-0.5,0.5c-0.1,0-0.1,0-0.2,0l0,0V72.2
		C34.8,72.2,34.8,72.2,34.8,72.2z M34.2,74.4l-0.2,0.1v0.2H35v-0.2h-0.2v-1l0,0c0.1,0,0.2,0,0.2-0.1l0,0l0.6,1.2h0.8v-0.2h-0.2
		l-0.5-1.1l0,0c0.3-0.1,0.5-0.3,0.5-0.6c0-0.5-0.4-0.7-1-0.7l0,0h-1.3v0.2h0.2L34.2,74.4C34.2,74.4,34.2,74.4,34.2,74.4z"/>
	<path class="st1" d="M38,73.5h0.2l0,0c0.2,0.1,0.3,0.3,0.4,0.5l0,0h0.2v-1.1h-0.2l0,0c-0.1,0.2-0.1,0.4-0.4,0.4l0,0H38v-1l0,0
		c0.1,0,0.2,0,0.3,0.1c0.5,0,0.7,0.2,1,0.7l0,0h0.2l-0.2-0.9l0,0c-0.1,0-0.4,0-0.6,0l0,0L37.1,72v0.2l0.2,0.1v2.2h-0.2v0.2l1.6,0.1
		l0,0c0.2,0,0.4,0.1,0.6,0.1l0,0l0.2-0.9L39.3,74l0,0c-0.2,0.4-0.5,0.6-1,0.6c-0.1,0-0.2,0-0.3-0.1l0,0V73.5
		C38,73.5,38,73.5,38,73.5z"/>
	<path class="st1" d="M41,72.8c0.1,0,0.2,0,0.2,0c0.4,0.1,0.5,0.4,0.5,0.6c0,0.3-0.1,0.6-0.5,0.4c-0.1,0-0.1,0-0.2,0l0,0V72.8
		L41,72.8z M40.4,74.9h-0.2v0.2l1.1,0.2v-0.2L41,75v-1l0.3,0.1l0,0c0.6,0.1,1.1,0.1,1.1-0.6s-0.6-0.8-1.2-0.9l0,0l-1.1-0.2v0.2
		l0.2,0.1V74.9C40.4,74.9,40.4,74.9,40.4,74.9z"/>
	<path class="st1" d="M44.3,72.7l0.6-0.3l0,0c0.1,0,0.2-0.1,0.2-0.2c0-0.1-0.1-0.2-0.2-0.2c-0.1,0-0.2,0.1-0.4,0.3l0,0L44,72.7
		L44.3,72.7C44.3,72.7,44.3,72.7,44.3,72.7z M44.8,72.9v0.2l0,0c0.2,0.1,0.3,0.1,0.3,0.4l0,0v1.2l0,0c0,0.4-0.1,0.7-0.6,0.7
		c-0.3,0-0.6-0.2-0.6-0.6l0,0v-1.7h0.2v-0.2L43,72.8V73l0.2,0.1v1.6l0,0c0,0.6,0.5,0.9,1.1,0.9c0.9,0,1-0.6,1-0.9l0,0v-1.2l0,0
		c0-0.2,0.1-0.3,0.3-0.3l0,0V73L44.8,72.9C44.8,72.9,44.8,72.9,44.8,72.9z"/>
	<path class="st1" d="M46.4,75.4h-0.2v0.2l1.4,0.1l0,0c0.7,0.1,1-0.2,1-0.7c0-0.5-0.5-0.6-1-0.7l0,0l0,0l0,0c0.4,0,0.9-0.1,0.9-0.6
		c0-0.6-0.6-0.7-1.1-0.7l0,0L46.2,73v0.2l0.2,0.1V75.4C46.4,75.4,46.4,75.4,46.4,75.4z M47,74.3c0.1,0,0.1,0,0.2,0
		c0.5,0,0.6,0.3,0.6,0.6c0,0.4-0.1,0.6-0.6,0.6c-0.1,0-0.2,0-0.2-0.1l0,0L47,74.3C47,74.3,47,74.3,47,74.3z M47,73.2
		c0.1,0,0.2,0,0.2,0c0.4,0,0.5,0.2,0.5,0.5c0,0.2-0.1,0.4-0.5,0.4l0,0H47V73.2L47,73.2z"/>
	<path class="st1" d="M51.4,74.8l-0.2-0.1l0,0c-0.2,0.3-0.3,0.7-0.8,0.7c-0.1,0-0.2,0-0.2,0l0,0v-2.2h0.2V73h-1.1v0.2h0.2v2.2
		l-0.2,0.1v0.2h1.3l0,0c0.2,0,0.5,0,0.6,0.1l0,0L51.4,74.8C51.4,74.8,51.4,74.8,51.4,74.8z"/>
	<polygon class="st1" points="52.1,73.1 52.3,73.1 52.3,75.4 52.1,75.4 52.1,75.6 53.3,75.6 53.3,75.4 53,75.4 53,73.1 53.3,73.1 
		53.3,72.9 52.1,73 	"/>
	<path class="st1" d="M56.1,74.6c-0.1,0.2-0.3,0.6-0.7,0.6c-0.6,0.1-0.7-0.8-0.7-1.4c0-0.2,0.1-0.9,0.5-0.9c0.4-0.1,0.7,0.4,0.8,0.7
		l0,0l0.2-0.1L56,72.7l0,0c-0.1,0-0.1,0.1-0.2,0.1c-0.1,0-0.1,0-0.2,0c-0.1,0-0.2,0-0.3,0c-0.6,0-1.2,0.6-1.2,1.6
		c0,0.7,0.5,1.2,1.2,1.1c0.5,0,0.9-0.4,1.1-0.8l0,0L56.1,74.6L56.1,74.6z"/>
	<path class="st1" d="M57.6,75.2v-0.2l0,0c-0.2,0.1-0.3,0-0.3-0.1c0,0,0-0.1,0-0.1l0,0l0.1-0.3l0.9-0.1l0.2,0.6l-0.2,0.1v0.2
		l1.1-0.2v-0.2h-0.2l-0.9-2.3l-0.7,0.1l0.1,0.2l-0.6,1.9l0,0c-0.1,0.2-0.1,0.4-0.4,0.5l0,0v0.2L57.6,75.2L57.6,75.2z M57.8,73
		L57.8,73l0.4,1.1l-0.8,0.1L57.8,73L57.8,73z"/>
	<path class="st1" d="M62.2,72.2c0.1,0,0.1,0,0.2,0c0.8-0.1,0.9,0.6,0.9,1.1c0,0.6-0.1,1.2-0.9,1.2c-0.1,0-0.1,0-0.2,0l0,0V72.2
		L62.2,72.2z M61.6,74.4l-0.2,0.1v0.2l1.2-0.1l0,0c0.9-0.1,1.4-0.7,1.4-1.4c0-0.8-0.5-1.3-1.4-1.2l0,0L61.3,72v0.2h0.2V74.4
		C61.6,74.4,61.6,74.4,61.6,74.4z"/>
	<path class="st1" d="M65.6,73.2h0.2l0,0c0.3,0,0.4,0.2,0.4,0.4l0,0h0.2v-1.1h-0.2l0,0c0,0.2-0.1,0.4-0.4,0.4l0,0h-0.2v-0.9l0,0
		c0.1-0.1,0.2-0.1,0.2-0.1c0.5,0,0.8,0.2,1,0.7l0,0l0.2-0.1l-0.2-0.9l0,0c-0.1,0.1-0.4,0.1-0.6,0.1l0,0l-1.5,0.1v0.2h0.2v2.2h-0.2
		v0.2h1.5l0,0c0.2,0,0.4,0,0.6,0.1l0,0l0.2-0.9l-0.2-0.1l0,0c-0.2,0.4-0.5,0.7-1.1,0.7c-0.1,0-0.2,0-0.2,0l0,0L65.6,73.2
		C65.6,73.2,65.6,73.2,65.6,73.2z"/>
	<path class="st6" d="M25.6,75.6c0,0-1.1,1.5,0.1,2c1.2,0.5,1.9,0,1.9,0l0,0L25.6,75.6C25.6,75.6,25.6,75.6,25.6,75.6z"/>
	<path class="st6" d="M49.8,55.2l-1.2,1.4l0,0c0,0-0.1,0.9,1.4,0.7c1.4-0.1,1.2-0.7,1.2-0.7l0,0L49.8,55.2L49.8,55.2z"/>
	<path class="st0" d="M49.8,55.1l-1.4,1.5l0,0l0,0c0,0.1,0,0.4,0.3,0.7c0.2,0.2,0.7,0.4,1.2,0.3c0.7-0.1,1.1-0.2,1.3-0.6
		c0.2-0.2,0.1-0.4,0.1-0.4l0,0l0,0L49.8,55L49.8,55.1C49.8,55.1,49.8,55.1,49.8,55.1z M49.8,55.4c0.2,0.2,1.2,1.2,1.2,1.3l0,0
		c0,0,0,0.1-0.1,0.2c-0.1,0.1-0.4,0.3-1.1,0.4c-0.4,0.1-0.8,0-1-0.2c-0.2-0.1-0.2-0.3-0.2-0.4C48.8,56.6,49.7,55.6,49.8,55.4
		L49.8,55.4C49.8,55.4,49.8,55.4,49.8,55.4z"/>
	<path class="st0" d="M43.5,49l0.6,0.7l0,0c0,0,0,0.6-1,0.9c-0.9,0.4-1.1,0.1-1.4-0.2l0,0l0.4-0.4l0,0c0,0,0.4,0.4,1.1,0.1
		c0,0,0.2-0.2-0.3-0.2c-0.5,0-0.4-0.3-0.4-0.3l0,0L43.5,49C43.5,49,43.5,49,43.5,49z M38.1,51.4l4.3-3.9l0.1,0.1l-0.2,0.7l0.7-0.8
		v-0.4l3.6-3l1.1,1.1l0,0c0,0,0.1,0.2-0.6,0.4l0,0l-0.8,0.7l0,0c0,0,2,2,6.9,1.7l0,0l0.1,2.8l0,0c0,0-5.4,0.5-9.1-2.2l0,0L44,48.8
		l0.4,0.8l0,0c0,0,0.1,0.2-0.5,0.8c0,0-1.1,1.1-2.2,0.4l0,0l-2,1.9l0,0c0,0-0.4,0.2-0.6,0.1c-0.1-0.2-1.1-1.1-1.1-1.1l0,0L38.1,51.4
		C38.1,51.4,38.1,51.4,38.1,51.4z"/>
	<path class="st0" d="M43.4,49l-0.8,0.6l0,0c-0.1,0-0.1,0.1,0,0.2c0.1,0.1,0.2,0.1,0.4,0.1c0.2,0,0.3,0.1,0.3,0.1c0,0.1,0,0.1,0,0.1
		c-0.7,0.2-1.1-0.1-1.1-0.1l0,0h-0.1l-0.4,0.4l0.1,0.1l0,0c0.2,0.3,0.5,0.6,1.4,0.2c0.9-0.4,1-1,1-1c0-0.1-0.6-0.7-0.6-0.7l0,0
		L43.4,49L43.4,49C43.4,49,43.4,49,43.4,49z M43.5,49.1c0.1,0.1,0.6,0.6,0.6,0.6s-0.1,0.5-1,0.9c-0.9,0.3-1.1,0.1-1.3-0.2v-0.1
		c0.1,0,0.3-0.2,0.4-0.3c0.1,0.1,0.6,0.4,1.1,0.1c0.1-0.1,0.1-0.1,0.1-0.1c0-0.1,0-0.1-0.1-0.1c0-0.1-0.1-0.1-0.4-0.1
		c-0.1,0-0.2-0.1-0.3-0.1v-0.1c0-0.1,0-0.1,0-0.1S43.3,49.2,43.5,49.1L43.5,49.1C43.5,49.1,43.5,49.1,43.5,49.1z"/>
	<path class="st0" d="M46.6,44.1L42.9,47v0.4l0,0c0,0-0.3,0.4-0.5,0.6c0.1-0.2,0.1-0.5,0.1-0.5l0,0l-0.2-0.2L38,51.3L38,51.7H38l0,0
		c0.4,0.3,1.1,0.9,1.1,1c0,0.1,0,0.1,0.1,0.1c0.2,0,0.4-0.1,0.5-0.2c0,0,1.9-1.7,2-1.8c1.1,0.7,2.2-0.4,2.2-0.4
		c0.5-0.4,0.6-0.6,0.6-0.7c0-0.1,0-0.1,0-0.1S44.1,49,44,48.9c0.1-0.1,0.2-0.1,0.2-0.1c3.7,2.7,9,2.2,9.1,2.2l0,0h0.1l-0.1-2.8h-0.1
		l0,0c-4.6,0.2-6.6-1.5-6.8-1.7c0.1-0.1,0.7-0.7,0.7-0.7c0.6-0.2,0.6-0.4,0.6-0.5l0,0L46.6,44.1L46.6,44.1L46.6,44.1L46.6,44.1
		C46.6,44.1,46.6,44.1,46.6,44.1z M46.6,44.2c0.1,0.1,1.1,1.1,1.1,1.1c0-0.1,0,0.1-0.6,0.3c0,0.1-0.8,0.7-0.8,0.7l0,0h-0.1l0.1,0.1
		l0,0c0,0,2,2,6.9,1.8c0,0.1,0.1,2.7,0.1,2.7c-0.4,0.1-5.4,0.4-9-2.2l0,0h-0.1l-0.4,0.1l0.5,0.8l0,0c0,0,0.1,0.2-0.5,0.7
		c0,0.1-1.1,1.1-2.2,0.4l0,0l0,0l-2,1.9l0,0c-0.1,0.1-0.3,0.2-0.4,0.1c-0.1,0-0.1,0-0.1,0c-0.1-0.2-0.9-0.9-1.1-1.1l0.1-0.3
		c0,0,4.1-3.8,4.2-3.8c0,0.1,0.1,0.1,0.1,0.1c0,0.1-0.1,0.7-0.1,0.7l0,0h0.1l0.6-0.7l0,0c0,0,0-0.4,0-0.4
		C43,47.1,46.5,44.3,46.6,44.2L46.6,44.2C46.6,44.2,46.6,44.2,46.6,44.2z"/>
	<path class="st6" d="M46.2,47.2c0.1,0.1,2.1,1.7,6.2,1.5l0,0v-0.2l0,0c-4,0.2-6-1.5-6-1.5l0,0L46.2,47.2
		C46.2,47.2,46.2,47.2,46.2,47.2z"/>
	<path class="st6" d="M45.8,47.6c0.1,0.1,2.5,1.8,6.5,1.6l0,0V49l0,0c-4,0.2-6.2-1.5-6.3-1.5l0,0L45.8,47.6
		C45.8,47.6,45.8,47.6,45.8,47.6z"/>
	<path class="st6" d="M45.3,48c0.1,0.1,2.3,2,7.1,1.8l0,0v-0.2l0,0c-4.6,0.2-6.8-1.7-6.9-1.7l0,0L45.3,48L45.3,48z"/>
	<path class="st6" d="M44.9,48.4c0.1,0.1,2.7,2.2,7.5,2l0,0v-0.3l0,0c-4.7,0.1-7.3-1.9-7.4-1.9l0,0L44.9,48.4
		C44.9,48.4,44.9,48.4,44.9,48.4z"/>
	<path class="st0" d="M39.3,47.9c0,0.1,0.7-0.5,0.7-0.5l0,0L39.9,47l0,0C39.9,47,39.3,47.3,39.3,47.9L39.3,47.9
		C39.3,47.9,39.3,47.9,39.3,47.9z M38.6,49.1v-0.7l0.3-0.4l0,0c0,0-0.1-1.1,1.4-1.5l0,0l0.2,0.4l0.9-0.6l0.3,0.4L38.6,49.1
		L38.6,49.1z"/>
	<path class="st0" d="M39.9,46.9c0,0.1-0.7,0.4-0.6,1l0,0V48h0.1l0,0c0,0,0.1,0.1,0.7-0.6l0,0l0,0L39.9,46.9L39.9,46.9
		C39.9,46.9,39.9,46.9,39.9,46.9z M39.9,47c0,0.1,0.1,0.3,0.1,0.4c-0.2,0.2-0.5,0.4-0.6,0.4C39.4,47.4,39.7,47.2,39.9,47L39.9,47
		L39.9,47z"/>
	<path class="st0" d="M41.5,46.4c0,0-0.8,0.5-0.9,0.6c0-0.1-0.2-0.4-0.2-0.4l0,0l0,0l0,0c-1.4,0.4-1.5,1.4-1.5,1.5l0,0l-0.3,0.3
		c0,0.1,0.1,0.7,0.1,0.7l0,0v0.1l3.3-2.5L41.5,46.4L41.5,46.4C41.5,46.4,41.5,46.4,41.5,46.4z M40.6,47c0,0,0.9-0.6,0.9-0.6
		c0.1,0.1,0.2,0.2,0.2,0.3c-0.1,0.1-3,2.2-3.1,2.3c0-0.1-0.1-0.6-0.1-0.6c0.1,0,0.4-0.3,0.4-0.3c0-0.1-0.1-1.1,1.3-1.5
		C40.3,46.7,40.6,47.1,40.6,47L40.6,47L40.6,47C40.6,47,40.6,47,40.6,47z"/>
	<polygon class="st6" points="45,35.3 44.4,35.8 61.2,53.2 	"/>
	<path class="st9" d="M47.1,43.9l1.1,1.1l0,0c0,0,0.5-0.2,0.7-0.8c0.2-0.6,3.3-3.3,4-3.7l0,0l0.5-0.3l-1-1.1L47.1,43.9L47.1,43.9z"
		/>
	<polygon class="st0" points="48.2,41.1 48.6,41.7 52.1,38.8 51.6,38.2 	"/>
	<path class="st0" d="M51.6,38.2l-3.5,2.8l0.5,0.6l3.6-2.9L51.6,38.2L51.6,38.2C51.6,38.2,51.6,38.2,51.6,38.2z M51.6,38.3
		c0.1,0.1,0.4,0.4,0.4,0.5c-0.1,0-3.3,2.7-3.5,2.8c0-0.1-0.3-0.4-0.4-0.5C48.3,41.1,51.6,38.4,51.6,38.3L51.6,38.3
		C51.6,38.3,51.6,38.3,51.6,38.3z"/>
	<polygon class="st6" points="30.7,40.8 33.4,43.6 33.1,44.1 30.3,41.1 	"/>
	<polygon class="st6" points="42.3,33.8 43.4,35 43,35.2 41.9,34 	"/>
	<polygon class="st6" points="43.4,33.3 44.2,34.4 44.6,34.1 43.5,32.8 	"/>
	<path class="st6" d="M40.4,33.1c0,0,1.5-0.1,1.9-1.4l0,0L42,31.4l0,0c0,0-0.7,1.2-1.7,1.2l0,0L40.4,33.1L40.4,33.1z"/>
	<path class="st6" d="M40.2,32.3c0,0,0.3-0.9,1.1-1.1c0,0,0.9-0.4,0.3,0.4c-0.5,0.7-1.3,0.8-1.3,0.8l0,0L40.2,32.3
		C40.2,32.3,40.2,32.3,40.2,32.3z"/>
	<path class="st4" d="M91.8,36.8c0,0,2.7,5-2.2,6.7c0,0-4.8,2.2-8,3.4c-1.5,0.6-5,0.9-5.2,4.3c-0.1,2-0.8,3.4-0.8,3.4
		s-1.5,2.7,1.2,3.9l0,0v-0.8l0,0c0,0-0.2-2.2,2.1-2.3c0,0,6.9-0.3,10.7-2c3.7-1.8,4.6-3,4.1-6.2c-0.4-2.7-0.4-2.1,0.2-4.8
		c0.5-2.8,0.1-4.9-2-6.4l0,0L91.8,36.8C91.8,36.8,91.8,36.8,91.8,36.8z"/>
	<path class="st7" d="M7.8,41.6l-0.1-4l0,0c0,0-0.8,0.7-0.4,3c0,0,0.1,0.3,0.3,0.8C7.7,41.5,7.8,41.6,7.8,41.6L7.8,41.6
		C7.8,41.6,7.8,41.6,7.8,41.6z"/>
	<path class="st7" d="M7.6,37.5c0,0.1-0.8,0.8-0.4,3c0,0.1,0.1,0.3,0.3,0.8l0,0l0.3,0.4v-0.2l-0.1-4.1L7.6,37.5
		C7.6,37.5,7.6,37.5,7.6,37.5z M7.7,41.3c-0.2-0.5-0.3-0.8-0.3-0.8c-0.1-0.5-0.1-0.9-0.1-1.2c0-0.9,0.2-1.4,0.4-1.6
		c0,0.2,0.1,3.5,0.1,3.8C7.7,41.4,7.7,41.3,7.7,41.3L7.7,41.3C7.7,41.3,7.7,41.3,7.7,41.3z"/>
	<path class="st7" d="M23.3,58.8c0,0,1.3-2.8-1.7-3.3l0,0h-0.7l1.4,3.2L23.3,58.8L23.3,58.8z"/>
	<path class="st7" d="M20.9,55.5l1.5,3.3l1,0.1l0,0l0,0c0-0.1,0.6-1.4,0-2.4c-0.3-0.5-0.9-0.9-1.7-1l0,0H20.9L20.9,55.5
		C20.9,55.5,20.9,55.5,20.9,55.5z M21.6,55.5c0.8,0.2,1.4,0.5,1.7,1c0.2,0.3,0.2,0.7,0.2,1c0,0.7-0.2,1.2-0.2,1.3
		c-0.1,0-0.8-0.1-0.9-0.1c-0.1,0-1.4-3-1.4-3.2C21.1,55.5,21.6,55.5,21.6,55.5L21.6,55.5L21.6,55.5z"/>
	<path class="st8" d="M26.6,67.1c0,0,0.7,2.2,2.2,3l0,0l0.2,0.3l0.9-0.3l-2.4-2.8L26.6,67.1L26.6,67.1z"/>
	<path class="st7" d="M9.9,58l-1.2-2.2l0,0c0,0-0.2,1.2,1.1,2.1l0,0L9.9,58L9.9,58z"/>
	<path class="st7" d="M82.9,68.5c0,0,1.7,3.8-4.9,4.8c0,0-2.4,0.4-3.3,4.3c0,0-0.6,1.5-3.4,3.2c-2.8,1.7-3,2.5-1.3,2.7
		c1.7,0.1,4.9,0.9,2.5,2.8c0,0-2.1,1.3-9.3-0.2c0,0-1-0.2-1.5-0.7c-1.1-0.6-1.3-2.1,1.5-2.1c0,0,3.5,0.5,4.8-1.6
		c1.3-2,6.1-5.8,6.1-5.8s1.4-0.7,1.1-2.2c-0.1-0.2-0.1-0.3-0.2-0.5c-0.4-0.6-1.2-1.3-1.2-1.3c1.3,0.6,2.3,0.1,2.3,0.1
		c-0.2-0.7,0.9-0.7,0.9-0.7c1.8,0.6,3.4-0.6,3.4-0.6c1.2-1.6,2.1-1.8,2.5-1.9l0,0L82.9,68.5C82.9,68.5,82.9,68.5,82.9,68.5z"/>
	<path class="st7" d="M77.1,57.6l1.1-2l0,0c0,0-3.3,0.2-1.4,3.2l0,0L77.1,57.6L77.1,57.6z"/>
	<path class="st7" d="M78.2,55.6c-0.1,0-1.4,0.1-1.9,0.9c-0.4,0.6-0.2,1.4,0.4,2.4l0,0l0.1,0.1l0,0c0,0,0.4-1.2,0.4-1.3l1.2-2l0,0
		H78.2L78.2,55.6z M76.2,57.2c0-0.2,0.1-0.5,0.2-0.7c0.4-0.7,1.4-0.8,1.7-0.9c-0.1,0.1-1.1,1.9-1.1,1.9s-0.3,0.9-0.3,1.1
		C76.4,58.1,76.2,57.6,76.2,57.2L76.2,57.2L76.2,57.2z"/>
	<path class="st7" d="M88.9,58.6c-0.4-0.2,3.5-0.4,2.1-3.9C91,54.7,89.2,58.7,88.9,58.6L88.9,58.6L88.9,58.6z"/>
	<path class="st7" d="M90.9,54.7c-0.7,1.6-1.5,3.3-1.9,3.7c-0.1,0.1-0.2,0.1-0.2,0.1l0,0v0.1l0,0h0.1l0,0l0.1-0.1
		c0.1-0.1,0.1-0.1,0.1-0.1c0.5-0.1,1.5-0.4,2-1.4c0.1-0.3,0.2-0.6,0.2-1c0-0.4-0.1-0.9-0.3-1.4l0,0L91,54.6L90.9,54.7
		C90.9,54.7,90.9,54.7,90.9,54.7z M91,54.8c0.2,0.5,0.2,0.9,0.2,1.3c0,0.4-0.1,0.7-0.2,1c-0.4,0.8-1.3,1.1-1.8,1.2
		C89.7,57.6,90.7,55.4,91,54.8L91,54.8L91,54.8z"/>
	<path class="st7" d="M92.5,41.1c0,0,1.4-2.7-0.7-4.6c0,0,0.1,1-0.1,1.4c0,0,0.7,2.5,0.4,3.5C91.5,42.6,92.5,41.1,92.5,41.1
		L92.5,41.1L92.5,41.1z"/>
	<path class="st7" d="M91.7,36.5c0,0,0.1,1-0.1,1.4c0.1,0.1,0.7,2.5,0.4,3.5c-0.2,0.5-0.2,0.6-0.1,0.6s0.1,0.1,0.6-0.7l0,0l0,0l0,0
		C92.5,41.1,94,38.3,91.7,36.5L91.7,36.5v-0.1V36.5C91.7,36.5,91.7,36.5,91.7,36.5z M92,41.3c0.1-0.2,0.1-0.5,0.1-0.7
		c0-1.1-0.4-2.7-0.4-2.7c0.1-0.2,0.1-0.6,0.1-0.8c0-0.2,0-0.3,0-0.4c0.7,0.7,1.1,1.7,1.1,2.4c0,1.1-0.5,2-0.5,2
		c-0.2,0.2-0.4,0.6-0.5,0.7C91.9,41.7,92,41.6,92,41.3L92,41.3C92,41.3,92,41.3,92,41.3z"/>
	<path class="st3" d="M71.8,59c-1.5,0.7-2.5,0.4-2.5,0.4l0,0L69,60l0,0c0.1,0,1.2,0.5,3-0.4c0.6,0.2,2.5,0.8,4.2,0.1l0,0l-0.3-0.7
		l0,0c-1.6,0.7-3.8-0.1-3.8-0.1l0,0l-0.2-0.1L71.8,59L71.8,59z"/>
	<path class="st4" d="M90.5,55.5c0,0,0.9,3-3,3.3c0,0-2.7,0.2-6.4,0c-3.8-0.2-5.3-0.4-6.7,1.9c-1.5,2.3-2.2,3.6-4.4,5.1
		c0,0-2.6,2.4-0.1,4.3l0,0l0.5-1.3l0,0c0,0-0.6-2.7,3.6-2.4c4.1,0.4,7.7,1.1,7.7,1.1s5.8,1.8,7.3-2.4c0,0,0.4-3.5,1.5-4.4
		c0,0,3.4-3.2,0.9-7l0,0L90.5,55.5C90.5,55.5,90.5,55.5,90.5,55.5z"/>
	<path class="st9" d="M27.3,63.4l1.6-0.7l0,0c0,0,2.2,0.2,2.5-0.7c0,0,0.4-0.9,1.5-0.9c0,0,1.5-0.2,2,0.3c0.6,0.6,4,1.1,4,1.1
		s1.1,0.5,2.8-0.8c0,0,0.2-0.2,1.3-0.4c1.1-0.2,1.5-1.4,1.5-1.4s0.9-1,1.5-1.3c0.6-0.3,0.7-0.7,0.7-0.7s0.5-0.2,1.2,0.1
		c0,0,1.1,0.6,3.4,0.6c0,0,1.5,0.9,2.7,0.9s3.3,0.7,3.8,1.1c0.5,0.5,2.5,1.4,4.3,1c0,0,2.4,0,3-0.5c0.6-0.5,0.8-1.2,1.4-1.2
		c0.5,0,3-1.4,3-1.4s1.4-1.2,2.7-1.1c1.3,0.2,2.9-1.1,2.9-1.1l0,0l0.7,1.4l0,0c0,0-1.1,1.1-1.4,0.9c-0.4-0.1-2.5,0.4-2.5,0.4
		s-1.4,0.3-1.7,0.9c-0.3,0.6-2.7,1.4-2.7,1.4s-1.2,0.7-1.4,1.2c-0.2,0.5-2.6,1.1-4.1,0.7c-1.5-0.4-1.8,0.1-1.8,0.1s-2-0.2-2.8-1
		c-0.7-0.7-2.5-1.2-3-1c-0.4,0.1-2.7-0.6-2.7-0.6s-0.7-0.4-1-0.4c-0.4,0.1-2.2-0.1-2.4-0.4c-0.2-0.3-1.4-0.4-1.5,0.4
		c-0.1,0.8-1.6,1.5-1.6,1.5s-0.7,0.9-1.1,1c-0.5,0.1-1.1,0.7-1.5,0.9c-1.1,0.6-2.7,0.4-3.1,0.2c-0.4-0.2-3.3,0.7-5.4-0.8
		c0,0-1.1-0.3-1.8,0.6c0,0-1.2,0.9-2.4,0.5c-1.2-0.5-1.5,0.7-1.5,0.7l0,0L27.3,63.4L27.3,63.4L27.3,63.4z"/>
	<path class="st4" d="M8.7,55.9c0,0-0.2,2.5,3.7,2.8c0,0,2.7,0.2,6.4,0c3.7-0.2,5.3-0.4,6.7,1.9c1.4,2.3,2.1,3.6,4.3,5.1
		c0,0,2.7,2.3,0.2,4.1l0,0l-0.6-0.7l0,0c0,0,0.6-3.2-3.5-2.8c-4.1,0.4-7.7,1.1-7.7,1.1S12.6,69.2,11,65c0,0-0.4-3.5-1.5-4.4
		c0,0-3.2-2.4-1.6-6.2l0,0L8.7,55.9L8.7,55.9z"/>
	<path class="st7" d="M29.7,69.4c0,0,0.4-2-1.2-2.8c-1.3-0.6-1.8-0.2-1.8-0.2l0,0L29.7,69.4L29.7,69.4z"/>
	<path class="st7" d="M26.7,66.3L26.7,66.3l3,3.2l0.1-0.1l0,0c0-0.1,0.4-2-1.2-2.8C27.2,66,26.7,66.3,26.7,66.3L26.7,66.3L26.7,66.3
		z M28.5,66.7c1.1,0.6,1.2,1.6,1.2,2.2c0,0.2-0.1,0.4-0.1,0.4c-0.1-0.1-2.8-2.8-2.8-2.9C26.9,66.3,27.4,66.2,28.5,66.7L28.5,66.7
		C28.5,66.7,28.5,66.7,28.5,66.7z"/>
	<path class="st7" d="M72,66.6c0,0-4.6,0.7-1.7,3.9c0,0,0.7-2.4,1.3-2.7l0,0L72,66.6C72,66.6,72,66.6,72,66.6z"/>
	<path class="st7" d="M72,66.5c-0.1,0-2.1,0.3-2.6,1.5c-0.3,0.7,0,1.5,0.9,2.5l0,0l0.1,0.1v-0.1l0,0c0-0.1,0.7-2.4,1.3-2.8L72,66.5
		L72,66.5L72,66.5L72,66.5C72,66.5,72,66.5,72,66.5z M69.4,68.6c0-0.1,0-0.3,0.1-0.5c0.4-1,2.1-1.4,2.5-1.5
		c-0.1,0.2-0.4,1.1-0.4,1.1c-0.5,0.4-1.1,2.3-1.2,2.7C69.8,69.7,69.4,69.1,69.4,68.6L69.4,68.6C69.4,68.6,69.4,68.6,69.4,68.6z"/>
	<path class="st8" d="M71.6,67.5c0,0-1.4,1.3-1.2,3c0,0,3.4,1,4.1,2c0,0,1.8,0.3,1.7-1.1c0,0-2.8-0.2-2.8-1.8c0,0-1.8,0.1-1.6-2l0,0
		L71.6,67.5C71.6,67.5,71.6,67.5,71.6,67.5z"/>
	<path class="st1" d="M84.1,40c-0.2-0.4,0.3-1,1.1-1.2l0,0l0,0l0,0c-0.1,0.1-0.1,0.2-0.1,0.2c-0.1,0.4-0.2,0.9-0.3,1.4
		C84.4,40.4,84.2,40.2,84.1,40L84.1,40C84.1,40,84.1,40,84.1,40z"/>
	<path class="st6" d="M41,33.4c-0.6,0.1-0.9,0.2-1.1,0.5c-0.2,0.3-0.2,0.6-0.2,0.7l0,0l0.2-0.1l0,0c0,0-0.1-0.2,0.1-0.5
		c0.2-0.2,0.6-0.4,1.1-0.4c0,0,1.1,0,1.7-0.9l0,0l-0.1-0.1l0,0C42,33.4,41,33.4,41,33.4L41,33.4C41,33.4,41,33.4,41,33.4z"/>
	<path class="st1" d="M83.2,44.6c0.2-0.4,0.6-0.6,0.9-0.7l0,0L84,45.5l0,0c-0.3,0.3-0.6,0.4-0.8,0.3C82.9,45.6,82.9,45.1,83.2,44.6
		L83.2,44.6C83.2,44.6,83.2,44.6,83.2,44.6z"/>
	<polygon class="st0" points="52.3,37.9 54.8,36 55.8,36.5 58.9,33.9 58.1,32.4 58.4,32.3 59.5,33.4 60,33.1 61.1,33 53.5,39.3 
		53.1,38.8 55.5,36.9 54.9,36.6 52.7,38.4 	"/>
	<path class="st0" d="M58.4,32.2l-0.3,0.2l0,0c0,0,0.7,1.4,0.8,1.5c-0.1,0.1-3,2.4-3,2.5c-0.1,0-1.1-0.5-1.1-0.5l0,0l-2.5,2l0.4,0.5
		l0,0c0,0,2.2-1.8,2.3-1.8c0,0,0.4,0.2,0.5,0.2c-0.1,0.1-2.4,1.9-2.4,1.9l0,0l0.4,0.6l7.7-6.4H60l0,0c0,0-0.4,0.3-0.5,0.4
		C59.5,33.3,58.4,32.2,58.4,32.2L58.4,32.2L58.4,32.2C58.4,32.2,58.4,32.2,58.4,32.2z M58.4,32.4c0.1,0.1,1.2,1.1,1.2,1.1l0.6-0.4
		c0,0,0.6-0.1,0.9-0.1c-0.2,0.2-7.4,6.1-7.5,6.2c-0.1-0.1-0.2-0.4-0.2-0.4l2.4-1.9l0,0l-0.7-0.4l0,0c0,0-2.2,1.7-2.2,1.8
		c-0.1-0.1-0.2-0.3-0.3-0.4c0.1-0.1,2.4-1.9,2.4-1.9c0.1,0.1,1.1,0.5,1.1,0.5l0,0l3.1-2.6l0,0c0,0-0.7-1.4-0.7-1.4
		C58.2,32.4,58.4,32.4,58.4,32.4L58.4,32.4C58.4,32.4,58.4,32.4,58.4,32.4z"/>
	<path class="st0" d="M59.5,34.7l-0.2-0.3l1.1-0.7l0.2,0.1l0.6,0.4l0,0c0.4,0.2,0.1-0.3,0.1-0.3l0,0L61,33.5l0,0
		c-0.1-0.3,0.2-0.1,0.2-0.1l0,0l0.2,0.1l0,0c0,0,5.3-4,5.9-4.3c0.6-0.4,0.6-0.1,0.6-0.1l0,0l-5.9,5.6l0,0c-0.6,0-1.1,0.4-1.1,0.4
		l0,0l-4,3.4l-0.6-0.6L54,39.9l-0.2-0.3L59.5,34.7C59.5,34.7,59.5,34.7,59.5,34.7z"/>
	<polygon class="st6" points="62.1,33.5 65,31.3 62.3,33.7 	"/>
	<polygon class="st6" points="56.8,37.4 59.9,34.8 60.1,35 57.1,37.6 	"/>
	<path class="st6" d="M74.6,75.5c0,0,1.1,1.5-0.1,2c-1.2,0.4-1.9,0-1.9,0l0,0L74.6,75.5L74.6,75.5z"/>
</g>
</svg>
