<?xml version="1.0" encoding="utf-8"?>
<!-- Generator: Adobe Illustrator 23.0.4, SVG Export Plug-In . SVG Version: 6.00 Build 0)  -->
<svg version="1.1" id="Layer_1" xmlns:xodm="http://www.corel.com/coreldraw/odm/2003"
	 xmlns="http://www.w3.org/2000/svg" xmlns:xlink="http://www.w3.org/1999/xlink" x="0px" y="0px" viewBox="0 0 100 100"
	 style="enable-background:new 0 0 100 100;" xml:space="preserve">
<style type="text/css">
	.st0{fill-rule:evenodd;clip-rule:evenodd;fill:#2C2653;stroke:#2C2653;stroke-width:2.1509;stroke-miterlimit:3.8637;}
	.st1{fill:#2C2653;stroke:#2C2653;stroke-width:2.1509;stroke-miterlimit:3.8637;}
</style>
<g>
	<path class="st0" d="M64.8,75.6V37.8h22v41.7H54.1V60.1H35v20.3H13.2v-60h20.9v17.7h19.5v-18h18.5c0,0-3.6,1.1-4.9,4.5h-7.9v18.3
		H29.2V25H17.5v50.7h12.4V55.4h28.7v20.2C58.6,75.6,64.8,75.6,64.8,75.6z"/>
	<path class="st1" d="M66.2,27.9c0-4.6,4-8.3,9-8.3c5,0,9,3.7,9,8.3c0,4.6-4.1,8.3-9,8.3C70.2,36.2,66.2,32.5,66.2,27.9z"/>
</g>
</svg>
