<?xml version="1.0" encoding="utf-8"?>
<!-- Generator: Adobe Illustrator 23.0.4, SVG Export Plug-In . SVG Version: 6.00 Build 0)  -->
<svg version="1.1" id="Layer_1" xmlns:xodm="http://www.corel.com/coreldraw/odm/2003"
	 xmlns="http://www.w3.org/2000/svg" xmlns:xlink="http://www.w3.org/1999/xlink" x="0px" y="0px" viewBox="0 0 100 100"
	 style="enable-background:new 0 0 100 100;" xml:space="preserve">
<style type="text/css">
	.st0{fill-rule:evenodd;clip-rule:evenodd;fill:#CC3333;}
	.st1{fill-rule:evenodd;clip-rule:evenodd;fill:#FFF215;}
	.st2{fill:#FFFFFF;}
	.st3{fill-rule:evenodd;clip-rule:evenodd;fill:#008080;}
	.st4{fill-rule:evenodd;clip-rule:evenodd;}
	.st5{fill:#373535;}
</style>
<g id="Layer_x0020_1">
	<g id="_105553710562304">
		<g>
			<polygon class="st0" points="54.1,17.6 52.8,17.8 51.2,18 49.1,18.5 46.7,19.2 45.4,19.5 44.1,20 42.6,20.7 41.3,21.3 39.8,22 
				38.4,22.8 37.1,23.8 36.4,24.3 35.6,24.8 34.9,25.3 34.3,25.9 33.1,27.2 32.4,27.8 31.9,28.4 30.7,30 29.6,31.6 28.7,33.3 
				28.3,34.2 27.9,35.2 27.3,37.2 26.7,39.4 26.6,40.5 26.3,41.6 26.3,42.9 26.2,44.1 26.2,46.8 26.3,49.5 26.7,52.6 27,53.4 
				27.4,54.6 27.9,56 28.7,57.6 29.2,58.5 29.8,59.3 30.3,60.3 31,61.3 31.8,62.2 32.6,63.2 33.5,64.2 34.5,65.2 35.6,66.3 
				36.8,67.1 38,68.1 39.4,69 40.9,69.8 42.5,70.5 44.2,71.3 45.9,71.8 47.9,72.4 49.9,72.8 52,73.2 54.4,73.4 56.8,73.5 59.3,73.5 
				58.5,73.9 57.7,74.4 56.5,74.9 54.9,75.4 53.2,76 51.1,76.5 48.8,76.9 47.5,77.1 46.2,77.2 44.9,77.3 43.4,77.3 42,77.2 
				40.5,77.1 38.9,76.8 37.3,76.5 35.7,76.2 34,75.7 32.3,75 30.6,74.4 28.7,73.7 27,72.7 25.1,71.6 23.3,70.5 22.5,69.9 21.8,69.3 
				20.8,68.4 19.6,67.1 18.4,65.7 17.1,64 15.8,62.1 15.1,61 14.6,59.8 14,58.7 13.5,57.5 13,56.1 12.6,54.7 12.2,53.3 11.8,51.8 
				11.6,50.2 11.4,48.5 11.4,46.9 11.4,45.2 11.5,43.4 11.8,41.5 12,39.6 12.6,37.6 12.7,37.1 13.2,35.7 14,33.8 14.7,32.6 
				15.5,31.3 16.5,29.8 17.6,28.4 18.9,26.9 20.4,25.4 22.1,23.9 24,22.4 25,21.7 26.2,20.9 28.6,19.5 29.1,19.2 30.7,18.5 
				33.1,17.6 36.3,16.6 38,16.3 39.8,15.9 41.8,15.6 43.9,15.5 45,15.5 46.1,15.5 48.2,15.8 49.2,15.9 50.3,16.1 51.5,16.4 
				52.5,16.8 			"/>
			<g>
				<polygon class="st1" points="72.1,16.3 72.9,17.3 74,18.5 75,20.2 76.4,22.2 76.9,23.4 77.6,24.7 78.1,25.9 78.6,27.3 
					79.1,28.8 79.5,30.3 79.9,32 80.2,33.6 80.3,35.2 80.3,37 80.2,38.7 79.9,40.5 79.4,42.4 78.9,44.3 78.1,46.2 77,48 75.8,49.9 
					74.5,51.8 72.8,53.7 70.8,55.6 68.7,57.5 66.2,59.3 65.4,59.8 64.3,60.5 62.9,61.1 61.1,61.7 59.2,62.4 56.8,62.9 55.5,63.1 
					54.1,63.2 52.8,63.4 51.4,63.5 49.9,63.4 48.3,63.4 46.7,63.1 45.1,62.9 43.4,62.5 41.8,62 40.1,61.3 38.3,60.6 36.5,59.7 
					34.8,58.7 33,57.6 31.1,56.2 29.2,54.7 27.5,53.1 27.7,53.8 28.1,54.7 28.5,55.8 29.1,57.3 30,58.8 31.1,60.6 31.8,61.5 
					32.6,62.5 33.4,63.4 34.1,64.2 35.1,65.2 36.1,66.1 37.2,67 38.4,68 39.7,68.9 41,69.6 42.5,70.5 44.1,71.3 45.8,71.9 
					47.5,72.7 49.4,73.2 51.4,73.8 53.5,74.2 54.5,74.4 55.6,74.7 56.5,74.7 57.6,74.7 58.9,74.7 60.6,74.7 62.6,74.4 64.9,74 
					67.1,73.5 68.4,73.2 69.6,72.7 72.3,71.6 74.9,70.4 76.2,69.5 77.6,68.6 78.9,67.8 80.2,66.6 81.4,65.5 82.7,64.2 83.9,62.9 
					85.1,61.3 86.3,59.7 87.3,58 87.6,57.6 88.3,56.3 88.7,55.3 89.1,54.2 89.5,52.9 89.9,51.6 90.3,49.9 90.5,48 90.7,46.2 
					90.7,45.2 90.7,44 90.5,41.9 90.3,39.5 90.1,38.2 89.9,37 89.2,34.5 88.9,33.8 88.3,32.3 87.9,31.2 87.2,30.1 86.6,28.7 
					85.6,27.3 84.7,25.9 84.2,25.2 83.6,24.4 83,23.7 82.3,22.9 81.7,22.2 81,21.4 79.4,20 78.6,19.4 77.7,18.8 76,17.6 74,16.6 
									"/>
				<path class="st2" d="M72.5,17.6l-0.8-1l0.8-0.6l0.8,1L72.5,17.6L72.5,17.6L72.5,17.6z M72.5,17.6L72.5,17.6L72.5,17.6L72.5,17.6
					z M73.6,18.8l-1.1-1.3l0.8-0.6l1.1,1.3l0,0.1L73.6,18.8z M74.4,18.2L74.4,18.2L74.4,18.2L74.4,18.2z M74.6,20.4l-1.1-1.6
					l0.9-0.5l1.1,1.6L74.6,20.4L74.6,20.4z M74.6,20.4L74.6,20.4L74.6,20.4L74.6,20.4z M75.9,22.4l-1.3-2l0.9-0.5l1.3,2l0,0.1
					L75.9,22.4L75.9,22.4z M76.8,21.9L76.8,21.9L76.8,21.9L76.8,21.9z M76.4,23.6l-0.5-1.3l1-0.4l0.5,1.3L76.4,23.6L76.4,23.6z
					 M76.4,23.6L76.4,23.6L76.4,23.6L76.4,23.6z M77.1,24.9l-0.7-1.3l0.9-0.4l0.7,1.3l0,0L77.1,24.9z M78,24.5L78,24.5L78,24.5
					L78,24.5L78,24.5z M77.6,26.1l-0.5-1.3l1-0.4l0.5,1.3l0,0L77.6,26.1L77.6,26.1z M78.6,25.7L78.6,25.7L78.6,25.7L78.6,25.7z
					 M78.1,27.5l-0.5-1.4l1-0.3l0.5,1.4l0,0L78.1,27.5L78.1,27.5z M79.1,27.1L79.1,27.1L79.1,27.1L79.1,27.1L79.1,27.1z M78.6,29
					l-0.5-1.5l1-0.3l0.5,1.5l0,0L78.6,29z M79.6,28.7L79.6,28.7L79.6,28.7L79.6,28.7L79.6,28.7z M79,30.5l-0.4-1.5l1-0.2l0.4,1.5
					l0,0L79,30.5L79,30.5z M80.1,30.2L80.1,30.2L80.1,30.2L80.1,30.2z M79.4,32.1L79,30.4l1-0.2l0.4,1.6l0,0L79.4,32.1L79.4,32.1z
					 M80.5,31.8L80.5,31.8L80.5,31.8L80.5,31.8z M79.7,33.7L79.4,32l1-0.2l0.3,1.6l0,0L79.7,33.7L79.7,33.7z M80.7,33.5L80.7,33.5
					L80.7,33.5L80.7,33.5z M79.8,35.3l-0.1-1.6l1.1-0.1l0.1,1.6v0L79.8,35.3z M80.9,35.2L80.9,35.2L80.9,35.2L80.9,35.2z M79.8,37
					v-1.8h1.1V37v0L79.8,37z M80.9,37L80.9,37L80.9,37L80.9,37z M79.7,38.7l0.1-1.8l1.1,0.1l-0.1,1.8l0,0L79.7,38.7z M80.7,38.8
					L80.7,38.8L80.7,38.8L80.7,38.8z M79.4,40.4l0.3-1.8l1,0.1l-0.3,1.8l0,0.1L79.4,40.4L79.4,40.4z M80.5,40.6L80.5,40.6L80.5,40.6
					L80.5,40.6L80.5,40.6z M78.9,42.3l0.5-1.9l1,0.3l-0.5,1.9l0,0L78.9,42.3z M78.4,44.1l0.5-1.9l1,0.3l-0.5,1.9l0,0.1L78.4,44.1z
					 M79.4,44.4L79.4,44.4L79.4,44.4L79.4,44.4L79.4,44.4z M77.6,46l0.8-1.9l1,0.4l-0.8,1.9l0,0L77.6,46L77.6,46z M78.6,46.3
					L78.6,46.3L78.6,46.3L78.6,46.3L78.6,46.3z M76.6,47.8l1.1-1.9l0.9,0.5l-1.1,1.9l0,0L76.6,47.8L76.6,47.8z M77.5,48.3L77.5,48.3
					L77.5,48.3L77.5,48.3L77.5,48.3z M75.4,49.7l1.2-1.9l0.9,0.5l-1.2,1.9l0,0L75.4,49.7z M76.3,50.2L76.3,50.2L76.3,50.2L76.3,50.2
					L76.3,50.2z M74.1,51.5l1.3-1.9l0.9,0.6L75,52.1l0,0.1L74.1,51.5L74.1,51.5z M75,52.1L75,52.1L75,52.1L75,52.1z M72.4,53.4
					l1.7-1.9l0.8,0.7L73.2,54l0,0L72.4,53.4z M73.2,54L73.2,54L73.2,54L73.2,54z M70.4,55.2l2-1.9l0.7,0.7l-2,1.9l0,0L70.4,55.2
					L70.4,55.2z M71.2,55.9L71.2,55.9L71.2,55.9L71.2,55.9z M68.3,57.1l2.1-1.9l0.7,0.7l-2.1,1.9l0,0L68.3,57.1L68.3,57.1z
					 M69.1,57.8L69.1,57.8L69.1,57.8L69.1,57.8L69.1,57.8z M65.8,58.9l2.5-1.9l0.7,0.8l-2.5,1.9l0,0L65.8,58.9z M66.5,59.7
					L66.5,59.7L66.5,59.7L66.5,59.7L66.5,59.7z M65.1,59.4l0.8-0.5l0.6,0.8l-0.8,0.5l0,0L65.1,59.4z M65.7,60.3L65.7,60.3L65.7,60.3
					L65.7,60.3L65.7,60.3z M64,60l1.1-0.6l0.6,0.9l-1.1,0.6l-0.1,0L64,60L64,60z M64.6,60.9L64.6,60.9L64.6,60.9L64.6,60.9z
					 M62.6,60.6l1.5-0.6l0.4,0.9l-1.5,0.6l0,0L62.6,60.6L62.6,60.6z M63.1,61.6L63.1,61.6L63.1,61.6L63.1,61.6z M61,61.3l1.7-0.6
					l0.4,0.9l-1.7,0.6l0,0L61,61.3L61,61.3z M61.3,62.2L61.3,62.2L61.3,62.2L61.3,62.2z M59,61.9l2-0.6l0.3,1l-2,0.6l-0.1,0L59,61.9
					z M59.3,62.8L59.3,62.8L59.3,62.8L59.3,62.8L59.3,62.8z M56.7,62.4l2.4-0.5l0.2,1l-2.4,0.5l0,0L56.7,62.4L56.7,62.4z M56.9,63.3
					L56.9,63.3L56.9,63.3L56.9,63.3z M55.3,62.6l1.3-0.3l0.2,1l-1.3,0.3l-0.1,0L55.3,62.6z M55.6,63.6L55.6,63.6L55.6,63.6
					L55.6,63.6z M54.1,62.7l1.3-0.1l0.1,1l-1.3,0.1l0,0L54.1,62.7z M52.8,62.9l1.3-0.1l0.1,1l-1.3,0.1h0L52.8,62.9L52.8,62.9z
					 M52.9,63.9L52.9,63.9L52.9,63.9L52.9,63.9L52.9,63.9z M51.3,63l1.5-0.1l0.1,1L51.4,64h-0.1V63z M51.4,64L51.4,64L51.4,64
					L51.4,64L51.4,64z M49.9,62.9l1.5,0.1l-0.1,1l-1.5-0.1L49.9,62.9L49.9,62.9L49.9,62.9z M49.9,62.9L49.9,62.9L49.9,62.9
					L49.9,62.9L49.9,62.9z M48.3,62.9h1.6v1h-1.6l-0.1,0L48.3,62.9z M48.3,63.9L48.3,63.9L48.3,63.9L48.3,63.9z M46.8,62.6l1.6,0.3
					l-0.2,1l-1.6-0.3l0,0L46.8,62.6z M45.2,62.4l1.6,0.3l-0.2,1L45,63.4l0,0L45.2,62.4L45.2,62.4z M45,63.4L45,63.4L45,63.4L45,63.4
					z M43.5,62l1.7,0.4l-0.2,1L43.3,63l0,0L43.5,62z M43.3,63L43.3,63L43.3,63L43.3,63L43.3,63z M42,61.5l1.6,0.5l-0.3,1l-1.6-0.5
					l0,0L42,61.5L42,61.5z M41.7,62.5L41.7,62.5L41.7,62.5L41.7,62.5L41.7,62.5z M40.3,60.9l1.7,0.6l-0.4,0.9l-1.7-0.6l0,0
					L40.3,60.9z M39.9,61.8L39.9,61.8L39.9,61.8L39.9,61.8z M38.5,60.1l1.9,0.8l-0.4,0.9L38,61.1l0,0L38.5,60.1z M38,61.1L38,61.1
					L38,61.1L38,61.1z M36.8,59.3l1.7,0.9L38,61l-1.7-0.9l0,0L36.8,59.3L36.8,59.3z M36.3,60.2L36.3,60.2L36.3,60.2L36.3,60.2z
					 M35.1,58.3l1.7,1l-0.6,0.9l-1.7-1l0,0L35.1,58.3L35.1,58.3z M34.5,59.1L34.5,59.1L34.5,59.1L34.5,59.1L34.5,59.1z M33.2,57.2
					l1.9,1.1l-0.6,0.8L32.7,58l0,0L33.2,57.2L33.2,57.2z M32.7,58L32.7,58L32.7,58L32.7,58z M31.4,55.8l1.9,1.4L32.6,58l-1.9-1.4
					l0,0L31.4,55.8L31.4,55.8z M30.8,56.6L30.8,56.6L30.8,56.6L30.8,56.6L30.8,56.6z M29.6,54.3l1.9,1.5l-0.7,0.8l-1.9-1.5l0,0
					L29.6,54.3L29.6,54.3z M28.9,55.1L28.9,55.1L28.9,55.1L28.9,55.1L28.9,55.1z M27.9,52.7l1.7,1.6l-0.7,0.7l-1.7-1.6L27,53.1
					L27.9,52.7L27.9,52.7z M27,53.1l-0.3-1.5l1.2,1.1L27,53.1z M27.1,53.9L27,53.1l1-0.2l0.1,0.8l-1,0.3L27.1,53.9z M27.2,54
					L27.2,54l0-0.1L27.2,54z M27.6,54.9L27.2,54l1-0.4l0.4,0.9l0,0L27.6,54.9L27.6,54.9z M28.5,54.5L28.5,54.5L28.5,54.5L28.5,54.5
					L28.5,54.5z M28,56l-0.4-1.1l1-0.3l0.4,1.1L28,56L28,56z M28,56L28,56L28,56L28,56L28,56z M28.6,57.5L28,56l1-0.4l0.7,1.5
					L28.6,57.5L28.6,57.5L28.6,57.5z M28.7,57.6L28.7,57.6L28.7,57.6L28.7,57.6z M29.6,59.1l-0.9-1.5l0.9-0.5l0.9,1.5v0L29.6,59.1z
					 M30.5,58.6L30.5,58.6L30.5,58.6L30.5,58.6z M30.6,60.8l-1.1-1.8l0.9-0.5l1.1,1.8L30.6,60.8L30.6,60.8L30.6,60.8z M30.7,60.9
					L30.7,60.9L30.7,60.9L30.7,60.9z M31.3,61.8l-0.7-0.9l0.9-0.6l0.7,0.9L31.3,61.8L31.3,61.8z M31.3,61.8L31.3,61.8L31.3,61.8
					L31.3,61.8z M32.1,62.8l-0.8-1l0.8-0.6l0.8,1L32.1,62.8L32.1,62.8L32.1,62.8z M32.2,62.8L32.2,62.8L32.2,62.8L32.2,62.8z
					 M33,63.7l-0.8-0.9l0.8-0.7l0.8,0.9v0L33,63.7L33,63.7z M33.7,64.6L33,63.7l0.8-0.6l0.8,0.9L33.7,64.6L33.7,64.6z M33.7,64.6
					L33.7,64.6L33.7,64.6L33.7,64.6z M34.7,65.6l-0.9-1l0.8-0.7l0.9,1L34.7,65.6L34.7,65.6z M34.7,65.6L34.7,65.6L34.7,65.6
					L34.7,65.6z M35.8,66.5l-1.1-0.9l0.7-0.8l1.1,0.9L35.8,66.5L35.8,66.5z M36.8,67.4l-1.1-0.9l0.7-0.8l1.1,0.9l0,0L36.8,67.4z
					 M37.5,66.6L37.5,66.6L37.5,66.6L37.5,66.6z M38,68.4l-1.2-1l0.7-0.7l1.2,1L38,68.4L38,68.4L38,68.4z M38.1,68.4L38.1,68.4
					L38.1,68.4L38.1,68.4L38.1,68.4z M39.4,69.3l-1.3-0.9l0.6-0.8l1.3,0.9L39.4,69.3L39.4,69.3z M39.4,69.3L39.4,69.3L39.4,69.3
					L39.4,69.3z M40.8,70.1l-1.3-0.8l0.5-0.9l1.3,0.8l0,0L40.8,70.1L40.8,70.1z M41.3,69.2L41.3,69.2L41.3,69.2L41.3,69.2L41.3,69.2
					z M42.2,70.9l-1.5-0.9l0.6-0.8l1.5,0.9L42.2,70.9L42.2,70.9L42.2,70.9z M42.2,71L42.2,71L42.2,71L42.2,71L42.2,71z M43.8,71.7
					L42.2,71l0.5-0.9l1.6,0.8L43.8,71.7L43.8,71.7z M43.9,71.7L43.9,71.7L43.9,71.7L43.9,71.7L43.9,71.7z M45.6,72.4l-1.7-0.6
					l0.4-0.9l1.7,0.6l0,0L45.6,72.4L45.6,72.4z M46,71.4L46,71.4L46,71.4L46,71.4L46,71.4z M47.3,73.1l-1.7-0.8l0.4-0.9l1.7,0.8
					L47.3,73.1L47.3,73.1z M47.4,73.1L47.4,73.1L47.4,73.1L47.4,73.1z M49.2,73.6l-1.9-0.5l0.3-1l1.9,0.5l0,0L49.2,73.6L49.2,73.6z
					 M49.5,72.7L49.5,72.7L49.5,72.7L49.5,72.7L49.5,72.7z M51.2,74.3l-2-0.6l0.3-1l2,0.6L51.2,74.3L51.2,74.3z M51.3,74.3
					L51.3,74.3L51.3,74.3L51.3,74.3z M53.4,74.7l-2.1-0.4l0.2-1l2.1,0.4l0,0L53.4,74.7L53.4,74.7z M53.6,73.7L53.6,73.7L53.6,73.7
					L53.6,73.7z M54.4,74.9l-1.1-0.3l0.3-1l1.1,0.3l0,0L54.4,74.9z M55.5,75.2l-1.1-0.3l0.3-1l1.1,0.3l-0.1,1L55.5,75.2z M55.6,75.2
					L55.6,75.2l-0.1,0L55.6,75.2L55.6,75.2z M56.5,75.2h-0.9v-1h0.9l0,0V75.2z M57.6,75.2h-1.1v-1h1.1l0,0V75.2z M58.9,75.2h-1.3v-1
					h1.3l0,0V75.2z M60.6,75.2h-1.7v-1h1.7V75.2L60.6,75.2z M60.7,75.2L60.7,75.2L60.7,75.2L60.7,75.2z M62.7,74.9l-2,0.3l-0.1-1
					l2-0.3L62.7,74.9L62.7,74.9L62.7,74.9z M62.7,74.9L62.7,74.9L62.7,74.9L62.7,74.9z M64.9,74.5l-2.2,0.4l-0.2-1l2.2-0.4
					L64.9,74.5L64.9,74.5L64.9,74.5z M65,74.5L65,74.5L65,74.5L65,74.5z M67.2,74L65,74.5l-0.2-1L67,73L67.2,74L67.2,74L67.2,74z
					 M67.3,74L67.3,74L67.3,74L67.3,74L67.3,74z M68.6,73.6L67.3,74l-0.3-1l1.3-0.4L68.6,73.6L68.6,73.6L68.6,73.6z M68.6,73.6
					L68.6,73.6L68.6,73.6L68.6,73.6L68.6,73.6z M69.8,73.1l-1.2,0.5l-0.4-0.9l1.2-0.5l0,0L69.8,73.1z M69.4,72.2L69.4,72.2
					L69.4,72.2L69.4,72.2z M72.5,72.1l-2.6,1l-0.4-0.9l2.6-1L72.5,72.1L72.5,72.1L72.5,72.1z M72.5,72.1L72.5,72.1L72.5,72.1
					L72.5,72.1z M75.1,70.8l-2.6,1.3L72,71.2l2.6-1.3L75.1,70.8L75.1,70.8L75.1,70.8z M75.2,70.8L75.2,70.8L75.2,70.8L75.2,70.8z
					 M76.5,69.9l-1.3,0.9L74.6,70l1.3-0.9l0,0L76.5,69.9z M77.9,69l-1.3,0.9l-0.6-0.8l1.3-0.9l0,0L77.9,69L77.9,69z M79.2,68.2
					L77.9,69l-0.6-0.8l1.3-0.9L79.2,68.2L79.2,68.2L79.2,68.2z M79.2,68.1L79.2,68.1L79.2,68.1L79.2,68.1z M80.6,67l-1.3,1.1
					l-0.7-0.7l1.3-1.1L80.6,67L80.6,67L80.6,67z M80.6,67L80.6,67L80.6,67L80.6,67L80.6,67z M81.8,65.9L80.6,67l-0.7-0.7l1.2-1.1
					L81.8,65.9L81.8,65.9z M83.1,64.6l-1.3,1.3L81,65.1l1.3-1.3L83.1,64.6L83.1,64.6z M83.1,64.6L83.1,64.6L83.1,64.6L83.1,64.6z
					 M84.3,63.2l-1.2,1.4l-0.8-0.6l1.2-1.4L84.3,63.2L84.3,63.2L84.3,63.2z M84.3,63.2L84.3,63.2L84.3,63.2L84.3,63.2L84.3,63.2z
					 M85.5,61.7l-1.2,1.5l-0.8-0.6l1.2-1.5L85.5,61.7L85.5,61.7z M85.5,61.6L85.5,61.6L85.5,61.6L85.5,61.6z M86.7,60l-1.2,1.6
					l-0.9-0.6l1.2-1.6L86.7,60L86.7,60z M86.7,60L86.7,60L86.7,60L86.7,60z M87.8,58.2L86.7,60l-0.9-0.5l1.1-1.8l0,0L87.8,58.2z
					 M86.9,57.7L86.9,57.7L86.9,57.7L86.9,57.7L86.9,57.7z M88.1,57.9l-0.3,0.4l-0.9-0.6l0.3-0.4L88.1,57.9L88.1,57.9L88.1,57.9z
					 M88.1,57.8L88.1,57.8L88.1,57.8L88.1,57.8z M88.7,56.6l-0.7,1.3l-0.9-0.4l0.7-1.3L88.7,56.6L88.7,56.6z M88.8,56.5L88.8,56.5
					L88.8,56.5L88.8,56.5z M89.2,55.5l-0.4,1l-1-0.4l0.4-1L89.2,55.5L89.2,55.5z M89.2,55.5L89.2,55.5L89.2,55.5L89.2,55.5
					L89.2,55.5z M89.6,54.4l-0.4,1.1l-1-0.3l0.4-1.1L89.6,54.4L89.6,54.4L89.6,54.4z M89.6,54.3L89.6,54.3L89.6,54.3L89.6,54.3z
					 M90,53.1l-0.4,1.3l-1-0.3l0.4-1.3L90,53.1L90,53.1L90,53.1z M90,53.1L90,53.1L90,53.1L90,53.1L90,53.1z M90.4,51.7L90,53.1
					l-1-0.3l0.4-1.4L90.4,51.7L90.4,51.7L90.4,51.7z M90.4,51.7L90.4,51.7L90.4,51.7L90.4,51.7z M90.8,50l-0.4,1.6l-1-0.2l0.4-1.6
					L90.8,50L90.8,50L90.8,50z M90.8,50L90.8,50L90.8,50L90.8,50L90.8,50z M91,48.1L90.8,50l-1-0.1L90,48L91,48.1L91,48.1L91,48.1z
					 M91.1,48.1L91.1,48.1L91.1,48.1L91.1,48.1z M91.2,46.2l-0.1,1.9L90,48l0.1-1.9L91.2,46.2L91.2,46.2z M91.2,46.2L91.2,46.2
					L91.2,46.2L91.2,46.2z M91.2,45.2v1h-1.1v-1l0,0H91.2z M91.2,44v1.1h-1.1V44H91.2L91.2,44z M91.2,44L91.2,44L91.2,44L91.2,44z
					 M91.1,41.9l0.1,2.1L90.1,44L90,41.9L91.1,41.9L91.1,41.9z M91.1,41.8L91.1,41.8L91.1,41.8L91.1,41.8L91.1,41.8z M90.8,39.4
					l0.3,2.4L90,41.9l-0.3-2.4l0,0L90.8,39.4L90.8,39.4z M89.7,39.5L89.7,39.5L89.7,39.5L89.7,39.5z M90.7,38.2l0.1,1.3l-1.1,0.1
					l-0.1-1.3L90.7,38.2L90.7,38.2z M90.6,38.1L90.6,38.1L90.6,38.1L90.6,38.1L90.6,38.1z M90.4,36.9l0.3,1.3l-1,0.2l-0.3-1.3
					L90.4,36.9L90.4,36.9L90.4,36.9z M90.4,36.9L90.4,36.9L90.4,36.9L90.4,36.9z M89.7,34.4l0.7,2.5l-1,0.2l-0.7-2.5L89.7,34.4
					L89.7,34.4z M89.7,34.3L89.7,34.3L89.7,34.3L89.7,34.3z M89.4,33.7l0.3,0.6l-1,0.4L88.4,34L89.4,33.7L89.4,33.7L89.4,33.7z
					 M89.4,33.7L89.4,33.7L89.4,33.7L89.4,33.7z M88.8,32.1l0.7,1.5l-1,0.4l-0.7-1.5l0,0L88.8,32.1z M87.8,32.5L87.8,32.5L87.8,32.5
					L87.8,32.5L87.8,32.5z M88.4,31l0.4,1.1l-1,0.3l-0.4-1.1L88.4,31L88.4,31L88.4,31z M88.3,31L88.3,31L88.3,31L88.3,31z
					 M87.7,29.8l0.7,1.1l-0.9,0.5l-0.7-1.1l0,0L87.7,29.8z M86.8,30.3L86.8,30.3L86.8,30.3L86.8,30.3z M87,28.5l0.7,1.4l-1,0.4
					l-0.7-1.4L87,28.5L87,28.5L87,28.5z M87,28.4L87,28.4L87,28.4L87,28.4z M86.1,27l0.9,1.4L86.1,29l-0.9-1.4l0,0L86.1,27L86.1,27z
					 M85.1,25.7l0.9,1.4l-0.9,0.5l-0.9-1.4L85.1,25.7L85.1,25.7L85.1,25.7z M85.1,25.7L85.1,25.7L85.1,25.7L85.1,25.7z M84.6,24.9
					l0.5,0.8l-0.9,0.6l-0.5-0.8l0,0L84.6,24.9z M84.1,24.2l0.5,0.8l-0.9,0.6l-0.5-0.8L84.1,24.2L84.1,24.2z M84,24.1L84,24.1
					L84,24.1L84,24.1L84,24.1z M83.4,23.4l0.7,0.8l-0.8,0.6L82.6,24L83.4,23.4z M82.7,22.6l0.7,0.8L82.6,24l-0.7-0.8l0,0L82.7,22.6
					L82.7,22.6z M82.1,21.8l0.7,0.8l-0.8,0.6l-0.7-0.8l0,0L82.1,21.8L82.1,21.8z M81.4,21.1l0.7,0.8l-0.8,0.6l-0.7-0.8L81.4,21.1
					L81.4,21.1L81.4,21.1z M81.4,21L81.4,21L81.4,21L81.4,21L81.4,21z M79.8,19.7l1.6,1.4l-0.7,0.7l-1.6-1.4L79.8,19.7L79.8,19.7
					L79.8,19.7z M79.7,19.6L79.7,19.6L79.7,19.6L79.7,19.6z M79,19l0.8,0.6l-0.7,0.8l-0.8-0.6L79,19L79,19z M78.9,19L78.9,19
					L78.9,19L78.9,19z M78,18.4l0.9,0.6l-0.6,0.8l-0.9-0.6L78,18.4L78,18.4z M78,18.4L78,18.4L78,18.4L78,18.4z M76.3,17.2l1.7,1.1
					l-0.6,0.8l-1.7-1.1L76.3,17.2L76.3,17.2z M76.2,17.2L76.2,17.2L76.2,17.2L76.2,17.2z M74.2,16.2l2,1l-0.5,0.9l-2-1l0.4-0.9
					L74.2,16.2z M74.1,16.1L74.1,16.1l0.1,0.1L74.1,16.1z M72.2,15.8l1.9,0.4l-0.2,1L72,16.8l-0.3-0.2L72.2,15.8L72.2,15.8z
					 M71.7,16.6l-0.8-1.1l1.4,0.3L71.7,16.6L71.7,16.6z"/>
			</g>
			<g>
				<polygon class="st3" points="16.2,30.5 16.9,29.4 18,28.2 19.3,26.7 21,24.9 22.1,24.1 23.2,23.2 23.7,22.8 24.4,22.3 
					25.7,21.4 27,20.5 28.5,19.8 29.9,19 31.5,18.4 33.2,17.8 34,17.5 34.9,17.3 35.9,17.1 36.8,16.9 38.6,16.6 40.6,16.5 
					42.7,16.6 44.9,16.8 47,17.1 49.2,17.8 50.4,18.1 51.6,18.5 52.8,19 54,19.5 56.4,20.8 57.7,21.4 58.9,22.3 60.2,23 61.5,23.9 
					62.2,24.6 63.1,25.4 64.1,26.6 65.2,27.9 66.4,29.6 67.6,31.6 68.3,32.7 68.8,33.8 69.2,35.1 69.7,36.4 70.1,37.7 70.4,39.2 
					70.7,40.8 70.8,42.3 70.9,43.9 70.9,45.5 70.8,46.4 70.7,47.3 70.4,49 70.9,50.8 71.7,53.2 73.1,53.7 74.6,52.9 75.3,51.8 
					76,50.7 76.6,49.5 77.3,48.3 77.8,46.9 78.3,45.5 78.9,44 79.3,42.5 79.7,40.9 79.9,39.1 80.1,37.4 80.2,35.5 80.2,33.6 
					80.1,31.6 79.8,29.4 79.7,28.6 79,26.3 78.5,24.8 77.7,23.2 76.8,21.2 75.6,19.3 74.9,18.1 74.1,17.1 73.2,16.1 72.3,15.1 
					71.3,14 70.8,13.5 70.3,13 69.1,12 67.8,11.1 66.4,10.1 65,9.2 63.5,8.3 61.8,7.6 60.1,6.8 58.2,6.2 56.4,5.6 54.3,5.1 53.7,5 
					52.3,4.7 51.2,4.6 50,4.6 48.6,4.5 47,4.6 46.2,4.6 45.3,4.7 43.4,5 41.4,5.3 39.3,5.8 37.1,6.6 35.9,7 34.7,7.5 33.5,8 
					32.3,8.6 31.1,9.2 29.9,10 29.4,10.2 28.1,11.2 26.1,12.9 24.9,13.9 23.7,15 22.5,16.4 21.3,17.8 20.1,19.3 19.1,20.9 
					18.1,22.8 17.6,23.7 17.2,24.7 16.9,25.6 16.5,26.6 16.3,27.7 16.2,28.7 				"/>
				<path class="st2" d="M17.4,29.8l-0.8,1l-0.8-0.6l0.8-1l0,0L17.4,29.8L17.4,29.8z M16.5,29.2L16.5,29.2L16.5,29.2L16.5,29.2
					L16.5,29.2z M18.4,28.5l-1.1,1.3l-0.8-0.6l1.1-1.3l0,0L18.4,28.5z M17.6,27.9L17.6,27.9L17.6,27.9L17.6,27.9L17.6,27.9z
					 M19.7,27l-1.3,1.5l-0.8-0.6l1.3-1.5l0,0L19.7,27L19.7,27z M18.9,26.4L18.9,26.4L18.9,26.4L18.9,26.4z M21.4,25.3L19.7,27
					l-0.8-0.7l1.7-1.8l0,0L21.4,25.3L21.4,25.3z M20.7,24.6L20.7,24.6L20.7,24.6L20.7,24.6z M22.5,24.4l-1.1,0.9l-0.7-0.8l1.1-0.9
					L22.5,24.4L22.5,24.4z M23.5,23.5l-1.1,0.9l-0.7-0.8l1.1-0.9l0,0L23.5,23.5z M22.8,22.8L22.8,22.8L22.8,22.8L22.8,22.8z
					 M24,23.2l-0.5,0.4l-0.6-0.8l0.5-0.4L24,23.2L24,23.2z M24,23.2L24,23.2L24,23.2L24,23.2z M24.7,22.7L24,23.2l-0.7-0.8l0.7-0.5
					l0,0L24.7,22.7z M24,21.9L24,21.9L24,21.9L24,21.9z M26,21.8l-1.3,0.9L24,21.9l1.3-0.9l0,0L26,21.8z M27.3,20.9L26,21.8L25.4,21
					l1.3-0.9l0.1,0L27.3,20.9z M26.7,20.1L26.7,20.1L26.7,20.1L26.7,20.1z M28.7,20.2L27.3,21l-0.5-0.9l1.5-0.8L28.7,20.2z
					 M30.2,19.5l-1.5,0.8l-0.5-0.9l1.5-0.8l0.1,0L30.2,19.5z M29.7,18.6L29.7,18.6L29.7,18.6L29.7,18.6z M31.7,18.9l-1.6,0.6
					l-0.4-0.9l1.6-0.6l0,0L31.7,18.9L31.7,18.9z M31.3,17.9L31.3,17.9L31.3,17.9L31.3,17.9L31.3,17.9z M33.4,18.2l-1.7,0.6l-0.4-0.9
					l1.7-0.6l0,0L33.4,18.2z M33,17.3L33,17.3L33,17.3L33,17.3L33,17.3z M34.2,18l-0.8,0.3l-0.3-1l0.8-0.3l0,0L34.2,18L34.2,18z
					 M33.8,17L33.8,17L33.8,17L33.8,17L33.8,17z M35.1,17.8L34.2,18l-0.3-1l0.9-0.3l0.1,0L35.1,17.8z M34.8,16.8L34.8,16.8
					L34.8,16.8L34.8,16.8L34.8,16.8z M35.9,17.6L35,17.8l-0.1-1l0.9-0.1L35.9,17.6L35.9,17.6L35.9,17.6z M36,17.6L36,17.6L36,17.6
					L36,17.6z M36.9,17.4L36,17.6l-0.3-1l0.9-0.3l0.1,0L36.9,17.4z M36.6,16.4L36.6,16.4L36.6,16.4L36.6,16.4z M38.7,17.1l-1.9,0.3
					l-0.2-1l1.9-0.3h0L38.7,17.1z M38.6,16.1L38.6,16.1L38.6,16.1L38.6,16.1z M40.7,17l-2,0.1l-0.1-1l2-0.1h0.1L40.7,17z M40.6,16
					L40.6,16L40.6,16L40.6,16z M42.7,17.1L40.6,17l0.1-1l2.1,0.1l0,0L42.7,17.1z M44.8,17.3l-2.1-0.1l0.1-1l2.1,0.1l0.1,0L44.8,17.3
					L44.8,17.3z M44.9,16.3L44.9,16.3L44.9,16.3L44.9,16.3z M46.9,17.6l-2.1-0.4l0.2-1l2.1,0.4l0.1,0L46.9,17.6z M47.1,16.6
					L47.1,16.6L47.1,16.6L47.1,16.6L47.1,16.6z M49.1,18.3l-2.2-0.6l0.3-1l2.2,0.6l0,0L49.1,18.3L49.1,18.3z M49.4,17.3L49.4,17.3
					L49.4,17.3L49.4,17.3z M50.3,18.6l-1.2-0.4l0.3-1l1.2,0.4L50.3,18.6z M51.5,19l-1.2-0.4l0.3-1l1.2,0.4l0,0L51.5,19z M51.8,18
					L51.8,18L51.8,18L51.8,18z M52.6,19.5L51.4,19l0.4-0.9l1.2,0.5L52.6,19.5L52.6,19.5L52.6,19.5z M53.8,20l-1.2-0.5l0.4-0.9
					l1.2,0.5l0,0L53.8,20z M54.2,19.1L54.2,19.1L54.2,19.1L54.2,19.1L54.2,19.1z M56.1,21.2L53.7,20l0.5-0.9l2.4,1.3L56.1,21.2
					L56.1,21.2z M56.1,21.2L56.1,21.2L56.1,21.2L56.1,21.2L56.1,21.2z M57.5,21.9l-1.3-0.6l0.5-0.9l1.3,0.6L58,21L57.5,21.9
					L57.5,21.9z M57.9,21L57.9,21L57.9,21L57.9,21z M58.6,22.7l-1.2-0.9L58,21l1.2,0.9L58.6,22.7L58.6,22.7z M58.6,22.7L58.6,22.7
					L58.6,22.7L58.6,22.7z M59.9,23.5l-1.3-0.8l0.5-0.9l1.3,0.8l0,0L59.9,23.5L59.9,23.5z M60.5,22.6L60.5,22.6L60.5,22.6L60.5,22.6
					L60.5,22.6z M61.2,24.3l-1.3-0.9l0.6-0.8l1.3,0.9l0.1,0.1L61.2,24.3z M61.8,23.5L61.8,23.5L61.8,23.5L61.8,23.5z M61.8,24.9
					l-0.7-0.6l0.7-0.7l0.7,0.6L61.8,24.9L61.8,24.9z M62.8,25.8l-0.9-0.9l0.7-0.7l0.9,0.9l0,0L62.8,25.8z M63.5,25.1L63.5,25.1
					L63.5,25.1L63.5,25.1L63.5,25.1z M63.6,26.9l-0.9-1.1l0.8-0.6l0.9,1.1L63.6,26.9L63.6,26.9z M63.6,26.9L63.6,26.9L63.6,26.9
					L63.6,26.9z M64.8,28.3l-1.2-1.4l0.8-0.6l1.2,1.4l0,0L64.8,28.3z M65.7,27.6L65.7,27.6L65.7,27.6L65.7,27.6L65.7,27.6z M66,29.9
					l-1.2-1.6l0.9-0.6l1.2,1.6l0,0L66,29.9L66,29.9z M66.9,29.3L66.9,29.3L66.9,29.3L66.9,29.3z M67.2,31.8l-1.2-2l0.9-0.5l1.2,2
					l0,0L67.2,31.8L67.2,31.8z M68.1,31.3L68.1,31.3L68.1,31.3L68.1,31.3z M67.8,33l-0.7-1.1l0.9-0.5l0.7,1.1l0,0L67.8,33z
					 M68.8,32.5L68.8,32.5L68.8,32.5L68.8,32.5z M68.3,34.1l-0.5-1.1l1-0.4l0.5,1.1l0,0.1L68.3,34.1z M69.3,33.6L69.3,33.6
					L69.3,33.6L69.3,33.6L69.3,33.6z M68.7,35.2L68.3,34l1-0.3l0.4,1.3L68.7,35.2L68.7,35.2z M68.7,35.3L68.7,35.3L68.7,35.3
					L68.7,35.3z M69.3,36.5l-0.5-1.3l1-0.4l0.5,1.3l0,0.1L69.3,36.5L69.3,36.5z M70.2,36.2L70.2,36.2L70.2,36.2L70.2,36.2z
					 M69.6,37.9l-0.4-1.4l1-0.3l0.4,1.4l0,0L69.6,37.9z M70.7,37.6L70.7,37.6L70.7,37.6L70.7,37.6L70.7,37.6z M69.9,39.3l-0.3-1.5
					l1-0.2l0.3,1.5L69.9,39.3L69.9,39.3z M70.2,40.8l-0.3-1.5l1-0.2l0.3,1.5l0,0L70.2,40.8z M71.2,40.7L71.2,40.7L71.2,40.7
					L71.2,40.7z M70.3,42.3l-0.1-1.5l1.1-0.1l0.1,1.5v0L70.3,42.3z M71.3,42.2L71.3,42.2L71.3,42.2L71.3,42.2z M70.4,43.9l-0.1-1.6
					l1.1-0.1l0.1,1.6v0L70.4,43.9L70.4,43.9z M71.5,43.9L71.5,43.9L71.5,43.9L71.5,43.9z M70.4,45.5v-1.6h1.1v1.6l0,0.1L70.4,45.5z
					 M71.5,45.5L71.5,45.5L71.5,45.5L71.5,45.5z M70.3,46.3l0.1-0.9l1,0.1l-0.1,0.9l0,0L70.3,46.3L70.3,46.3z M70.2,47.2l0.1-0.9
					l1.1,0.1l-0.1,0.9l0,0L70.2,47.2L70.2,47.2z M69.9,49l0.3-1.8l1,0.1l-0.3,1.8l-1,0L69.9,49z M69.9,49.2L69.9,49.2l0-0.2
					L69.9,49.2L69.9,49.2z M70.4,51l-0.5-1.8l1-0.2l0.5,1.8L70.4,51L70.4,51L70.4,51z M70.4,51L70.4,51L70.4,51L70.4,51L70.4,51z
					 M71.2,53.3L70.4,51l1-0.3l0.8,2.3l-0.7,0.6L71.2,53.3L71.2,53.3z M71.5,53.6l-0.2-0.1l-0.1-0.2L71.5,53.6L71.5,53.6z
					 M72.9,54.1l-1.5-0.5l0.4-0.9l1.5,0.5l0.1,0.9L72.9,54.1L72.9,54.1z M73.4,54.1l-0.2,0.1l-0.2-0.1L73.4,54.1L73.4,54.1z
					 M74.9,53.4l-1.5,0.7l-0.5-0.9l1.5-0.7l0.7,0.7L74.9,53.4L74.9,53.4z M75.1,53.2L75,53.3l-0.1,0.1L75.1,53.2z M75.8,52l-0.7,1.1
					l-0.9-0.5l0.7-1.1l0,0L75.8,52z M76.4,50.9L75.8,52l-0.9-0.5l0.7-1.1l0,0L76.4,50.9z M77.1,49.8l-0.7,1.1l-0.9-0.5l0.7-1.1
					L77.1,49.8L77.1,49.8L77.1,49.8z M77.1,49.8L77.1,49.8L77.1,49.8L77.1,49.8z M77.8,48.5l-0.7,1.3l-0.9-0.4l0.7-1.3L77.8,48.5
					L77.8,48.5z M77.8,48.5L77.8,48.5L77.8,48.5L77.8,48.5z M78.3,47.1l-0.5,1.4l-1-0.3l0.5-1.4L78.3,47.1z M78.8,45.7l-0.5,1.4
					l-1-0.3l0.5-1.4L78.8,45.7L78.8,45.7L78.8,45.7z M78.8,45.7L78.8,45.7L78.8,45.7L78.8,45.7L78.8,45.7z M79.4,44.2l-0.5,1.5
					l-1-0.3l0.5-1.5L79.4,44.2L79.4,44.2L79.4,44.2z M79.4,44.1L79.4,44.1L79.4,44.1L79.4,44.1L79.4,44.1z M79.8,42.6l-0.4,1.5
					l-1-0.2l0.4-1.5L79.8,42.6L79.8,42.6z M79.8,42.6L79.8,42.6L79.8,42.6L79.8,42.6L79.8,42.6z M80.2,41l-0.4,1.6l-1-0.2l0.4-1.6
					L80.2,41L80.2,41L80.2,41z M80.2,41L80.2,41L80.2,41L80.2,41L80.2,41z M80.5,39.2L80.2,41l-1.1-0.1l0.3-1.8L80.5,39.2L80.5,39.2
					L80.5,39.2z M80.5,39.2L80.5,39.2L80.5,39.2L80.5,39.2z M80.6,37.4l-0.1,1.8l-1.1-0.1l0.1-1.8L80.6,37.4L80.6,37.4z M80.6,37.4
					L80.6,37.4L80.6,37.4L80.6,37.4z M80.7,35.5l-0.1,1.9l-1.1-0.1l0.1-1.9L80.7,35.5L80.7,35.5z M80.7,35.5L80.7,35.5L80.7,35.5
					L80.7,35.5z M80.7,33.6v1.9h-1.1v-1.9H80.7L80.7,33.6z M80.7,33.6L80.7,33.6L80.7,33.6L80.7,33.6z M80.6,31.6l0.1,2l-1.1,0.1
					l-0.1-2L80.6,31.6L80.6,31.6z M80.6,31.5L80.6,31.5L80.6,31.5L80.6,31.5L80.6,31.5z M80.3,29.4l0.3,2.1l-1.1,0.1l-0.3-2.1
					L80.3,29.4L80.3,29.4L80.3,29.4z M80.3,29.4L80.3,29.4L80.3,29.4L80.3,29.4L80.3,29.4z M80.2,28.5l0.1,0.9l-1,0.1l-0.1-0.9
					L80.2,28.5L80.2,28.5L80.2,28.5z M80.2,28.4L80.2,28.4L80.2,28.4L80.2,28.4z M79.5,26.2l0.7,2.3l-1,0.3l-0.7-2.3L79.5,26.2
					L79.5,26.2z M79.5,26.2L79.5,26.2L79.5,26.2L79.5,26.2z M79,24.6l0.5,1.5l-1,0.3L78,25L79,24.6L79,24.6z M79,24.6L79,24.6
					L79,24.6L79,24.6z M78.2,23l0.8,1.6L78,25l-0.8-1.6l0,0L78.2,23L78.2,23z M77.2,23.4L77.2,23.4L77.2,23.4L77.2,23.4L77.2,23.4z
					 M77.2,21l0.9,2l-1,0.4l-0.9-2L77.2,21L77.2,21z M77.2,20.9L77.2,20.9L77.2,20.9L77.2,20.9L77.2,20.9z M76,19l1.2,1.9l-0.9,0.5
					l-1.2-1.9l0,0L76,19L76,19z M75.1,19.5L75.1,19.5L75.1,19.5L75.1,19.5z M75.4,17.9L76,19l-0.9,0.5l-0.7-1.1L75.4,17.9L75.4,17.9
					z M75.3,17.8L75.3,17.8L75.3,17.8L75.3,17.8z M74.5,16.8l0.8,1l-0.8,0.6l-0.8-1L74.5,16.8L74.5,16.8z M74.5,16.8L74.5,16.8
					L74.5,16.8L74.5,16.8L74.5,16.8z M73.6,15.8l0.9,1l-0.8,0.7l-0.9-1l0,0L73.6,15.8z M72.7,14.8l0.9,1l-0.8,0.7l-0.9-1l0,0
					L72.7,14.8L72.7,14.8z M71.9,15.5L71.9,15.5L71.9,15.5L71.9,15.5L71.9,15.5z M71.8,13.7l0.9,1.1l-0.8,0.6l-0.9-1.1L71.8,13.7
					L71.8,13.7L71.8,13.7z M71.7,13.6L71.7,13.6L71.7,13.6L71.7,13.6L71.7,13.6z M71.2,13.1l0.5,0.5L71,14.4l-0.5-0.5l0,0L71.2,13.1
					z M70.7,12.6l0.5,0.5l-0.7,0.7l-0.5-0.5L70.7,12.6L70.7,12.6z M70.6,12.6L70.6,12.6L70.6,12.6L70.6,12.6L70.6,12.6z M69.4,11.6
					l1.2,1l-0.7,0.7l-1.2-1L69.4,11.6L69.4,11.6z M69.4,11.6L69.4,11.6L69.4,11.6L69.4,11.6L69.4,11.6z M68.1,10.7l1.3,0.9l-0.6,0.8
					l-1.3-0.9l0,0L68.1,10.7z M67.5,11.5L67.5,11.5L67.5,11.5L67.5,11.5L67.5,11.5z M66.8,9.7l1.3,1l-0.7,0.8l-1.3-1L66.8,9.7
					L66.8,9.7L66.8,9.7z M66.7,9.7L66.7,9.7L66.7,9.7L66.7,9.7L66.7,9.7z M65.3,8.8l1.5,0.9l-0.6,0.8l-1.5-0.9l0,0L65.3,8.8z
					 M63.8,7.9l1.5,0.9l-0.6,0.8l-1.5-0.9L63.8,7.9L63.8,7.9L63.8,7.9z M63.7,7.9L63.7,7.9L63.7,7.9L63.7,7.9z M62,7.1l1.7,0.8
					l-0.4,0.9l-1.7-0.8L62,7.1L62,7.1L62,7.1z M60.3,6.4L62,7.1l-0.4,0.9l-1.7-0.8L60.3,6.4L60.3,6.4z M60.3,6.4L60.3,6.4L60.3,6.4
					L60.3,6.4z M58.4,5.7l1.9,0.6l-0.4,0.9l-1.9-0.6l0,0L58.4,5.7z M56.6,5.1l1.9,0.6l-0.4,0.9l-1.9-0.6L56.6,5.1L56.6,5.1z
					 M56.5,5.1L56.5,5.1L56.5,5.1L56.5,5.1L56.5,5.1z M54.4,4.6l2.1,0.5l-0.3,1l-2.1-0.5l0,0L54.4,4.6z M53.9,4.5l0.5,0.1l-0.3,1
					l-0.5-0.1L53.9,4.5L53.9,4.5z M53.8,4.5L53.8,4.5L53.8,4.5L53.8,4.5L53.8,4.5z M52.4,4.2l1.5,0.3l-0.2,1l-1.5-0.3L52.4,4.2
					L52.4,4.2z M52.3,4.2L52.3,4.2L52.3,4.2L52.3,4.2z M51.3,4.1l1.1,0.1l-0.1,1l-1.1-0.1L51.3,4.1L51.3,4.1L51.3,4.1z M51.2,4.1
					L51.2,4.1L51.2,4.1L51.2,4.1z M50,4.1h1.2v1H50h0L50,4.1z M50,5.1L50,5.1L50,5.1L50,5.1L50,5.1z M48.6,4l1.5,0.1l-0.1,1L48.5,5
					L48.6,4L48.6,4z M48.5,4L48.5,4L48.5,4L48.5,4z M46.9,4.1L48.5,4l0.1,1L47,5.1h0L46.9,4.1z M47,5.1L47,5.1L47,5.1L47,5.1z
					 M46.2,4.1H47v1h-0.8V4.1L46.2,4.1z M46.1,4.1L46.1,4.1L46.1,4.1L46.1,4.1z M45.2,4.2l0.9-0.1l0.1,1l-0.9,0.1L45.2,4.2z
					 M43.3,4.5l1.9-0.3l0.1,1l-1.9,0.3L43.3,4.5L43.3,4.5z M43.3,4.5L43.3,4.5L43.3,4.5L43.3,4.5L43.3,4.5z M41.3,4.8l2-0.4l0.2,1
					l-2,0.4L41.3,4.8L41.3,4.8L41.3,4.8z M41.3,4.9L41.3,4.9L41.3,4.9L41.3,4.9z M39.2,5.4l2.1-0.5l0.3,1l-2.1,0.5L39.2,5.4
					L39.2,5.4L39.2,5.4z M39.1,5.4L39.1,5.4L39.1,5.4L39.1,5.4L39.1,5.4z M36.9,6.1l2.2-0.8l0.4,0.9l-2.2,0.8h0L36.9,6.1L36.9,6.1z
					 M37.2,7.1L37.2,7.1L37.2,7.1L37.2,7.1L37.2,7.1z M35.7,6.5l1.2-0.4l0.3,1L36,7.4L35.7,6.5L35.7,6.5L35.7,6.5z M35.7,6.5
					L35.7,6.5L35.7,6.5L35.7,6.5z M34.5,7l1.2-0.5l0.4,0.9l-1.2,0.5L34.5,7L34.5,7z M33.3,7.5L34.5,7l0.4,0.9l-1.2,0.5L33.3,7.5
					L33.3,7.5z M33.2,7.5L33.2,7.5L33.2,7.5L33.2,7.5L33.2,7.5z M32,8.2l1.2-0.6l0.5,0.9L32.5,9l0,0L32,8.2L32,8.2z M30.8,8.8
					L32,8.2L32.5,9l-1.2,0.6L30.8,8.8L30.8,8.8L30.8,8.8z M30.8,8.8L30.8,8.8L30.8,8.8L30.8,8.8z M29.6,9.6l1.2-0.8l0.6,0.8
					l-1.2,0.8l-0.1,0L29.6,9.6z M30.2,10.4L30.2,10.4L30.2,10.4L30.2,10.4L30.2,10.4z M29.1,9.8l0.5-0.3l0.5,0.9l-0.5,0.3L29.1,9.8
					L29.1,9.8z M29,9.8L29,9.8L29,9.8L29,9.8L29,9.8z M27.7,10.8l1.3-1l0.7,0.8l-1.3,1L27.7,10.8L27.7,10.8L27.7,10.8z M27.7,10.9
					L27.7,10.9L27.7,10.9L27.7,10.9L27.7,10.9z M25.7,12.5l2-1.6l0.7,0.8l-2,1.6L25.7,12.5L25.7,12.5L25.7,12.5z M25.7,12.5
					L25.7,12.5L25.7,12.5L25.7,12.5z M24.5,13.5l1.2-1l0.7,0.8l-1.2,1L24.5,13.5L24.5,13.5L24.5,13.5z M24.5,13.5L24.5,13.5
					L24.5,13.5L24.5,13.5L24.5,13.5z M23.3,14.7l1.2-1.1l0.7,0.7l-1.2,1.1L23.3,14.7L23.3,14.7z M23.3,14.7L23.3,14.7L23.3,14.7
					L23.3,14.7z M22.1,16.1l1.2-1.4l0.8,0.6l-1.2,1.4l0,0L22.1,16.1z M20.9,17.5l1.2-1.4l0.8,0.6l-1.2,1.4L20.9,17.5L20.9,17.5
					L20.9,17.5z M20.9,17.5L20.9,17.5L20.9,17.5L20.9,17.5z M19.7,19l1.2-1.5l0.8,0.6l-1.2,1.5L19.7,19L19.7,19L19.7,19z M19.7,19
					L19.7,19L19.7,19L19.7,19z M18.6,20.6l1.1-1.6l0.9,0.5l-1.1,1.6L18.6,20.6L18.6,20.6z M18.6,20.7L18.6,20.7L18.6,20.7L18.6,20.7
					z M17.7,22.6l0.9-1.9l1,0.4L18.6,23l0,0L17.7,22.6L17.7,22.6z M18.6,23L18.6,23L18.6,23L18.6,23z M17.1,23.4l0.5-0.9l0.9,0.5
					l-0.5,0.9L17.1,23.4L17.1,23.4z M17.1,23.5L17.1,23.5L17.1,23.5L17.1,23.5z M16.7,24.5l0.4-1l1,0.4l-0.4,1L16.7,24.5L16.7,24.5
					L16.7,24.5z M16.7,24.5L16.7,24.5L16.7,24.5L16.7,24.5L16.7,24.5z M16.4,25.4l0.3-0.9l1,0.3l-0.3,0.9l0,0L16.4,25.4L16.4,25.4z
					 M17.5,25.7L17.5,25.7L17.5,25.7L17.5,25.7z M16.1,26.4l0.4-1l1,0.4l-0.4,1L16.1,26.4L16.1,26.4L16.1,26.4z M16,26.5L16,26.5
					L16,26.5L16,26.5z M15.8,27.6l0.3-1.1l1,0.2l-0.3,1.1L15.8,27.6L15.8,27.6L15.8,27.6z M15.8,27.6L15.8,27.6L15.8,27.6L15.8,27.6
					L15.8,27.6z M15.6,28.6l0.1-1l1.1,0.1l-0.1,1L15.6,28.6L15.6,28.6z M15.6,28.7L15.6,28.7L15.6,28.7L15.6,28.7L15.6,28.7z
					 M15.6,30.5v-1.8h1.1v1.8l-0.1,0.3L15.6,30.5z M16.6,30.8l-1,1.2v-1.5L16.6,30.8z"/>
			</g>
		</g>
		<g>
			<polygon class="st4" points="15,28.9 18.8,28.9 18.8,58.2 18.8,58.5 18.6,58.7 18.5,59 18.4,59.3 18,59.6 17.7,59.8 17.1,60.1 
				12.8,60.1 12.8,64.4 14.4,64.5 15.9,64.5 16.9,64.5 17.9,64.4 18.9,64.1 19.4,64 19.9,63.7 20.9,63.3 21.2,63 21.7,62.7 22.4,62 
				22.8,61.6 23.2,61.1 23.6,60.6 23.8,60 24.2,58.7 24.2,28.9 28.6,28.9 28.6,25.3 15,25.3 			"/>
			<g>
				<path d="M18.8,29.1H15v-0.3h3.8l0.1,0.1L18.8,29.1z M18.8,28.8h0.1v0.1L18.8,28.8z M18.6,58.2V28.9h0.2v29.3l0,0H18.6z
					 M18.6,58.5v-0.3h0.2v0.3l0,0.1L18.6,58.5L18.6,58.5z M18.9,58.5L18.9,58.5L18.9,58.5L18.9,58.5L18.9,58.5z M18.5,58.6l0.1-0.3
					l0.2,0.1l-0.1,0.3l0,0L18.5,58.6z M18.4,58.9l0.1-0.3l0.2,0.1L18.6,59L18.4,58.9L18.4,58.9z M18.4,58.9L18.4,58.9L18.4,58.9
					L18.4,58.9z M18.3,59.3l0.1-0.4l0.2,0.1l-0.1,0.4l-0.1,0.1L18.3,59.3L18.3,59.3z M18.5,59.4L18.5,59.4L18.5,59.4L18.5,59.4
					L18.5,59.4z M18,59.5l0.4-0.3l0.1,0.2l-0.4,0.3l0,0L18,59.5z M17.6,59.7l0.4-0.3l0.1,0.2l-0.4,0.3l0,0L17.6,59.7z M17.7,59.9
					L17.7,59.9L17.7,59.9L17.7,59.9z M17,60l0.6-0.3l0.1,0.2l-0.6,0.3l0,0L17,60L17,60z M17.1,60.2L17.1,60.2L17.1,60.2L17.1,60.2
					L17.1,60.2z M12.8,60h4.3v0.3h-4.3l-0.1-0.1L12.8,60z M12.6,60.1V60h0.1L12.6,60.1z M12.6,64.4v-4.3h0.2v4.3l-0.1,0.1L12.6,64.4
					z M12.7,64.5l-0.1,0v-0.1L12.7,64.5z M14.3,64.6l-1.6-0.1l0-0.3l1.6,0.1L14.3,64.6L14.3,64.6L14.3,64.6z M14.4,64.6L14.4,64.6
					L14.4,64.6L14.4,64.6z M15.9,64.6h-1.6v-0.3h1.6l0,0V64.6z M16.9,64.6h-1v-0.3h1V64.6L16.9,64.6z M16.9,64.6L16.9,64.6
					L16.9,64.6L16.9,64.6L16.9,64.6z M17.9,64.5l-1,0.1l0-0.2l1-0.1L17.9,64.5L17.9,64.5z M17.9,64.5L17.9,64.5L17.9,64.5L17.9,64.5
					z M18.9,64.2l-1,0.3l-0.1-0.2l1-0.3l0,0L18.9,64.2z M19.4,64.1l-0.5,0.1L18.9,64l0.5-0.1L19.4,64.1L19.4,64.1L19.4,64.1z
					 M19.4,64.1L19.4,64.1L19.4,64.1L19.4,64.1L19.4,64.1z M19.9,63.8l-0.5,0.3l-0.1-0.2l0.5-0.3l0,0L19.9,63.8z M19.8,63.6
					L19.8,63.6L19.8,63.6L19.8,63.6L19.8,63.6z M20.9,63.5l-1,0.4l-0.1-0.2l1-0.4L20.9,63.5L20.9,63.5z M20.9,63.4L20.9,63.4
					L20.9,63.4L20.9,63.4z M21.3,63.1l-0.4,0.4l-0.2-0.2l0.4-0.4l0,0L21.3,63.1L21.3,63.1z M21.1,62.9L21.1,62.9L21.1,62.9
					L21.1,62.9z M21.8,62.8l-0.5,0.3l-0.1-0.2l0.5-0.3L21.8,62.8L21.8,62.8z M21.8,62.8L21.8,62.8L21.8,62.8L21.8,62.8z M22.5,62.1
					l-0.7,0.8l-0.2-0.2l0.7-0.8l0,0L22.5,62.1L22.5,62.1z M22.4,61.9L22.4,61.9L22.2,62L22.4,61.9z M22.9,61.7l-0.4,0.4l-0.2-0.2
					l0.4-0.4L22.9,61.7L22.9,61.7L22.9,61.7z M22.9,61.7L22.9,61.7L22.9,61.7L22.9,61.7L22.9,61.7z M23.3,61.2l-0.4,0.5l-0.2-0.1
					l0.4-0.5l0,0L23.3,61.2z M23.6,60.7l-0.4,0.5L23.1,61l0.4-0.5L23.6,60.7L23.6,60.7z M23.7,60.6L23.7,60.6L23.7,60.6L23.7,60.6z
					 M23.9,60l-0.2,0.6l-0.2-0.1l0.2-0.6L23.9,60L23.9,60L23.9,60z M23.9,60L23.9,60L23.9,60L23.9,60z M24.3,58.7L23.9,60l-0.2-0.1
					l0.4-1.3L24.3,58.7L24.3,58.7z M24.3,58.7L24.3,58.7L24.3,58.7L24.3,58.7z M24.3,28.9v29.8H24V28.9l0.1-0.1L24.3,28.9z M24,28.9
					v-0.1h0.1L24,28.9z M28.6,29.1h-4.4v-0.3h4.4l0.1,0.1L28.6,29.1z M28.7,28.9v0.1h-0.1L28.7,28.9z M28.7,25.3v3.6h-0.2v-3.6
					l0.1-0.1L28.7,25.3L28.7,25.3z M28.6,25.2h0.1v0.1L28.6,25.2z M15,25.2h13.6v0.2H15l-0.1-0.1L15,25.2L15,25.2z M14.8,25.3v-0.1
					H15L14.8,25.3z M14.8,28.9v-3.6h0.2v3.6H14.8z"/>
			</g>
			<path d="M46.7,44.3c0,5.5-4.7,10.2-10.4,10.2c-5.9,0-10.5-4.6-10.5-10.2c0-5.6,4.7-10.3,10.5-10.3C42.1,34,46.7,38.6,46.7,44.3z"
				/>
			<g>
				<path d="M36.3,54.7v-0.3l0,0l0.5,0l0.5,0l0.5-0.1l0.5-0.1l0.5-0.1l0.5-0.1l0.5-0.2l0.5-0.2l0.5-0.2l0.4-0.2l0.4-0.2l0.4-0.3
					l0.4-0.3l0.4-0.3l0.4-0.3l0.4-0.3l0.4-0.4l0.3-0.4l0.3-0.4l0.3-0.4l0.3-0.4l0.3-0.4l0.2-0.4l0.2-0.4l0.2-0.5l0.2-0.5l0.1-0.5
					l0.1-0.5l0.1-0.5l0.1-0.5l0-0.5l0-0.5H47l0,0.5l0,0.5l-0.1,0.5l-0.1,0.5l-0.1,0.5l-0.1,0.5l-0.2,0.5l-0.2,0.5l-0.2,0.5l-0.2,0.4
					l-0.3,0.4l-0.3,0.4l-0.3,0.4l-0.3,0.4l-0.3,0.4l-0.4,0.4L43.4,52l-0.4,0.3l-0.4,0.3l-0.4,0.3l-0.4,0.3l-0.4,0.3l-0.5,0.2
					l-0.5,0.2L39.9,54l-0.5,0.2L39,54.4l-0.5,0.1l-0.5,0.1l-0.5,0.1l-0.5,0L36.3,54.7L36.3,54.7L36.3,54.7z M25.5,44.3h0.2l0,0
					l0,0.5l0,0.5l0.1,0.5l0.1,0.5l0.1,0.5l0.1,0.5l0.2,0.5l0.2,0.5l0.2,0.4l0.2,0.4l0.3,0.4l0.3,0.4l0.3,0.4l0.3,0.4l0.3,0.4
					l0.4,0.4l0.4,0.3l0.4,0.3l0.4,0.3l0.4,0.3l0.4,0.3l0.4,0.2l0.5,0.2l0.5,0.2l0.5,0.2l0.5,0.2l0.5,0.1l0.5,0.1l0.5,0.1l0.5,0.1
					l0.5,0l0.5,0v0.3l-0.6,0l-0.5,0l-0.5-0.1l-0.5-0.1l-0.5-0.1l-0.5-0.1L32.6,54l-0.5-0.2l-0.5-0.2l-0.5-0.2l-0.4-0.3l-0.4-0.3
					l-0.4-0.3l-0.4-0.3L29.1,52l-0.4-0.4l-0.4-0.4L28,50.9l-0.3-0.4l-0.3-0.4l-0.3-0.4l-0.3-0.4l-0.2-0.4l-0.2-0.5l-0.2-0.5L26,47.3
					l-0.1-0.5l-0.1-0.5l-0.1-0.5l-0.1-0.5l0-0.5L25.5,44.3L25.5,44.3L25.5,44.3z M36.3,33.7V34l0,0l-0.5,0l-0.5,0l-0.5,0.1l-0.5,0.1
					l-0.5,0.1l-0.5,0.1l-0.5,0.2l-0.5,0.2L31.7,35l-0.5,0.2l-0.4,0.2l-0.4,0.3L30,36l-0.4,0.3l-0.4,0.3L28.8,37l-0.4,0.4l-0.3,0.4
					l-0.3,0.4l-0.3,0.4l-0.3,0.4L27,39.3l-0.2,0.4l-0.2,0.5l-0.2,0.5l-0.2,0.5l-0.1,0.5L26,42.2l-0.1,0.5l-0.1,0.5l0,0.5l0,0.5h-0.2
					l0-0.5l0-0.5l0.1-0.5l0.1-0.5l0.1-0.5l0.1-0.5l0.2-0.5l0.2-0.5l0.2-0.5l0.2-0.5l0.3-0.4l0.3-0.4l0.3-0.4l0.3-0.4l0.3-0.4
					l0.4-0.4l0.4-0.4l0.4-0.3l0.4-0.3l0.4-0.3l0.4-0.3l0.4-0.3l0.5-0.2l0.5-0.2l0.5-0.2l0.5-0.2l0.5-0.1l0.5-0.1l0.5-0.1l0.5-0.1
					l0.5,0L36.3,33.7L36.3,33.7L36.3,33.7z M47,44.3h-0.2l0,0l0-0.5l0-0.5l-0.1-0.5l-0.1-0.5l-0.1-0.5l-0.1-0.5l-0.2-0.5l-0.2-0.5
					l-0.2-0.5l-0.2-0.4l-0.3-0.4l-0.3-0.4l-0.3-0.4l-0.3-0.4L44,37.3L43.7,37l-0.4-0.3l-0.4-0.3L42.5,36l-0.4-0.3l-0.4-0.3l-0.4-0.2
					L40.8,35l-0.5-0.2l-0.5-0.2l-0.5-0.2l-0.5-0.1l-0.5-0.1l-0.5-0.1L37.4,34l-0.5,0l-0.5,0v-0.3l0.5,0l0.5,0l0.5,0.1l0.5,0.1L39,34
					l0.5,0.1l0.5,0.2l0.5,0.2l0.5,0.2l0.5,0.2l0.4,0.3l0.4,0.3l0.4,0.3l0.4,0.3l0.4,0.3l0.4,0.4l0.4,0.4l0.3,0.4l0.3,0.4l0.3,0.4
					l0.3,0.4l0.3,0.4l0.2,0.5l0.2,0.5l0.2,0.5l0.2,0.5l0.1,0.5l0.1,0.5l0.1,0.5l0.1,0.5l0,0.5L47,44.3L47,44.3L47,44.3z"/>
			</g>
			<path class="st2" d="M42.9,44.3c0,3.6-3.1,6.7-6.9,6.7s-6.9-3-6.9-6.7c0-3.8,3.1-6.8,6.9-6.8S42.9,40.5,42.9,44.3z"/>
			<polygon class="st4" points="45.4,34 45.4,38.4 48.3,38.4 48.3,50.9 45.7,50.9 45.7,55.1 55.4,55.1 55.4,51 53.2,51 53.2,34 			
				"/>
			<g>
				<path d="M45.3,38.4V34h0.2v4.4l-0.1,0.1L45.3,38.4L45.3,38.4z M45.4,38.5h-0.1v-0.1L45.4,38.5z M48.3,38.5h-2.9v-0.3h2.9
					l0.1,0.1L48.3,38.5z M48.3,38.2h0.1v0.1L48.3,38.2z M48.2,50.9V38.4h0.2v12.6L48.3,51L48.2,50.9L48.2,50.9z M48.4,50.9V51h-0.1
					L48.4,50.9z M45.7,50.8h2.6V51h-2.6l-0.1-0.1L45.7,50.8z M45.6,50.9v-0.1h0.1L45.6,50.9z M45.6,55.1v-4.1h0.2v4.1l-0.1,0.1
					L45.6,55.1L45.6,55.1z M45.7,55.2h-0.1v-0.1L45.7,55.2z M55.4,55.2h-9.7v-0.3h9.7l0.1,0.1L55.4,55.2z M55.6,55.1v0.1h-0.1
					L55.6,55.1z M55.6,51v4h-0.2v-4l0.1-0.1L55.6,51L55.6,51z M55.4,50.9h0.1V51L55.4,50.9z M53.2,50.9h2.2v0.3h-2.2L53.1,51
					L53.2,50.9z M53.2,51.2h-0.1V51L53.2,51.2z M53.4,34V51h-0.2V34l0.1-0.1L53.4,34L53.4,34z M53.2,33.8h0.1V34L53.2,33.8z
					 M45.4,33.8h7.9v0.3h-7.9V33.8z"/>
			</g>
			<path d="M53.1,26.7c0,1.4-1.1,2.5-2.3,2.5c-1.3,0-2.5-1.1-2.5-2.5c0-1.3,1.1-2.4,2.5-2.4C52,24.3,53.1,25.4,53.1,26.7z"/>
			<g>
				<path d="M50.8,29.4v-0.3l0,0h0.1l0.1,0l0.1,0l0.1,0l0.1,0l0.1,0l0.1,0l0.1,0l0.1,0l0.1-0.1l0.1-0.1l0.1-0.1l0.1-0.1l0.1-0.1
					l0.1-0.1l0.1-0.1l0.1-0.1l0.1-0.1l0.1-0.1l0.1-0.1l0.1-0.1l0.1-0.1l0.1-0.1l0-0.1l0-0.1l0-0.1l0-0.1l0-0.1l0-0.1l0-0.1l0-0.1
					v-0.1h0.2l0,0.1l0,0.1l0,0.1l0,0.1l0,0.1l0,0.1l0,0.1l0,0.1l0,0.1L53,28L53,28.1l-0.1,0.1l-0.1,0.1l-0.1,0.1l-0.1,0.1l-0.1,0.1
					l-0.1,0.1l-0.1,0.1l-0.1,0.1L52.2,29l-0.1,0.1L52,29.1l-0.1,0.1l-0.1,0.1l-0.1,0.1l-0.1,0l-0.1,0l-0.1,0l-0.1,0l-0.1,0l-0.1,0
					L50.8,29.4L50.8,29.4L50.8,29.4z M48.1,26.7h0.2l0,0l0,0.1l0,0.1l0,0.1l0,0.1l0,0.1l0,0.1l0,0.1l0,0.1l0,0.1l0.1,0.1l0.1,0.1
					l0.1,0.1l0.1,0.1l0.1,0.1l0.1,0.1l0.1,0.1l0.1,0.1l0.1,0.1l0.1,0.1l0.1,0.1l0.1,0.1l0.1,0.1l0.1,0.1l0.1,0l0.1,0l0.1,0l0.1,0
					l0.1,0l0.1,0l0.1,0l0.1,0h0.1v0.3h-0.1l-0.1,0l-0.1,0l-0.1,0l-0.1,0l-0.1,0l-0.1,0l-0.1,0l-0.1-0.1l-0.1-0.1l-0.1-0.1L49.2,29
					l-0.1-0.1L49,28.8l-0.1-0.1l-0.1-0.1l-0.1-0.1l-0.1-0.1l-0.1-0.1l-0.1-0.1l-0.1-0.1L48.4,28l-0.1-0.1l-0.1-0.1l0-0.1l0-0.1
					l0-0.1l0-0.1l0-0.1l0-0.1l0-0.1L48.1,26.7L48.1,26.7L48.1,26.7z M50.8,24v0.3l0,0l-0.1,0l-0.1,0l-0.1,0l-0.1,0l-0.1,0l-0.1,0
					l-0.1,0l-0.1,0l-0.1,0.1l-0.1,0.1l-0.1,0.1l-0.1,0.1l-0.1,0.1l-0.1,0.1l-0.1,0.1L49,25l-0.1,0.1l-0.1,0.1l-0.1,0.1l-0.1,0.1
					l-0.1,0.1l-0.1,0.1l-0.1,0.1l0,0.1l0,0.1l0,0.1l0,0.1l0,0.1l0,0.1l0,0.1l0,0.1l0,0.1h-0.2l0-0.1l0-0.1l0-0.1l0-0.1l0-0.1l0-0.1
					l0-0.1l0.1-0.1l0.1-0.1l0.1-0.1l0.1-0.1l0.1-0.1l0.1-0.1l0.1-0.1l0.1-0.1l0.1-0.1l0.1-0.1l0.1-0.1l0.1-0.1l0.1-0.1l0.1-0.1
					l0.1-0.1l0.1-0.1l0.1-0.1l0.1,0l0.1,0l0.1,0l0.1,0l0.1,0l0.1,0l0.1,0L50.8,24L50.8,24L50.8,24z M53.4,26.7h-0.2l0,0v-0.1l0-0.1
					l0-0.1l0-0.1l0-0.1l0-0.1l0-0.1l0-0.1l0-0.1l-0.1-0.1l-0.1-0.1l-0.1-0.1l-0.1-0.1l-0.1-0.1l-0.1-0.1L52.4,25l-0.1-0.1l-0.1-0.1
					l-0.1-0.1l-0.1-0.1L52,24.6l-0.1-0.1l-0.1-0.1l-0.1,0l-0.1,0l-0.1,0l-0.1,0l-0.1,0l-0.1,0l-0.1,0l-0.1,0l-0.1,0V24l0.1,0l0.1,0
					l0.1,0l0.1,0l0.1,0l0.1,0l0.1,0l0.1,0l0.1,0.1l0.1,0.1l0.1,0.1l0.1,0.1l0.1,0.1l0.1,0.1l0.1,0.1l0.1,0.1l0.1,0.1l0.1,0.1
					l0.1,0.1l0.1,0.1l0.1,0.1l0.1,0.1l0.1,0.1l0.1,0.1l0,0.1l0,0.1l0,0.1l0,0.1l0,0.1l0,0.1l0,0.1L53.4,26.7L53.4,26.7L53.4,26.7z"
					/>
			</g>
			<polygon class="st4" points="55.9,50.9 55.9,55.2 66,55.2 66,51 63.2,51 63.2,40.5 63.4,40.2 64,39.7 64.5,39.4 65,39 65.6,38.6 
				66.2,38.4 66.8,38.1 67.6,37.9 68.3,37.9 68.9,37.9 69.7,38 70,38.2 70.4,38.4 71.1,38.9 71.7,39.6 71.7,54.8 79.5,54.8 
				79.5,51.3 75.8,51.3 75.8,38.4 75.5,38 74.8,37.2 73.6,36.1 72.7,35.6 72,35.1 71,34.7 70,34.3 69,34.1 68.1,34.1 67.5,34.1 
				67,34.2 66.3,34.3 65.9,34.6 65.2,34.8 64.8,35.2 64.1,35.6 63.7,36.1 62.9,36.8 62.9,34.1 55.7,34.1 55.7,38.4 59.2,38.4 
				59.1,50.9 			"/>
			<g>
				<path d="M55.8,55.2v-4.3H56v4.3l-0.1,0.1L55.8,55.2L55.8,55.2z M55.9,55.3h-0.1v-0.1L55.9,55.3z M66,55.3H55.9v-0.3H66l0.1,0.1
					L66,55.3z M66.1,55.2v0.1H66L66.1,55.2z M66.1,51v4.1h-0.2V51l0.1-0.1L66.1,51L66.1,51z M66,50.9h0.1V51L66,50.9z M63.2,50.9H66
					v0.3h-2.8L63,51L63.2,50.9z M63.2,51.2H63V51L63.2,51.2z M63.3,40.5V51H63V40.5l0-0.1L63.3,40.5L63.3,40.5z M63,40.5L63,40.5
					L63,40.5L63,40.5z M63.5,40.3l-0.2,0.3l-0.2-0.2l0.2-0.3l0,0L63.5,40.3z M63.3,40.2L63.3,40.2L63.3,40.2L63.3,40.2z M64.1,39.8
					l-0.6,0.5l-0.2-0.2l0.6-0.5l0,0L64.1,39.8L64.1,39.8z M63.9,39.6L63.9,39.6L63.9,39.6L63.9,39.6L63.9,39.6z M64.6,39.5l-0.5,0.4
					l-0.1-0.2l0.5-0.4l0,0L64.6,39.5L64.6,39.5z M65.1,39.1l-0.5,0.4l-0.1-0.2l0.5-0.4l0,0L65.1,39.1z M64.9,38.9L64.9,38.9
					L64.9,38.9L64.9,38.9z M65.7,38.7l-0.6,0.4l-0.1-0.2l0.6-0.4l0,0L65.7,38.7z M65.6,38.5L65.6,38.5L65.6,38.5L65.6,38.5
					L65.6,38.5z M66.3,38.5l-0.6,0.3l-0.1-0.2l0.6-0.3l0,0L66.3,38.5z M66.9,38.2l-0.6,0.3l-0.1-0.2l0.6-0.3h0L66.9,38.2L66.9,38.2z
					 M66.8,38L66.8,38L66.8,38L66.8,38z M67.6,38l-0.7,0.3L66.8,38l0.7-0.3l0,0L67.6,38L67.6,38z M67.5,37.7L67.5,37.7L67.5,37.7
					L67.5,37.7z M68.3,38h-0.7v-0.3h0.7l0,0V38z M68.9,38h-0.6v-0.3h0.6l0,0L68.9,38L68.9,38z M68.9,37.7L68.9,37.7L68.9,37.7
					L68.9,37.7L68.9,37.7z M69.6,38.1L68.9,38l0-0.2l0.7,0.1l0,0L69.6,38.1z M69.7,37.9L69.7,37.9L69.7,37.9L69.7,37.9L69.7,37.9z
					 M70,38.3l-0.4-0.3l0.1-0.2l0.4,0.3L70,38.3L70,38.3L70,38.3z M70,38.4L70,38.4L70,38.4L70,38.4z M70.4,38.5L70,38.4l0.1-0.2
					l0.4,0.1l0,0L70.4,38.5z M70.4,38.2L70.4,38.2L70.4,38.2L70.4,38.2z M71.1,39l-0.7-0.5l0.1-0.2l0.7,0.5l0,0L71.1,39L71.1,39z
					 M71.2,38.8L71.2,38.8L71.2,38.8L71.2,38.8L71.2,38.8z M71.7,39.7L71,38.9l0.2-0.2l0.6,0.8l0,0.1L71.7,39.7L71.7,39.7z
					 M71.8,39.5L71.8,39.5L71.8,39.5L71.8,39.5L71.8,39.5z M71.6,54.8V39.6h0.2v15.2l-0.1,0.1L71.6,54.8L71.6,54.8z M71.7,54.9h-0.1
					v-0.1L71.7,54.9z M79.5,54.9h-7.7v-0.3h7.7l0.1,0.1L79.5,54.9z M79.6,54.8v0.1h-0.1L79.6,54.8z M79.6,51.3v3.5h-0.2v-3.5
					l0.1-0.1L79.6,51.3L79.6,51.3z M79.5,51.2h0.1v0.1L79.5,51.2z M75.8,51.2h3.7v0.3h-3.7l-0.1-0.1L75.8,51.2z M75.8,51.4h-0.1
					v-0.1L75.8,51.4z M75.9,38.4v12.9h-0.2V38.4H75.9L75.9,38.4z M75.9,38.3L75.9,38.3L75.9,38.3L75.9,38.3z M75.6,37.9l0.2,0.4
					l-0.2,0.1L75.4,38L75.6,37.9L75.6,37.9L75.6,37.9z M75.6,37.9L75.6,37.9L75.6,37.9L75.6,37.9L75.6,37.9z M74.9,37.1l0.7,0.8
					l-0.2,0.2l-0.7-0.8L74.9,37.1L74.9,37.1L74.9,37.1z M74.9,37.1L74.9,37.1L74.9,37.1L74.9,37.1z M73.7,36l1.2,1.1l-0.2,0.2
					l-1.2-1.1L73.7,36L73.7,36z M73.6,36L73.6,36L73.6,36L73.6,36z M72.8,35.5l0.9,0.5l-0.1,0.2l-0.9-0.5l0,0L72.8,35.5z M72.7,35.7
					L72.7,35.7L72.7,35.7L72.7,35.7L72.7,35.7z M72.1,35l0.7,0.5l-0.1,0.2l-0.7-0.5L72.1,35L72.1,35L72.1,35z M72,35L72,35L72,35
					L72,35L72,35z M71.1,34.6l1,0.4l-0.1,0.2l-1-0.4L71.1,34.6L71.1,34.6z M70.1,34.2l1,0.4L71,34.8l-1-0.4L70.1,34.2L70.1,34.2
					L70.1,34.2z M70.1,34.2L70.1,34.2L70.1,34.2L70.1,34.2z M69.1,34l1,0.3L70,34.5l-1-0.3L69.1,34L69.1,34L69.1,34z M69,34L69,34
					L69,34L69,34z M68.1,34h1v0.3h-1l0,0V34z M67.5,34h0.6v0.3h-0.6V34L67.5,34L67.5,34z M67.4,34L67.4,34L67.4,34L67.4,34z
					 M66.9,34.1l0.5-0.1l0.1,0.2L67,34.3h0L66.9,34.1z M67,34.3L67,34.3L67,34.3L67,34.3z M66.3,34.2l0.6-0.1l0,0.2l-0.6,0.1
					L66.3,34.2L66.3,34.2L66.3,34.2z M66.3,34.2L66.3,34.2L66.3,34.2L66.3,34.2L66.3,34.2z M65.8,34.5l0.5-0.3l0.1,0.2l-0.5,0.3l0,0
					L65.8,34.5z M65.9,34.7L65.9,34.7L65.9,34.7L65.9,34.7L65.9,34.7z M65.2,34.7l0.6-0.3l0.1,0.2L65.3,35L65.2,34.7L65.2,34.7
					L65.2,34.7z M65.2,34.7L65.2,34.7L65.2,34.7L65.2,34.7z M64.7,35.1l0.5-0.4l0.1,0.2l-0.5,0.4l0,0L64.7,35.1z M64.8,35.3
					L64.8,35.3L64.8,35.3L64.8,35.3L64.8,35.3z M64.1,35.5l0.6-0.4l0.1,0.2l-0.6,0.4L64.1,35.5L64.1,35.5L64.1,35.5z M64.1,35.5
					L64.1,35.5L64.1,35.5L64.1,35.5z M63.6,36l0.5-0.5l0.2,0.2l-0.5,0.5l0,0L63.6,36z M62.8,36.8l0.7-0.8l0.2,0.2L63,36.9L62.8,36.8
					L62.8,36.8z M63,36.9l-0.2,0.2v-0.3L63,36.9z M63,34.1v2.8h-0.2v-2.8l0.1-0.1L63,34.1L63,34.1z M62.9,34H63v0.1L62.9,34z
					 M55.7,34h7.2v0.3h-7.2l-0.1-0.1L55.7,34z M55.6,34.1V34h0.1L55.6,34.1z M55.6,38.4v-4.3h0.2v4.3l-0.1,0.1L55.6,38.4L55.6,38.4z
					 M55.7,38.5h-0.1v-0.1L55.7,38.5z M59.2,38.5h-3.6v-0.3h3.6l0.1,0.1L59.2,38.5z M59.2,38.2h0.1v0.1L59.2,38.2z M59,50.9
					l0.1-12.6h0.2l-0.1,12.6L59.1,51L59,50.9L59,50.9z M59.2,50.9V51h-0.1L59.2,50.9z M55.9,50.8h3.2V51h-3.2V50.8z"/>
			</g>
			<polygon class="st4" points="85.6,38.2 85.6,50.3 85.6,50.4 85.9,50.5 86.1,50.7 86.6,50.8 87.2,50.9 88.1,51 89.2,51 89.2,55.2 
				88.3,55.4 87.8,55.4 87.3,55.4 86.7,55.4 86.1,55.3 85.5,55.2 84.7,54.8 84,54.4 83.3,54.1 82.7,53.4 82.3,53 81.9,52.7 
				81.3,51.7 80.9,51.2 80.7,50.5 80.7,38.2 77.8,38.2 77.8,34 81.2,34 81.2,30.2 85.4,25.8 85.4,34 89.3,34 89.3,38.2 			"/>
			<g>
				<path d="M85.5,50.3V38.2h0.2v12.1l0,0H85.5z M85.5,50.4v-0.1h0.2v0.1l-0.2,0.1L85.5,50.4L85.5,50.4z M85.5,50.5L85.5,50.5
					l-0.1-0.1L85.5,50.5z M85.8,50.7l-0.2-0.1l0.1-0.2l0.2,0.1l0,0L85.8,50.7z M85.9,50.4L85.9,50.4l0.2,0.1L85.9,50.4z M86,50.8
					l-0.2-0.1l0.1-0.2l0.2,0.1L86,50.8L86,50.8z M86.1,50.8L86.1,50.8L86.1,50.8L86.1,50.8L86.1,50.8z M86.6,50.9l-0.5-0.1l0.1-0.2
					l0.5,0.1L86.6,50.9L86.6,50.9L86.6,50.9z M86.6,50.9L86.6,50.9L86.6,50.9L86.6,50.9L86.6,50.9z M87.2,51l-0.6-0.1l0.1-0.2
					l0.6,0.1L87.2,51L87.2,51z M87.2,51L87.2,51L87.2,51L87.2,51z M88,51.2L87.2,51l0-0.2l0.9,0.1L88,51.2L88,51.2L88,51.2z
					 M88.1,51.2L88.1,51.2L88.1,51.2L88.1,51.2z M89.2,51.2h-1.1v-0.3h1.1l0.1,0.1L89.2,51.2z M89.2,50.9h0.1V51L89.2,50.9z
					 M89,55.2V51h0.2v4.1l-0.1,0.1L89,55.2L89,55.2z M89.3,55.2L89.3,55.2l-0.1,0.1L89.3,55.2z M88.3,55.3l0.9-0.3l0.1,0.2l-0.9,0.3
					h0L88.3,55.3z M88.3,55.6L88.3,55.6L88.3,55.6L88.3,55.6z M87.8,55.3h0.5v0.2h-0.5l0,0V55.3z M87.3,55.3h0.5v0.2h-0.5l0,0V55.3z
					 M86.7,55.3h0.6v0.2h-0.6h0L86.7,55.3z M86.7,55.6L86.7,55.6L86.7,55.6L86.7,55.6z M86.1,55.2l0.6,0.1l-0.1,0.2l-0.6-0.1l0,0
					L86.1,55.2L86.1,55.2z M85.5,55.1l0.6,0.1l-0.1,0.3l-0.6-0.1l0,0L85.5,55.1L85.5,55.1z M85.5,55.3L85.5,55.3L85.5,55.3
					L85.5,55.3L85.5,55.3z M84.8,54.7l0.7,0.4l-0.1,0.2l-0.7-0.4l0,0L84.8,54.7L84.8,54.7z M84.1,54.3l0.7,0.4l-0.1,0.2L84,54.5
					L84.1,54.3L84.1,54.3L84.1,54.3z M83.3,53.9l0.7,0.4L84,54.5l-0.7-0.4l0,0L83.3,53.9L83.3,53.9z M83.2,54.2L83.2,54.2L83.2,54.2
					L83.2,54.2L83.2,54.2z M82.7,53.3l0.6,0.6l-0.2,0.2l-0.6-0.6l0,0L82.7,53.3L82.7,53.3z M82.4,53l0.4,0.4l-0.2,0.2l-0.4-0.4l0,0
					L82.4,53L82.4,53z M82,52.6l0.4,0.4l-0.2,0.2l-0.4-0.4l0,0L82,52.6z M81.8,52.8L81.8,52.8L81.8,52.8L81.8,52.8z M81.4,51.6
					l0.6,1l-0.2,0.1l-0.6-1L81.4,51.6L81.4,51.6z M81.4,51.6L81.4,51.6L81.4,51.6L81.4,51.6L81.4,51.6z M81,51.1l0.4,0.5l-0.2,0.2
					l-0.4-0.5l0,0L81,51.1L81,51.1z M80.8,51.2L80.8,51.2L80.8,51.2L80.8,51.2z M80.8,50.5l0.2,0.6l-0.2,0.1l-0.2-0.6l0,0L80.8,50.5
					L80.8,50.5z M80.6,50.6L80.6,50.6L80.6,50.6L80.6,50.6L80.6,50.6z M80.8,38.2v12.3h-0.2V38.2l0.1-0.1L80.8,38.2L80.8,38.2z
					 M80.7,38.1h0.1v0.1L80.7,38.1z M77.8,38.1h2.9v0.3h-2.9l-0.1-0.1L77.8,38.1z M77.8,38.4h-0.1v-0.1L77.8,38.4z M77.9,34v4.3
					h-0.2V34l0.1-0.1L77.9,34L77.9,34z M77.6,34v-0.1h0.1L77.6,34z M81.2,34.1h-3.4v-0.3h3.4l0.1,0.1L81.2,34.1z M81.3,34v0.1h-0.1
					L81.3,34z M81.3,30.2V34h-0.2v-3.8l0-0.1L81.3,30.2L81.3,30.2z M81.1,30.2L81.1,30.2L81.1,30.2L81.1,30.2z M85.4,25.9l-4.2,4.4
					l-0.2-0.2l4.2-4.4L85.4,25.9L85.4,25.9z M85.3,25.7l0.2-0.2v0.3L85.3,25.7z M85.2,34v-8.2h0.2V34l-0.1,0.1L85.2,34L85.2,34z
					 M85.4,34.1h-0.1V34L85.4,34.1z M89.3,34.1h-3.9v-0.3h3.9l0.1,0.1L89.3,34.1z M89.3,33.8h0.1V34L89.3,33.8z M89.2,38.2V34h0.2
					v4.3l-0.1,0.1L89.2,38.2L89.2,38.2z M89.4,38.2v0.1h-0.1L89.4,38.2z M85.6,38.1h3.7v0.3h-3.7V38.1z"/>
			</g>
		</g>
		<polygon points="16.8,86.2 16.8,79.1 18.2,79.1 18.2,85 21.7,85 21.7,86.2 		"/>
		<path d="M22.8,80.3v-1.3h1.3v1.3H22.8z M22.8,86.2V81h1.3v5.2H22.8z"/>
		<path d="M25.3,86.6l1.5,0.2c0,0.2,0.1,0.3,0.2,0.4c0.1,0.1,0.3,0.1,0.6,0.1c0.4,0,0.6,0,0.8-0.2c0.1-0.1,0.2-0.2,0.3-0.3
			c0-0.1,0.1-0.3,0.1-0.6v-0.8c-0.4,0.6-0.9,0.8-1.5,0.8c-0.7,0-1.2-0.3-1.6-0.9c-0.3-0.5-0.5-1.1-0.5-1.7c0-0.9,0.2-1.5,0.6-2
			c0.4-0.5,0.9-0.7,1.5-0.7c0.6,0,1.1,0.3,1.5,0.8V81h1.3v4.7c0,0.6-0.1,1.1-0.2,1.4c-0.1,0.3-0.2,0.5-0.4,0.7
			c-0.2,0.2-0.4,0.3-0.7,0.4c-0.3,0.1-0.7,0.1-1.1,0.1c-0.9,0-1.5-0.2-1.8-0.5c-0.4-0.3-0.5-0.7-0.5-1.1
			C25.3,86.7,25.3,86.7,25.3,86.6L25.3,86.6z M26.5,83.5c0,0.6,0.1,1,0.3,1.2c0.2,0.3,0.5,0.4,0.8,0.4c0.3,0,0.6-0.1,0.8-0.4
			c0.2-0.3,0.3-0.7,0.3-1.2c0-0.5-0.1-0.9-0.3-1.2C28.2,82.1,28,82,27.6,82c-0.3,0-0.6,0.1-0.8,0.4C26.6,82.6,26.5,83,26.5,83.5
			L26.5,83.5z"/>
		<path d="M32.5,82.6l-1.2-0.2c0.1-0.5,0.4-0.9,0.7-1.1c0.3-0.2,0.8-0.4,1.5-0.4c0.6,0,1.1,0.1,1.3,0.2c0.3,0.1,0.5,0.3,0.6,0.6
			c0.1,0.2,0.2,0.6,0.2,1.2l0,1.6c0,0.5,0,0.8,0.1,1c0,0.2,0.1,0.5,0.2,0.7h-1.3c0-0.1-0.1-0.2-0.1-0.4c0-0.1,0-0.1-0.1-0.2
			c-0.2,0.2-0.5,0.4-0.7,0.5c-0.3,0.1-0.5,0.2-0.8,0.2c-0.5,0-0.9-0.2-1.2-0.4c-0.3-0.3-0.5-0.7-0.5-1.1c0-0.3,0.1-0.5,0.2-0.8
			c0.1-0.2,0.3-0.4,0.6-0.5c0.2-0.1,0.6-0.2,1.1-0.3c0.6-0.1,1.1-0.2,1.3-0.3v-0.1c0-0.3-0.1-0.4-0.2-0.6C33.9,82,33.7,82,33.3,82
			c-0.2,0-0.4,0-0.6,0.1C32.7,82.2,32.5,82.4,32.5,82.6L32.5,82.6z M34.3,83.7c-0.2,0.1-0.4,0.1-0.8,0.2c-0.4,0.1-0.6,0.2-0.7,0.2
			c-0.2,0.1-0.3,0.3-0.3,0.5c0,0.2,0.1,0.4,0.2,0.5c0.1,0.1,0.3,0.2,0.5,0.2c0.2,0,0.5-0.1,0.7-0.2c0.2-0.1,0.3-0.3,0.3-0.5
			c0-0.1,0-0.3,0-0.7V83.7L34.3,83.7z"/>
		<path d="M46.2,86.2h-1.2v-0.8c-0.2,0.3-0.4,0.5-0.7,0.7c-0.3,0.2-0.6,0.2-0.9,0.2c-0.6,0-1.1-0.2-1.5-0.7c-0.4-0.5-0.6-1.2-0.6-2
			c0-0.9,0.2-1.6,0.6-2c0.4-0.4,0.9-0.7,1.5-0.7c0.6,0,1.1,0.2,1.5,0.7v-2.6h1.3L46.2,86.2L46.2,86.2z M42.6,83.5
			c0,0.5,0.1,1,0.2,1.2c0.2,0.4,0.5,0.5,0.9,0.5c0.3,0,0.6-0.1,0.8-0.4c0.2-0.3,0.3-0.7,0.3-1.2c0-0.6-0.1-1-0.3-1.3
			C44.3,82.1,44,82,43.7,82c-0.3,0-0.6,0.1-0.8,0.4C42.7,82.6,42.6,83,42.6,83.5L42.6,83.5z"/>
		<path d="M59,82.7c0-0.7,0.1-1.3,0.3-1.8c0.2-0.4,0.4-0.7,0.7-1c0.3-0.3,0.6-0.5,0.9-0.7c0.4-0.2,0.9-0.3,1.5-0.3
			c1,0,1.9,0.3,2.5,1c0.6,0.6,0.9,1.6,0.9,2.7c0,1.2-0.3,2.1-0.9,2.7c-0.6,0.6-1.4,1-2.5,1c-1.1,0-1.9-0.3-2.5-1
			C59.3,84.7,59,83.8,59,82.7z M60.5,82.6c0,0.8,0.2,1.4,0.6,1.8c0.4,0.4,0.8,0.6,1.4,0.6c0.6,0,1-0.2,1.4-0.6
			c0.4-0.4,0.5-1,0.5-1.9c0-0.8-0.2-1.4-0.5-1.9c-0.4-0.4-0.8-0.6-1.4-0.6s-1.1,0.2-1.4,0.6C60.6,81.2,60.5,81.8,60.5,82.6
			L60.5,82.6z"/>
		<polygon points="66.9,86.2 66.9,79.1 68.3,79.1 71.2,83.9 71.2,79.1 72.5,79.1 72.5,86.2 71.1,86.2 68.2,81.6 68.2,86.2 		"/>
		<path d="M77.3,83.6v-1.2h3v2.9c-0.3,0.3-0.7,0.6-1.3,0.8c-0.6,0.2-1.1,0.3-1.7,0.3c-0.7,0-1.4-0.2-1.9-0.5c-0.5-0.3-1-0.8-1.2-1.4
			c-0.3-0.6-0.4-1.2-0.4-1.9c0-0.8,0.2-1.4,0.5-2c0.3-0.6,0.8-1,1.3-1.3c0.5-0.2,1-0.4,1.7-0.4c0.9,0,1.6,0.2,2.1,0.6
			c0.5,0.4,0.8,0.9,0.9,1.5l-1.4,0.3c-0.1-0.4-0.3-0.6-0.5-0.8c-0.3-0.2-0.6-0.3-1-0.3c-0.6,0-1.1,0.2-1.5,0.6
			c-0.4,0.4-0.5,1-0.5,1.8c0,0.9,0.2,1.5,0.5,1.9c0.4,0.4,0.9,0.6,1.5,0.6c0.3,0,0.6-0.1,0.9-0.2c0.3-0.1,0.6-0.3,0.8-0.4v-0.9H77.3
			L77.3,83.6z"/>
		<path d="M81.3,84.8l1.4-0.2c0.1,0.3,0.2,0.5,0.4,0.6c0.2,0.1,0.4,0.2,0.7,0.2c0.3,0,0.6-0.1,0.8-0.2c0.1-0.1,0.2-0.2,0.2-0.4
			c0-0.1,0-0.2-0.1-0.3c-0.1-0.1-0.2-0.1-0.4-0.2c-1.1-0.2-1.8-0.5-2.1-0.7c-0.4-0.3-0.6-0.7-0.6-1.2c0-0.5,0.2-0.8,0.5-1.1
			c0.3-0.3,0.9-0.5,1.6-0.5c0.7,0,1.2,0.1,1.5,0.3c0.3,0.2,0.6,0.6,0.7,1l-1.3,0.2c-0.1-0.2-0.2-0.4-0.3-0.5
			c-0.1-0.1-0.4-0.2-0.6-0.2c-0.4,0-0.6,0.1-0.8,0.2c-0.1,0.1-0.2,0.2-0.2,0.3c0,0.1,0,0.2,0.1,0.3c0.1,0.1,0.5,0.2,1.3,0.4
			c0.7,0.2,1.2,0.4,1.5,0.6c0.3,0.2,0.4,0.6,0.4,1c0,0.5-0.2,0.9-0.6,1.2c-0.4,0.4-1,0.5-1.7,0.5c-0.7,0-1.2-0.1-1.6-0.4
			C81.6,85.6,81.4,85.2,81.3,84.8L81.3,84.8z"/>
		<g>
			<path d="M16.4,94.6l1.3,0.2c-0.2,0.5-0.4,0.9-0.8,1.1c-0.4,0.3-0.8,0.4-1.4,0.4c-0.9,0-1.5-0.3-2-0.9C13.2,95,13,94.5,13,93.7
				c0-0.9,0.2-1.5,0.7-2c0.4-0.5,1-0.7,1.7-0.7c0.8,0,1.3,0.3,1.8,0.8c0.4,0.5,0.6,1.3,0.6,2.4h-3.4c0,0.4,0.1,0.7,0.3,1
				c0.2,0.2,0.5,0.3,0.8,0.3c0.2,0,0.4-0.1,0.5-0.2C16.2,95.1,16.3,94.9,16.4,94.6L16.4,94.6z M16.5,93.2c0-0.4-0.1-0.7-0.3-0.9
				C16,92.1,15.7,92,15.5,92c-0.3,0-0.5,0.1-0.7,0.3c-0.2,0.2-0.3,0.5-0.3,0.9H16.5z"/>
			<path d="M18.9,91.1h1.2v0.7c0.4-0.6,1-0.8,1.6-0.8c0.3,0,0.6,0.1,0.8,0.2c0.2,0.1,0.4,0.4,0.6,0.6c0.2-0.3,0.5-0.5,0.7-0.6
				c0.3-0.1,0.5-0.2,0.8-0.2c0.4,0,0.7,0.1,1,0.2c0.3,0.2,0.4,0.4,0.6,0.7c0.1,0.2,0.1,0.6,0.1,1.1v3.3H25v-3c0-0.5-0.1-0.9-0.1-1
				c-0.1-0.2-0.3-0.3-0.6-0.3c-0.2,0-0.4,0.1-0.5,0.2c-0.2,0.1-0.3,0.3-0.4,0.5c-0.1,0.2-0.1,0.6-0.1,1.1v2.5h-1.3v-2.9
				c0-0.5,0-0.8-0.1-1c0-0.2-0.1-0.3-0.2-0.3c-0.1-0.1-0.2-0.1-0.4-0.1c-0.2,0-0.4,0.1-0.6,0.2c-0.2,0.1-0.3,0.3-0.4,0.5
				c-0.1,0.2-0.1,0.6-0.1,1.1v2.5h-1.3L18.9,91.1L18.9,91.1z"/>
			<polygon points="30.4,96.3 30.4,89.1 32.5,89.1 33.7,94 35,89.1 37.1,89.1 37.1,96.3 35.8,96.3 35.8,90.6 34.4,96.3 33.1,96.3 
				31.7,90.6 31.7,96.3 			"/>
			<path d="M38.3,93.6c0-0.5,0.1-0.9,0.3-1.3c0.2-0.4,0.5-0.8,0.9-1c0.4-0.2,0.9-0.3,1.3-0.3c0.8,0,1.4,0.3,1.9,0.8
				c0.5,0.5,0.7,1.2,0.7,1.9c0,0.8-0.2,1.4-0.7,2c-0.5,0.5-1.1,0.8-1.9,0.8c-0.5,0-0.9-0.1-1.3-0.3c-0.4-0.2-0.7-0.5-1-0.9
				C38.4,94.7,38.3,94.2,38.3,93.6L38.3,93.6z M39.7,93.7c0,0.5,0.1,0.9,0.4,1.2c0.2,0.3,0.5,0.4,0.9,0.4c0.3,0,0.6-0.1,0.9-0.4
				c0.2-0.3,0.4-0.7,0.4-1.2c0-0.5-0.1-0.9-0.4-1.2c-0.2-0.3-0.5-0.4-0.9-0.4c-0.4,0-0.6,0.1-0.9,0.4C39.8,92.8,39.7,93.2,39.7,93.7
				L39.7,93.7z"/>
			<path d="M49,92.6l-1.3,0.2c0-0.3-0.1-0.5-0.3-0.6c-0.2-0.1-0.4-0.2-0.6-0.2c-0.3,0-0.6,0.1-0.8,0.4c-0.2,0.2-0.3,0.6-0.3,1.2
				c0,0.6,0.1,1.1,0.3,1.3c0.2,0.3,0.5,0.4,0.8,0.4c0.3,0,0.5-0.1,0.6-0.2c0.2-0.2,0.3-0.4,0.3-0.8l1.3,0.2
				c-0.1,0.6-0.4,1.1-0.8,1.4c-0.4,0.3-0.9,0.5-1.6,0.5c-0.7,0-1.3-0.2-1.8-0.7c-0.4-0.5-0.7-1.1-0.7-2c0-0.9,0.2-1.5,0.7-2
				c0.4-0.5,1.1-0.7,1.8-0.7c0.6,0,1.1,0.1,1.5,0.4C48.6,91.6,48.9,92.1,49,92.6L49,92.6z"/>
			<path d="M51,92.7l-1.2-0.2c0.1-0.5,0.4-0.9,0.7-1.1c0.3-0.2,0.8-0.4,1.5-0.4c0.6,0,1.1,0.1,1.3,0.2c0.3,0.1,0.5,0.3,0.6,0.6
				c0.1,0.2,0.2,0.6,0.2,1.2l0,1.6c0,0.5,0,0.8,0.1,1c0,0.2,0.1,0.5,0.2,0.7h-1.3c0-0.1-0.1-0.2-0.1-0.4c0-0.1,0-0.1,0-0.2
				c-0.2,0.2-0.5,0.4-0.7,0.5c-0.3,0.1-0.5,0.2-0.8,0.2c-0.5,0-0.9-0.1-1.2-0.4c-0.3-0.3-0.4-0.7-0.4-1.1c0-0.3,0.1-0.6,0.2-0.8
				c0.1-0.2,0.3-0.4,0.6-0.5c0.2-0.1,0.6-0.2,1.1-0.3c0.6-0.1,1.1-0.2,1.3-0.3v-0.1c0-0.3-0.1-0.5-0.2-0.6c-0.1-0.1-0.4-0.2-0.7-0.2
				c-0.2,0-0.4,0.1-0.6,0.1C51.2,92.3,51.1,92.4,51,92.7L51,92.7z M52.8,93.8c-0.2,0.1-0.4,0.1-0.8,0.2c-0.4,0.1-0.6,0.2-0.7,0.2
				c-0.2,0.1-0.3,0.3-0.3,0.5c0,0.2,0.1,0.4,0.2,0.5c0.1,0.1,0.3,0.2,0.5,0.2c0.2,0,0.5-0.1,0.7-0.2c0.2-0.1,0.3-0.3,0.3-0.5
				c0-0.1,0-0.3,0-0.7V93.8L52.8,93.8z"/>
			<path d="M55.4,91.1h1.2v0.7c0.4-0.6,1-0.8,1.6-0.8c0.3,0,0.6,0.1,0.8,0.2c0.2,0.1,0.4,0.4,0.6,0.6c0.2-0.3,0.5-0.5,0.7-0.6
				c0.3-0.1,0.5-0.2,0.8-0.2c0.4,0,0.7,0.1,1,0.2c0.3,0.2,0.4,0.4,0.6,0.7c0.1,0.2,0.1,0.6,0.1,1.1v3.3h-1.3v-3c0-0.5,0-0.9-0.1-1
				c-0.1-0.2-0.3-0.3-0.6-0.3c-0.2,0-0.4,0.1-0.5,0.2c-0.2,0.1-0.3,0.3-0.4,0.5c-0.1,0.2-0.1,0.6-0.1,1.1v2.5h-1.3v-2.9
				c0-0.5,0-0.8-0.1-1c0-0.2-0.1-0.3-0.2-0.3c-0.1-0.1-0.2-0.1-0.4-0.1c-0.2,0-0.4,0.1-0.6,0.2c-0.2,0.1-0.3,0.3-0.4,0.5
				c-0.1,0.2-0.1,0.6-0.1,1.1v2.5h-1.3L55.4,91.1L55.4,91.1z"/>
			<path d="M64.2,96.3v-7.2h1.3v2.6c0.4-0.5,0.9-0.7,1.5-0.7c0.6,0,1.1,0.2,1.5,0.7c0.4,0.5,0.6,1.1,0.6,2c0,0.9-0.2,1.6-0.6,2.1
				c-0.4,0.5-0.9,0.7-1.5,0.7c-0.3,0-0.6-0.1-0.9-0.2c-0.3-0.2-0.5-0.4-0.7-0.7v0.8H64.2z M65.5,93.6c0,0.5,0.1,0.9,0.3,1.2
				c0.2,0.4,0.5,0.5,0.9,0.5c0.3,0,0.6-0.1,0.8-0.4c0.2-0.3,0.3-0.7,0.3-1.2c0-0.6-0.1-1-0.3-1.3c-0.2-0.3-0.5-0.4-0.8-0.4
				c-0.3,0-0.6,0.1-0.8,0.4C65.6,92.7,65.5,93,65.5,93.6L65.5,93.6z"/>
			<path d="M70.2,90.4v-1.3h1.3v1.3H70.2z M70.2,96.3v-5.2h1.3v5.2H70.2z"/>
			<path d="M76.2,98.3v-2.6c-0.2,0.2-0.4,0.4-0.7,0.5c-0.3,0.1-0.5,0.2-0.9,0.2c-0.6,0-1-0.2-1.4-0.7c-0.4-0.5-0.7-1.2-0.7-2.1
				c0-0.8,0.2-1.5,0.6-2c0.4-0.5,0.9-0.7,1.5-0.7c0.3,0,0.6,0.1,0.9,0.2c0.2,0.2,0.5,0.4,0.7,0.7v-0.8h1.2v7.2H76.2L76.2,98.3z
				 M76.3,93.6c0-0.5-0.1-0.9-0.3-1.2c-0.2-0.3-0.5-0.4-0.8-0.4c-0.3,0-0.6,0.1-0.8,0.4c-0.2,0.3-0.3,0.7-0.3,1.3
				c0,0.6,0.1,1,0.3,1.2c0.2,0.3,0.5,0.4,0.8,0.4c0.3,0,0.6-0.1,0.8-0.4C76.2,94.6,76.3,94.2,76.3,93.6L76.3,93.6z"/>
			<path d="M82.3,96.3v-0.8c-0.2,0.3-0.4,0.5-0.7,0.7c-0.3,0.2-0.6,0.2-1,0.2c-0.3,0-0.6-0.1-0.9-0.2c-0.3-0.2-0.5-0.4-0.6-0.7
				c-0.1-0.3-0.2-0.7-0.2-1.1v-3.3h1.3v2.4c0,0.7,0,1.2,0.1,1.3c0,0.2,0.1,0.3,0.3,0.4c0.1,0.1,0.3,0.1,0.5,0.1
				c0.2,0,0.4-0.1,0.6-0.2c0.2-0.1,0.3-0.3,0.4-0.5c0.1-0.2,0.1-0.7,0.1-1.4v-2.2h1.4v5.2H82.3L82.3,96.3z"/>
			<path d="M87.9,94.6l1.3,0.2c-0.2,0.5-0.5,0.9-0.8,1.1c-0.4,0.3-0.8,0.4-1.4,0.4c-0.9,0-1.5-0.3-2-0.9c-0.3-0.5-0.5-1.1-0.5-1.8
				c0-0.9,0.2-1.5,0.7-2c0.4-0.5,1-0.7,1.7-0.7c0.8,0,1.3,0.3,1.8,0.8c0.4,0.5,0.6,1.3,0.6,2.4h-3.4c0,0.4,0.1,0.7,0.3,1
				c0.2,0.2,0.5,0.3,0.8,0.3c0.2,0,0.4-0.1,0.5-0.2C87.7,95.1,87.8,94.9,87.9,94.6L87.9,94.6z M88,93.2c0-0.4-0.1-0.7-0.3-0.9
				C87.5,92.1,87.2,92,87,92c-0.3,0-0.5,0.1-0.7,0.3c-0.2,0.2-0.3,0.5-0.3,0.9H88L88,93.2z"/>
		</g>
		<path class="st5" d="M50.2,84.6l1.4,0.2c-0.2,0.5-0.5,0.8-0.8,1.1c-0.4,0.3-0.9,0.4-1.4,0.4c-0.9,0-1.6-0.3-2-0.8
			c-0.3-0.4-0.5-1-0.5-1.7c0-0.8,0.2-1.4,0.7-1.9c0.4-0.5,1-0.7,1.7-0.7c0.8,0,1.4,0.2,1.8,0.7c0.4,0.5,0.7,1.2,0.6,2.2h-3.4
			c0,0.4,0.1,0.7,0.3,0.9c0.2,0.2,0.5,0.3,0.8,0.3c0.2,0,0.4-0.1,0.5-0.2C50,85,50.1,84.8,50.2,84.6L50.2,84.6z M50.3,83.3
			c0-0.4-0.1-0.6-0.3-0.8c-0.2-0.2-0.4-0.3-0.7-0.3c-0.3,0-0.5,0.1-0.7,0.3c-0.2,0.2-0.3,0.5-0.3,0.8H50.3z"/>
	</g>
</g>
</svg>
