<?xml version="1.0" encoding="utf-8"?>
<!-- Generator: Adobe Illustrator 23.0.4, SVG Export Plug-In . SVG Version: 6.00 Build 0)  -->
<svg version="1.1" id="Layer_1" xmlns:xodm="http://www.corel.com/coreldraw/odm/2003"
	 xmlns="http://www.w3.org/2000/svg" xmlns:xlink="http://www.w3.org/1999/xlink" x="0px" y="0px" viewBox="0 0 100 100"
	 style="enable-background:new 0 0 100 100;" xml:space="preserve">
<style type="text/css">
	.st0{fill:none;stroke:#317F50;stroke-width:1.7432;stroke-miterlimit:2.6131;}
</style>
<g id="Layer_x0020_1">
	<g id="_105553648677248">
		<polygon class="st0" points="42.8,33.3 42.8,38.2 39.8,40.6 33.6,40.6 17.6,27.6 17.6,33.4 33.4,46.7 38.9,46.7 50.5,36.9 
			62.3,46.7 67.9,46.7 82.8,34.3 82.8,28.6 68.4,40.5 63.8,40.5 63.8,39.1 72.9,31.5 72.9,28 69.5,28 59.7,36.4 58.2,36.4 
			58.2,32.6 73.1,20.2 73.1,19 67.2,19 51.3,32.4 49.5,32.4 33.6,19 27.1,19 27.1,20.2 		"/>
		<polygon class="st0" points="13.8,64.4 29.9,51 37.2,51 47.4,59.6 47.4,78.9 30.6,64.9 13.9,78.7 		"/>
		<polygon class="st0" points="63,51.2 53,59.5 52.7,80 69.4,65.6 86.2,79.2 86.2,64.4 70.2,51.1 		"/>
	</g>
</g>
</svg>
