<svg id="Layer_1" data-name="Layer 1" xmlns="http://www.w3.org/2000/svg" viewBox="0 0 19.29 14.32"><defs><style>.cls-1{fill:#90888a;}.cls-2{fill:#43484f;}.cls-3{fill:#fff;}.cls-4{fill:#eb008b;}</style></defs><title>print-icon</title><rect class="cls-1" x="0.33" y="2.19" width="18.64" height="8.09" rx="2.46"/><path class="cls-2" d="M22.92,19.51H9.21a2.79,2.79,0,0,1-2.79-2.79V13.55a2.79,2.79,0,0,1,2.79-2.78H22.92a2.79,2.79,0,0,1,2.79,2.78v3.17A2.79,2.79,0,0,1,22.92,19.51ZM9.21,11.42a2.14,2.14,0,0,0-2.14,2.13v3.17a2.14,2.14,0,0,0,2.14,2.14H22.92a2.13,2.13,0,0,0,2.13-2.14V13.55a2.13,2.13,0,0,0-2.13-2.13Z" transform="translate(-6.42 -8.9)"/><polygon class="cls-3" points="14.38 11.61 14.38 6.24 4.9 6.24 4.9 14 12 14 12 11.61 14.38 11.61"/><path class="cls-2" d="M18.42,23.22h-7.1A.32.32,0,0,1,11,22.9V15.14a.32.32,0,0,1,.32-.33H20.8a.33.33,0,0,1,.33.33v5.37a.33.33,0,0,1-.33.33H18.74V22.9A.32.32,0,0,1,18.42,23.22Zm-6.77-.65h6.44V20.51a.32.32,0,0,1,.33-.32h2.06V15.46H11.65Z" transform="translate(-6.42 -8.9)"/><path class="cls-2" d="M18.42,23.22a.3.3,0,0,1-.13,0,.33.33,0,0,1-.2-.3V20.51a.32.32,0,0,1,.33-.32H20.8a.33.33,0,0,1,.3.2.31.31,0,0,1-.07.35l-2.38,2.39A.33.33,0,0,1,18.42,23.22Zm.32-2.38v1.27L20,20.84Z" transform="translate(-6.42 -8.9)"/><path class="cls-2" d="M22.63,15.46H9.5a.32.32,0,0,1-.33-.32.33.33,0,0,1,.33-.33H22.63a.32.32,0,0,1,.32.33A.32.32,0,0,1,22.63,15.46Z" transform="translate(-6.42 -8.9)"/><path class="cls-2" d="M20.8,11.42H11.32a.32.32,0,0,1-.32-.33V9.23a.32.32,0,0,1,.32-.33H20.8a.33.33,0,0,1,.33.33v1.86A.33.33,0,0,1,20.8,11.42Zm-9.15-.65h8.83V9.55H11.65Z" transform="translate(-6.42 -8.9)"/><path class="cls-2" d="M22.94,12.64H21.28a.32.32,0,0,1-.33-.32.33.33,0,0,1,.33-.33h1.66a.33.33,0,0,1,.33.33A.32.32,0,0,1,22.94,12.64Z" transform="translate(-6.42 -8.9)"/><path class="cls-2" d="M22.94,13.67H21.28a.33.33,0,0,1-.33-.33.32.32,0,0,1,.33-.32h1.66a.32.32,0,0,1,.33.32A.33.33,0,0,1,22.94,13.67Z" transform="translate(-6.42 -8.9)"/><rect class="cls-4" x="4.16" y="2.19" width="1.05" height="1.9"/><path class="cls-2" d="M11.63,13.32H10.58a.32.32,0,0,1-.33-.32V11.09a.32.32,0,0,1,.33-.32h1.05a.32.32,0,0,1,.33.32V13A.32.32,0,0,1,11.63,13.32Zm-.73-.65h.4V11.42h-.4Z" transform="translate(-6.42 -8.9)"/></svg>