<?xml version="1.0" encoding="utf-8"?>
<!-- Generator: Adobe Illustrator 23.0.4, SVG Export Plug-In . SVG Version: 6.00 Build 0)  -->
<svg version="1.1" id="Layer_1" xmlns:xodm="http://www.corel.com/coreldraw/odm/2003"
	 xmlns="http://www.w3.org/2000/svg" xmlns:xlink="http://www.w3.org/1999/xlink" x="0px" y="0px" viewBox="0 0 147 100"
	 style="enable-background:new 0 0 147 100;" xml:space="preserve">
<style type="text/css">
	.st0{fill-rule:evenodd;clip-rule:evenodd;fill:url(#SVGID_1_);}
	.st1{fill-rule:evenodd;clip-rule:evenodd;fill:#000094;}
	.st2{fill-rule:evenodd;clip-rule:evenodd;fill:#00A85A;}
	.st3{fill-rule:evenodd;clip-rule:evenodd;fill:#4A4CC9;}
	.st4{fill-rule:evenodd;clip-rule:evenodd;fill:#E00000;}
</style>
<g id="Layer_x0020_1">
	<g id="_105553710498240">
		
			<linearGradient id="SVGID_1_" gradientUnits="userSpaceOnUse" x1="36.2542" y1="23.8752" x2="138.7764" y2="23.8752" gradientTransform="matrix(1 0 0 -1 0 100)">
			<stop  offset="0" style="stop-color:#AF3592"/>
			<stop  offset="0.349" style="stop-color:#D8363B"/>
			<stop  offset="0.6706" style="stop-color:#FFCC2A"/>
			<stop  offset="1" style="stop-color:#009556"/>
		</linearGradient>
		<polygon class="st0" points="69.7,87.1 69.7,87.1 72.1,87.1 74.6,86.8 77.1,86.8 78.8,86 80.4,85.7 81.8,85.1 83.5,85 84.8,84.3 
			86.4,84.1 87.9,83.7 89.3,83.1 91,82.9 92.5,82.2 94.4,82 96,81.5 97.6,81 99.3,80.5 101,80.2 102.5,79.5 104.4,79.4 106,78.9 
			107.8,78.5 109.6,78.3 111.2,77.7 113.1,77.9 114.8,77.3 116.6,77.1 118.4,76.9 120.2,77.1 122,77.2 123.8,77 125.6,77.3 
			127.4,77.1 129.2,77.2 131,77.4 132.5,77.6 133.5,77.7 134,78.3 134,79.2 135.1,79.5 136.5,79 137.7,77.9 138.2,77.1 138.8,76.5 
			138.5,76.1 137,74.9 134.8,74.1 132.5,74 130.1,73.8 127.4,73.6 124.8,73.5 122.5,73.8 120.1,73.8 117.7,73.9 115.6,73.8 
			114.1,74.4 112.4,74.3 110.9,74.7 109.3,75 107.6,75 106.1,75.4 104.5,75.7 102.7,75.8 100.9,76.3 98.9,76.4 97.2,77 95.3,77.5 
			93.3,78 91.4,78.7 89.4,79.2 87.4,79.6 85.5,80.1 83.6,80.5 81.8,81.2 80.6,81 80.3,80.8 81.5,80.4 82.6,79.7 83.8,79.1 
			84.8,78.2 86,77.6 87.1,76.8 88.2,76 89.2,75.2 90.1,74 90.9,72.4 90.2,70.6 88.2,69.7 86.5,69 84,68.7 81.1,68.9 78.8,69.2 
			76.8,69.6 74.7,69.7 72.7,70.1 71,70.8 69,70.9 67.4,71.7 65.6,72.1 63.8,72.7 61.8,72.9 60.1,73.5 58.2,73.8 56.6,74.4 55,74.9 
			53.4,75.4 51.6,75.4 50.1,76.1 48.4,76.3 46.9,76.9 45.2,77.3 43.6,77.4 43,77.9 43.6,77.7 44.4,77 45.5,76.2 46.4,75.1 
			46.8,73.7 47.6,72.4 48.1,71 49.2,69.7 49.4,68.1 49.8,66.6 50,65.1 49.9,65.3 48.6,66.9 47,68.4 45.6,70 44.3,71.6 43,73.3 
			41.4,74.9 40.2,76.6 39,78 37.9,79.2 36.8,80.8 36.7,82.2 37.3,82.9 38.1,83.6 39.5,83.8 41.1,83.2 42.9,83 44.6,82.2 46.7,81.3 
			48.7,80.8 50.5,80.4 52.1,79.8 53.7,79.1 55.5,78.6 57.1,77.9 58.8,77.5 60.6,77.1 62.7,76.3 65.3,75.3 68.3,75 71,74.2 
			73.5,73.6 75.9,73 78,72.7 79.9,72.3 81.7,72.3 83.4,72.3 84.9,72.9 85.4,73.4 85.1,74.3 83.7,74.9 82.5,75.6 81.1,76.2 
			79.8,76.9 77.9,77.7 75.8,79 73.1,80 71,81.4 69.3,82.5 68.8,83.7 68.5,84.9 68.6,86.1 		"/>
		<path class="st1" d="M49.3,72.3l-0.4,0c-3.3,0-6-2.9-6-6.4v-4.2v0.2c0,0,1.3,2.6,1.7,4c0,2.7,2,4.8,4.5,4.8h0.5
			c2.5,0,4.5-2.2,4.5-4.8c0.4-1.4,1.7-4,1.7-4v-0.2v4.2c0,3.6-2.7,6.4-6,6.4C49.7,72.3,52.6,72.3,49.3,72.3L49.3,72.3z"/>
		<path class="st2" d="M89.8,41.3l-5.6-8.2c0,0-21,9.1-28.4,28.4c0,0,11.1-18.5,33.8-19.9L89.8,41.3L89.8,41.3z"/>
		<path class="st3" d="M6,52.1l5.4-8.4c0,0,18,1.4,29,16.2c0,0-11.8-12.7-34-7.8L6,52.1L6,52.1z"/>
		<path class="st2" d="M8.6,41.3l5.6-8.2c0,0,21,9.1,28.4,28.4c0,0-11-18.5-33.8-19.9L8.6,41.3L8.6,41.3z"/>
		<path class="st3" d="M92.5,52.1L87,43.7c0,0-18,1.4-29,16.2c0,0,11.8-12.7,34-7.8L92.5,52.1L92.5,52.1z"/>
		<path class="st4" d="M45.9,66c-2.1-18.1-24.4-34.1-33.9-37.6l9.4-14.3c5.5,1.5,23.6,11.4,27.7,39c4.9-33.3,27.5-39,27.5-39
			l9.4,14.3c0,0-24.1,8.7-33.7,37.5c-1.2,2-1.9,2-3.2,2C47.7,67.9,46.7,67.7,45.9,66L45.9,66z"/>
	</g>
</g>
</svg>
