<svg id="Layer_1" data-name="Layer 1" xmlns="http://www.w3.org/2000/svg" xmlns:xlink="http://www.w3.org/1999/xlink" viewBox="0 0 96.9 21.4"><defs><style>.cls-1{fill:#606163;}.cls-2,.cls-3,.cls-4,.cls-5,.cls-6,.cls-7,.cls-8{fill-rule:evenodd;}.cls-2{fill:url(#linear-gradient);}.cls-3{fill:#000094;}.cls-4{fill:#00a85a;}.cls-5{fill:#4a4cc9;}.cls-6{fill:#00d100;}.cls-7{fill:url(#radial-gradient);}.cls-8{fill:#e00000;}</style><linearGradient id="linear-gradient" x1="8.69" y1="-12" x2="38.55" y2="-12" gradientTransform="translate(0.1 30)" gradientUnits="userSpaceOnUse"><stop offset="0" stop-color="#af3592"/><stop offset="0.35" stop-color="#d8363b"/><stop offset="0.67" stop-color="#ffcc2a"/><stop offset="1" stop-color="#009556"/></linearGradient><radialGradient id="radial-gradient" cx="49.32" cy="-21.32" r="4.85" gradientTransform="translate(0 30)" gradientUnits="userSpaceOnUse"><stop offset="0" stop-color="#fff"/><stop offset="0.42" stop-color="#009556"/><stop offset="1" stop-color="#373535"/></radialGradient></defs><title>logo</title><g id="Layer_1-2" data-name="Layer_1"><g id="_105553710873344" data-name=" 105553710873344"><path class="cls-1" d="M38.6,19.7h0a.1.1,0,0,1,.1-.1h.2l.1.1v.2c0,.1,0,.1.1.2s.1.1.2.1.1.1.2.1.2,0,.2.1c.2,0,.3,0,.4-.1a.37.37,0,0,0,.1-.3c0-.1,0-.2-.1-.2s-.1-.1-.2-.1-.1-.1-.2-.1-.2-.1-.3-.1a.37.37,0,0,1-.3-.1.35.35,0,0,1-.2-.1l-.2-.2c0-.1-.1-.2-.1-.3a.37.37,0,0,1,.1-.3.22.22,0,0,1,.2-.2c.1-.1.2-.1.3-.2s.3-.1.4-.1H40c.1,0,.2.1.3.1V18l.1-.1.1-.1h.2c-.1,0-.1.1-.2.2a.75.75,0,0,0-.1.5h0c0-.1,0-.1-.1-.2s-.1-.1-.1-.2-.1-.1-.2-.1-.2-.1-.3-.1h-.2c-.1,0-.1,0-.1.1l-.1.1v.1a.37.37,0,0,0,.1.3c.1.1.2.1.4.2s.2.1.3.1.2.1.3.1.2.1.2.2a.5.5,0,0,1,0,.6c-.1.1-.1.2-.2.3s-.2.1-.3.2-.2.1-.4.1h-.6c-.1,0-.1,0-.2-.1s-.1,0-.1-.1l.1-.1.1-.1a.1.1,0,0,1,.1-.1v-.3l-.1-.1c-.3.3-.3.3-.4.3Z" transform="translate(0.1)"/><path class="cls-1" d="M42.1,20.3l-.1.1-.1.1c-.1,0-.1.1-.2.1h-.2a.37.37,0,0,1-.3-.1.22.22,0,0,1-.2-.2c-.1-.1-.1-.1-.1-.2v-.3a.37.37,0,0,1,.1-.3.35.35,0,0,1,.1-.2l.2-.2c.1-.1.1-.1.2-.1h.7c.1,0,.2.1.3.1l.2.2a.5.5,0,0,1,0,.6c0,.1-.1.1-.1.2s-.1.1-.1.2C42.2,20.2,42.2,20.2,42.1,20.3Zm-.3,0a.37.37,0,0,0,.3-.1c.1-.1.1-.2.1-.4v-.3a.35.35,0,0,0-.1-.2l-.2-.2h-.4a.1.1,0,0,0-.1.1c0,.1-.1.1-.1.2v.3a.37.37,0,0,0,.1.3c0,.1.1.1.1.2s.1.1.2.1Z" transform="translate(0.1)"/><path class="cls-1" d="M44.3,19.1h0l-.1.1-.1.1-.1.1h0v-.1l-.1-.1a.1.1,0,0,1-.1-.1h-.2c-.1,0-.2,0-.2.1s-.1.2-.1.4a.37.37,0,0,0,.1.3.35.35,0,0,0,.1.2c.1.1.1.1.2.1s.2.1.3.1a.37.37,0,0,0,.3-.1c.1,0,.1-.1.2-.1h0l-.1.1c-.1,0-.1.1-.2.1s-.2.1-.3.1-.2.1-.3.1a1.42,1.42,0,0,1-.6-.2.76.76,0,0,1-.2-.5c0-.2,0-.3.1-.4l.3-.3a.37.37,0,0,1,.3-.1c.1,0,.2-.1.3-.1h.3l.2.2C44.2,19,44.3,19,44.3,19.1Z" transform="translate(0.1)"/><path class="cls-1" d="M44.9,20v.2a.1.1,0,0,0,.1.1h.4a.1.1,0,0,0-.1.1c-.1,0-.1.1-.2.1a.35.35,0,0,0-.2.1h-.2c-.1,0-.1,0-.1-.1l-.1-.1h0v-1h-.1a.1.1,0,0,0,.1-.1c.1,0,.1-.1.2-.1s.1-.1.2-.1h.2v.8l-.2.1Zm-.1-1.7h0l.1.1.1.1v.2a.1.1,0,0,0-.1.1l-.1.1h-.2l-.1-.1a.1.1,0,0,1-.1-.1v-.1l.1-.1a.1.1,0,0,0,.1-.1.35.35,0,0,1,.2-.1Z" transform="translate(0.1)"/><path class="cls-1" d="M46.9,20.1l-.1.1c-.1.1-.1.1-.2.1a.37.37,0,0,1-.3.1c-.1,0-.2.1-.3.1h-.3a.35.35,0,0,1-.2-.1l-.2-.2v-.6c0-.1,0-.1.1-.2a.1.1,0,0,1,.1-.1l.1-.1.1-.1c.1,0,.1-.1.2-.1s.1-.1.2-.1h.2a.37.37,0,0,1,.3.1c.1,0,.1.1.1.2v.1h.1a.1.1,0,0,0,.1-.1h.2v.1h0a.35.35,0,0,1-.2.1.35.35,0,0,0-.2.1c-.1,0-.2.1-.3.1s-.2.1-.3.1-.1.1-.2.1-.1,0-.1.1v.2c0,.1.1.1.1.2s.1.1.2.1h.5c.1,0,.1,0,.2-.1s0-.2.1-.2Zm-1.2-.5a.1.1,0,0,0,.1-.1c.1,0,.1,0,.1-.1s.1,0,.1-.1a.1.1,0,0,0,.1-.1l.1-.1V19a.1.1,0,0,0-.1-.1l-.1-.1h-.2l-.1.1a.35.35,0,0,0-.1.2A1.34,1.34,0,0,1,45.7,19.6Z" transform="translate(0.1)"/><path class="cls-1" d="M48.3,20.3l-.1.1c-.1,0-.1.1-.2.1s-.1.1-.2.1h-.2c-.1,0-.2,0-.2-.1s-.1-.1-.2-.1-.1-.1-.1-.2-.1-.2-.1-.3a.6.6,0,0,1,.1-.4c.1-.1.1-.2.2-.3s.2-.1.4-.2a4.33,4.33,0,0,1,.5-.1h.2v-.5c0-.1,0-.1-.1-.2l-.1-.1h.7v1.5c0,.2,0,.3.1.4s.1.1.2.1h.4a.1.1,0,0,0-.1.1c-.1,0-.1.1-.2.1s-.2.1-.3.1a.35.35,0,0,0-.2.1h-.1v-.3l-.4.1Zm-.1-.2h0a.31.31,0,0,0,.1-.2v-.6a.1.1,0,0,0-.1-.1l-.1-.1c-.1,0-.1,0-.2-.1h-.4a.1.1,0,0,0-.1.1.35.35,0,0,0-.1.2v.6a.35.35,0,0,0,.1.2c.1.1.1.1.2.1a.35.35,0,0,1,.2.1H48s.2-.1.2-.2Z" transform="translate(0.1)"/><path class="cls-1" d="M50.2,20v-.4h-.1c-.1,0-.1,0-.1.1s-.1,0-.1.1-.1,0-.1.1a.1.1,0,0,0-.1.1v.1c0,.1,0,.1.1.2a.35.35,0,0,0,.2.1h.1a2653771530219,2653771530219,0,0,0,.2-.2c-.2-.1-.2-.1-.1-.2Zm-.1-.5c0-.1,0-.1-.1-.2s0-.1-.1-.1l-.1-.1h-.2a7961314590657.26,7961314590657.26,0,0,0-.2.2v.1h-.1v-.1h0c.1,0,.1-.1.2-.1a.35.35,0,0,0,.2-.1A.37.37,0,0,0,50,19h.4a.1.1,0,0,1,.1.1c0,.1,0,.1.1.2v.5a.37.37,0,0,0,.1.3c0,.1.1.1.1.2a.1.1,0,0,0,.1.1h.2a.1.1,0,0,0-.1.1.1.1,0,0,0-.1.1c-.1,0-.1.1-.2.1s-.1,0-.2.1h-.2l-.1-.1v-.3a.35.35,0,0,1-.2.1c-.1.1-.1.1-.2.1a.35.35,0,0,0-.2.1h-.4a.1.1,0,0,1-.1-.1l-.1-.1v-.1c0-.1,0-.1.1-.2s.1-.1.2-.1a.35.35,0,0,1,.2-.1c.1,0,.2-.1.3-.1a.35.35,0,0,0,.2-.1.44.44,0,0,1,.1-.3Z" transform="translate(0.1)"/><path class="cls-1" d="M52.3,20.3l-.1.1c-.1,0-.1.1-.2.1s-.1.1-.2.1h-.2c-.1,0-.2,0-.2-.1s-.1-.1-.2-.1-.1-.1-.1-.2-.1-.2-.1-.3a.6.6,0,0,1,.1-.4c.1-.1.1-.2.2-.3s.2-.1.4-.2a4.33,4.33,0,0,1,.5-.1h.2v-.5c0-.1,0-.1-.1-.2l-.1-.1h.6v1.5c0,.2,0,.3.1.4s.1.1.2.1h.4a.1.1,0,0,0-.1.1c-.1,0-.1.1-.2.1s-.2.1-.3.1a.35.35,0,0,0-.2.1h-.1v-.3l-.3.1Zm0-.2h0a.31.31,0,0,0,.1-.2v-.6a.1.1,0,0,0-.1-.1.1.1,0,0,1-.1-.1c-.1,0-.1,0-.2-.1h-.4a.1.1,0,0,0-.1.1.35.35,0,0,0-.1.2v.6a.35.35,0,0,0,.1.2c.1.1.1.1.2.1a.35.35,0,0,1,.2.1h.2l.2-.2C52.2,20.2,52.3,20.2,52.3,20.1Z" transform="translate(0.1)"/><path class="cls-1" d="M54.7,20.1l-.1.1c-.1.1-.1.1-.2.1a.37.37,0,0,1-.3.1c-.1,0-.2.1-.3.1h-.3c-.1,0-.2-.1-.3-.1l-.2-.2a.37.37,0,0,1-.1-.3v-.3c0-.1,0-.1.1-.2s0-.1.1-.1l.1-.1.1-.1c.1,0,.1-.1.2-.1s.1-.1.2-.1h.2a.37.37,0,0,1,.3.1c.1,0,.1.1.1.2s0,.1-.1.1h.1a.1.1,0,0,0,.1-.1h.2v.1h0a.35.35,0,0,1-.2.1.35.35,0,0,0-.2.1c-.1,0-.2.1-.3.1s-.2.1-.3.1-.1.1-.2.1-.1,0-.1.1,0,.1.1.2.1.1.1.2.1.1.2.1h.5c.1,0,.1,0,.2-.1s.2-.2.3-.2Zm-1.3-.5a.1.1,0,0,0,.1-.1c.1,0,.1,0,.2-.1a7961314590657,7961314590657,0,0,1,.2-.2.1.1,0,0,0,.1-.1V19a.1.1,0,0,0-.1-.1l-.1-.1h-.2l-.1.1a.35.35,0,0,0-.1.2A.78.78,0,0,1,53.4,19.6Z" transform="translate(0.1)"/><path class="cls-1" d="M56.4,18.3a.1.1,0,0,0-.1.1c-.1.1-.1.1-.1.2a.37.37,0,0,0-.1.3c0,.1-.1.3-.1.4a.9.9,0,0,0,.1.5c0,.1.1.3.2.3s.1.2.3.2a.5.5,0,0,0,.6,0,.31.31,0,0,1,.2-.1c.1-.1.1-.2.2-.4V18.4h.6v.1h-.3v2.1a.1.1,0,0,0,.1.1h.2a.1.1,0,0,1-.1.1h-.2a.1.1,0,0,1-.1-.1h-.4v-.3c-.1.1-.2.2-.3.2a.75.75,0,0,1-.5.1c-.2,0-.3,0-.4-.1s-.2-.1-.3-.2-.2-.2-.2-.3a.6.6,0,0,1-.1-.4.76.76,0,0,1,.1-.4c.1-.1.1-.2.2-.3s.1-.2.2-.3l.2-.2h-.5a.1.1,0,0,0-.1.1h0v-.4h.9c-.2,0-.2,0-.2.1Z" transform="translate(0.1)"/><path class="cls-1" d="M58.9,19.7h0v.7H59c-.1,0-.1,0-.1.1s-.1,0-.2.1h-.2V19.4a.1.1,0,0,0-.1-.1l-.1-.1h-.1a.1.1,0,0,0,.1-.1c0-.1.1-.1.2-.1s.1,0,.1-.1h.1c.1,0,.1,0,.1.1v.4c.1,0,.1-.1.2-.1s.1-.1.2-.1.1-.1.2-.1h.2c.1,0,.3,0,.3.1a.37.37,0,0,1,.1.3v.8c0,.2.1.3.2.3h.3a.1.1,0,0,0-.1.1c-.1,0-.1.1-.2.1s-.1.1-.2.1h-.3v-.8c0-.2,0-.3-.1-.4a.37.37,0,0,0-.3-.1h-.2a.1.1,0,0,0-.1.1l-.1.1v-.1Z" transform="translate(0.1)"/><path class="cls-1" d="M61.1,20v.2a.1.1,0,0,0,.1.1h.4a.1.1,0,0,0-.1.1c-.1,0-.1.1-.2.1s-.1.1-.2.1h-.2c-.1,0-.1,0-.1-.1l-.1-.1h0v-1h-.1a.1.1,0,0,0,.1-.1c.1,0,.1-.1.2-.1s.1-.1.2-.1h.2v.8C61.1,19.8,61.1,20,61.1,20ZM61,18.3h0l.1.1.1.1v.1l-.1.1a.1.1,0,0,0-.1.1l-.1.1h-.2l-.1-.1a.1.1,0,0,1-.1-.1v-.1l.1-.1a.1.1,0,0,0,.1-.1c.1,0,.2-.1.3-.1Z" transform="translate(0.1)"/><path class="cls-1" d="M62.9,20.4a.37.37,0,0,1-.3.1c-.1,0-.2.1-.3.1h-.2v.6l.1.1H62c-.1,0-.1,0-.2.1h-.2V19.5c0-.1,0-.1-.1-.2l-.1-.1h.1a.1.1,0,0,0,.1-.1c.1,0,.1,0,.1-.1H62v.3l.1-.1a.35.35,0,0,1,.2-.1c.1,0,.1-.1.2-.1h.2a.37.37,0,0,1,.3.1c.1,0,.1.1.2.1s.1.1.1.2v.2a.37.37,0,0,1-.1.3.35.35,0,0,1-.1.2l-.2.2c-.1,0-.1.1-.2.1C63,20.3,62.9,20.4,62.9,20.4Zm-.8-.3h0c.1.1.1.1.2.1a.31.31,0,0,1,.2.1c.1.1.1,0,.2,0h.2a.1.1,0,0,0,.1-.1c.1-.1.1-.1.1-.2v-.5c0-.1-.1-.1-.1-.2s-.1-.1-.2-.1h-.3c-.1,0-.1,0-.1.1a.1.1,0,0,0-.1.1l-.1.1V20A.1.1,0,0,0,62.1,20.1Z" transform="translate(0.1)"/><path class="cls-1" d="M65.3,20.1l-.1.1c-.1.1-.1.1-.2.1a.37.37,0,0,1-.3.1c-.1,0-.2.1-.3.1h-.3c-.1,0-.2-.1-.3-.1l-.2-.2a.37.37,0,0,1-.1-.3v-.3c0-.1,0-.1.1-.2a.1.1,0,0,1,.1-.1l.1-.1.1-.1c.1,0,.1-.1.2-.1s.1-.1.2-.1h.2a.37.37,0,0,1,.3.1c.1,0,.1.1.1.2v.1H65a.1.1,0,0,0,.1-.1h.2v.1h0a.35.35,0,0,1-.2.1c-.1,0-.1.1-.2.1s-.2.1-.3.1-.2.1-.3.1-.1.1-.2.1-.1,0-.1.1,0,.1.1.2.1.1.1.2.1.1.2.1h.5c.1,0,.1,0,.2-.1s0-.2.2-.2ZM64,19.6a.1.1,0,0,0,.1-.1c.1,0,.1,0,.2-.1a1592262918131.54,1592262918131.54,0,0,0,.2-.2l.1-.1v-.2a.1.1,0,0,1-.1-.1h-.2l-.1.1a.35.35,0,0,0-.1.2A1.34,1.34,0,0,0,64,19.6Z" transform="translate(0.1)"/><path class="cls-1" d="M65.3,20.4h0l-.1.1h0v-.1c0,.1,0,0,.1,0v-.2l.1-.1a.1.1,0,0,1,.1-.1h0l.1.1.1.1c.1,0,.1.1.2.1h.2c.1,0,.1,0,.2-.1s.1-.1.1-.2,0-.1-.1-.2-.1-.1-.2-.1h-.3a.37.37,0,0,1-.3-.1c-.1,0-.1-.1-.2-.1s-.1-.1-.1-.2,0-.1.1-.2l.2-.2a.37.37,0,0,1,.3-.1c.1,0,.2-.1.3-.1h.4l-.1.1-.1.1-.1.1h-.1c0-.1,0-.1-.1-.2s-.2-.1-.3-.1-.1,0-.2.1l-.1.1c0,.1,0,.1.1.2s.1.1.2.1H66a.37.37,0,0,1,.3.1c.1,0,.1.1.2.1s.1.1.1.2v.1a.1.1,0,0,1-.1.1l-.1.1-.1.1a.1.1,0,0,0-.1.1c0,.1-.1,0-.1.1s-.1,0-.2.1h-.5c0,.2,0,.2-.1.1Z" transform="translate(0.1)"/><path class="cls-1" d="M66.9,20.4h0l-.1.1h0v-.1c0,.1,0,0,.1,0v-.2l.1-.1a.1.1,0,0,1,.1-.1h.1l.1.1.1.1a.35.35,0,0,0,.2.1h.2c.1,0,.1,0,.2-.1s.1-.1.1-.2,0-.1-.1-.2-.1-.1-.2-.1h-.3a.37.37,0,0,1-.3-.1c-.1,0-.1-.1-.2-.1s-.1-.1-.1-.2,0-.1.1-.2l.2-.2a.37.37,0,0,1,.3-.1c.1,0,.2-.1.3-.1h.4l-.1.1-.1.1-.1.1h-.1c0-.1,0-.1-.1-.2s-.2-.1-.3-.1-.1,0-.2.1a.1.1,0,0,0-.1.1c0,.1,0,.1.1.2s.1.1.2.1h.3a.37.37,0,0,1,.3.1c.1,0,.1.1.2.1s.1.1.1.2v.1a.1.1,0,0,1-.1.1l-.1.1L68,20a1592262918131.49,1592262918131.49,0,0,1-.2.2c-.1,0-.1,0-.2.1h-.5c0,.2-.1.2-.2.1Z" transform="translate(0.1)"/><path class="cls-1" d="M69.9,20.3l-.1.1c-.1,0-.1.1-.2.1s-.1.1-.2.1h-.2a.37.37,0,0,1-.3-.1.22.22,0,0,1-.2-.2c-.1-.1-.1-.1-.1-.2s-.1-.2-.1-.3a.37.37,0,0,1,.1-.3.35.35,0,0,1,.1-.2l.2-.2c.1,0,.1-.1.2-.1h.8c.1,0,.2.1.3.1l.2.2a.5.5,0,0,1,0,.6c0,.1-.1.1-.1.2s-.1.1-.1.2c-.2-.1-.2-.1-.3,0Zm-.3,0a.37.37,0,0,0,.3-.1c.1-.1.1-.2.1-.4v-.3a.35.35,0,0,0-.1-.2l-.2-.2h-.4a.1.1,0,0,0-.1.1c0,.1-.1.1-.1.2v.3a.37.37,0,0,0,.1.3c0,.1.1.1.1.2s.1.1.2.1Z" transform="translate(0.1)"/><path class="cls-1" d="M71.6,20v-.4h-.1c-.1,0-.1,0-.1.1a.1.1,0,0,0-.1.1c0,.1-.1,0-.1.1a.1.1,0,0,0-.1.1l-.1.1c0,.1,0,.1.1.2a.35.35,0,0,0,.2.1h.1a7961314590656.77,7961314590656.77,0,0,0,.2-.2V20Zm-.1-.5v-.2a.1.1,0,0,0-.1-.1l-.1-.1h-.2c-.1,0-.1,0-.1.1a.1.1,0,0,0-.1.1v.1h-.1l-.1-.1h0c.1,0,.1-.1.2-.1a.35.35,0,0,0,.2-.1.37.37,0,0,0,.3-.1h.4l.1.1c0,.1,0,.1.1.2v.5a.37.37,0,0,0,.1.3c0,.1.1.1.1.2a.1.1,0,0,0,.1.1h.2a.1.1,0,0,0-.1.1l-.1.1c-.1,0-.1.1-.2.1s-.1,0-.1.1h-.2a.1.1,0,0,0-.1-.1v-.3c-.1,0-.1.1-.2.1s-.1.1-.2.1a.35.35,0,0,0-.2.1h-.4c-.1,0-.1,0-.1-.1l-.1-.1v-.1c0-.1,0-.1.1-.2s.1-.1.2-.1A.35.35,0,0,1,71,20c.1,0,.2-.1.3-.1a.35.35,0,0,0,.2-.1v-.3Z" transform="translate(0.1)"/><path class="cls-1" d="M73.6,20.2h0c-.1.1-.2.2-.3.2a.37.37,0,0,1-.3.1h-.3a.1.1,0,0,1-.1-.1h-.1v-2h0c0-.1,0-.1.1-.1h.7v2a.1.1,0,0,0,.1.1h.4s-.3-.2-.2-.2Z" transform="translate(0.1)"/><path class="cls-1" d="M73.2,20.8h0a.31.31,0,0,1,.2-.1l.1-.1.1-.1h0v-.1a.1.1,0,0,1,.1-.1.1.1,0,0,0,.1-.1H74a.1.1,0,0,1,.1.1l.1.1h0v.1a.1.1,0,0,0-.1.1.1.1,0,0,1-.1.1h-.4a.1.1,0,0,0-.1.1Z" transform="translate(0.1)"/><path class="cls-1" d="M73.7,18.3h-.1v-.1h0a.1.1,0,0,1,.1.1c.1-.1.1-.1.2-.1h1v.1h-.6v2h1a.1.1,0,0,0,.1-.1h0l-.1.1a.1.1,0,0,1-.1.1v.2l.1.1v.1h0v-.1H73.4v-.1h.5V18.5C74,18.3,73.7,18.3,73.7,18.3Z" transform="translate(0.1)"/><path class="cls-1" d="M77,20.2a.1.1,0,0,0-.1.1c-.1,0-.1.1-.2.1s-.1.1-.2.1h-.4c-.1,0-.1-.1-.2-.1s-.1-.1-.1-.2-.1-.2-.1-.3a.6.6,0,0,1,.1-.4c.1-.1.1-.2.2-.3s.2-.1.4-.2a4.33,4.33,0,0,1,.5-.1h.2v-.4c0-.1,0-.1-.1-.2l-.1-.1h.7v1.5c0,.2,0,.3.1.3s.1.1.2.1h.4a.1.1,0,0,0-.1.1c-.1,0-.1.1-.2.1a.37.37,0,0,1-.3.1h-.3v-.1h0v-.1c-.4.1-.4.1-.4,0Zm0-.1h0c.1-.1.1-.1.1-.2v-.7a.1.1,0,0,0-.1-.1l-.1-.1c-.1,0-.1,0-.2-.1h-.4c-.1,0-.1,0-.1.1a.35.35,0,0,0-.1.2v.6c0,.1.1.1.1.2s.1.1.2.1h.4a.14.14,0,0,0,.2,0Z" transform="translate(0.1)"/><path class="cls-1" d="M78.9,20v-.4a.1.1,0,0,0-.1.1c-.1,0-.1,0-.1.1s-.1,0-.1.1l-.1.1a.1.1,0,0,0-.1.1v.1a.31.31,0,0,0,.1.2c0,.1.1.1.2.1h.1a2653771530219.37,2653771530219.37,0,0,0,.2-.2c-.2-.2-.2-.2-.1-.3Zm-.1-.5c0-.1,0-.1-.1-.2s0-.1-.1-.1l-.1-.1h-.2a.1.1,0,0,0-.1.1l-.1.1v.1H78v-.1h0c.1,0,.1-.1.2-.1a.35.35,0,0,0,.2-.1,1,1,0,0,1,.3-.1h.4a.1.1,0,0,1,.1.1.31.31,0,0,0,.1.2v.5a.37.37,0,0,0,.1.3c0,.1.1.1.1.2l.1.1h.2a.1.1,0,0,0-.1.1c0,.1-.1,0-.1.1s-.1.1-.2.1-.1,0-.1.1h-.2l-.1-.1v-.3a.35.35,0,0,1-.2.1c-.1,0-.1.1-.2.1a.35.35,0,0,0-.2.1H78c-.1,0-.1,0-.1-.1l-.1-.1v-.1c0-.1,0-.1.1-.2a19668661934111,19668661934111,0,0,1,.4-.2c0-.3,0-.3.1-.3a.35.35,0,0,0,.2-.1A.31.31,0,0,1,78.8,19.5Z" transform="translate(0.1)"/><polygon class="cls-2" points="18.5 21.2 18.5 21.2 19.2 21.2 20 21.1 20.7 21.1 21.2 20.9 21.6 20.8 22 20.6 22.5 20.6 22.9 20.4 23.4 20.3 23.8 20.2 24.2 20 24.7 20 25.2 19.8 25.7 19.7 26.2 19.6 26.7 19.4 27.1 19.3 27.7 19.2 28.1 19 28.6 19 29.1 18.8 29.6 18.7 30.1 18.6 30.6 18.5 31.2 18.5 31.7 18.4 32.2 18.3 32.7 18.2 33.2 18.3 33.8 18.3 34.3 18.3 34.8 18.4 35.3 18.3 35.9 18.3 36.4 18.4 36.8 18.5 37.1 18.5 37.3 18.7 37.3 18.9 37.6 19 38 18.9 38.3 18.5 38.5 18.3 38.6 18.1 38.6 18 38.1 17.7 37.5 17.4 36.8 17.4 36.1 17.4 35.3 17.3 34.6 17.2 33.9 17.3 33.2 17.4 32.5 17.4 31.9 17.4 31.5 17.5 31 17.5 30.5 17.6 30.1 17.7 29.6 17.7 29.1 17.8 28.7 17.9 28.1 17.9 27.6 18.1 27 18.1 26.5 18.3 26 18.4 25.4 18.6 24.9 18.8 24.3 18.9 23.7 19 23.1 19.2 22.6 19.3 22 19.5 21.7 19.4 21.6 19.4 22 19.3 22.3 19.1 22.6 18.9 22.9 18.6 23.3 18.4 23.6 18.2 23.9 18 24.2 17.8 24.5 17.4 24.7 16.9 24.5 16.4 23.9 16.1 23.4 15.9 22.7 15.8 21.9 15.9 21.2 16 20.6 16.1 20 16.2 19.4 16.3 18.9 16.5 18.3 16.5 17.8 16.7 17.3 16.9 16.8 17 16.2 17.1 15.7 17.3 15.2 17.4 14.7 17.5 14.3 17.7 13.8 17.8 13.3 17.8 12.8 18 12.3 18.1 11.9 18.2 11.4 18.4 10.9 18.4 10.8 18.5 10.9 18.5 11.2 18.3 11.5 18 11.7 17.7 11.9 17.3 12.1 16.9 12.2 16.5 12.6 16.1 12.6 15.7 12.7 15.3 12.8 14.8 12.8 14.9 12.4 15.3 11.9 15.8 11.5 16.2 11.1 16.7 10.8 17.2 10.3 17.7 9.9 18.2 9.6 18.6 9.3 18.9 9 19.4 8.9 19.8 9.1 20 9.3 20.2 9.7 20.3 10.2 20.1 10.7 20 11.2 19.8 11.8 19.5 12.4 19.4 12.9 19.3 13.4 19.1 13.9 18.9 14.4 18.8 14.9 18.6 15.4 18.4 15.9 18.3 16.5 18.1 17.3 17.8 18.1 17.7 18.9 17.5 19.6 17.3 20.3 17.1 21 17 21.5 16.9 22 16.9 22.5 16.9 22.9 17.1 23.1 17.2 23 17.5 22.6 17.7 22.3 17.9 21.9 18 21.5 18.2 20.9 18.5 20.3 18.9 19.5 19.1 18.9 19.6 18.4 19.9 18.3 20.2 18.2 20.6 18.2 20.9 18.5 21.2"/><path class="cls-3" d="M12.5,16.9h-.1A1.82,1.82,0,0,1,10.6,15V13.9a5.19,5.19,0,0,1,.5,1.2,1.35,1.35,0,0,0,1.3,1.4h.1a1.35,1.35,0,0,0,1.3-1.4,8.66,8.66,0,0,1,.5-1.2V15a1.88,1.88,0,0,1-1.8,1.9Z" transform="translate(0.1)"/><path class="cls-4" d="M24.3,7.9,22.7,5.5s-6.1,2.7-8.3,8.3a13,13,0,0,1,9.9-5.9Z" transform="translate(0.1)"/><path class="cls-5" d="M-.1,11,1.5,8.6a12.41,12.41,0,0,1,8.4,4.7S6.5,9.6,0,11Z" transform="translate(0.1)"/><path class="cls-4" d="M.6,7.9,2.3,5.5s6.1,2.7,8.3,8.3A13.52,13.52,0,0,0,.6,7.9Z" transform="translate(0.1)"/><path class="cls-5" d="M25.1,11,23.5,8.6a12.6,12.6,0,0,0-8.4,4.7S18.5,9.6,25,11Z" transform="translate(0.1)"/><path class="cls-6" d="M33.1,12.2v-7A6.62,6.62,0,0,0,33,3.7l-.3-1.2,1.9-.2,1.9-.2a4.67,4.67,0,0,0-.4,1.4A16.27,16.27,0,0,0,36,5.9v6.3a6.62,6.62,0,0,0,.1,1.5l.3,1.2H32.6a5.27,5.27,0,0,0,.3-1.2A3.42,3.42,0,0,0,33.1,12.2Z" transform="translate(0.1)"/><path class="cls-7" d="M43.4,10.6a4.52,4.52,0,1,1,9,0,4.52,4.52,0,1,1-9,0Z" transform="translate(0.1)"/><path class="cls-6" d="M28.3,12.1a1.1,1.1,0,1,1,1.1,1.1A1.11,1.11,0,0,1,28.3,12.1ZM30,9.6,29.7,9a2,2,0,0,0-1.8-.9,3.59,3.59,0,0,0-1.1.2,2.38,2.38,0,0,0-1.1.6l1-2.6c.5-.1.8-.1,1.1-.2h.8A4.7,4.7,0,0,1,32,7.3a4.7,4.7,0,0,1,1.2,3.4,5.33,5.33,0,0,1-1.1,3.4,3.41,3.41,0,0,1-2.8,1.3h0a3.31,3.31,0,0,1-2.6-1.1,2.87,2.87,0,0,1-.9-2.3,3,3,0,0,1,2.7-2.9,2,2,0,0,1,1.5.5Z" transform="translate(0.1)"/><path class="cls-6" d="M41,9a1.1,1.1,0,0,1-1,1.1,1.1,1.1,0,0,1,0-2.2A1.1,1.1,0,0,1,41,9Zm-1.8,2.5a3.33,3.33,0,0,0,.3.6,2,2,0,0,0,1.8.9,3.59,3.59,0,0,0,1.1-.2,2.38,2.38,0,0,0,1.1-.6l-1,2.6a4.91,4.91,0,0,1-1.1.1h-.8a4.38,4.38,0,0,1-3.4-1.3A4.7,4.7,0,0,1,36,10.2a5.33,5.33,0,0,1,1.1-3.4,3.41,3.41,0,0,1,2.8-1.3h0a3.31,3.31,0,0,1,2.6,1.1,2.7,2.7,0,0,1,.8,2.3,3,3,0,0,1-2.7,2.9c.2.3-.8.2-1.4-.3Z" transform="translate(0.1)"/><path class="cls-8" d="M52.6,13.1l.7-.4a1.7,1.7,0,0,0,.6,1,2.1,2.1,0,0,0,1.1.4,1.66,1.66,0,0,0,1.2-.5,2,2,0,0,0,.4-1.4,2,2,0,0,0-.3-1.1,3.85,3.85,0,0,0-1.3-1,6.68,6.68,0,0,1-1.7-1.3,2,2,0,0,1-.4-1.3A2,2,0,0,1,53.5,6a2.11,2.11,0,0,1,1.6-.6,2,2,0,0,1,1.1.3,3,3,0,0,1,.8.8l-.6.4c-.1-.3-.3-.4-.5-.6a1.88,1.88,0,0,0-.8-.2,1.28,1.28,0,0,0-1,.4,1.78,1.78,0,0,0-.4,1c0,.6.5,1.2,1.5,1.7.2.1.3.2.4.2A3.46,3.46,0,0,1,57,10.6a3.26,3.26,0,0,1,.4,1.4,2.49,2.49,0,0,1-.7,1.9,2.14,2.14,0,0,1-1.8.7,2.12,2.12,0,0,1-1.4-.4C53.2,14.2,52.9,13.7,52.6,13.1Z" transform="translate(0.1)"/><polygon class="cls-8" points="58.2 14.6 58.2 5.7 62.3 5.7 62.3 6.5 58.9 6.5 58.9 9.3 62.3 9.3 62.3 10 58.9 10 58.9 13.9 62.3 13.9 62.3 14.6 58.2 14.6"/><path class="cls-8" d="M63.8,6.4V9.7h.8a2.08,2.08,0,0,0,1.5-.4c.3-.2.4-.6.4-1.2a1.7,1.7,0,0,0-.4-1.3,2.08,2.08,0,0,0-1.5-.4Zm4.3,8.2h-.9l-2.9-4.2h-.4v4.2h-.8V5.7h1.5a2.81,2.81,0,0,1,2,.6,2.48,2.48,0,0,1,.7,1.8,2.06,2.06,0,0,1-2.2,2.2C65.1,10.4,68.1,14.6,68.1,14.6Z" transform="translate(0.1)"/><polygon class="cls-8" points="70.6 15 67.3 5.7 68.2 5.7 70.6 13 73.1 5.7 74 5.7 70.6 15"/><polygon class="cls-8" points="74.9 14.6 74.9 5.7 75.7 5.7 75.7 14.6 74.9 14.6"/><path class="cls-8" d="M83.3,7.4A2.58,2.58,0,0,0,82,6.6a3.19,3.19,0,0,0-1.4-.3A3.31,3.31,0,0,0,78,7.4a4,4,0,0,0-1,2.9,4.15,4.15,0,0,0,.3,1.6,3.53,3.53,0,0,0,.8,1.3,2.55,2.55,0,0,0,1.2.8,3.19,3.19,0,0,0,1.4.3,3.53,3.53,0,0,0,1.4-.3,4.58,4.58,0,0,0,1.3-.8v.9a3.1,3.1,0,0,1-1.3.6,6.75,6.75,0,0,1-1.4.2,4.67,4.67,0,0,1-1.7-.3,3.59,3.59,0,0,1-1.4-1,3.77,3.77,0,0,1-.9-1.5,5.82,5.82,0,0,1-.3-1.9,5.82,5.82,0,0,1,.3-1.9,3.77,3.77,0,0,1,.9-1.5,7.1,7.1,0,0,1,1.4-1,5.26,5.26,0,0,1,1.7-.4,7.72,7.72,0,0,1,1.5.2,3.46,3.46,0,0,1,1.2.7l-.1,1.1Zm-4,9.6v-.4c.4.1.7.1.8.2h.5a4.33,4.33,0,0,0,.5-.1.5.5,0,0,0,0-.8.73.73,0,0,0-.6-.2h-.2v-1h.4v.6h.1a2,2,0,0,1,.9.2.91.91,0,0,1,.3.7,1.14,1.14,0,0,1-.3.8,1.22,1.22,0,0,1-.9.3,1.27,1.27,0,0,1-.6-.1A5.07,5.07,0,0,0,79.3,17Z" transform="translate(0.1)"/><path class="cls-8" d="M87.5,14.2a3.19,3.19,0,0,0,1.4-.3,4.7,4.7,0,0,0,1.2-.9,3.53,3.53,0,0,0,.8-1.3,3.9,3.9,0,0,0,0-3,3.53,3.53,0,0,0-.8-1.3,2.73,2.73,0,0,0-1.2-.9,3.42,3.42,0,0,0-2.8,0,4.7,4.7,0,0,0-1.2.9,3.53,3.53,0,0,0-.8,1.3,3.9,3.9,0,0,0,0,3,3.53,3.53,0,0,0,.8,1.3,3.45,3.45,0,0,0,1.2.9A3.19,3.19,0,0,0,87.5,14.2Zm4.4-4a5.66,5.66,0,0,1-.3,1.8,4,4,0,0,1-1,1.5,4,4,0,0,1-1.5,1,4.71,4.71,0,0,1-1.7.4,3.29,3.29,0,0,1-1.7-.4,4.51,4.51,0,0,1-1.4-1,4,4,0,0,1-1-1.5,5.55,5.55,0,0,1,0-3.6,3.07,3.07,0,0,1,1-1.5,4.51,4.51,0,0,1,1.4-1,4.67,4.67,0,0,1,1.7-.3,3.29,3.29,0,0,1,1.7.4,4.51,4.51,0,0,1,1.4,1,6.53,6.53,0,0,1,1,1.5A4.71,4.71,0,0,1,91.9,10.2Z" transform="translate(0.1)"/><path class="cls-8" d="M92,13.1l.7-.4a1.7,1.7,0,0,0,.6,1,2.1,2.1,0,0,0,1.1.4,1.66,1.66,0,0,0,1.2-.5,2,2,0,0,0,.4-1.4,2,2,0,0,0-.3-1.1,3.85,3.85,0,0,0-1.3-1,6.68,6.68,0,0,1-1.7-1.3,1.6,1.6,0,0,1-.4-1.1,2,2,0,0,1,.6-1.5,2.11,2.11,0,0,1,1.6-.6,2,2,0,0,1,1.1.3,3,3,0,0,1,.8.8l-.6.4c-.1-.3-.3-.4-.5-.6a1.88,1.88,0,0,0-.8-.2,1.37,1.37,0,0,0-1.4,1.4c0,.6.5,1.2,1.5,1.7.2.1.3.2.4.2a3.46,3.46,0,0,1,1.4,1.2,3.26,3.26,0,0,1,.4,1.4,2.49,2.49,0,0,1-.7,1.9,2.14,2.14,0,0,1-1.8.7,2.3,2.3,0,0,1-1.4-.4A2.18,2.18,0,0,1,92,13.1Z" transform="translate(0.1)"/><path class="cls-8" d="M11.5,15.1C10.9,9.8,4.4,5.2,1.6,4.2L4.3,0c1.6.4,6.9,3.3,8.1,11.4,1.4-9.7,8-11.4,8-11.4l2.7,4.2a17.69,17.69,0,0,0-9.8,10.9c-.3.6-.6.6-.9.6S11.7,15.6,11.5,15.1Z" transform="translate(0.1)"/></g></g></svg>