<svg xmlns="http://www.w3.org/2000/svg" xmlns:xlink="http://www.w3.org/1999/xlink" width="1920" height="2222" viewBox="0 0 1920 2222">
  <defs>
    <linearGradient id="linear-gradient" x2="1" y2="1" gradientUnits="objectBoundingBox">
      <stop offset="0" stop-color="#b900c9"/>
      <stop offset="1" stop-color="#e80000"/>
    </linearGradient>
    <linearGradient id="linear-gradient-2" x2="1" y2="1" gradientUnits="objectBoundingBox">
      <stop offset="0" stop-color="#ef3b51"/>
      <stop offset="1" stop-color="#2e06d8"/>
    </linearGradient>
    <linearGradient id="linear-gradient-3" x2="1" y2="1" gradientUnits="objectBoundingBox">
      <stop offset="0" stop-color="#00f730"/>
      <stop offset="1" stop-color="#00210b"/>
    </linearGradient>
    <clipPath id="clip-path">
      <rect width="240" height="50" fill="none"/>
    </clipPath>
    <linearGradient id="linear-gradient-6" x2="1" y2="1" gradientUnits="objectBoundingBox">
      <stop offset="0" stop-color="#19d13e"/>
      <stop offset="1" stop-color="#1e4a91"/>
    </linearGradient>
    <filter id="Rectangle_357" x="1070" y="1750" width="467.343" height="168.22" filterUnits="userSpaceOnUse">
      <feOffset dx="2" dy="3" input="SourceAlpha"/>
      <feGaussianBlur stdDeviation="3" result="blur"/>
      <feFlood flood-opacity="0.161"/>
      <feComposite operator="in" in2="blur"/>
      <feComposite in="SourceGraphic"/>
    </filter>
    <filter id="Serviços" x="1068" y="1807.302" width="468" height="52" filterUnits="userSpaceOnUse">
      <feOffset dy="3" input="SourceAlpha"/>
      <feGaussianBlur stdDeviation="3" result="blur-2"/>
      <feFlood flood-opacity="0.161"/>
      <feComposite operator="in" in2="blur-2"/>
      <feComposite in="SourceGraphic"/>
    </filter>
    <clipPath id="clip-Style_Guide">
      <rect width="1920" height="2222"/>
    </clipPath>
  </defs>
  <g id="Style_Guide" data-name="Style Guide" clip-path="url(#clip-Style_Guide)">
    <rect width="1920" height="2222" fill="#fff"/>
    <rect id="Rectangle_334" data-name="Rectangle 334" width="451" height="201.064" transform="translate(58 168.936)" fill="#dd0707"/>
    <rect id="Rectangle_338" data-name="Rectangle 338" width="451" height="201.064" transform="translate(58 521.936)" opacity="0.9"/>
    <rect id="Rectangle_335" data-name="Rectangle 335" width="451" height="201.064" transform="translate(509 168.936)" fill="#1ed642"/>
    <rect id="Rectangle_339" data-name="Rectangle 339" width="451" height="201.064" transform="translate(509 521.936)" opacity="0.8"/>
    <rect id="Rectangle_343" data-name="Rectangle 343" width="451" height="201.064" transform="translate(509 874.936)" opacity="0.8" fill="url(#linear-gradient)"/>
    <rect id="Rectangle_345" data-name="Rectangle 345" width="451" height="201.064" transform="translate(58 874.936)" opacity="0.8" fill="url(#linear-gradient-2)"/>
    <rect id="Rectangle_336" data-name="Rectangle 336" width="451" height="201.064" transform="translate(960 168.936)" fill="#cb0edb"/>
    <rect id="Rectangle_340" data-name="Rectangle 340" width="451" height="201.064" transform="translate(960 521.936)" opacity="0.6"/>
    <rect id="Rectangle_344" data-name="Rectangle 344" width="451" height="201.064" transform="translate(960 874.936)" opacity="0.6" fill="url(#linear-gradient-3)"/>
    <rect id="Rectangle_337" data-name="Rectangle 337" width="451" height="201.064" transform="translate(1411 168.936)" opacity="0.9"/>
    <rect id="Rectangle_341" data-name="Rectangle 341" width="451" height="201.064" transform="translate(1411 521.936)" opacity="0.4"/>
    <text id="Base_Colors" data-name="Base Colors" transform="translate(58 118)" font-size="83" font-family="Poppins-Bold, Poppins" font-weight="700" letter-spacing="0.001em"><tspan x="0" y="0">Base Colors</tspan></text>
    <text id="Text_Colors" data-name="Text Colors" transform="translate(58 471)" font-size="83" font-family="Poppins-Bold, Poppins" font-weight="700" letter-spacing="0.001em"><tspan x="0" y="0">Text Colors</tspan></text>
    <text id="Gradients" transform="translate(58 832)" font-size="83" font-family="Poppins-Bold, Poppins" font-weight="700" letter-spacing="0.001em"><tspan x="0" y="0">Gradients</tspan></text>
    <text id="Aa" transform="translate(58 1223)" font-size="300" font-family="Poppins-Bold, Poppins" font-weight="700" letter-spacing="0.001em"><tspan x="0" y="315">Aa</tspan></text>
    <text id="Poppins" transform="translate(58 1237)" font-size="83" font-family="Poppins-Bold, Poppins" font-weight="700" letter-spacing="0.001em"><tspan x="0" y="0">Poppins</tspan></text>
    <text id="Buttons" transform="translate(58 1618)" font-size="83" font-family="Poppins-Bold, Poppins" font-weight="700" letter-spacing="0.001em"><tspan x="0" y="87">Buttons</tspan></text>
    <text id="Header_1" data-name="Header 1" transform="translate(645 1238)" fill="#191919" font-size="41" font-family="Poppins-Bold, Poppins" font-weight="700" letter-spacing="0.001em"><tspan x="0" y="43">Header 1</tspan></text>
    <text id="Header_2" data-name="Header 2" transform="translate(645 1356)" fill="#333" font-size="24" font-family="Poppins-Bold, Poppins" font-weight="700" letter-spacing="0.001em"><tspan x="0" y="25">Header 2</tspan></text>
    <text id="Explain" transform="translate(645 1450)" fill="#999" font-size="21" font-family="Poppins-Regular, Poppins" letter-spacing="0.001em"><tspan x="0" y="22">Explain</tspan></text>
    <text id="Texto_Corrente_Texto_corrente" data-name="Texto Corrente 
Texto corrente" transform="translate(960 1346)" fill="#191919" font-size="16" font-family="Poppins-Bold, Poppins" font-weight="700" letter-spacing="0.001em"><tspan x="0" y="17">Texto Corrente </tspan><tspan x="0" y="42">Texto corrente</tspan></text>
    <text id="Texto_Corrente_Texto_corrente-2" data-name="Texto Corrente 
Texto corrente" transform="translate(960 1450)" fill="#191919" font-size="12" font-family="Poppins-Bold, Poppins" font-weight="700" letter-spacing="0.001em"><tspan x="0" y="13">Texto Corrente </tspan><tspan x="0" y="31">Texto corrente</tspan></text>
    <g id="Group_539" data-name="Group 539">
      <path id="Rectangle_347" data-name="Rectangle 347" d="M40,0H451a0,0,0,0,1,0,0V110.22a40,40,0,0,1-40,40H40a40,40,0,0,1-40-40V40A40,40,0,0,1,40,0Z" transform="translate(560 1756)" opacity="0.8" fill="url(#linear-gradient)"/>
      <text id="Button" transform="translate(560 1801)" fill="#333" font-size="41" font-family="Poppins-Bold, Poppins" font-weight="700" letter-spacing="0.001em"><tspan x="154.549" y="43">Button</tspan></text>
    </g>
    <g id="Group_540" data-name="Group 540">
      <path id="Rectangle_348" data-name="Rectangle 348" d="M40,0H451a0,0,0,0,1,0,0V110.064a40,40,0,0,1-40,40H40a40,40,0,0,1-40-40V40A40,40,0,0,1,40,0Z" transform="translate(58 1755.936)" opacity="0.8" fill="url(#linear-gradient-2)"/>
      <text id="Button-2" data-name="Button" transform="translate(58 1801)" fill="#333" font-size="41" font-family="Poppins-Bold, Poppins" font-weight="700" letter-spacing="0.001em"><tspan x="154.549" y="43">Button</tspan></text>
    </g>
    <g id="Butão" transform="translate(1052 1068)">
      <g id="Component_2" data-name="Component 2" transform="translate(376 542)" clip-path="url(#clip-path)">
        <g id="Rectangle_6" data-name="Rectangle 6" fill="none" stroke="#707070" stroke-width="2">
          <rect width="240" height="50" rx="4" stroke="none"/>
          <rect x="1" y="1" width="238" height="48" rx="3" fill="none"/>
        </g>
      </g>
      <text id="saiba_mais_" data-name="saiba mais " stroke="#707070" transform="translate(448 572.5)" stroke-width="2" font-size="20" font-family="Helvetica-Light, Helvetica" font-weight="300" letter-spacing="0.001em"><tspan x="0" y="0">saiba mais </tspan></text>
    </g>
    <text id="Button-3" data-name="Button" transform="translate(560 1801)" fill="#333" font-size="41" font-family="Poppins-Bold, Poppins" font-weight="700" letter-spacing="0.001em"><tspan x="154.549" y="43">Button</tspan></text>
    <g transform="matrix(1, 0, 0, 1, 0, 0)" filter="url(#Rectangle_357)">
      <path id="Rectangle_357-2" data-name="Rectangle 357" d="M40,0H449.343a0,0,0,0,1,0,0V110.22a40,40,0,0,1-40,40H40a40,40,0,0,1-40-40V40A40,40,0,0,1,40,0Z" transform="translate(1077 1756)" fill="url(#linear-gradient-6)"/>
    </g>
    <g transform="matrix(1, 0, 0, 1, 0, 0)" filter="url(#Serviços)">
      <text id="Serviços-2" data-name="Serviços" transform="translate(1077 1813.3)" fill="#f8f8f8" font-size="24" font-family="Poppins-Bold, Poppins" font-weight="700" letter-spacing="0.001em"><tspan x="172.028" y="25">Serviços</tspan></text>
    </g>
  </g>
</svg>
