<svg id="Layer_1" data-name="Layer 1" xmlns="http://www.w3.org/2000/svg" viewBox="0 0 35 40"><defs><style>.cls-1{fill:#c33;}.cls-1,.cls-2,.cls-4,.cls-5{fill-rule:evenodd;}.cls-2{fill:#fff215;}.cls-3{fill:#fff;}.cls-4{fill:teal;}.cls-6{fill:#373535;}</style></defs><title>Untitled-3</title><g id="Layer_1-2" data-name="Layer_1"><g id="_105553710562304" data-name=" 105553710562304"><polygon class="cls-1" points="19.21 5.8 18.64 5.86 17.97 5.97 17.07 6.18 16.06 6.44 15.5 6.61 14.94 6.82 14.32 7.08 13.76 7.35 13.15 7.67 12.53 7.99 11.97 8.42 11.69 8.63 11.35 8.84 11.07 9.05 10.79 9.32 10.28 9.85 10 10.12 9.78 10.38 9.27 11.02 8.82 11.72 8.43 12.46 8.26 12.84 8.09 13.26 7.81 14.11 7.59 15.02 7.53 15.5 7.42 15.98 7.42 16.51 7.36 17.04 7.36 18.16 7.42 19.33 7.59 20.61 7.7 20.99 7.87 21.46 8.09 22.05 8.43 22.74 8.65 23.12 8.88 23.49 9.11 23.91 9.38 24.34 9.72 24.71 10.06 25.14 10.45 25.57 10.9 25.99 11.35 26.42 11.86 26.79 12.36 27.22 12.98 27.59 13.59 27.91 14.27 28.23 15 28.55 15.73 28.76 16.57 29.03 17.41 29.19 18.31 29.35 19.32 29.45 20.33 29.51 21.39 29.51 21.06 29.67 20.72 29.88 20.22 30.09 19.54 30.31 18.81 30.57 17.92 30.79 16.96 30.95 16.4 31 15.84 31.05 15.28 31.11 14.66 31.11 14.04 31.05 13.43 31 12.75 30.89 12.08 30.79 11.4 30.63 10.68 30.41 9.95 30.15 9.22 29.88 8.43 29.56 7.7 29.13 6.92 28.71 6.13 28.23 5.79 27.96 5.51 27.7 5.06 27.32 4.56 26.79 4.05 26.21 3.49 25.46 2.93 24.66 2.65 24.18 2.43 23.7 2.2 23.22 1.98 22.69 1.75 22.1 1.58 21.52 1.42 20.93 1.25 20.29 1.19 19.6 1.08 18.91 1.08 18.22 1.08 17.47 1.14 16.73 1.25 15.93 1.36 15.13 1.58 14.28 1.64 14.06 1.86 13.47 2.2 12.68 2.48 12.14 2.82 11.61 3.27 10.97 3.72 10.38 4.28 9.75 4.9 9.11 5.62 8.47 6.41 7.83 6.86 7.51 7.36 7.19 8.37 6.61 8.6 6.44 9.27 6.18 10.28 5.8 11.63 5.38 12.36 5.22 13.15 5.06 13.99 4.95 14.88 4.9 15.33 4.9 15.78 4.9 16.68 5.01 17.13 5.06 17.58 5.17 18.08 5.27 18.53 5.43 19.21 5.8"/><polygon class="cls-2" points="26.84 5.22 27.18 5.65 27.63 6.18 28.07 6.87 28.64 7.72 28.86 8.26 29.14 8.79 29.36 9.32 29.59 9.91 29.81 10.55 29.98 11.19 30.15 11.88 30.26 12.57 30.32 13.26 30.32 14.01 30.26 14.75 30.15 15.5 29.93 16.3 29.7 17.1 29.36 17.9 28.92 18.69 28.41 19.5 27.85 20.29 27.12 21.09 26.28 21.89 25.38 22.69 24.31 23.49 23.98 23.7 23.53 23.97 22.91 24.23 22.18 24.5 21.34 24.77 20.33 24.98 19.77 25.09 19.21 25.14 18.64 25.19 18.03 25.25 17.41 25.19 16.74 25.19 16.06 25.09 15.39 24.98 14.66 24.82 13.99 24.61 13.26 24.34 12.47 24.02 11.74 23.65 11.01 23.22 10.23 22.74 9.44 22.16 8.65 21.52 7.93 20.82 7.98 21.14 8.15 21.52 8.32 22 8.6 22.64 8.99 23.27 9.44 24.02 9.72 24.39 10.06 24.82 10.4 25.19 10.73 25.57 11.12 25.99 11.57 26.36 12.02 26.74 12.53 27.16 13.09 27.54 13.65 27.86 14.27 28.23 14.94 28.55 15.67 28.82 16.4 29.13 17.19 29.35 18.03 29.61 18.93 29.77 19.38 29.88 19.82 29.99 20.22 29.99 20.67 29.99 21.23 29.99 21.96 29.99 22.8 29.88 23.75 29.72 24.71 29.51 25.27 29.35 25.77 29.13 26.89 28.71 28.02 28.18 28.58 27.8 29.14 27.43 29.7 27.06 30.26 26.58 30.77 26.1 31.33 25.57 31.84 24.98 32.34 24.34 32.85 23.65 33.29 22.9 33.41 22.74 33.69 22.21 33.86 21.78 34.02 21.31 34.19 20.77 34.36 20.19 34.53 19.5 34.64 18.69 34.7 17.9 34.7 17.47 34.7 16.99 34.64 16.09 34.53 15.07 34.47 14.54 34.36 14.01 34.08 12.94 33.97 12.68 33.69 12.04 33.52 11.56 33.24 11.08 32.96 10.49 32.56 9.91 32.17 9.32 31.95 9 31.72 8.68 31.44 8.36 31.16 8.04 30.88 7.72 30.6 7.4 29.93 6.82 29.59 6.55 29.2 6.29 28.47 5.8 27.63 5.38 26.84 5.22"/><path class="cls-3" d="M27,5.77l-.34-.42L27,5.09l.34.43L27,5.78Zm0,0h0Zm.45.53L27,5.78l.35-.27L27.8,6l0,0ZM27.8,6h0v0Zm.08.94-.44-.69.38-.22.45.69L27.88,7Zm0,0Zm.57.86L27.88,7l.39-.22.55.85,0,0-.39.2Zm.37-.23,0,0h0Zm-.17.72-.22-.53.41-.16.23.54-.41.17Zm0,0h0Zm.28.53-.28-.53.4-.19.28.53v0Zm.4-.19h0v0Zm-.18.71-.23-.53.42-.16.22.53h0l-.42.15Zm.41-.16h0Zm-.19.74-.23-.59.43-.14.22.59h0l-.42.14Zm.42-.14Zm-.2.77L29.38,10l.42-.13.23.64h0Zm.43-.13Zm-.27.76-.16-.64.43-.11.17.64h0l-.44.1Zm.44-.11h0Zm-.27.8-.17-.7.44-.09.17.69h0l-.44.09Zm.44-.1h0ZM30,12.6l-.11-.69.44-.07.11.7h0l-.45,0Zm.44-.06h0Zm-.38.74L30,12.59l.45,0,.05.7h0Zm.44,0ZM30.1,14v-.75h.44V14H30.1Zm.44,0Zm-.5.73L30.1,14l.44,0-.05.75h0Zm.45,0h0Zm-.56.7.11-.75.44.06-.11.75v0l-.44-.08Zm.44.06h0v0Zm-.66.71.22-.8.44.11-.23.8h0Zm-.23.8.23-.8.43.11-.22.8v0Zm.44.11h0v0Zm-.76.67.33-.8.42.16-.34.8v0l-.4-.18Zm.41.16h0v0Zm-.85.62.45-.8.39.2-.45.8h0l-.39-.21Zm.39.2Zm-.89.59.5-.8.39.22-.51.79h0Zm.38.21h0Zm-.94.58.57-.8.37.23-.56.8,0,0-.36-.25Zm.38.23h0ZM27,21l.73-.8.34.28-.73.8h0Zm.34.28h0Zm-1.17.51.84-.8.32.3-.84.8h0l-.31-.31Zm.32.3h0Zm-1.21.49.89-.79.31.31-.89.8h0l-.29-.33Zm.31.32h0Zm-1.37.47,1.07-.8.28.34-1.07.8h0Zm.28.34h0Zm-.6-.13.34-.22.25.36-.34.21h0Zm.25.35Zm-.69-.09.45-.27.24.36-.45.27h0l-.21-.37Zm.24.36h0ZM22.82,24l.62-.26.18.38-.62.27h0L22.82,24Zm.18.39Zm-.9-.13.73-.26.16.39-.73.27h0l-.15-.4Zm.16.4Zm-1-.13.84-.27.14.4-.84.27h0Zm.14.4h0Zm-1.13-.2,1-.21.1.41-1,.22h0l-.09-.42Zm.1.42h0Zm-.66-.31.57-.11.08.42-.56.11h0Zm.09.42h0Zm-.62-.37.56-.05,0,.42-.56.05h0Zm-.57.05.57-.05,0,.42-.56.06h0L18.62,25Zm.05.43ZM18,25l.62-.05,0,.43-.62.05h0Zm0,.43h0ZM17.43,25l.62.05,0,.43-.62-.05,0-.43Zm0,0h0Zm-.67,0h.67v.43H16.7Zm0,.43h0Zm-.64-.53.67.1-.07.42L16,25.3h0Zm-.67-.11.67.11L16,25.3l-.68-.11h0l.09-.42Zm-.08.42Zm-.64-.58.73.16-.1.42L14.61,25h0Zm-.1.42h0Zm-.55-.63.67.22-.14.4-.67-.21h0l.15-.41Zm-.14.41h0Zm-.58-.67.73.27-.16.4-.73-.27h0Zm-.16.4h0Zm-.62-.71.79.31-.18.4-.79-.32h0Zm-.18.39h0Zm-.53-.76.73.38-.21.37-.73-.37h0l.23-.37Zm-.21.38h0Zm-.51-.8.73.43-.24.36-.73-.43h0l.24-.36Zm-.24.36h0Zm-.54-.84.78.48-.24.36-.78-.48h0l.26-.35Zm-.24.36h0ZM9.58,22l.79.59-.28.33-.79-.59h0L9.58,22Zm-.28.33Zm-.5-1,.79.64-.29.32-.79-.64h0l.3-.31Zm-.29.32Zm-.43-1,.73.69-.31.3L7.77,21l-.06-.12.37-.18Zm-.37.18-.12-.65.49.47Zm0,.32,0-.32.44-.07,0,.32-.43.12Zm0,.05v0Zm.17.37-.17-.37.42-.17.17.37v0l-.42.15Zm.42-.17h0v0Zm-.25.64-.17-.48.42-.14.17.48-.42.15Zm0,0Zm.28.64-.28-.64.42-.16.28.63-.41.19v0Zm0,0h0Zm.4.64-.4-.64.39-.21.4.64h0Zm.39-.21Zm.06,1-.45-.75.39-.21.45.75-.38.22Zm0,0h0Zm.28.38-.28-.38.36-.24.29.37-.37.25Zm0,0Zm.34.43-.34-.43.36-.25.34.42L9.89,25Zm0,0h0Zm.33.37L9.89,25l.34-.28.33.37h0l-.34.27Zm.34.38-.34-.38.34-.27.34.37-.34.28Zm0,0Zm.4.42-.4-.42.34-.28.39.42-.31.3Zm0,0h0Zm.45.38L11,26.15l.29-.32.45.38-.29.32Zm.44.37-.44-.37.29-.32.45.37h0Zm.3-.32Zm.21.74-.51-.42.3-.32.51.43-.28.33,0,0Zm0,0h0l0,0Zm.56.37-.56-.37.26-.35.56.37-.25.36Zm0,0Zm.56.32L13,27.72l.23-.36.56.31h0l-.24.36Zm.23-.37h0Zm.39.74L13.53,28l.24-.36.62.37-.22.37Zm0,0h0Zm.67.32-.67-.32.2-.38.67.32-.18.39Zm0,0h0Zm.73.27-.73-.27.16-.4.73.27h0l-.17.4Zm.16-.4h0Zm.56.71L15.58,29l.18-.39.73.32-.15.4Zm0,0h0Zm.78.21-.78-.21.12-.41.79.21h0l-.14.4Zm.13-.41h0Zm.71.68-.85-.27.15-.4.84.26-.11.41Zm0,0h0Zm.89.16L18,29.82l.08-.42.9.17h0l-.1.41Zm.09-.41Zm.35.52L18.87,30l.11-.41.45.1h0Zm.45.1-.45-.1.11-.42.45.11-.06.42Zm.05,0h0Zm.4,0h-.4v-.43h.4Zm.45,0h-.45v-.43h.45Zm.56,0h-.56v-.43h.56Zm.73,0h-.73v-.43H22l0,.43Zm0,0h0Zm.84-.11L22,30.2l-.06-.42.84-.11.07.42Zm0,0Zm.95-.16-.95.16-.08-.42.95-.16.09.42Zm0,0Zm1-.21-1,.21-.1-.42,1-.21.11.41Zm0,0Zm.56-.16-.56.16-.13-.4.56-.17.16.4Zm0,0h0Zm.5-.21-.5.21-.18-.39.5-.21h0Zm-.18-.39h0Zm1.3,0-1.12.42-.17-.39,1.12-.43.19.39Zm0,0h0Zm1.12-.53L27,28.9l-.2-.38L27.92,28l.23.36,0,0Zm0,0h0Zm.56-.37-.56.37L27.89,28l.56-.37h0Zm.56-.37-.56.37-.26-.35.56-.37h0l.26.35Zm.56-.38-.56.38L29,27.26l.56-.38.28.34Zm0,0h0Zm.56-.48-.56.48-.3-.32.56-.48.31.31Zm0,0Zm.51-.48-.51.48-.31-.3.5-.48.32.3Zm.56-.53-.56.53-.32-.3.56-.53.33.28Zm0,0h0Zm.51-.58-.51.58-.34-.27.5-.58.35.26Zm0,0Zm.51-.64-.51.64-.36-.26.51-.64.36.25Zm0,0h0Zm.51-.69-.51.69-.37-.24.51-.69.38.23Zm0,0Zm.45-.75-.45.75-.39-.22.45-.74v0Zm-.39-.21h0v0Zm.49.06-.11.16-.37-.24.11-.15.39.21,0,0Zm0,0h0Zm.28-.53-.28.53-.41-.19.29-.53.41.17Zm0,0h0v0Zm.16-.43-.16.43-.42-.15.17-.43.42.14Zm0,0Zm.17-.48-.17.48-.43-.13.17-.48.43.13Zm0,0Zm.17-.54-.17.54-.43-.13.17-.53.43.12Zm0,0Zm.17-.59-.17.59L34,20.72l.16-.59.44.11Zm0,0Zm.17-.7-.17.7-.44-.1.17-.69.44.07v0Zm0,0h0v0Zm.11-.8-.11.8-.44-.06.11-.79.44,0Zm0,0h0Zm.06-.8-.06.8-.44,0,0-.8.45,0Zm0,0Zm0-.43v.43h-.45v-.43h.45Zm0-.48v.48h-.45V17h.45Zm0,0Zm-.06-.91.06.91-.45,0,0-.9.44,0Zm0,0h0Zm-.11-1,.11,1-.44.05-.12-1h0l.45,0Zm-.45,0h0v0Zm.4-.57,0,.53-.45,0,0-.53.44-.06Zm0,0h0v0ZM34.58,14l.11.53-.44.08-.11-.53.44-.09Zm0,0Zm-.28-1.07L34.58,14l-.44.1L33.86,13l.43-.13Zm0,0v0h0Zm-.11-.26.11.26-.42.16-.11-.26.41-.16Zm0,0h0ZM33.89,12l.28.64-.41.16-.28-.64v0Zm-.41.16h0v0Zm.25-.63.17.48-.42.13-.17-.47.41-.17v0Zm0,0h0v0ZM33.44,11l.28.49-.4.2L33,11.18h0Zm-.4.21h0Zm.12-.77.28.58-.41.18-.28-.59.4-.2v0Zm0,0h0v0Zm-.4-.59.4.59-.38.23L32.38,10h0l.37-.23Zm-.39-.58.39.58-.37.23L32,9.44l.38-.24Zm0,0h0Zm-.23-.32.23.32L32,9.44l-.23-.32h0Zm-.22-.32.22.32-.37.24-.22-.32.35-.26Zm0,0h0l0,0Zm-.28-.32.28.32-.34.28-.28-.32Zm-.28-.31.28.31-.34.28L31,8.18h0l.34-.27Zm-.28-.32.28.32L31,8.18l-.28-.32h0l.34-.27Zm-.28-.32.28.32-.34.27-.28-.32.32-.29,0,0Zm0,0h0l0,0Zm-.67-.59.67.59-.3.31L29.78,7l.29-.32Zm0,0h0Zm-.34-.26.34.26L29.78,7l-.33-.27.27-.33Zm0,0h0Zm-.39-.27.39.27-.26.34-.39-.26.26-.35Zm0,0Zm-.74-.48.74.48-.26.35L28.34,6l.23-.36Zm0,0h0Zm-.84-.43.84.43L28.36,6l-.84-.42.15-.4Zm-.06,0h.06ZM26.89,5l.78.16-.09.42-.79-.16-.13-.08L26.89,5Zm-.23.34-.36-.46.59.12-.23.34Z"/><polygon class="cls-4" points="3.1 11.24 3.43 10.81 3.88 10.28 4.45 9.64 5.18 8.89 5.62 8.52 6.07 8.15 6.3 7.99 6.58 7.78 7.14 7.4 7.7 7.03 8.32 6.71 8.94 6.39 9.61 6.12 10.34 5.86 10.68 5.75 11.07 5.65 11.46 5.59 11.86 5.49 12.64 5.38 13.48 5.33 14.38 5.38 15.28 5.43 16.18 5.59 17.13 5.86 17.64 6.02 18.14 6.18 18.64 6.39 19.15 6.61 20.16 7.14 20.72 7.4 21.23 7.78 21.79 8.1 22.35 8.47 22.63 8.73 23.02 9.11 23.42 9.59 23.92 10.17 24.43 10.87 24.93 11.72 25.21 12.2 25.44 12.68 25.6 13.21 25.83 13.74 26 14.33 26.11 14.97 26.22 15.61 26.28 16.24 26.34 16.94 26.34 17.63 26.28 18 26.22 18.38 26.11 19.12 26.31 19.88 26.64 20.86 27.26 21.08 27.91 20.77 28.19 20.29 28.47 19.81 28.75 19.33 29.03 18.8 29.25 18.22 29.48 17.63 29.7 16.99 29.87 16.35 30.04 15.66 30.15 14.91 30.21 14.17 30.26 13.37 30.26 12.57 30.21 11.72 30.1 10.81 30.04 10.44 29.76 9.48 29.53 8.84 29.2 8.15 28.8 7.3 28.3 6.5 28.02 6.02 27.68 5.59 27.29 5.17 26.89 4.74 26.5 4.26 26.28 4.05 26.05 3.83 25.55 3.41 24.99 3.04 24.43 2.61 23.81 2.24 23.19 1.86 22.46 1.54 21.73 1.22 20.95 0.96 20.16 0.69 19.26 0.48 19.04 0.43 18.42 0.32 17.97 0.27 17.47 0.27 16.85 0.21 16.18 0.27 15.84 0.27 15.45 0.32 14.66 0.43 13.82 0.58 12.92 0.8 11.97 1.12 11.46 1.28 10.96 1.49 10.45 1.7 9.95 1.97 9.44 2.24 8.94 2.56 8.71 2.66 8.15 3.09 7.31 3.78 6.8 4.21 6.3 4.69 5.79 5.27 5.29 5.86 4.78 6.5 4.33 7.19 3.94 7.99 3.72 8.36 3.55 8.79 3.43 9.16 3.27 9.59 3.15 10.07 3.1 10.49 3.1 11.24"/><path class="cls-3" d="M3.62,10.94l-.34.43-.36-.26.34-.43h0l.36.26Zm-.36-.26Zm.8-.27L3.61,11l-.35-.27.45-.53h0Zm-.35-.26h0Zm.91-.37-.56.63-.35-.27.56-.64h0l.34.28ZM4.27,9.5h0ZM5.34,9l-.73.75L4.28,9.5,5,8.75H5l.31.3ZM5,8.75H5Zm.76-.07-.45.37L5,8.74l.45-.38.29.32Zm.45-.37-.45.37-.29-.32L5.93,8h0ZM5.93,8h0Zm.5.17-.22.16L5.94,8l.22-.16.28.34Zm0,0Zm.28-.22-.28.22-.28-.34.28-.21h0Zm-.28-.33Zm.83,0L6.71,8,6.45,7.6,7,7.23H7Zm.56-.38-.56.38L7,7.23l.56-.37,0,0Zm-.26-.34h0Zm.86,0-.62.32-.22-.38.62-.32ZM9,6.58l-.61.32-.22-.38.62-.32h0ZM8.83,6.2h0Zm.86.12L9,6.59,8.85,6.2l.67-.27h0l.16.39Zm-.17-.39h0Zm.9.13-.73.26-.16-.39.73-.27h0Zm-.16-.4Zm.49.29-.34.11-.14-.4.33-.11h0l.14.4Zm-.15-.4h0Zm.53.3L10.74,6l-.13-.41.4-.11h0ZM11,5.44h0Zm.48.36-.39.06L11,5.44l.39-.06.09.42Zm0,0h0Zm.4-.11-.4.11-.12-.41.39-.11h0Zm-.13-.41h0Zm.88.31-.78.11-.07-.43.79-.1h0Zm-.06-.42h0Zm.89.37-.84,0,0-.42.84-.06h0Zm0-.43h0Zm.9.48-.9,0,0-.43.9.06h0Zm.89.06-.89-.06,0-.42.9,0h0l-.06.43Zm0-.43h0Zm.84.58-.89-.16.08-.42.9.16h0Zm.09-.42h0Zm.85.68-1-.26.13-.41,1,.26h0l-.13.4Zm.12-.41h0Zm.38.57-.51-.16.14-.4.51.16Zm.5.16-.5-.16.14-.4.5.16h0Zm.14-.4h0Zm.34.61-.5-.22L18.23,6l.51.22-.19.39Zm.51.21-.51-.21.19-.39.5.21h0Zm.18-.39h0Zm.81.91-1-.53.22-.37,1,.53-.21.38Zm0,0h0Zm.56.26-.56-.26.2-.38.56.26,0,0-.24.35Zm.2-.38h0l0,0Zm.27.73-.5-.37.27-.33.51.37L21.11,8Zm0,0h0Zm.56.32L21.11,8l.23-.37.56.32h0l-.25.36Zm.23-.37h0Zm.32.73-.56-.37.26-.35.56.37,0,0Zm.26-.35h0v0Zm0,.6-.28-.27.32-.3.28.26-.32.31Zm.39.37-.39-.37.32-.31.39.38,0,0Zm.32-.3h0l0,0Zm.06.76-.39-.48L23.2,9l.39.48-.35.26Zm0,0Zm.51.59-.51-.59.35-.27.51.59h0ZM24.1,10Zm.14,1-.5-.7.37-.24.5.69v0l-.38.23Zm.37-.25h0Zm.12,1.08-.5-.85.39-.21.51.85h0l-.4.21Zm.4-.21ZM25,12.3l-.28-.48.4-.21.28.48v0Zm.4-.21h0Zm-.18.67L25,12.28l.41-.17.22.48v0Zm.41-.17h0v0Zm-.25.68-.17-.53.43-.13.17.54-.42.14Zm0,0h0Zm.22.53-.22-.53.41-.16.23.53v0l-.43.13Zm.42-.16v0h0Zm-.26.72-.17-.58.44-.11.16.58v0Zm.43-.11h0v0Zm-.32.73-.11-.64.44-.07.11.64-.44.07Zm.11.64L25.89,15l.44-.07.11.64v0Zm.44-.07h0Zm-.38.69L26,15.62l.45,0,.05.64h0Zm.44,0h0v0Zm-.39.73-.05-.7.44,0,.06.69v0l-.45,0Zm.45,0h0Zm-.45.71v-.69h.45v.72Zm.45,0h0v0Zm-.5.34.05-.37.45.06L26.5,18h0L26.06,18Zm-.06.38.06-.38.44.06-.06.38h0L26,18.35Zm-.11.74.11-.74.44.06-.11.74-.44,0Zm0,.08v0Zm.2.76-.2-.76.44-.1.2.76-.44.11Zm0,0Zm.34,1-.34-1,.43-.13.33,1-.29.27-.13-.14Zm.13.14-.1,0,0-.1.13.14Zm.63.21-.63-.21.16-.4.62.21,0,.39Zm.18,0-.09.05-.09,0ZM28,21l-.64.31-.21-.38.64-.31.3.3L28,21Zm.09-.08,0,.05L28,21Zm.28-.48-.28.48-.39-.21.28-.48h0Zm.28-.48-.28.48L28,20.19l.28-.48h0Zm.28-.48-.28.48-.39-.21.28-.48.4.2Zm0,0Zm.28-.53-.28.53-.4-.19.28-.53.41.17Zm0,0h0Zm.22-.59-.22.59-.42-.15.22-.59Zm.23-.59-.23.59L29,18.14l.23-.58.42.14Zm0,0Zm.23-.64-.23.64-.43-.14.23-.64.43.12v0Zm0,0h0v0Zm.17-.64-.17.64-.44-.1.17-.64.44.1Zm0,0Zm.17-.69-.17.69-.44-.1.17-.69.44.08v0Zm0,0h0v0Zm.11-.75-.11.75-.44-.06.11-.75.45,0Zm0,0h0Zm.05-.75-.05.75-.45,0,.05-.75.45,0Zm0,0h0v0Zm.06-.8-.06.8-.45,0,.06-.79h.45Zm0,0h0Zm0-.8v.8H30v-.8h.45Zm0,0h0Zm-.06-.85.06.85-.45,0L30,11.73l.45,0Zm0,0h0v0Zm-.11-.9.11.9-.45.05-.11-.9.45-.06Zm0,0h0Zm-.06-.37.06.37-.45.06-.05-.37.43-.09v0Zm0,0v0h0Zm-.28-1,.28,1-.43.12-.28-1L30,9.41Zm0,0h0Zm-.22-.64.22.64-.42.14-.23-.64.42-.16Zm0,0v0h0Zm-.34-.69.34.69-.41.18L29,8.24h0l.41-.17ZM29,8.24h0Zm0-1,.39.85L29,8.23l-.39-.85.4-.19Zm0,0h0v0Zm-.51-.8.51.8-.39.22-.5-.8h0l.39-.21Zm-.38.22h0Zm.11-.69.28.47-.4.21-.28-.48.38-.23Zm0,0h0v0Zm-.34-.42.34.42-.36.26-.34-.43.35-.27Zm0,0h0v0ZM27.46,5l.39.42-.34.28-.39-.42h0Zm-.4-.43.4.43-.34.28-.39-.43h0l.34-.27Zm-.33.28h0Zm-.05-.75.39.48-.35.26-.39-.48.33-.28,0,0Zm0,0h0l0,0Zm-.22-.21.22.21-.31.3-.23-.21h0Zm-.23-.22.23.22-.32.3L25.9,4l.3-.31Zm0,0h0Zm-.5-.43.5.43L25.9,4l-.5-.42.28-.33Zm0,0h0Zm-.56-.38.56.38-.26.34-.56-.37h0Zm-.26.35h0Zm-.29-.77.56.43-.28.33-.56-.43.26-.34Zm0,0h0Zm-.62-.37.62.37-.24.36-.62-.37h0Zm-.62-.38.62.38-.24.36L23.07,2l.22-.37Zm0,0h0Zm-.73-.32.73.32-.19.39-.73-.32.19-.39ZM21.83,1l.73.32-.19.39-.73-.32.17-.4Zm0,0h0ZM21,.76l.79.26-.15.4-.79-.26h0ZM20.24.49,21,.76l-.15.4L20.08.89l.14-.4Zm0,0h0Zm-.9-.22.9.22L20.11.9l-.9-.21h0ZM19.09.22l.23.05-.11.42L19,.63l.1-.41Zm0,0h0ZM18.46.11l.62.11L19,.64,18.38.53l.07-.42Zm0,0ZM18,.05l.45.06-.06.42L17.94.48l0-.43Zm0,0h0Zm-.5,0H18V.48h-.52Zm0,.43h0ZM16.87,0l.62.05,0,.43-.62,0V0Zm0,0h0Zm-.67.05.67,0,0,.43-.67,0h0Zm0,.43h0ZM15.84.05h.34V.48h-.34l0-.43Zm0,0h0Zm-.4.06.4-.06.06.43-.39.05Zm-.78.11.78-.11.07.42-.79.11L14.62.22Zm0,0Zm-.85.16.85-.16.08.41L13.86.8l-.1-.42Zm0,0h0Zm-.89.21.89-.21.11.41L13,1,12.85.6Zm0,0h0Zm-1,.32,1-.32L13,1l-1,.32h0l-.15-.4Zm.15.4Zm-.65-.24.5-.16.15.4-.51.16-.16-.4Zm0,0h0Zm-.5.22.5-.22.18.39-.5.21-.19-.38Zm-.51.21.5-.21.19.38-.51.22-.2-.38Zm0,0h0Zm-.5.26.5-.26.22.37-.51.27h0l-.21-.38Zm-.51.27.51-.27.21.38-.5.26-.23-.36Zm0,0Zm-.51.32.51-.32.25.35-.51.32,0,0Zm.25.35H9l0,0Zm-.45-.26.22-.1L9,2.75l-.23.1L8.57,2.5Zm0,0,0,0h0l0,0ZM8,2.92l.56-.42.28.33-.56.43L8,2.93Zm0,0Zm-.84.69L8,2.93l.3.32-.85.69-.29-.32Zm0,0Zm-.51.43.51-.43.3.32L7,4.37l-.31-.31Zm0,0h0Zm-.5.48.5-.48.32.3-.5.48-.34-.29Zm0,0h0Zm-.5.59.5-.59.35.27L6,5.41H6Zm-.51.58.51-.58L6,5.41,5.46,6l-.35-.26Zm0,0h0Zm-.51.64.51-.64L5.47,6,5,6.62l-.37-.23v0Zm0,0h0Zm-.45.69.45-.69L5,6.61l-.45.69-.39-.2Zm0,0h0Zm-.39.8.39-.8.41.18-.4.8h0l-.4-.19Zm.4.18h0Zm-.62.18.23-.38.39.21-.23.38-.4-.18Zm0,0v0h0Zm-.17.42.17-.42.42.15-.17.42-.43-.13v0Zm0,0h0v0Zm-.11.37.11-.37.43.12-.11.37v0L3.22,9.1Zm.43.12h0Zm-.59.29.17-.42.41.15-.16.42-.43-.12v0Zm0,0h0v0ZM2.94,10l.11-.48.44.09-.12.48L2.93,10v0Zm0,0h0v0Zm-.05.43L2.93,10l.45.05-.06.43-.45,0Zm0,0h0v0Zm0,.75v-.75h.45v.75l0,.13Zm.41.13-.41.51v-.64Z"/><polygon class="cls-5" points="2.6 10.6 4.21 10.6 4.21 23 4.21 23.11 4.16 23.22 4.11 23.32 4.05 23.48 3.9 23.59 3.74 23.7 3.48 23.8 1.66 23.8 1.66 25.61 2.34 25.67 3.01 25.67 3.43 25.67 3.85 25.61 4.26 25.51 4.47 25.45 4.68 25.35 5.09 25.19 5.25 25.03 5.46 24.92 5.77 24.6 5.93 24.44 6.08 24.23 6.24 24.02 6.34 23.75 6.5 23.22 6.5 10.6 8.37 10.6 8.37 9.05 2.6 9.05 2.6 10.6"/><path d="M4.21,10.65H2.6v-.11H4.21l0,.06Zm0-.11h0v.06ZM4.16,23V10.6h.1V23h-.1Zm0,.1V23h.1v.13l-.1,0Zm.1,0h0v0Zm-.15.08,0-.1.1.05-.06.1h0Zm-.05.11.05-.11.09,0,0,.11-.09,0Zm0,0h0ZM4,23.47l.06-.16.1,0-.06.16,0,0L4,23.47Zm.1,0v0h0l0,0Zm-.23.05L4,23.44l.06.09-.16.1h0Zm-.16.1.16-.1,0,.08-.15.11h0Zm.06.09h0Zm-.31,0,.26-.11,0,.1-.26.1h0l0-.1Zm0,.09h0Zm-1.84-.1H3.48v.11H1.66l0-.06Zm0,.05v-.05h0Zm0,1.81V23.8h.1v1.81l-.05.06Zm0,.06h0v-.05Zm.67,0-.67,0v-.11l.67.06v.1Zm0,0Zm.67,0H2.34v-.11H3Zm.42,0H3v-.11h.42v.11Zm0,0Zm.42,0-.42,0v-.1l.42-.06,0,.11Zm0,0Zm.41-.11-.41.11,0-.11.42-.1h0Zm.21,0-.21,0,0-.1.21-.06,0,.1Zm0,0Zm.21-.1-.21.1,0-.09.21-.11h0Zm0-.1h0Zm.46-.06-.41.16,0-.1.41-.16.06.09Zm0,0h0Zm.16-.16-.16.16-.07-.08L5.21,25h0l.06.09ZM5.21,25h0Zm.27,0-.21.11,0-.1.2-.1L5.5,25Zm0,0h0Zm.31-.32L5.5,25l-.08-.07.31-.32h0l.08.07Zm-.08-.07h0l-.06.06ZM6,24.48l-.15.16-.08-.07.16-.17.08.07Zm0,0H6Zm.15-.21L6,24.47l-.09-.06L6,24.2H6Zm.16-.21-.16.21L6,24.2,6.2,24l.09.05Zm0,0h0Zm.1-.27-.1.27-.1,0,.1-.27.1,0Zm0,0Zm.16-.54-.16.54-.1,0,.16-.54.1,0Zm0,0h0Zm0-12.62V23.22H6.44V10.6l.06-.06Zm-.11,0v-.06H6.5Zm1.93.05H6.5v-.11H8.37l.05.06Zm.05-.05v.05H8.37Zm0-1.55V10.6h-.1V9.05l0-.05.05.05ZM8.37,9h.05v.05ZM2.6,9H8.37v.1H2.6l-.06,0L2.6,9Zm-.06.05V9H2.6Zm0,1.55V9.05h.11V10.6Z"/><path d="M16.07,17.09a4.45,4.45,0,1,1-4.42-4.37A4.39,4.39,0,0,1,16.07,17.09Z"/><path d="M11.65,21.51v-.1h.22l.23,0,.21,0,.22,0,.21-.05.21-.06.21-.07.2-.07.19-.09.19-.1.19-.1.18-.11.17-.12.17-.13.16-.14.15-.14.15-.15.14-.16.13-.16.13-.17.11-.18.11-.18.1-.19.09-.19.08-.19.07-.2.06-.21L16,18l0-.21,0-.22,0-.22v-.22h.1v.23l0,.22,0,.22,0,.22,0,.21L16,18.4l-.07.21-.08.2-.09.19-.1.19-.11.19-.12.18-.13.17-.13.17-.14.16-.15.15-.16.15-.17.14-.17.13-.18.13-.18.11-.19.11-.19.1-.2.08-.21.08-.21.07-.21.06-.22.05-.22,0-.22,0-.23,0ZM7.07,17.09h.1v.22l0,.22,0,.22,0,.21,0,.2.07.21.07.2.07.19.09.19.1.19.11.18.12.18.12.17.14.16.13.16.15.15.16.14.16.14.17.13.18.12.18.11.18.1.2.1.2.09.2.07.21.07.21.06.21.05.23,0,.22,0,.23,0h.23v.1h-.24l-.23,0-.23,0-.22,0-.23-.05-.21-.06-.22-.07-.2-.08-.21-.08L9.47,21l-.19-.11-.19-.11-.18-.13-.17-.13-.17-.14-.16-.15-.15-.15-.14-.16L8,19.73l-.13-.17-.12-.18-.11-.19L7.52,19l-.09-.19-.08-.2-.07-.21-.07-.21,0-.21,0-.22,0-.22v-.45Zm4.58-4.47v.1h-.23l-.23,0-.22,0-.23,0-.21,0-.21.06-.21.07-.2.08-.2.08-.2.1-.18.11-.18.11L9,13.59l-.17.13-.16.14L8.48,14l-.15.15-.13.16-.14.17-.12.17-.12.17L7.71,15l-.1.19-.09.19-.07.2-.07.2L7.31,16l0,.21,0,.22,0,.22,0,.22v.22h-.1v-.46l0-.22,0-.22,0-.22.07-.21.07-.21.08-.2.09-.2.1-.19.11-.19.12-.18L8,14.41l.14-.17.14-.16.15-.15.16-.15.17-.14.17-.14.18-.12.19-.12.19-.1.19-.1L9.87,13l.2-.08.22-.07.21-.06.23,0,.22,0,.23,0,.23,0Zm4.52,4.47h-.1v-.22l0-.22,0-.22,0-.22L15.93,16l-.06-.21-.07-.2-.08-.2-.09-.19-.1-.19-.11-.19-.11-.17-.13-.17-.13-.17-.14-.16L14.76,14l-.15-.14-.16-.14-.17-.13-.17-.12-.18-.11-.19-.11-.19-.1-.19-.08-.2-.08L13,12.92l-.21-.06-.21,0-.22,0-.21,0-.23,0h-.22v-.1h.23l.23,0,.22,0,.22,0,.22,0,.21.06.21.07.21.08.2.09.19.1.19.1.18.12.18.12.17.14.17.14.16.15.15.15.14.16.13.17.13.18.12.18.11.19.1.19.09.2.08.2.07.21L16,16l0,.22,0,.22,0,.22,0,.23v.23Z"/><path class="cls-3" d="M14.46,17.09a2.92,2.92,0,1,1-2.92-2.87A2.88,2.88,0,0,1,14.46,17.09Z"/><polygon class="cls-5" points="15.49 12.72 15.49 14.59 16.74 14.59 16.74 19.92 15.65 19.92 15.65 21.68 19.76 21.68 19.76 19.97 18.82 19.97 18.82 12.72 15.49 12.72"/><path d="M15.44,14.59V12.72h.11v1.87l-.06.05-.05-.05Zm.05.05h-.05v-.05Zm1.25,0H15.49v-.11h1.25l.05.06Zm0-.11h.05v.06Zm0,5.39V14.59h.1v5.33l-.05,0,0,0Zm.1,0v0h-.05Zm-1.14-.06h1.09V20H15.65l-.05,0Zm-.05.06v-.06h.05Zm0,1.75V19.92h.1v1.75l0,.06-.05-.06Zm.05.06H15.6v-.06Zm4.11,0H15.65v-.11h4.11l0,.05Zm0-.06v.06h0Zm0-1.7v1.7h-.1V20l.05,0,0,0Zm0,0h0v0Zm-.94,0h.94V20h-.94L18.77,20Zm0,.1h-.05V20Zm.06-7.3V20h-.11V12.72l.05-.05.06.05Zm-.06-.05h.06v.05Zm-3.33,0h3.33v.11H15.49Z"/><path d="M18.77,9.63a1,1,0,1,1-1-1A1,1,0,0,1,18.77,9.63Z"/><path d="M17.78,10.81V10.7h.3l0,0,.05,0,0,0,0,0,0,0,0,0,0,0,0,0,0,0,0,0,0,0,0,0,0,0,0,0,0,0,0,0,0,0,0,0,0-.05,0,0V9.63h.11V10l0,.06,0,0,0,.05,0,0,0,.05,0,.05,0,0,0,0,0,0,0,0,0,0,0,0,0,0,0,0,0,0-.05,0,0,0-.05,0-.05,0-.05,0h-.33ZM16.64,9.63h.1v.28l0,.05v0l0,.05,0,0,0,0,0,0,0,0,0,0,0,0,0,0,0,0,0,0,0,0,0,0,0,0,0,0,.05,0,0,0,.05,0,.05,0,0,0h.31v.11h-.34l-.06,0-.05,0,0,0-.05,0-.05,0-.05,0,0,0,0,0,0,0,0,0,0,0,0,0,0,0,0,0,0-.05,0-.05,0,0,0-.05,0,0,0-.06,0-.06v-.3Zm1.14-1.11v.1h-.21l-.05,0h-.05l0,0h-.05l-.05,0,0,0-.05,0,0,0,0,0,0,0,0,0,0,0,0,0,0,0,0,0,0,0,0,0,0,0,0,0,0,0,0,0v.05l0,0v.25h-.1V9.36l0,0,0-.06,0-.05,0,0,0-.05,0,0,0-.05,0,0,0-.05,0,0,0,0,0,0,0,0,0,0,.05,0,0,0,.05,0,.05,0,0,0,.05,0h.06l0,0h.29Zm1.1,1.11h-.11V9.34l0-.05,0,0v0l0,0,0,0,0,0,0,0,0,0,0,0,0,0,0,0,0,0,0,0,0,0-.05,0,0,0,0,0,0,0h-.05l0,0h0l-.05,0h-.2v-.1h.28l.05,0,.05,0,.05,0,.05,0,0,0,.05,0,0,0,0,0,.05,0,0,0,0,0,0,0,0,0,0,0,0,0,0,.05,0,0,0,.05,0,0,0,.05,0,.06v.32Z"/><polygon class="cls-5" points="19.97 19.92 19.97 21.73 24.23 21.73 24.23 19.97 23.04 19.97 23.04 15.49 23.14 15.39 23.4 15.18 23.61 15.02 23.82 14.86 24.08 14.7 24.34 14.59 24.6 14.48 24.91 14.38 25.22 14.38 25.48 14.38 25.79 14.43 25.95 14.54 26.11 14.59 26.42 14.8 26.68 15.12 26.68 21.57 29.95 21.57 29.95 20.08 28.39 20.08 28.39 14.59 28.29 14.43 27.98 14.11 27.46 13.63 27.09 13.42 26.78 13.21 26.36 13.04 25.95 12.88 25.53 12.78 25.12 12.78 24.86 12.78 24.65 12.83 24.39 12.88 24.18 12.99 23.92 13.1 23.71 13.26 23.45 13.42 23.25 13.63 22.93 13.95 22.93 12.78 19.86 12.78 19.86 14.59 21.37 14.59 21.32 19.92 19.97 19.92"/><path d="M19.92,21.73V19.92H20v1.81l-.05.05,0-.05Zm0,.05h0v-.05Zm4.26,0H20v-.11h4.26l.05.06Zm.05-.05v.05h-.05Zm0-1.76v1.76h-.1V20l.05,0,.05,0Zm-.05,0h.05v0Zm-1.19,0h1.19V20H23L23,20Zm0,.1H23V20Zm.05-4.53V20H23V15.46l.09,0Zm-.1,0v0h0Zm.19-.06-.11.1L23,15.46l.1-.11h0Zm-.08-.08Zm.33-.13-.26.21-.06-.08.26-.22h0l.06.09Zm-.06-.09Zm.27-.07-.21.16-.06-.09.21-.16h0l.06.09Zm.21-.16-.21.16L23.58,15l.21-.16h0Zm-.06-.09Zm.31-.07-.26.16-.05-.09.26-.16h0Zm-.05-.09Zm.31,0-.26.11,0-.1.26-.11h0Zm.26-.11-.26.11,0-.1.26-.11h0l0,.1Zm0-.1Zm.35,0-.32.1,0-.1.31-.1h0l0,.11Zm0-.1h0Zm.33.1h-.31v-.11h.31Zm.26,0h-.26v-.11h.27v.11Zm0-.11h0Zm.31.16-.32-.05,0-.11.31.06h0Zm0-.1h0Zm.12.2-.15-.11.05-.08.16.1-.05.1Zm0,0h0Zm.16.05-.16-.05,0-.1.15,0h0Zm0-.1h0Zm.27.31-.31-.22.05-.09.32.22h0l-.07.08Zm.06-.09Zm.19.4-.26-.32.08-.07.26.32v0l-.09,0Zm.08-.07h0v0Zm-.09,6.48V15.12h.1v6.45l-.05.05-.05-.05Zm.05.05h-.05v-.05Zm3.27,0H26.68v-.11H30l.06.06Zm.06-.05v.05H30Zm0-1.49v1.49H29.9V20.08L30,20l.06.06ZM30,20H30v.06Zm-1.56,0H30v.11H28.39l-.05-.05Zm0,.11h-.05v-.05Zm.06-5.54v5.49h-.11V14.59l.1,0Zm0,0h0v0Zm-.11-.16.11.16-.09.06-.1-.16.08-.07Zm0,0h0ZM28,14.07l.32.32-.08.08-.31-.32.07-.08Zm0,0Zm-.52-.48.52.48-.07.08-.52-.48.06-.09Zm0,0h0Zm-.36-.21.36.21-.05.1-.36-.22h0Zm-.05.09Zm-.26-.3.31.21-.06.09-.31-.21.05-.1Zm0,0h0ZM26.38,13l.42.16,0,.1-.41-.15,0-.11ZM26,12.84l.41.15,0,.11-.42-.17,0-.1Zm0,0h0Zm-.42-.1.42.1,0,.11-.42-.11v-.11Zm0,0h0Zm-.41,0h.41v.11h-.41Zm-.26,0h.26v.11h-.26l0-.1Zm0,0h0Zm-.2,0,.2,0,0,.1-.21.05h0Zm0,.1Zm-.28-.05.26-.05,0,.1-.26.06,0-.1Zm0,0Zm-.21.1.21-.1,0,.09L24.2,13h0Zm0,.1Zm-.3,0,.26-.11,0,.1-.26.11-.05-.09Zm0,0h0Zm-.21.15.21-.15.06.08-.21.16h0Zm.06.09Zm-.31.07.26-.16,0,.09-.26.16-.06-.08Zm0,0Zm-.21.21.21-.21.07.07-.21.22h0Zm-.31.32.31-.32.07.08L23,14l-.09,0ZM23,14l-.09.09V14Zm0-1.21V14h-.11V12.78l.05-.06.06.06Zm-.06-.06H23v.06Zm-3.07,0h3.07v.11H19.86l-.05-.05Zm-.05.06v-.06h.05Zm0,1.81V12.78h.11v1.81l-.06.05-.05-.05Zm.05.05h-.05v-.05Zm1.51,0H19.86v-.11h1.51l.05.06Zm0-.11h.05v.06Zm-.1,5.39.05-5.33h.1l-.05,5.33-.05,0-.05,0Zm.1,0v0h-.05ZM20,19.86h1.35V20H20Z"/><polygon class="cls-5" points="32.55 14.54 32.55 19.65 32.55 19.7 32.66 19.76 32.76 19.81 32.97 19.86 33.23 19.92 33.59 19.97 34.06 19.97 34.06 21.73 33.7 21.83 33.49 21.83 33.28 21.83 33.02 21.83 32.76 21.78 32.5 21.73 32.19 21.57 31.88 21.41 31.57 21.25 31.31 20.98 31.15 20.82 31 20.66 30.73 20.23 30.58 20.02 30.48 19.76 30.48 14.54 29.23 14.54 29.23 12.72 30.68 12.72 30.68 11.13 32.45 9.26 32.45 12.72 34.11 12.72 34.11 14.54 32.55 14.54"/><path d="M32.5,19.65V14.54h.11v5.11H32.5Zm0,.05v-.05h.11v.05l-.08.05,0-.05Zm0,.05,0,0v0Zm.11.05-.11-.05,0-.09.1.05h0Zm0-.09h0l.11.05Zm.06.15-.1-.06,0-.09.11.05,0,.1Zm0,0h0Zm.21.05-.21-.05,0-.1.2,0,0,.1Zm0,0Zm.26.06L33,19.91l0-.1.26.05,0,.11Zm0,0Zm.37.05L33.22,20l0-.11.36.06V20Zm0,0Zm.47,0h-.47v-.1h.47l0,0Zm0-.1h0v0ZM34,21.73V20h.1v1.76l0,.05L34,21.73Zm.1,0v0h0Zm-.43.05.37-.11,0,.11-.37.11h0Zm0,.11Zm-.22-.11h.21v.11h-.21Zm-.21,0h.21v.11h-.21Zm-.26,0h.26v.11H33Zm0,.11Zm-.25-.16.26.05,0,.11-.26-.06h0l0-.1Zm-.26-.06.26.06,0,.1-.26,0h0l0-.1Zm0,.11h0Zm-.28-.26.32.16-.05.09-.31-.15h0l0-.1Zm-.31-.16.31.16,0,.1-.32-.17,0-.09Zm-.31-.16.31.16,0,.09-.31-.15h0l.06-.09Zm-.05.1h0Zm-.2-.36.26.27-.07.08L31.27,21h0l.07-.08Zm-.15-.16.15.16-.07.08-.16-.16h0l.08-.08ZM31,20.62l.16.16-.08.08L31,20.7h0ZM31,20.7h0Zm-.18-.49.26.42-.09.06-.26-.43.08-.06Zm0,0h0ZM30.62,20l.15.21-.08.07-.15-.22h0l.09-.05Zm-.08.06h0Zm0-.31.11.26-.1,0-.1-.26v0l.1,0Zm-.09,0h0v0Zm.1-5.24v5.22h-.11V14.54l0-.06.06.06Zm-.06-.06h.06v.06Zm-1.24,0h1.24v.11H29.23l-.06-.05Zm0,.11h-.06v-.05Zm.05-1.87v1.82h-.11V12.72l.06-.05.05.05Zm-.11,0v-.05h.06Zm1.51.06H29.23v-.11h1.45l.06.05Zm.06-.06v.06h-.06Zm0-1.59v1.59h-.11V11.13l0,0,.09,0Zm-.11,0v0l0,0ZM32.49,9.3l-1.77,1.86-.07-.07,1.76-1.86.09,0Zm-.08-.07.09-.1v.13Zm0,3.49V9.26h.1v3.46l0,.06-.05-.06Zm.05.06H32.4v-.06Zm1.66,0H32.45v-.11h1.66l.06.05Zm0-.11h.06v.05Zm0,1.87V12.72h.11v1.82l-.06.05,0-.05Zm.11,0v.05h-.06Zm-1.62-.06h1.56v.11H32.55Z"/><polygon points="3.37 34.9 3.37 31.87 3.97 31.87 3.97 34.38 5.47 34.38 5.47 34.9 3.37 34.9"/><path d="M5.9,32.39v-.54h.57v.54Zm0,2.51V32.69h.57V34.9Z"/><path d="M7,35l.65.08a.25.25,0,0,0,.08.17.41.41,0,0,0,.25.05.59.59,0,0,0,.33-.06.26.26,0,0,0,.12-.15.78.78,0,0,0,0-.27v-.32a.79.79,0,0,1-1.34,0,1.32,1.32,0,0,1-.2-.74,1.22,1.22,0,0,1,.27-.85.84.84,0,0,1,.64-.29.78.78,0,0,1,.66.36v-.31H9v2a1.78,1.78,0,0,1-.07.59.79.79,0,0,1-.17.3.83.83,0,0,1-.31.17,1.53,1.53,0,0,1-.47.06,1.2,1.2,0,0,1-.78-.19A.59.59,0,0,1,7,35.11V35Zm.51-1.29a.8.8,0,0,0,.13.51.42.42,0,0,0,.33.17.44.44,0,0,0,.35-.17.73.73,0,0,0,.15-.5.82.82,0,0,0-.14-.51A.43.43,0,0,0,8,33.09a.41.41,0,0,0-.34.16.77.77,0,0,0-.13.5Z"/><path d="M10,33.37l-.51-.1a.87.87,0,0,1,.3-.48,1.08,1.08,0,0,1,.63-.15,1.38,1.38,0,0,1,.57.09.56.56,0,0,1,.26.24,1.07,1.07,0,0,1,.08.52v.68a2.17,2.17,0,0,0,0,.43,1.5,1.5,0,0,0,.1.3H10.9a1.06,1.06,0,0,1-.05-.18l0-.06a1.1,1.1,0,0,1-.31.22,1,1,0,0,1-.35.07.74.74,0,0,1-.53-.19.6.6,0,0,1-.19-.47A.63.63,0,0,1,9.53,34a.59.59,0,0,1,.24-.23,2.74,2.74,0,0,1,.46-.13,3.46,3.46,0,0,0,.55-.14V33.4a.31.31,0,0,0-.08-.24.49.49,0,0,0-.31-.07.37.37,0,0,0-.23.06.43.43,0,0,0-.15.22Zm.77.47-.35.09a.78.78,0,0,0-.31.1.24.24,0,0,0-.11.2.31.31,0,0,0,.09.22.3.3,0,0,0,.23.09.48.48,0,0,0,.29-.11.37.37,0,0,0,.14-.19,1.65,1.65,0,0,0,0-.29v-.11Z"/><path d="M15.82,34.9H15.3v-.33a.78.78,0,0,1-.32.28.7.7,0,0,1-.36.1.78.78,0,0,1-.63-.31,1.24,1.24,0,0,1-.27-.85,1.28,1.28,0,0,1,.26-.86.84.84,0,0,1,.65-.29.77.77,0,0,1,.62.31v-1.1h.57v3ZM14.3,33.74a1,1,0,0,0,.1.52.43.43,0,0,0,.38.23.42.42,0,0,0,.34-.18.8.8,0,0,0,.14-.51.91.91,0,0,0-.14-.55.44.44,0,0,0-.68,0,.77.77,0,0,0-.14.49Z"/><path d="M21.28,33.39a2,2,0,0,1,.13-.78,1.71,1.71,0,0,1,.28-.42,1.33,1.33,0,0,1,.38-.27,1.48,1.48,0,0,1,.65-.12,1.38,1.38,0,0,1,1.05.42,1.89,1.89,0,0,1,0,2.31,1.55,1.55,0,0,1-2.11,0A1.62,1.62,0,0,1,21.28,33.39Zm.62,0a1.15,1.15,0,0,0,.23.79.76.76,0,0,0,.59.27.74.74,0,0,0,.59-.27,1.15,1.15,0,0,0,.23-.79,1.2,1.2,0,0,0-.22-.79.83.83,0,0,0-1.2,0,1.15,1.15,0,0,0-.22.78Z"/><polygon points="24.63 34.9 24.63 31.85 25.21 31.85 26.43 33.88 26.43 31.85 26.99 31.85 26.99 34.9 26.39 34.9 25.19 32.91 25.19 34.9 24.63 34.9"/><path d="M29,33.78v-.52h1.29v1.22a1.93,1.93,0,0,1-.54.33,2.1,2.1,0,0,1-.73.14,1.69,1.69,0,0,1-.82-.2,1.23,1.23,0,0,1-.52-.58,1.91,1.91,0,0,1-.17-.8,1.78,1.78,0,0,1,.19-.85A1.31,1.31,0,0,1,28.3,32,1.55,1.55,0,0,1,29,31.8a1.41,1.41,0,0,1,.87.24,1,1,0,0,1,.4.65l-.6.12a.68.68,0,0,0-.23-.36.74.74,0,0,0-.44-.12.8.8,0,0,0-.62.25,1.11,1.11,0,0,0-.23.76,1.24,1.24,0,0,0,.23.81.77.77,0,0,0,.62.28,1.24,1.24,0,0,0,.7-.26v-.39Z"/><path d="M30.71,34.27l.58-.09a.44.44,0,0,0,.14.26.51.51,0,0,0,.32.09.54.54,0,0,0,.33-.09.19.19,0,0,0,.07-.16.13.13,0,0,0,0-.1.38.38,0,0,0-.19-.08,3.42,3.42,0,0,1-.87-.28.59.59,0,0,1-.26-.5.61.61,0,0,1,.22-.48,1,1,0,0,1,.69-.2,1.17,1.17,0,0,1,.66.15.71.71,0,0,1,.29.43l-.53.11a.3.3,0,0,0-.14-.2.41.41,0,0,0-.27-.07.62.62,0,0,0-.32.06.13.13,0,0,0-.07.12.14.14,0,0,0,.06.11,2.09,2.09,0,0,0,.53.16,1.73,1.73,0,0,1,.64.26.56.56,0,0,1,.18.44.67.67,0,0,1-.25.52,1,1,0,0,1-.73.22,1.19,1.19,0,0,1-.7-.18.87.87,0,0,1-.34-.5Z"/><path d="M3.2,38.46l.57.1a1,1,0,0,1-.35.48.94.94,0,0,1-.59.17A1,1,0,0,1,2,38.83a1.29,1.29,0,0,1-.21-.76,1.24,1.24,0,0,1,.28-.86.92.92,0,0,1,.71-.31,1,1,0,0,1,.76.33,1.46,1.46,0,0,1,.27,1H2.37a.58.58,0,0,0,.14.41.42.42,0,0,0,.32.14.35.35,0,0,0,.23-.07.46.46,0,0,0,.14-.24Zm0-.6a.56.56,0,0,0-.13-.38.37.37,0,0,0-.29-.13.4.4,0,0,0-.31.14.5.5,0,0,0-.12.37Z"/><path d="M4.25,37h.52v.3a.85.85,0,0,1,.68-.35A.68.68,0,0,1,5.8,37a.63.63,0,0,1,.25.26A1.23,1.23,0,0,1,6.36,37a.73.73,0,0,1,.35-.09.82.82,0,0,1,.4.1.55.55,0,0,1,.25.29,1.27,1.27,0,0,1,.06.46v1.41H6.85V37.9a1,1,0,0,0-.06-.43.27.27,0,0,0-.25-.12.36.36,0,0,0-.22.07.4.4,0,0,0-.15.22,1.67,1.67,0,0,0,0,.46v1.06H5.55V38a1.8,1.8,0,0,0,0-.42.28.28,0,0,0-.09-.14.34.34,0,0,0-.18,0,.4.4,0,0,0-.24.07.41.41,0,0,0-.15.21,1.66,1.66,0,0,0,0,.46v1.07H4.25V37Z"/><polygon points="9.12 39.16 9.12 36.11 10.02 36.11 10.56 38.19 11.09 36.11 12 36.11 12 39.16 11.44 39.16 11.44 36.76 10.85 39.16 10.27 39.16 9.68 36.76 9.68 39.16 9.12 39.16"/><path d="M12.48,38a1.14,1.14,0,0,1,.14-.56A1,1,0,0,1,13,37a1.2,1.2,0,0,1,.57-.14,1,1,0,0,1,.8.33,1.12,1.12,0,0,1,.31.82,1.16,1.16,0,0,1-.31.83,1.06,1.06,0,0,1-.8.33,1.14,1.14,0,0,1-.56-.14.88.88,0,0,1-.41-.4,1.28,1.28,0,0,1-.14-.65Zm.59,0a.82.82,0,0,0,.14.5.51.51,0,0,0,.76,0,.78.78,0,0,0,.15-.51.75.75,0,0,0-.15-.5.51.51,0,0,0-.76,0,.84.84,0,0,0-.14.51Z"/><path d="M17,37.6l-.56.11a.4.4,0,0,0-.13-.26.39.39,0,0,0-.26-.09.42.42,0,0,0-.34.15.75.75,0,0,0-.13.5.87.87,0,0,0,.13.56.42.42,0,0,0,.35.16.37.37,0,0,0,.26-.09.56.56,0,0,0,.15-.33l.56.1a.93.93,0,0,1-1,.8,1,1,0,0,1-.76-.31,1.46,1.46,0,0,1,0-1.69,1,1,0,0,1,.77-.31,1.09,1.09,0,0,1,.63.17,1.05,1.05,0,0,1,.33.53Z"/><path d="M17.87,37.63l-.51-.1a.87.87,0,0,1,.3-.48,1.08,1.08,0,0,1,.63-.15,1.41,1.41,0,0,1,.57.09.56.56,0,0,1,.26.24,1.07,1.07,0,0,1,.08.52v.68a2.17,2.17,0,0,0,0,.43,1.5,1.5,0,0,0,.1.3h-.56A.93.93,0,0,1,18.7,39s0,0,0-.06a1.26,1.26,0,0,1-.31.22,1,1,0,0,1-.36.07.69.69,0,0,1-.52-.19.59.59,0,0,1-.19-.46.64.64,0,0,1,.09-.34.47.47,0,0,1,.24-.22,1.81,1.81,0,0,1,.46-.14,3.79,3.79,0,0,0,.55-.14v-.06a.31.31,0,0,0-.08-.24.49.49,0,0,0-.31-.07.43.43,0,0,0-.24.06.56.56,0,0,0-.14.22Zm.77.47-.35.09a1,1,0,0,0-.31.1.26.26,0,0,0-.11.21.29.29,0,0,0,.09.21.29.29,0,0,0,.22.09.48.48,0,0,0,.3-.11.33.33,0,0,0,.14-.19,1.65,1.65,0,0,0,0-.29V38.1Z"/><path d="M19.75,37h.52v.3A.85.85,0,0,1,21,36.9a.68.68,0,0,1,.35.09.63.63,0,0,1,.25.26,1.23,1.23,0,0,1,.31-.26.73.73,0,0,1,.35-.09.82.82,0,0,1,.4.1.55.55,0,0,1,.25.29,1.27,1.27,0,0,1,.06.46v1.41h-.57V37.9a1,1,0,0,0-.06-.43.27.27,0,0,0-.25-.12.38.38,0,0,0-.22.07.4.4,0,0,0-.15.22,1.67,1.67,0,0,0-.05.46v1.06h-.57V38a1.8,1.8,0,0,0,0-.42.24.24,0,0,0-.1-.14.27.27,0,0,0-.17,0,.42.42,0,0,0-.24.07.41.41,0,0,0-.15.21,1.66,1.66,0,0,0,0,.46v1.07h-.57V37Z"/><path d="M23.46,39.16v-3H24v1.1a.78.78,0,0,1,.63-.31.82.82,0,0,1,.64.29,1.26,1.26,0,0,1,.26.84,1.31,1.31,0,0,1-.26.87.81.81,0,0,1-.64.31.8.8,0,0,1-.36-.09,1.06,1.06,0,0,1-.32-.28v.32ZM24,38a1,1,0,0,0,.11.51.46.46,0,0,0,.39.23.44.44,0,0,0,.33-.16.94.94,0,0,0,.13-.53.85.85,0,0,0-.14-.54.4.4,0,0,0-.34-.17.41.41,0,0,0-.34.16A.76.76,0,0,0,24,38Z"/><path d="M26,36.65v-.54h.57v.54Zm0,2.51V37h.57v2.21Z"/><path d="M28.58,40V38.89a.63.63,0,0,1-.28.23.74.74,0,0,1-.36.09.73.73,0,0,1-.6-.29,1.28,1.28,0,0,1-.28-.89,1.25,1.25,0,0,1,.26-.83.85.85,0,0,1,.66-.3.75.75,0,0,1,.37.09,1,1,0,0,1,.28.29V37h.52v3Zm0-2a.81.81,0,0,0-.13-.5.4.4,0,0,0-.34-.17.41.41,0,0,0-.35.17,1.15,1.15,0,0,0,0,1.06.42.42,0,0,0,.67,0A.85.85,0,0,0,28.6,38Z"/><path d="M31.14,39.16v-.33a.84.84,0,0,1-.31.28.79.79,0,0,1-.4.1.71.71,0,0,1-.39-.1.54.54,0,0,1-.25-.27,1.28,1.28,0,0,1-.08-.49V37h.57v1a3,3,0,0,0,0,.57.28.28,0,0,0,.12.16.33.33,0,0,0,.21.06.42.42,0,0,0,.26-.08.39.39,0,0,0,.16-.2,2.41,2.41,0,0,0,0-.6V37h.57v2.21Z"/><path d="M33.52,38.46l.57.1a.93.93,0,0,1-.94.65,1,1,0,0,1-.83-.38,1.49,1.49,0,0,1,.06-1.62.92.92,0,0,1,.72-.31.92.92,0,0,1,.75.33,1.41,1.41,0,0,1,.27,1H32.69a.58.58,0,0,0,.14.41.44.44,0,0,0,.33.14.34.34,0,0,0,.22-.07.41.41,0,0,0,.14-.24Zm0-.6a.56.56,0,0,0-.13-.38.37.37,0,0,0-.29-.13.4.4,0,0,0-.31.14.5.5,0,0,0-.12.37Z"/><path class="cls-6" d="M17.53,34.19l.58.09a1,1,0,0,1-.35.45,1,1,0,0,1-.6.16,1,1,0,0,1-.85-.36,1.12,1.12,0,0,1-.21-.7,1.09,1.09,0,0,1,.28-.81,1,1,0,0,1,.72-.29,1,1,0,0,1,.77.3,1.29,1.29,0,0,1,.27.94H16.69a.5.5,0,0,0,.14.37.42.42,0,0,0,.33.14.35.35,0,0,0,.23-.07.38.38,0,0,0,.14-.22Zm0-.56a.51.51,0,0,0-.14-.36.41.41,0,0,0-.3-.12.43.43,0,0,0-.31.12.52.52,0,0,0-.12.36Z"/></g></g></svg>