<svg id="Layer_1" data-name="Layer 1" xmlns="http://www.w3.org/2000/svg" viewBox="0 0 48 40"><defs><style>.cls-1,.cls-2{fill:#696e6e;}.cls-1,.cls-6,.cls-7,.cls-8,.cls-9{fill-rule:evenodd;}.cls-3{fill:none;}.cls-4,.cls-5,.cls-6,.cls-7{fill:#373535;}.cls-5,.cls-6{stroke:#373535;stroke-miterlimit:2.61;stroke-width:0.24px;}.cls-8{fill:#fbc751;}.cls-9{fill:#3a3c52;}</style></defs><title>Untitled-3</title><g id="Layer_1-2" data-name="Layer_1"><g id="_105553647060896" data-name=" 105553647060896"><polygon class="cls-1" points="5.59 22.2 6.69 22.2 6.69 27.36 5.59 27.36 5.59 22.2"/><polygon class="cls-1" points="18.19 23 18.19 22.18 15.51 22.18 15.51 27.4 18.16 27.4 18.16 26.43 16.63 26.43 16.63 25.19 18.09 25.19 18.09 24.27 16.61 24.27 16.61 23 18.19 23"/><polygon class="cls-1" points="18.82 27.38 18.82 22.15 19.65 22.15 22.01 25.61 22.03 22.15 23.1 22.15 23.13 27.36 21.84 27.36 19.94 24.51 19.99 27.36 18.82 27.38"/><polygon class="cls-1" points="23.76 22.18 26.87 22.2 26.87 23.2 25.82 23.2 25.82 27.4 24.8 27.4 24.8 23.13 23.76 23.13 23.76 22.18"/><path class="cls-1" d="M30,23.44a1.29,1.29,0,1,1-1.26,1.29A1.27,1.27,0,0,1,30,23.44Zm0-1.26a2.55,2.55,0,1,1-2.53,2.55A2.52,2.52,0,0,1,30,22.18Z"/><path class="cls-1" d="M35.26,23.83l1.14,0c-.07-.94-.49-1.65-1.6-1.67a1.47,1.47,0,0,0-1.46,1.6c0,.73,1.5,1.36,1.85,2.07.12.24,0,.68-.42.61a.91.91,0,0,1-.56-.78c-.29,0-.73-.05-1-.05a1.73,1.73,0,0,0,1.46,1.8A1.54,1.54,0,0,0,36.33,26c-.07-.88-.9-1.32-1.51-1.85s-.32-1,.07-.93C35.09,23.2,35.19,23.44,35.26,23.83Z"/><path class="cls-1" d="M40.56,22.27v5.09c2,0,3.94.14,3.94-2.51C44.52,22.05,42.5,22.27,40.56,22.27Zm1.12,1.32V26c.85,0,1.68.08,1.68-1.21S42.5,23.56,41.68,23.59Z"/><path class="cls-1" d="M19.67,30.74l-.51,1.33h1Zm-2.19,3,1.78-4.93h.87l1.68,4.93h-1l-.26-.78h-1.8l-.27.78Z"/><path class="cls-2" d="M2.58,22.22a2.48,2.48,0,0,0-1,.2A3,3,0,0,0,.8,23a2.26,2.26,0,0,0-.58.87A3.63,3.63,0,0,0,0,25a2.83,2.83,0,0,0,.37,1.12,2.55,2.55,0,0,0,1,.95,2.23,2.23,0,0,0,1.38.34,2.47,2.47,0,0,0,1.39-.54A2.09,2.09,0,0,0,5,25.68H3.67a1.23,1.23,0,0,1-1.07.61,1.5,1.5,0,0,1-1-.37,1.42,1.42,0,0,1-.46-1,1.55,1.55,0,0,1,.29-1.07,1.18,1.18,0,0,1,1-.49,1.58,1.58,0,0,1,.66.12,1,1,0,0,1,.53.51H5a2.43,2.43,0,0,0-.41-.82,2.53,2.53,0,0,0-.83-.68A2.23,2.23,0,0,0,2.58,22.22Z"/><path class="cls-2" d="M30.54,28.74V33.6h1.39a2.19,2.19,0,0,0,1-.21,1.39,1.39,0,0,0,.58-.54,1.15,1.15,0,0,0,.2-.68,1.45,1.45,0,0,0-.2-.73,1.54,1.54,0,0,0-.63-.49,1.14,1.14,0,0,0,.68-1,1.06,1.06,0,0,0-.41-.85A1.66,1.66,0,0,0,32,28.74Zm.9.88h.29a.72.72,0,0,1,.51.09.42.42,0,0,1,.2.37.44.44,0,0,1-.17.44,1.61,1.61,0,0,1-.59.09h-.24Zm0,1.87H32a.85.85,0,0,1,.54.12.51.51,0,0,1,.24.44c0,.46-.27.68-.83.68h-.46Z"/><path class="cls-2" d="M36.67,32.12a2.23,2.23,0,0,1,1.94.54A1.55,1.55,0,0,1,36.67,32.12Zm2.55.12a3,3,0,0,0-2.82-.82,1.61,1.61,0,1,1,3.21-.2A1.33,1.33,0,0,1,39.22,32.24Zm-1.29-3.5c-3.21,0-3.09,4.86,0,4.94a2.57,2.57,0,0,0,1.49-.37,1.85,1.85,0,0,0,1.16.37V32.9a.92.92,0,0,1-.6-.15A2.45,2.45,0,0,0,37.93,28.74Z"/><path class="cls-2" d="M41.14,32a1.65,1.65,0,0,0,.49,1.2,1.93,1.93,0,0,0,2.26.21,1.67,1.67,0,0,0,.58-.6,1.7,1.7,0,0,0,.2-.81V28.74h-.9v3.31a.76.76,0,0,1-.22.58,1.18,1.18,0,0,1-.63.2,1,1,0,0,1-.66-.2A.91.91,0,0,1,42,32V28.74h-.9Z"/><polygon class="cls-1" points="48 23.03 48 22.2 45.06 22.2 45.06 27.43 48 27.43 48 26.53 46.3 26.53 46.3 25.26 47.93 25.26 47.93 24.32 46.27 24.32 46.27 23.03 48 23.03"/><polygon class="cls-1" points="8.63 27.33 7.32 27.33 7.32 22.3 9.02 22.3 10.48 25 10.48 22.25 11.87 22.25 14.88 27.36 13.32 27.36 11.48 24.32 11.45 27.36 10.38 27.36 8.63 24.22 8.63 27.33"/><path class="cls-1" d="M9.6,30a1.22,1.22,0,0,1,1.22,1.24A1.25,1.25,0,0,1,9.6,32.49a1.27,1.27,0,0,1-1.24-1.27A1.25,1.25,0,0,1,9.6,30Zm0-1.24a2.48,2.48,0,1,1-2.45,2.48A2.47,2.47,0,0,1,9.6,28.74Z"/><path class="cls-1" d="M15.22,33.75v.1c.8.46-.05,1-.78.73,0-.12,0-.2,0-.32.83.17.7-.1.49-.27s-.13-.07-.13-.24v0a2.52,2.52,0,0,1-.56-4.79,2.41,2.41,0,0,1,3.24,1.53H16.19a1.33,1.33,0,1,0,0,1.6h1.27A2.46,2.46,0,0,1,15.22,33.75Z"/><polygon class="cls-1" points="23.66 33.63 22.37 33.63 22.39 28.77 24.05 28.77 25.48 31.39 25.48 28.74 26.84 28.74 29.76 33.65 28.25 33.65 26.46 30.76 26.43 33.65 25.39 33.65 23.66 30.66 23.66 33.63"/><polygon class="cls-1" points="34.16 28.77 35.26 28.77 35.26 33.63 34.16 33.63 34.16 28.77"/><polygon class="cls-1" points="47.98 29.52 47.98 28.74 45.18 28.74 45.18 33.7 47.98 33.7 47.98 32.85 46.35 32.85 46.35 31.66 47.9 31.66 47.9 30.76 46.32 30.76 46.32 29.52 47.98 29.52"/><polygon class="cls-1" points="1.31 33.7 0.02 33.7 0.02 28.79 1.7 28.79 3.14 31.44 3.14 28.74 4.52 28.74 7.49 33.73 5.96 33.73 4.13 30.78 4.11 33.73 3.04 33.73 1.31 30.69 1.31 33.7"/><path class="cls-3" d="M3.14,37.81a1.28,1.28,0,0,0-1.22-1,1.34,1.34,0,0,0-1.39,1.5c0,.81.42,1.39,1.22,1.39s1.34-.22,1.36-1.14c-.48,0-.87,0-1.33,0"/><path class="cls-4" d="M2.8,37.81a.65.65,0,0,0-.25-.44,1.21,1.21,0,0,0-.65-.26H1.8a.88.88,0,0,0-.63.26,1.18,1.18,0,0,0-.32.73h0v.15a1.46,1.46,0,0,0,.27.83.82.82,0,0,0,.63.24h0a1.25,1.25,0,0,0,.78-.15.45.45,0,0,0,.19-.34H1.78v-.65H3.45l0,.34a1.37,1.37,0,0,1-.51,1.19A1.86,1.86,0,0,1,1.75,40a1.48,1.48,0,0,1-1.14-.49,2,2,0,0,1-.42-1.24v-.22a1.72,1.72,0,0,1,.52-1.16,1.73,1.73,0,0,1,1.07-.46H2a1.9,1.9,0,0,1,1,.43,1.23,1.23,0,0,1,.48.93Z"/><path class="cls-4" d="M5.11,36.57a3.94,3.94,0,0,1,1.53.1A.86.86,0,0,1,7,37a1.21,1.21,0,0,1,.14.58,1,1,0,0,1-.17.59,1,1,0,0,1-.48.34l.82,1.31H6.61l-.77-1.24H5.76l0,1.24H5.13ZM5.76,38l.22,0c.27,0,.54,0,.54-.34a.33.33,0,0,0-.2-.31,1.34,1.34,0,0,0-.56-.05Z"/><path class="cls-4" d="M9.24,36.57H10v1.56a1.75,1.75,0,0,0,.08.61.38.38,0,0,0,.17.26.45.45,0,0,0,.31.12.7.7,0,0,0,.32-.09.86.86,0,0,0,.19-.29,2.41,2.41,0,0,0,0-.59V36.57h.73v1.36a3.12,3.12,0,0,1-.12,1.15,1.24,1.24,0,0,1-.44.58,1.14,1.14,0,0,1-.73.19,1.4,1.4,0,0,1-.8-.21A1.33,1.33,0,0,1,9.34,39a4.69,4.69,0,0,1-.1-1.07Z"/><path class="cls-5" d="M14.44,38.61h0v1.24h-.65V36.57a4,4,0,0,1,1.5.12.62.62,0,0,1,.39.34,1,1,0,0,1,.15.56C15.83,38.37,15.12,38.66,14.44,38.61Zm0-.65h.22c.27,0,.53,0,.53-.37a.3.3,0,0,0-.19-.31,2.05,2.05,0,0,0-.56-.05Z"/><path class="cls-6" d="M18.94,37.18a1,1,0,1,1-1,1A1,1,0,0,1,18.94,37.18Zm0-.63a1.63,1.63,0,0,1,0,3.26,1.63,1.63,0,0,1,0-3.26Z"/><path class="cls-5" d="M26.72,36.6a1.22,1.22,0,0,0-.6.12,1.38,1.38,0,0,0-.52.34,1.18,1.18,0,0,0-.36.56,2.37,2.37,0,0,0-.12.73,1.33,1.33,0,0,0,.22.7,1.78,1.78,0,0,0,.61.61,1.61,1.61,0,0,0,.87.22,1.8,1.8,0,0,0,.88-.34,1.43,1.43,0,0,0,.53-.78H27.4a.73.73,0,0,1-.65.39,1.11,1.11,0,0,1-.61-.24.85.85,0,0,1-.29-.61,1,1,0,0,1,.19-.68.7.7,0,0,1,.61-.29,1.16,1.16,0,0,1,.44.07.55.55,0,0,1,.31.31h.83A1.27,1.27,0,0,0,28,37.2a1.08,1.08,0,0,0-.51-.43A1.38,1.38,0,0,0,26.72,36.6Z"/><polygon class="cls-6" points="29.62 36.57 30.3 36.57 30.3 39.83 29.62 39.83 29.62 36.57"/><polygon class="cls-7" points="32.51 39.76 31.68 39.76 31.68 36.6 32.75 36.6 33.7 38.3 33.7 36.57 34.58 36.57 36.5 39.76 35.5 39.76 34.33 37.88 34.31 39.78 33.63 39.78 32.51 37.81 32.51 39.76"/><path class="cls-5" d="M38.52,38.61h0l0,1.24h-.68V36.57a4.15,4.15,0,0,1,1.53.12.74.74,0,0,1,.39.34,1,1,0,0,1,.15.56C39.93,38.37,39.22,38.66,38.52,38.61Zm0-.65h.22c.26,0,.53,0,.53-.37a.32.32,0,0,0-.19-.31,2.12,2.12,0,0,0-.56-.05Z"/><path class="cls-6" d="M42.89,37.18a1,1,0,1,1-1,1A1,1,0,0,1,42.89,37.18Zm0-.63a1.63,1.63,0,1,1-1.6,1.63A1.61,1.61,0,0,1,42.89,36.55Z"/><path class="cls-4" d="M45.88,36.57a3.83,3.83,0,0,1,1.51.1.86.86,0,0,1,.39.34,1.11,1.11,0,0,1,.15.58,1.15,1.15,0,0,1-.15.59,1.2,1.2,0,0,1-.51.34l.83,1.31h-.71l-.8-1.24h-.05v1.24h-.66ZM46.52,38l.22,0c.26,0,.53,0,.53-.34a.3.3,0,0,0-.19-.31,1.34,1.34,0,0,0-.56-.05Z"/><polygon class="cls-8" points="0 35.21 48.1 35.21 48.1 35.89 0 35.89 0 35.21"/><path class="cls-9" d="M14.08,5.86,10.14,0C3.82.58.19,3.94-.1,10.63c.2,5.59,3.31,9.89,9.1,9.89H20.72V9.05L28.6,20.47h5.13V8.8l7.9,11.75H48L34.92.1H28.77V10.82L21.76.1H15.34V14.71H9C5.54,14.44,3.79,7.32,9,6Z"/></g></g></svg>