<svg id="Layer_1" data-name="Layer 1" xmlns="http://www.w3.org/2000/svg" viewBox="0 0 46 40"><defs><style>.cls-1{fill:none;stroke:#317f50;stroke-miterlimit:2.61;stroke-width:1.05px;}</style></defs><title>Untitled-3</title><g id="Layer_1-2" data-name="Layer_1"><g id="_105553648677248" data-name=" 105553648677248"><polygon class="cls-1" points="27.32 9.81 27.32 12.81 29.12 14.24 32.87 14.24 42.43 6.32 42.43 9.88 32.99 17.96 29.69 17.96 22.7 12.03 15.63 18.01 12.24 18.01 3.3 10.41 3.3 6.97 11.94 14.22 14.72 14.22 14.72 13.37 9.26 8.7 9.26 6.57 11.28 6.57 17.2 11.68 18.06 11.68 18.06 9.41 9.12 1.81 9.12 1.07 12.65 1.07 22.25 9.28 23.32 9.28 32.85 1.07 36.76 1.07 36.76 1.81 27.32 9.81"/><polygon class="cls-1" points="44.73 28.8 35.08 20.62 30.67 20.62 24.57 25.84 24.57 37.61 34.65 29.1 44.66 37.47 44.73 28.8"/><polygon class="cls-1" points="15.17 20.71 21.18 25.77 21.36 38.28 11.33 29.5 1.27 37.81 1.27 28.76 10.87 20.69 15.17 20.71"/></g></g></svg>