<svg id="Layer_1" data-name="Layer 1" xmlns="http://www.w3.org/2000/svg" viewBox="0 0 47 42"><defs><style>.cls-1{fill:none;}.cls-1,.cls-4{stroke:#fff;stroke-width:0.22px;}.cls-1,.cls-2,.cls-3,.cls-4,.cls-5,.cls-6{stroke-miterlimit:2.61;}.cls-2,.cls-3,.cls-4,.cls-5{fill:#91d9f8;}.cls-2{stroke:#373535;}.cls-2,.cls-3,.cls-5,.cls-6{stroke-width:0.5px;}.cls-2,.cls-3,.cls-4{fill-rule:evenodd;}.cls-3,.cls-5,.cls-6{stroke:#91d9f8;}.cls-6{fill:#fff;}</style></defs><title>Untitled-3</title><g id="Layer_1-2" data-name="Layer_1"><g id="_105553648479136" data-name=" 105553648479136"><path class="cls-1" d="M9.36,16.26A.4.4,0,0,0,10,16a.55.55,0,0,1,.32-.41c.46-.17.82.48.76.8-.15.64.28,3-.58,3.66a.78.78,0,0,1-.67.07c-.09-.11-.07-.22-.22-.61-.34-.86-.53-1.46-1-2.35S9,16.06,9.36,16.26Z"/><path class="cls-2" d="M14.11,11.45s-.95.37-.92.74a5.09,5.09,0,0,0,.53,1.2s.33.48,1-.15c.55-.45,1.37-1.85.06-1.85C14.58,11.39,14.11,11.45,14.11,11.45Z"/><polygon class="cls-3" points="26.32 32.41 26.39 35.58 28.56 36.31 28.26 38.79 26.39 38.27 26.32 40.6 23.77 40 23.91 37.46 20.71 36.47 20.86 33.77 23.91 34.83 23.7 32.05 26.34 32.01 26.32 32.41"/><path class="cls-4" d="M7.3,17.29l1,3a1.9,1.9,0,0,0,2.24,1.34c1-.46,1.46-2.12,1.55-3.84a4.52,4.52,0,0,0-.9-3.45c-.31-.32-1-.21-1.94-.19-.45,0-1,0-1.16,0a.4.4,0,0,0-.39.3C5.83,17,6.48,15.91,7.3,17.29Zm2.06-1A.4.4,0,0,0,10,16a.55.55,0,0,1,.32-.41c.46-.17.82.48.76.8-.15.64.28,3-.58,3.66a.78.78,0,0,1-.67.07c-.09-.11-.07-.22-.22-.61-.34-.86-.53-1.46-1-2.35S9,16.06,9.36,16.26Z"/><polygon class="cls-3" points="35.59 6.93 37.31 8.74 40.53 1.46 33.05 3.42 34.69 5.29 32.24 7.6 33.66 8.95 35.59 6.93"/><ellipse class="cls-5" cx="24.37" cy="18.56" rx="13.03" ry="13.87"/><ellipse class="cls-6" cx="24.56" cy="17.87" rx="10.97" ry="11.46"/><path class="cls-4" d="M1.21,21.36C1,21.21.93,20.8,1,20.42c.1-.67.25-1.4.92-1.34A2.3,2.3,0,0,0,3.27,19a4,4,0,0,0,1.1-1.29.7.7,0,0,1,.45-.28c.17,0,.35,0,.48.39.19.52.9,1.61.49,2.05s-.52-.31-.82-.65c-.43-.5-1.27.32-1.65,1.12-.2.39.08.58.38,1,.18.24.33.65.54,1,.52.76.73-.64,2-1.4.09,0,.39,0,.47.17.48,1.36-2,1.94-1.54,3.43a5.62,5.62,0,0,1,.36,2.11c-.15.34-.71-.8-1.35-2A10.23,10.23,0,0,0,1.21,21.36Z"/><path class="cls-4" d="M8.76,13.11c0,.37.21.5.3.5s.15-.3.3-.76c.26-.75.58-1.85.3-2-.11-.06-.19,0-.32.07a1,1,0,0,0-.52.54A4.32,4.32,0,0,0,8.76,13.11Z"/><path class="cls-4" d="M18.28,7.51a8.05,8.05,0,0,0,.13,3.68c.37,2,1.29,3.06,2.47,3,1.9-.15,1.92-2.31,1.87-4.38,0-1.22.13-2.43.09-3.19-.06-1-.8-1.12-1-.94-.45.34-.37,2-.43,2.6l0,3.49c0,1.38-.67,1.3-1.12.76a2.74,2.74,0,0,1-.45-1.17c-.22-1.31-.11-3.14-.22-3.9S18.54,6.46,18.28,7.51Z"/><path class="cls-4" d="M24.11,9.75a18.92,18.92,0,0,1,.11-3.38C25,1,26.84,5.79,27.14,5.29l1.53-2.63c.34-.58,1.78.69,2.23,2.7A8.62,8.62,0,0,1,30.75,9c-.38,1.81-1.2,1.75-1-3.25,0-1.33-1.22-1.87-1.72-.17-.13.43,0,1.21-.13,1.94-.15,1.18,0,2.35-.15,2.76-.62,1.44-1.07-1.06-1.11-2.22a7.84,7.84,0,0,0-.52-2c-.11-.66-1-.56-1-.19l0,1.27-.07,2.78C25.05,12.68,24.13,11.88,24.11,9.75Z"/><path class="cls-4" d="M15.12,30.43c-.58-2.52-1.33-5.81.19-5,.69.38,1.25,1.44,1.55,1.55.13,0,.24-.26.22-.58,0-.82,0-1.79,0-2.63,0-.3.3-.54.49-.78a4.59,4.59,0,0,1,.8-.84c.13-.11.21-.26.38-.21.61.08.76,1.07,1.21,2.5A14.7,14.7,0,0,1,21,29l-.38.21c-.35-.64-1.77-3.77-2.33-3.9s-.77,1.14-.71,2.85c0,.49,1.14,2.19.67,2.62-.17.13-.86-1-2.28-2.73-.28-.32-.62-.3-.67-.13a6.31,6.31,0,0,0,.11,1.42C15.64,31.45,16,34.35,15.12,30.43Z"/><path class="cls-4" d="M21.61,25c1.45,2.8,3.12,2.44,3.85.84.43-.9.24-2.3.3-3.57.09-1.79-.19-3.84-1.16-3.75a.59.59,0,0,0-.47.58l.09,5.49c.1,1.51-.39,1.56-.8,1a11.15,11.15,0,0,1-1.14-3.29c-.08-.52-.26-1-.36-1.45-.2-.75-.35-1.2-.8-.73a2,2,0,0,0-.58,1.14C20.37,22.16,21.16,23.65,21.61,25Z"/><path class="cls-4" d="M26.71,15.68c0,1.16,0,2.58,0,3.94,0,.43,0,.88.08,1.29,0,.07-.15,0-.23.09a.35.35,0,0,0,.15.54c.08,0,.3,0,.32.08,0,.8.8,2.72,1.38,2.09l2.38-2.61c.41-.43.13-.75,0-.79s-2.15,2-2.21,1.14c-.17-2.31-.2-4.46-.2-5.77,0-.61.15-1-.17-1.17-.13,0-.41.5-.79.84S26.71,15.57,26.71,15.68Z"/><path class="cls-4" d="M30.28,17.36c.09.43.41.64.64,1a3.61,3.61,0,0,1,.56,1.18c.65,1.06,1.12.09.95-.08-.37-.37-.69-.59-.69-.95a1.18,1.18,0,0,1,1.74-.95c.33.15.35,1.19.82,1.68s.71.26.6-.65a13.76,13.76,0,0,1,0-1.61c0-1.16.11-2.54.17-3.25a11.87,11.87,0,0,0,.24-2.14l-1-.15-.76,2.69a10.66,10.66,0,0,1-.58,2.37.73.73,0,0,1-1.22.2c-.75-.67.17-3.08-.69-3.43C30.52,13.07,30,16.17,30.28,17.36Z"/><path class="cls-4" d="M39.18,11.3c-1.31.89-1.25,1.36-.9,2.85.81-.22,1.35-.48,1.65-.52s.43.26.2.62c-.39.56-1.55,1.06-1.85,1.62s0,1.31.56,1.14,1.16-1.25,1.39-1.14c.54.19-.17,1-1,1.62-2.76,2-2.54-1.3-2.52-2.91a7.75,7.75,0,0,1,0-2C37.59,9.28,42.38,9.17,39.18,11.3Z"/><path class="cls-4" d="M41.14,9.71l.45.56c.06.62,0,3.94.47,5.45.24.69.78,1,1,.49a10.23,10.23,0,0,0,0-1.59h.75c.76.47,2.13,2.2,2.13.67l.41-.45.52-.09L44,12.6c5.2-1.69,2.54-4.81-1.59-3.95a1.85,1.85,0,0,1-.58.5,2.05,2.05,0,0,1-.71.13C40.84,9.28,41.14,9.71,41.14,9.71Zm1.93.58c-.17,1.16.2,2.22.65,1.87L45.14,11c.43-.43.58-.84.34-1a2.44,2.44,0,0,0-2.09-.13A.59.59,0,0,0,43.07,10.29Z"/><path class="cls-1" d="M43.07,10.29c-.17,1.16.2,2.22.65,1.87L45.14,11c.43-.43.58-.84.34-1a2.44,2.44,0,0,0-2.09-.13A.59.59,0,0,0,43.07,10.29Z"/><path class="cls-4" d="M14.61,18.07c-.48-.2-.59-1.1-.82-1.55-.56-1.12-1-2.24-1.36-3s-.79-1-.71-1.53c.13-.77,1.23-1,2.28-1.22a4.56,4.56,0,0,1,2.58-.07c2.07,1.12-3.09,3-1.54,3.86.51.3,1,.1,1.5.08s.77-.06,1.16-.08.45-.07.63.06-.44,1-.63,1.23a.8.8,0,0,1-.84.39,6,6,0,0,1-1.65-.11C13.92,15.57,15.77,18.54,14.61,18.07Zm-.5-6.62s-.95.37-.92.74a5.09,5.09,0,0,0,.53,1.2s.33.48,1-.15c.55-.45,1.37-1.85.06-1.85C14.58,11.39,14.11,11.45,14.11,11.45Z"/></g></g></svg>