<svg id="Layer_1" data-name="Layer 1" xmlns="http://www.w3.org/2000/svg" viewBox="0 0 40 41"><defs><style>.cls-1{fill:#373535;}.cls-1,.cls-10,.cls-2,.cls-3,.cls-4,.cls-5,.cls-6,.cls-7,.cls-8,.cls-9{fill-rule:evenodd;}.cls-2{fill:#fff215;}.cls-3{fill:#70d0f6;}.cls-4{fill:#1561ac;}.cls-5{fill:#ee3338;}.cls-6{fill:#c96f4e;}.cls-7{fill:#fff;}.cls-8{fill:#c23033;}.cls-9{fill:#2bb455;}.cls-10{fill:#b72e31;}</style></defs><title>Untitled-3</title><g id="Layer_1-2" data-name="Layer_1"><path class="cls-1" d="M30.83,8V7.93a.25.25,0,0,0-.08-.17.2.2,0,0,1-.12.15h0l.2.11V8Zm-.9.82a4.89,4.89,0,0,1,.48.2h0V9h0V8.93h0l-.25-.15h0a.43.43,0,0,1-.2.06h0l0,0ZM20,39.61s-5.73,2.37-6.69.87c0,0-1.18-.22-1.1-.76,0,0-.84-.14-.78-.76,0,0-.71-.26-.54-.63h0l-6-7.89h0a2.92,2.92,0,0,1-.62-.54C4.15,29.7.89,23.67.89,23.67a2.6,2.6,0,0,1,0-1C1,22.23.78,15.32.78,15.32a2.07,2.07,0,0,0,0-1.16c-.2-.48.34-1,.65-1.39a10.11,10.11,0,0,0,1.49-2.26A2.85,2.85,0,0,1,4.57,9C5,8.73,6.51,7.62,6.51,7.62a1.15,1.15,0,0,1,.62-.85C7.72,6.46,8,5.39,8,5.39a3.33,3.33,0,0,1,2.39-1.53s3.1-1.3,3.46-1.53-3.79,3.23-3.79,3.23h0l-.28.51L12,5.25l-1.6,1.61h0s2.95-2,3.68-2.29h0v.36h0S9.49,7.26,8.37,8.67h0l.06.45L8.65,9h0A26.57,26.57,0,0,1,14.1,5.42h0l.15.28h0a20.32,20.32,0,0,0-4.9,3.11h0l.76,0h0A20.31,20.31,0,0,1,14.36,6h0v.26h0S12.42,7.42,11.18,8.3c0,0,1.66-.25,2.25-.25,0,0-3.68,1.55-5.17,3.73h0L8,13.14l22.89-.9h0a3.28,3.28,0,0,1-.12-1.31,12.53,12.53,0,0,0-3.45-2.49,7.8,7.8,0,0,1,2.36.32c-.09-.06-.17-.17-.14-.26h0l-.23-.14h0a.34.34,0,0,1-.28.06.36.36,0,0,1-.39-.32V8h0l-.2-.09h0a.54.54,0,0,1-.25.06c-.23,0-.42-.17-.4-.34h0v0l-.19-.08h0a.68.68,0,0,1-.34.11c-.25,0-.42-.17-.42-.34s0-.08,0-.11h0l-.23-.11h0a.37.37,0,0,1-.31.11c-.2,0-.34-.11-.34-.28a.23.23,0,0,1,0-.12h0l-.17,0h0s-.11.08-.19.08a.25.25,0,0,1-.28-.23s0,0,0,0h0l-.31-.14,0-.09h0c.12.06.26.09.37.14a.32.32,0,0,1,.17,0,.23.23,0,0,1,.25.2h0l.22.09h0a.56.56,0,0,1,.23-.06.32.32,0,0,1,.34.28h0l.28.15h0A.43.43,0,0,1,27.32,7a.36.36,0,0,1,.39.34v.08h0l.17.09h0a.45.45,0,0,1,.37-.17c.22,0,.42.17.42.34a.24.24,0,0,1-.09.17h0l.17.06h0a.41.41,0,0,1,.34-.12c.25,0,.42.14.42.34a.25.25,0,0,1-.06.14h0l.14.09h0a.5.5,0,0,1,.4-.17.39.39,0,0,1,.42.34.4.4,0,0,1-.11.2h0l.17.08.05-.51h0a.42.42,0,0,0,.26-.11V8.08h0L30.58,8h0a.82.82,0,0,1-.25.06c-.23,0-.43-.17-.4-.34h0v0l-.22-.11h0a.54.54,0,0,1-.28.08c-.23,0-.4-.17-.4-.34v0h0l-.19-.12h0a.42.42,0,0,1-.26.06c-.22,0-.42-.14-.39-.34h0L28,6.72h0a.42.42,0,0,1-.31.11c-.25,0-.42-.17-.42-.34a.08.08,0,0,1,0-.08h0L27,6.29h0a.41.41,0,0,1-.28.09.3.3,0,0,1-.34-.29.1.1,0,0,1,0-.08h0l-.17-.09h0A.27.27,0,0,1,26,6a.23.23,0,0,1-.25-.2s0,0,0-.08h0l-.25-.12V5.47h0c.11.06.22.09.36.17a.21.21,0,0,1,.14,0,.24.24,0,0,1,.26.2h0l.22.09h0a.52.52,0,0,1,.23-.06c.19,0,.33.14.33.28v.06h0l.26.11h0a.44.44,0,0,1,.33-.11.38.38,0,0,1,.4.34.15.15,0,0,1,0,.11h0l.17.09h0a.42.42,0,0,1,.39-.2c.23,0,.42.17.42.34a.49.49,0,0,1-.11.2h0l.14.08h0A.48.48,0,0,1,29.45,7a.39.39,0,0,1,.43.34c0,.06-.06.11-.09.17h0l.14.09h0a.5.5,0,0,1,.42-.2.22.22,0,0,1,.14,0h0l-.73-.57h0a.37.37,0,0,1-.39-.28h0l-.25-.17h0a.42.42,0,0,1-.2,0c-.22,0-.42-.15-.39-.34V6h0l-.17-.08h0a.48.48,0,0,1-.37.17c-.25,0-.42-.17-.42-.34a.18.18,0,0,1,.06-.14h0l-.23-.12h0a.39.39,0,0,1-.34.14.29.29,0,0,1-.33-.28s0-.08,0-.11h0l-.15-.06h0a.32.32,0,0,1-.25.09A.25.25,0,0,1,26.11,5a0,0,0,0,1,0,0l-.48-.17h0l0-.08h0s.17,0,.47.17a.56.56,0,0,1,.23-.06c.14,0,.25.08.25.2v0h0l.17.06h0a.46.46,0,0,1,.28-.08.32.32,0,0,1,.34.28v.06h0l.25.08h0a.44.44,0,0,1,.17-.06h0l-.08-.05.17,0H28a.56.56,0,0,1,.23,0h0l1.93.43h0a2.91,2.91,0,0,0-.89-.85h0L25.52,2.22l5.23,2.43h0s1,0,2,2.63h0l2.5,1.31h0s1.4,1.58,1.74,1.84a9.73,9.73,0,0,1,1.15,1.67h0l.51.48h0s.36.05.31.93,0,1.59,0,1.59a2.64,2.64,0,0,1,0,1,2.07,2.07,0,0,1,.22,1.25c-.11.65-.19,5.38-.19,5.38a9.11,9.11,0,0,1-1.41,2.91h0l-1.66,3.79h0a1.88,1.88,0,0,1-1,.71c-.51.06-1.18.85-1.18.85a1.78,1.78,0,0,1-1.55.34s-1.35.42-1.57-.65a.61.61,0,0,1-.76-.74s0-.59.17-.73h0l2.27-3.85.57-1.28L34,19.88h0A.81.81,0,0,1,34,19s-.48,0-.28-.93c0,0-.51-.14-.28-.85a.55.55,0,0,1-.11-.71.53.53,0,0,1-.23-.73s-.42-.23-.2-.57c0,0-.42-.14-.28-.88,0,0-.14.12-.45-.42,0,0-.42-.23-.39-.54S8,13.62,8,13.62H8L8,16.28,6.51,20.53l1,4L8,25.74l1.55,3.42,1.32,1.53,18.44.91.09,6.65h0a.67.67,0,0,1-.65.42s.2.54-.73.88c0,0-.11.59-1.07.79,0,0-.14.65-2.19.51,0,0-3.07-.17-4.36-1.3h0l-.45.06Z"/><path class="cls-1" d="M30.72,7.76c0,.06,0,.09-.09.15h0l0,0,.22.12,0-.06V7.93h0l-.08-.19h0l0,0,0,0Zm0,0a.22.22,0,0,1,.05.14V8s-.11-.06-.14-.08.09-.06.09-.12Z"/><path class="cls-1" d="M30.16,8.78a.42.42,0,0,1-.2,0h0v0l.51.2V9h0V8.93h0l0,0-.25-.12Zm0,0s.19.12.22.12V9h0A2.26,2.26,0,0,0,30,8.84a.21.21,0,0,0,.14,0Z"/><path class="cls-1" d="M25.49,2.25l3.77,2.83h0a2.42,2.42,0,0,1,.87.79c-.11,0-1.88-.4-1.88-.4A.38.38,0,0,0,28,5.39h-.08l-.17,0h0l0,0h0s.06,0,.06.05a.23.23,0,0,0-.12.06s-.19-.08-.22-.11v0h0c0-.17-.17-.28-.37-.31a.54.54,0,0,0-.28.08.72.72,0,0,0-.14,0v0h0a.18.18,0,0,0-.06-.14.29.29,0,0,0-.22-.09.33.33,0,0,0-.23.09,4.73,4.73,0,0,0-.5-.2h0v0l0,.08h0s.45.17.48.17a0,0,0,0,1,0,0v0a.29.29,0,0,0,.08.14.44.44,0,0,0,.2.08.32.32,0,0,0,.25-.08.51.51,0,0,1,.15.06s-.06,0-.06.08v0a.27.27,0,0,0,.08.17.42.42,0,0,0,.28.11.43.43,0,0,0,.34-.14s.17.09.2.09,0,.08-.06.14h0a.36.36,0,0,0,.11.22.6.6,0,0,0,.34.12.46.46,0,0,0,.37-.15s.14.06.14.09v.08a.32.32,0,0,0,.08.2.46.46,0,0,0,.34.14l.2,0a2.11,2.11,0,0,1,.22.17.42.42,0,0,0,.42.28h0l.65.51a.09.09,0,0,0-.06,0,.53.53,0,0,0-.42.2s-.08-.06-.11-.06a.39.39,0,0,0,.06-.17v0a.28.28,0,0,0-.09-.19.45.45,0,0,0-.34-.15.48.48,0,0,0-.39.17A.38.38,0,0,0,29,7.06a.3.3,0,0,0,.08-.2h0a.4.4,0,0,0-.42-.34.46.46,0,0,0-.39.17s-.12-.06-.14-.06a.75.75,0,0,1,0-.11h0c0-.2-.19-.34-.42-.37a.62.62,0,0,0-.33.11.8.8,0,0,1-.23-.11v0h0A.23.23,0,0,0,27,6a.34.34,0,0,0-.28-.11.22.22,0,0,0-.23.06s-.2-.09-.2-.12a.27.27,0,0,0-.28-.19l-.14,0-.39-.17h0v.17h0a2,2,0,0,0,.25.12.22.22,0,0,1,0,.08h0c0,.06,0,.09.09.14A.23.23,0,0,0,26,6,.32.32,0,0,0,26.25,6s.11.06.14.06a.22.22,0,0,1,0,.08v0a.36.36,0,0,0,.37.29A.56.56,0,0,0,27,6.32l.19.09a.45.45,0,0,1,0,.08h0a.34.34,0,0,0,.11.23.44.44,0,0,0,.33.11A.41.41,0,0,0,28,6.75a.66.66,0,0,1,.2.11.3.3,0,0,0,.09.2.46.46,0,0,0,.33.14.82.82,0,0,0,.26-.06,1.14,1.14,0,0,0,.16.09v0h0a.39.39,0,0,0,.43.34,1.16,1.16,0,0,0,.28,0s.17.08.19.08v0h0a.33.33,0,0,0,.09.23.45.45,0,0,0,.34.11.37.37,0,0,0,.25,0,1.29,1.29,0,0,0,.2.09s0,.11,0,.11a.39.39,0,0,1-.23.08h0s0,.46,0,.51a.44.44,0,0,1-.11-.08.21.21,0,0,0,.08-.17v0A.39.39,0,0,0,30,8.16a.5.5,0,0,0-.4.17l-.11-.06s0-.11.06-.14v0a.38.38,0,0,0-.11-.19.46.46,0,0,0-.68,0s-.11-.06-.14-.09a.2.2,0,0,0,.06-.14h0a.37.37,0,0,0-.09-.23.62.62,0,0,0-.33-.11.36.36,0,0,0-.37.14,1.3,1.3,0,0,0-.17-.08.09.09,0,0,0,0-.06v0a.32.32,0,0,0-.09-.2A.52.52,0,0,0,27.32,7a.48.48,0,0,0-.31.09s-.23-.12-.25-.12c0-.17-.17-.28-.37-.31a.56.56,0,0,0-.23.06L26,6.63a.25.25,0,0,0-.28-.22.47.47,0,0,0-.17,0l-.37-.14h0l-.08.12h0s.31.14.34.14a.07.07,0,0,1,0,0v0a.17.17,0,0,0,.08.12.55.55,0,0,0,.2.11.25.25,0,0,0,.22-.09s.12.06.14.06a.41.41,0,0,1,0,.09v0a.34.34,0,0,0,.36.29.41.41,0,0,0,.31-.12s.17.09.2.09a.53.53,0,0,1,0,.11h0c0,.09.06.14.11.23a.68.68,0,0,0,.34.11.77.77,0,0,0,.34-.08l.17,0v.06a.29.29,0,0,0,.08.2.48.48,0,0,0,.34.14A.76.76,0,0,0,28.47,8s.17.06.17.09v0h0a.26.26,0,0,0,.08.2.51.51,0,0,0,.34.14.78.78,0,0,0,.28,0,1.2,1.2,0,0,0,.2.11.22.22,0,0,0,.11.2,9.22,9.22,0,0,0-2.3-.28h0l-.09,0,.06,0h0A11.43,11.43,0,0,1,30.78,11a1.34,1.34,0,0,0,0,.34,3.38,3.38,0,0,0,.14.94l-22.83.87s.23-1.33.23-1.33c1.46-2.15,5.11-3.7,5.14-3.7h0V8h0c-.51,0-1.83.2-2.16.25,1.2-.85,3.06-2,3.09-2h0V6l0,0h0a20.65,20.65,0,0,0-4.22,2.78l-.7,0a19.61,19.61,0,0,1,4.84-3h0l0,0-.14-.31h0A27.35,27.35,0,0,0,8.62,9h0a.66.66,0,0,1-.19.11c0-.05,0-.42,0-.42C9.49,7.28,14.08,5,14.13,5h0V4.54l0,0h0c-.61.25-2.86,1.72-3.51,2.15L12,5.25h0v0h0L9.83,6l.23-.45c3.15-2.61,3.71-3.09,3.82-3.2h0v0h0s0,0-.06,0c-.33.2-3.4,1.5-3.43,1.5A3.41,3.41,0,0,0,8,5.36s-.28,1.1-.85,1.41a1.31,1.31,0,0,0-.64.82C6.43,7.65,5,8.73,4.57,9h0l-.28.14h0a2.6,2.6,0,0,0-1.4,1.39,11.43,11.43,0,0,1-1.35,2.12h0l-.11.14-.17.2h0a1.79,1.79,0,0,0-.54,1,.46.46,0,0,0,0,.2,1,1,0,0,1,.09.51,3,3,0,0,1-.09.65c0,.06.17,4.45.17,6.43a4.44,4.44,0,0,1-.06.93,4.1,4.1,0,0,0,0,.48c0,.28,0,.51,0,.51s3.27,6.06,3.35,6.23a2.92,2.92,0,0,0,.62.54s5.9,7.75,6,7.92a.15.15,0,0,0,0,.09.18.18,0,0,0,0,.11,1.19,1.19,0,0,0,.54.42v0c0,.54.67.71.79.74v0c0,.51,1,.7,1.12.7,1,1.5,6.44-.73,6.69-.85l.45-.08c1.27,1.16,4.33,1.3,4.36,1.3,1.94.14,2.19-.42,2.22-.51.87-.17,1-.73,1-.79.67-.23.76-.57.76-.76V38.7a.75.75,0,0,0,.64-.45h0c0-.12-.08-6.65-.08-6.65h0v0h0L10.9,30.66s-1.29-1.5-1.29-1.5L8.06,25.71h0l-.48-1.22-1-4h0L8,16.31s0-2.46.08-2.66c8.07-.22,23.39-.56,23.67-.31,0,.31.39.54.39.54.2.34.34.42.43.45h0c0,.11,0,.2,0,.28a.59.59,0,0,0,.31.57.51.51,0,0,0-.06.2v.08a.53.53,0,0,0,.25.29A1,1,0,0,0,33,16a.47.47,0,0,0,.28.45.65.65,0,0,0-.06.31.57.57,0,0,0,.2.43.61.61,0,0,0-.09.31.45.45,0,0,0,.09.28.4.4,0,0,0,.25.23,2.43,2.43,0,0,0-.06.4.76.76,0,0,0,.15.45A.41.41,0,0,0,34,19a1,1,0,0,0-.11.46.65.65,0,0,0,.14.45s-1.15,4.24-1.15,4.24h0l-.54,1.28L30,29.22h0c-.14.14-.14.76-.14.76a.61.61,0,0,0,.17.65.78.78,0,0,0,.56.12.79.79,0,0,0,.45.59,1.75,1.75,0,0,0,1.15.06,1.86,1.86,0,0,0,1.58-.34s.64-.79,1.15-.88a1.88,1.88,0,0,0,1-.68l1.66-3.79A9.27,9.27,0,0,0,39,22.77c0-.06.08-4.76.19-5.38,0-.12,0-.2,0-.29a2.47,2.47,0,0,0-.25-1,1.52,1.52,0,0,0,.08-.51,3.92,3.92,0,0,0,0-.53s0-.32,0-.8c0-.22,0-.51,0-.79v-.14c0-.74-.31-.82-.34-.82h0l-.48-.45A8.19,8.19,0,0,0,37,10.43c-.34-.26-1.71-1.84-1.74-1.84L32.74,7.28c-.92-2.57-1.94-2.66-2-2.66l-5.23-2.4h0l0,0ZM30.18,5.9a2.29,2.29,0,0,0-.89-.85s-2.9-2.18-3.6-2.72c.33.17,5.06,2.35,5.06,2.35s1,.06,2,2.63l2.47,1.3c.06.06,1.4,1.59,1.74,1.84a10.72,10.72,0,0,1,1.18,1.65s.51.48.51.48.31.08.31.79c0,.06,0,.08,0,.14V15.1a3,3,0,0,1,.06.53,1.29,1.29,0,0,1-.09.51h0v0h0a2.08,2.08,0,0,1,.25.93,1.57,1.57,0,0,1,0,.29c-.12.62-.2,5.32-.2,5.38a8.92,8.92,0,0,1-1.41,2.91l-1.63,3.79s-.47.63-1,.68-1.15.85-1.18.88a1.81,1.81,0,0,1-1.52.31,1.77,1.77,0,0,1-1.18,0,.92.92,0,0,1-.42-.59h0v0h0a.62.62,0,0,1-.54-.11.65.65,0,0,1-.16-.6s0-.59.14-.73,2.3-3.82,2.3-3.82.54-1.28.54-1.28L34,19.88h0v0h0A.78.78,0,0,1,34,19h0l0,0h0a.33.33,0,0,1-.2-.08,1,1,0,0,1-.05-.82h0v0h0a.63.63,0,0,1-.25-.23.67.67,0,0,1,0-.59h0a.54.54,0,0,1-.12-.71h0v0h0s-.45-.17-.22-.7h0l0,0h0a.49.49,0,0,1-.22-.26.38.38,0,0,1,0-.28h0v0h0s-.39-.14-.25-.85h0v0h0l-.05,0h0a1,1,0,0,1-.4-.45s-.39-.2-.36-.51h0v0h0C31.48,13,9,13.57,8,13.6H8l-.08,2.68h0L6.49,20.53h0l1.06,4L8,25.74l1.55,3.42,1.32,1.53h0l18.44.91s.06,6.65.06,6.65a.64.64,0,0,1-.62.39h0v0h0a.31.31,0,0,1,0,.12c0,.17-.11.51-.76.73h0s-.14.62-1,.79h0v0h0s-.2.63-2.19.48c0,0-3.07-.17-4.33-1.3h0l-.48.06h0c-.05,0-5.7,2.38-6.63.88h0s-1.13-.2-1.13-.68v-.06h0v0h0s-.76-.14-.76-.68v0h0l0,0h0s-.43-.14-.54-.37v-.2h0v0l-6-7.92h0a2.92,2.92,0,0,1-.62-.54c-.06-.17-3.18-6-3.32-6.23h0a1.75,1.75,0,0,1-.06-.48,2.32,2.32,0,0,1,.06-.45,6.55,6.55,0,0,0,0-1c0-2-.14-6.2-.14-6.43a3.32,3.32,0,0,0,.08-.65,1.65,1.65,0,0,0-.08-.51A.63.63,0,0,1,.75,14a1.71,1.71,0,0,1,.54-1h0l.16-.2.12-.14h0a10.77,10.77,0,0,0,1.37-2.15A2.51,2.51,0,0,1,4.32,9.15h0L4.6,9h0C5,8.76,6.51,7.65,6.54,7.62h0a1.08,1.08,0,0,1,.62-.82C7.72,6.49,8,5.42,8,5.39a3.36,3.36,0,0,1,2.39-1.5c.14-.06,2.73-1.16,3.35-1.47C13.26,2.84,11,4.76,10,5.53c0,0-.28.54-.28.54h0l0,0h0l2.22-.82c-.11.15-1.52,1.56-1.52,1.56h0l0,.06h0A38.2,38.2,0,0,1,14.1,4.62v.31C13.94,5,9.47,7.28,8.37,8.64v0c0,.06,0,.45,0,.45h0v.06L8.65,9h0A27,27,0,0,1,14.1,5.44s.09.23.12.26A20.47,20.47,0,0,0,9.33,8.78h0l0,.06.81-.06h0A22.09,22.09,0,0,1,14.33,6v.23c-.11,0-2,1.21-3.18,2h0l0,.06h0s1.49-.23,2.14-.25c-.56.25-3.74,1.72-5.09,3.68,0,0-.23,1.38-.23,1.38H8v0l22.94-.9,0,0h0a3.71,3.71,0,0,1-.12-1v-.34a11.79,11.79,0,0,0-3.4-2.46,8.14,8.14,0,0,1,2.31.31h0l0,0h0a.26.26,0,0,1-.17-.23h0v0l-.23-.14v0h0a.77.77,0,0,1-.28.06.35.35,0,0,1-.28-.15.21.21,0,0,1-.08-.17h0V8h0l-.23-.11h0a.45.45,0,0,1-.25,0,.42.42,0,0,1-.31-.11.24.24,0,0,1-.09-.17v0h0l0,0-.22-.11h0a.45.45,0,0,1-.31.11A.44.44,0,0,1,27,7.51a.29.29,0,0,1-.08-.2h0l0-.11v0l-.25-.11,0,0h0a.45.45,0,0,1-.28.11c-.17,0-.31-.14-.31-.28h0l0-.12h0l-.17-.08v0h0a.67.67,0,0,1-.19,0,.23.23,0,0,1-.2-.08s-.06-.06-.06-.09h0l0-.08,0,0h0a2.74,2.74,0,0,0-.28-.11s0-.06,0-.06.34.14.34.14h0a.18.18,0,0,1,.14-.06c.14,0,.25.09.22.2h0l.25.12h0a.31.31,0,0,1,.23-.06c.17,0,.34.11.31.25h0l.31.17h0A.62.62,0,0,1,27.32,7a.45.45,0,0,1,.31.11.59.59,0,0,1,.05.2h0v.09h0l.2.08h0a.42.42,0,0,1,.34-.14.6.6,0,0,1,.3.11.3.3,0,0,1,.09.2.2.2,0,0,1-.06.14h0l0,0,.2.08h0a.45.45,0,0,1,.65,0,.3.3,0,0,1,.08.2.6.6,0,0,1-.05.14h0l.22.12v0h0A.4.4,0,0,1,30,8.22a.35.35,0,0,1,.39.31c0,.06,0,.11-.11.17h0v0l.22.11h0s.06-.48.06-.51a.36.36,0,0,0,.23-.14l0-.11h0v0h0l-.22-.12h0a.51.51,0,0,1-.22.06A.61.61,0,0,1,30,7.88a.27.27,0,0,1-.09-.2h0V7.62l-.22-.11v0h0a.82.82,0,0,1-.28,0c-.2,0-.4-.14-.37-.31h0V7.2h0l-.19-.09h0a.29.29,0,0,1-.23,0A.45.45,0,0,1,28.27,7a.28.28,0,0,1-.08-.2h0L28,6.69v0h0a.59.59,0,0,1-.31.08.4.4,0,0,1-.3-.11.3.3,0,0,1-.09-.2h0l0-.11h0L27,6.26h0a.43.43,0,0,1-.28.12c-.17,0-.31-.14-.31-.29h0l0-.08,0,0-.17-.08v0h0A.52.52,0,0,1,26,6a.26.26,0,0,1-.16-.06.17.17,0,0,1-.06-.11h0l0-.08,0,0h0a1.2,1.2,0,0,1-.23-.11V5.5l.34.14h0l.14,0h0c.14,0,.23.09.23.2h0l.25.11h0a.71.71,0,0,1,.23,0A.32.32,0,0,1,27,6s0,.09,0,.14h0v.06h0l.29.14v0h0a.58.58,0,0,1,.3-.08c.23,0,.43.14.4.31h0l0,.11,0,0,.17.09,0,0h0a.42.42,0,0,1,.36-.17.35.35,0,0,1,.39.31.26.26,0,0,1-.08.2h0l.2.11v0h0a.51.51,0,0,1,.67,0,.27.27,0,0,1,.09.2.22.22,0,0,1-.09.17h0l.22.11h0a.39.39,0,0,1,.39-.19h0l.14,0,0-.06-.76-.54h0c-.19,0-.36-.14-.36-.28a2,2,0,0,1-.26-.2h0a.52.52,0,0,1-.51-.09.22.22,0,0,1-.08-.19h0l0-.09V6l-.19-.08,0,0h0A.45.45,0,0,1,28,6a.49.49,0,0,1-.31-.11.37.37,0,0,1-.08-.2.34.34,0,0,1,0-.14h0v0l-.25-.12,0,0h0a.33.33,0,0,1-.31.14.57.57,0,0,1-.25-.11.23.23,0,0,1,0-.17.26.26,0,0,1,0-.11h0l-.22-.09h0a.29.29,0,0,1-.23.09.32.32,0,0,1-.17-.06c0-.06-.05-.08-.05-.11V5h0l0-.06h0a4.4,4.4,0,0,1-.45-.17v0s.47.17.47.17h0a.25.25,0,0,1,.2-.08.3.3,0,0,1,.2.08.25.25,0,0,1,0,.12h0v0h0l.2.09h0a.33.33,0,0,1,.25-.09c.17,0,.34.12.31.26h0v.06h0l.25.11h0a.85.85,0,0,1,.14-.09h0l0,0h0a.17.17,0,0,1,.09,0H28a.56.56,0,0,1,.23.06l1.91.43h0l.05,0,0,0Z"/><path class="cls-2" d="M34.18,22.77s0-2,0-3.12h0l-1-.28h0a13.85,13.85,0,0,0-1.32-4.19h0l.7-1-2.08-2.6-1,.28h0S26.78,10,25.94,9.6h0l.28-1h0a20.22,20.22,0,0,0-3.68-1.13h0l-.56,1h0s-2.7,0-4.11,0h0l-.53-1h0a17,17,0,0,0-3.88,1.24h0l.17,1.16h0a15.26,15.26,0,0,0-3.21,2.24h0l-1.29-.29h0s-1.94,2.3-2.19,2.81h0l.92,1.1h0a15.59,15.59,0,0,0-1,3.82h0l-.79.09-.17,3,2.73,6.26,2,.17.42,2.18-1,1.07,6.44,2L29.68,33l-.79-1.28.31-2.49,2.45-.71-.17-1.67,1.71-3.17,1-.87Z"/><path class="cls-1" d="M17.28,7.23A18.14,18.14,0,0,0,13.35,8.5h0l-.12.06h0s.12.93.14,1.16a13.81,13.81,0,0,0-3,2.12c-.23-.06-1.35-.28-1.35-.28H9l-.09.08h0C8.74,11.9,7,14,6.74,14.5h0l-.06.11h0l1,1.11a14.36,14.36,0,0,0-1,3.59l-.81.09h0l-.14,3.25,2.75,6.43h0l2,.17c0,.25.34,1.75.39,1.92-.14.12-1.12,1.25-1.12,1.25h0l6.8,2.12L30,33.12h0s-.85-1.35-.9-1.47.25-2.06.28-2.29l2.47-.71s-.14-1.7-.17-1.81,1.63-3,1.66-3.08l1-.91h0v-.08h0s.09-2,.09-3.12h0v-.14h0l-1-.31a13.87,13.87,0,0,0-1.24-4l.7-1h0l-2.27-2.83h0s-.9.26-1.07.28c-.42-.28-2.45-1.61-3.35-2.12.06-.2.28-1.05.28-1.05h0l-.16-.08h0a20.66,20.66,0,0,0-3.74-1.13h0l-.17,0h0s-.45.85-.54,1c-.56,0-2.61-.06-3.85,0-.11-.19-.56-1.07-.56-1.07h0l-.17,0Zm4.89,1.3.48-.85a20.73,20.73,0,0,1,3.32,1c-.09.26-.28,1.05-.28,1.05h0l.14,0h0c.84.43,3.51,2.21,3.57,2.24h0l.08.06h0s.73-.2,1-.29c.17.2,1.74,2.18,1.91,2.38l-.7,1h0l.08.09h0A14.33,14.33,0,0,1,33,19.4h0v.11h0s.79.23,1,.28c0,1-.09,2.52-.09,2.89L33,23.5h0l-1.77,3.28h0s.12,1.31.14,1.56L29,29.05h0l-.33,2.69h0s.45.71.64,1.05c-.61.05-12.62,1.33-12.73,1.33l-6.07-1.9.81-.93h0l-.48-2.44h0s-1.8-.14-2.05-.14c-.08-.23-2.58-6.06-2.64-6.11s.14-2.52.14-2.83c.22,0,.79-.06.79-.06h0v-.17h0a13.84,13.84,0,0,1,1-3.79h0l0-.12h0l-.9-1.07a25.82,25.82,0,0,1,2-2.55c.2,0,1.32.28,1.32.28h0l.09-.11h0A15.28,15.28,0,0,1,13.71,10h0l.14-.06h0l-.17-1.16a17.17,17.17,0,0,1,3.55-1.1c.11.2.53,1,.53,1h.14C19.25,8.59,22,8.64,22,8.64h0l.14,0,.05-.14Z"/><path class="cls-3" d="M10.06,28.4s1.57,1.13,1.07,1.78h0l-.34.4.34.45h0s4.8.23,6.74.57c0,0,8,.08,8.77-.48a2.72,2.72,0,0,1,2.36,0h0v-.94h0s-.42-.76.9-1.5a10.44,10.44,0,0,0,1.58-2.15c.28-.74.62-.74.62-.74h0l.31-.68L31.67,25l-1.18.39L28.1,26.45l-1.63.9L23.66,27l-3-1L19,25.62l-1,.71-1.47,1.13-2.81.12-1.46-.4-1.12.57-1,.65Z"/><path class="cls-1" d="M31.67,24.86l-1.2.42h0s-2.39,1.11-2.39,1.11l-1.61.9-2.81-.39-3-1L19,25.57h0l0,0-1.07.76h0s-1.29,1-1.46,1.11l-2.76.11s-1.49-.42-1.49-.42h0l-1.15.59h0l-1.13.71h0l.06.05h0s1.15.83,1.15,1.42c0,.11,0,.2-.08.25h0l-.37.46.4.54h0s4.83.19,6.74.53c.34,0,8,.09,8.8-.48a2.68,2.68,0,0,1,2.31,0h0l.08.06V30.15h0s-.36-.73.87-1.41h0a11.42,11.42,0,0,0,1.6-2.18c.26-.68.54-.71.56-.71h0l0,0,.34-.73-.85-.23Zm-1.15.54,1.15-.4c.06,0,.54.11.65.14a4,4,0,0,1-.25.6c-.11,0-.42.14-.65.76a10.66,10.66,0,0,1-1.57,2.15c-.82.46-1,.91-1,1.22a.48.48,0,0,0,.09.31V31a2.86,2.86,0,0,0-2.36.06c-.59.45-6,.51-8.72.45C16,31.2,11.49,31,11.18,31a2.42,2.42,0,0,1-.31-.39c.06-.06.31-.37.31-.37a.41.41,0,0,0,.11-.31c0-.6-.87-1.3-1.12-1.5.11-.09,1-.6,1-.6l1.09-.56c.06,0,1.46.39,1.46.39h0l2.81-.11L18,26.39h0l1-.71c.06,0,1.64.37,1.64.37l3,1,2.84.4h0l1.66-.91h0s2.36-1.1,2.36-1.1Z"/><path class="cls-4" d="M22.29,30.1a2.31,2.31,0,0,1-2.14.08h0L20,30.12l-.09.06h0a2.62,2.62,0,0,1-2.39,0h0l-.08-.06-.09.09h0a2.81,2.81,0,0,1-2.39.08h0l-.08,0-.06,0h0a3.29,3.29,0,0,1-2.39,0h0l-.08-.06-.08.09h0a2.66,2.66,0,0,1-1.44.2h0l0,.34h0a3.41,3.41,0,0,0,1.58-.23,3.5,3.5,0,0,0,2.5-.06,3.13,3.13,0,0,0,2.59-.08,2.9,2.9,0,0,0,2.55-.06,2.69,2.69,0,0,0,2.31,0,2.52,2.52,0,0,0,2.53,0,3.13,3.13,0,0,0,2.64,0,2.32,2.32,0,0,0,1.3.12h0l-.12-.31h0a2,2,0,0,1-1.12-.15h0l-.09,0-.08,0h0a2.79,2.79,0,0,1-2.45,0h0l-.08,0-.08,0h0a2.2,2.2,0,0,1-2.34,0h0L22.4,30l-.11.06Z"/><path class="cls-2" d="M20.29,36.18a26.08,26.08,0,0,1-8.8,2.12s-1.6.09,1,.37a21.92,21.92,0,0,0,4.9-.93c2.61-.88,4.18-1.56,4.18-1.56H20.29Z"/><path class="cls-4" d="M20.09,26.13a3.63,3.63,0,0,1-2.05.32h0l-.08.31h0a4.15,4.15,0,0,0,2.16-.29,3.15,3.15,0,0,0,2.28.26h0l-.06-.34h0c-1.54.28-2-.23-2.05-.23h0l-.08-.08-.12.05Z"/><path class="cls-4" d="M20,26.78A2.79,2.79,0,0,1,17.9,27l-.31-.23h0l-.2.26.31.23h0A2.85,2.85,0,0,0,20,27.1a2.78,2.78,0,0,0,2.44,0,2.81,2.81,0,0,0,1.8.06h0l-.08-.31h0a2,2,0,0,1-1.61-.09h0l-.08,0-.11,0h0a2.36,2.36,0,0,1-2.25,0h0l-.09-.05-.08.05Z"/><path class="cls-4" d="M24.9,27.35l-.08,0h0a4.86,4.86,0,0,1-.54.23c-1.21.34-1.66-.09-1.66-.09h0l-.11-.11-.11.09h0a2.58,2.58,0,0,1-2.28,0h0l-.06,0-.08,0h0a3.33,3.33,0,0,1-2.47.09h0l-.09,0h-.05a3.56,3.56,0,0,1-2.39,0h0l-.09-.06-.11.06h0a2.17,2.17,0,0,1-2,.08h0l-.09,0-.05,0h0c-.71.26-1.94.54-2.25.2h0l-.28.23h0c.53.56,2.22.05,2.58-.09a2.73,2.73,0,0,0,2.25-.08,4.1,4.1,0,0,0,2.5,0A3.7,3.7,0,0,0,20,27.83a3,3,0,0,0,2.44,0,2.35,2.35,0,0,0,1.91.08h0l.4-.17a3.35,3.35,0,0,0,2.69-.14h0l-.19-.26h0a3.05,3.05,0,0,1-2.42.06Z"/><path class="cls-4" d="M29.62,27.83a2.86,2.86,0,0,1-2.36.14h0l-.08,0-.09,0h0a2.52,2.52,0,0,1-2.3.12h0L24.7,28l-.08.06h0a2.12,2.12,0,0,1-2.11,0h0l-.08,0-.09,0h0c-1.63.65-2.3.08-2.33.05h0l-.09-.08-.11.05h0c-1.46.74-2.25.09-2.28.06h0l-.08-.06-.11,0h0a2.23,2.23,0,0,1-2.34.11h0l-.08-.08-.11.06h0a2.86,2.86,0,0,1-2.22.14h0l-.06,0-.06,0h0a3.48,3.48,0,0,1-2.05.25h0l-.11.31h0a3.74,3.74,0,0,0,2.22-.25,3,3,0,0,0,2.36-.11,2.56,2.56,0,0,0,2.5-.09,2.44,2.44,0,0,0,2.48,0,2.71,2.71,0,0,0,2.53-.05,2.36,2.36,0,0,0,2.3,0,2.77,2.77,0,0,0,2.51-.12,3.1,3.1,0,0,0,2.5-.14,1.5,1.5,0,0,0,.76.09h0l-.06-.31h0a1.66,1.66,0,0,1-.65-.12h-.05l-.09,0Z"/><path class="cls-4" d="M29.79,27.07a2.94,2.94,0,0,1-2.42.25h0l-.14.29h0a3.24,3.24,0,0,0,2.67-.23,2.08,2.08,0,0,0,1.41.06h0l-.11-.32h0A1.7,1.7,0,0,1,30,27.07h0L29.88,27l-.09.06Z"/><path class="cls-4" d="M29.85,26.33a2.46,2.46,0,0,1-2.17.37h0l-.14.28h0a2.65,2.65,0,0,0,2.39-.31,2.13,2.13,0,0,0,1.55,0h0l-.14-.28h0A1.84,1.84,0,0,1,30,26.33h0l-.09,0-.08,0Z"/><path class="cls-4" d="M27.49,28.6l-.09-.06-.08.06h0a2.3,2.3,0,0,1-2.39,0h0l-.11,0-.12.08h0a1.84,1.84,0,0,1-2.25.09h0l-.11-.12-.11.09h0a2,2,0,0,1-2.17,0h0L20,28.71l-.11.06h0a2.35,2.35,0,0,1-2.34.08h0l-.08-.06-.11.06h0a1.87,1.87,0,0,1-2.36,0h0l-.12-.06-.11.06h0a2.17,2.17,0,0,1-2.16.11h0l-.09,0-.08,0h0a3.91,3.91,0,0,1-1.41.37h0v.31h0a3.89,3.89,0,0,0,1.46-.37,2.6,2.6,0,0,0,2.37-.08,2.33,2.33,0,0,0,2.61-.06A2.69,2.69,0,0,0,20,29.11a2.36,2.36,0,0,0,2.33,0A2.26,2.26,0,0,0,24.82,29a2.74,2.74,0,0,0,2.61-.08,3.27,3.27,0,0,0,2.45-.14h0l-.17-.29h0a2.86,2.86,0,0,1-2.22.12Z"/><path class="cls-4" d="M27.4,29.36a3.06,3.06,0,0,1-2.5.06h0l-.08-.06-.12.06h0a2.21,2.21,0,0,1-2.22,0h0l-.11-.06-.08.06h0a2,2,0,0,1-2.14,0h0L20,29.39l-.09.08h0a2.32,2.32,0,0,1-2.36.06h0l-.11-.06-.09.06h0a2.33,2.33,0,0,1-2.44.09h0l-.09-.06-.08,0h0a2,2,0,0,1-2.19.05h0l-.09-.05-.11.05h0a2.65,2.65,0,0,1-1.1.29h0v.34h0A2.72,2.72,0,0,0,12.47,30a2.45,2.45,0,0,0,2.37,0,2.71,2.71,0,0,0,2.67-.09,2.58,2.58,0,0,0,2.55-.05,2.33,2.33,0,0,0,2.31,0,2.76,2.76,0,0,0,2.45,0,3.48,3.48,0,0,0,2.69-.09,2.44,2.44,0,0,0,1.16.12h0l-.09-.32h0a2.14,2.14,0,0,1-1-.14h0l-.08,0-.09.06Z"/><path class="cls-4" d="M22.34,30.8a2.08,2.08,0,0,1-2.28.06h0L20,30.8l-.11.06h0a2.13,2.13,0,0,1-2.31,0h0l-.11-.09-.08.06h0a2.52,2.52,0,0,1-2.2.06h0L15,30.86,15,31h0a.59.59,0,0,1-.31.12h0l.06.34h0a1.37,1.37,0,0,0,.42-.17,2.87,2.87,0,0,0,2.33-.06,2.6,2.6,0,0,0,2.53,0,2.43,2.43,0,0,0,2.47-.06,2.24,2.24,0,0,0,1.47.32,4.19,4.19,0,0,0,.95-.32,3.56,3.56,0,0,0,1.44.4h0V31.2h0A3.23,3.23,0,0,1,25,30.8h0l-.14-.08-.09.11h0a2.31,2.31,0,0,1-.87.31,1.67,1.67,0,0,1-1.29-.34h0l-.12-.08-.11.08Z"/><path class="cls-5" d="M20,14.53a3.44,3.44,0,0,1,3.57,3.31A3.46,3.46,0,0,1,20,21.18a3.46,3.46,0,0,1-3.57-3.34A3.44,3.44,0,0,1,20,14.53Z"/><polygon class="cls-5" points="19.81 14.08 19.98 8.87 20.09 14.08 19.81 14.08"/><g id="_105553641143616" data-name=" 105553641143616"><path class="cls-5" d="M18.29,14.44,16.24,9.66l2.31,4.7h0l-.26.08Z"/><path class="cls-5" d="M17,15.32l-3.91-3.68,4.11,3.48h0a1.26,1.26,0,0,0-.2.2Z"/><path class="cls-5" d="M16.21,16.57l-5.11-2,5.23,1.73h0a1.61,1.61,0,0,0-.12.23Z"/><path class="cls-5" d="M16,18l-5.51.09L16,17.76v.08h0V18Z"/><path class="cls-5" d="M16.35,19.45l-5,2,4.89-2.26h0a.42.42,0,0,1,.11.22Z"/><path class="cls-5" d="M19.05,14.19l-.62-3.26.85,3.23h0c-.09,0-.14,0-.23,0Z"/><path class="cls-5" d="M17.62,14.84l-2-2.8,2.14,2.66h0a.7.7,0,0,0-.17.14Z"/><path class="cls-5" d="M16.55,15.92l-3-1.84,3.12,1.67h0c0,.05-.08.11-.11.17Z"/><path class="cls-5" d="M16,17.3l-3.55-.62L16,17.1h0a.65.65,0,0,1,0,.2Z"/><path class="cls-5" d="M16.1,18.77l-3.51.74L16,18.58h0c0,.05,0,.14.06.19Z"/><path class="cls-5" d="M19.39,14.13v-1.5l.25,1.47h0l-.25,0Z"/><path class="cls-5" d="M18.66,14.3l-.34-1.44.56,1.39h0a.51.51,0,0,0-.22.05Z"/><path class="cls-5" d="M18,14.61l-.65-1.35.87,1.24h0l-.22.11Z"/><path class="cls-5" d="M17.34,15l-.93-1.16,1.1,1h0a.55.55,0,0,0-.17.14Z"/><path class="cls-5" d="M16.83,15.52l0,.06-1.21-1,1.37.85h0a.29.29,0,0,1-.11.11Z"/><path class="cls-5" d="M16.38,16.2,15,15.44l1.51.56h0a2,2,0,0,1-.11.2Z"/><path class="cls-5" d="M16.1,17l-1.52-.48,1.58.23h0a.76.76,0,0,0-.06.25Z"/><path class="cls-5" d="M16,17.61v0l-1.63-.17L16,17.39h0a.56.56,0,0,0,0,.22Z"/><path class="cls-5" d="M16,18.38l-1.58.17,1.55-.4h0c0,.06,0,.14,0,.23Z"/><path class="cls-5" d="M16.24,19.14l-1.43.37,1.35-.59h0a.48.48,0,0,0,.08.22Z"/></g><g id="_105553644724608" data-name=" 105553644724608"><path class="cls-5" d="M21.67,14.47l2.08-4.78-2.31,4.7h0l.23.08Z"/><path class="cls-5" d="M22.93,15.35l3.91-3.68-4.08,3.51h0l.17.17Z"/><path class="cls-5" d="M23.75,16.6l5.11-2-5.2,1.73h0c0,.08.06.14.09.23Z"/><path class="cls-5" d="M24,18l5.48.08L24,17.78v.12h0V18Z"/><path class="cls-5" d="M23.61,19.48l5,2.07-4.89-2.29h0a2.26,2.26,0,0,0-.11.22Z"/><path class="cls-5" d="M20.91,14.22,21.55,11l-.87,3.2h0c.09,0,.17,0,.23,0Z"/><path class="cls-5" d="M22.37,14.87l2-2.8-2.17,2.66h0l.2.14Z"/><path class="cls-5" d="M23.41,15.94l3-1.84L23.3,15.77h0a1.2,1.2,0,0,1,.11.17Z"/><path class="cls-5" d="M23.94,17.36l3.55-.62-3.57.39h0c0,.09,0,.14,0,.23Z"/><path class="cls-5" d="M23.86,18.8l3.51.74-3.45-.93h0a.47.47,0,0,1-.06.19Z"/><path class="cls-5" d="M20.57,14.16V12.69l-.25,1.44h0a.72.72,0,0,0,.25,0Z"/><path class="cls-5" d="M21.33,14.36l.34-1.47-.59,1.38h0l.25.09Z"/><path class="cls-5" d="M22,14.64l.62-1.33-.84,1.22h0a.51.51,0,0,0,.22.11Z"/><path class="cls-5" d="M22.65,15.07l.9-1.16-1.1,1h0a1.21,1.21,0,0,0,.2.14Z"/><path class="cls-5" d="M23.13,15.55l.06,0,1.2-1L23,15.44h0l.11.11Z"/><path class="cls-5" d="M23.58,16.26,25,15.49,23.47,16h0c0,.06.08.14.11.23Z"/><path class="cls-5" d="M23.89,17l1.49-.45-1.58.23h0a1.65,1.65,0,0,1,.09.22Z"/><path class="cls-5" d="M24,17.64l0,0,1.6-.14L24,17.42h0v.22Z"/><path class="cls-5" d="M23.94,18.41l1.61.17L24,18.18h0a.54.54,0,0,1,0,.23Z"/><path class="cls-5" d="M23.75,19.2l1.4.34-1.32-.6h0l-.08.26Z"/></g><path class="cls-6" d="M10.56,26.81a2.88,2.88,0,0,0,1.07-.93h0l2.95-2.83L25,21.94h0a3.88,3.88,0,0,1,1.41.74c.31.4,1,.34,1.07.65a.87.87,0,0,0,.47.51,1.59,1.59,0,0,1,.82.45,1.47,1.47,0,0,0,.7.43h0l1,.14v.34L26.56,27l-3.07-.14-4.1-1.28-1.15.29-2,1.53-2.53-.09-1.35-.23-1.26.57-.51-.88Z"/><path class="cls-7" d="M14.05,24.72l11.75-.09-1-4.24-.79-.6h0a8,8,0,0,0-4.08.09,6.69,6.69,0,0,0-4.83.51h0l-.2.73-.84,3.6Z"/><path class="cls-1" d="M19.92,19.82a6.69,6.69,0,0,0-4.86.51h0l-.19.79h0L14,24.78h0l11.92-.09-1-4.36L24,19.74h0a8.13,8.13,0,0,0-4.11.08Zm0,.12a7.82,7.82,0,0,1,4-.09l.76.57s1,4,1,4.16l-11.59.08c0-.14.82-3.51.82-3.51l.2-.73a6.74,6.74,0,0,1,4.77-.48h0Z"/><path class="cls-2" d="M11.86,38.9a15.37,15.37,0,0,0,4.86-.62,58.9,58.9,0,0,0,5.54-2.07h1a41.29,41.29,0,0,1-8.63,3.09,5.1,5.1,0,0,1-3-.2h0l-.28-.26.45.06Z"/><path class="cls-2" d="M13.63,40.26A4.69,4.69,0,0,0,16,40.09,51.1,51.1,0,0,0,26.42,36h0l.76.33h0s-5.85,2.64-8,3.29-3.9,1.67-5.45.88h0l-.11-.2Z"/><path class="cls-2" d="M25,37.6a11.19,11.19,0,0,0,3.91.59s-.28.65-3,.26h0l-1.32-.32L25,37.6Z"/><path class="cls-2" d="M22.26,38.81a14.86,14.86,0,0,0,5.37.66s.08.76-2,.62A13.91,13.91,0,0,1,22,39.32h0l.28-.51Z"/><path class="cls-2" d="M15.43,37.54l.9-.2L13.88,36h0s-.93-.11-1,.25,2.56,1.25,2.56,1.25Z"/><path class="cls-5" d="M.81,15.94A1.92,1.92,0,0,0,2,18.72s3.13,1.19,3.77,1.47c.82.34,2.17.57,2.22,2.07a3.5,3.5,0,0,0,.4,1.55s.47,1.33-.54,1.84h0l0-.42h0a1,1,0,0,0-1-1.05A16.78,16.78,0,0,1,2,23.25C.36,22.43,0,21.89.19,20.39a3.87,3.87,0,0,0-.06-2.21c-.25-1.27-.19-2.09.62-2.66h0l.06.42Z"/><path class="cls-5" d="M4.55,30.12A17.32,17.32,0,0,1,7,31.77c1,.87,1.63.39,1.63.39.42-.62,1.8-1.61,5.15-1.16a35.72,35.72,0,0,0,4.86.26h0l0-.06h0s.42,0,1.1,0h0c.48,0,.95,0,1.35.06h.28A34.69,34.69,0,0,0,26.14,31c3.34-.45,4.72.54,5.14,1.16,0,0,.68.4,1.69-.51a9.09,9.09,0,0,1,2.28-1.58,2.2,2.2,0,0,1-.34,2.49A2.21,2.21,0,0,0,34.54,34a1.55,1.55,0,0,1-1.07,1.87c-.92.26-1.65,0-2.1,1.19a2,2,0,0,1-2.08,1.44c-1.44.09-3.8-.22-4.45-.93-.28-.34-.33-1.1,1.94-1,0,0,.79-.31-.62-.59,0,0-.92-.12-2.19-.15-1.43.06-4.33.15-5.93,0a26,26,0,0,0-4.3.12c-1.41.28-.62.59-.62.59,2.28-.11,2.25.65,1.94,1-.65.71-3,1-4.44.93A2,2,0,0,1,8.54,37c-.45-1.19-1.18-.93-2.11-1.19A1.55,1.55,0,0,1,5.36,34,2.22,2.22,0,0,0,5,32.56a2.18,2.18,0,0,1-.45-2.44Z"/><path class="cls-8" d="M4.88,30.46s-.7,1.22,2.34,1.73c0,0,1,.2,1.52,2a3.29,3.29,0,0,0,1.54,1.45c1.27.76,1.35,1.16.59,1.24s-2.22.4-1.12,1.25c0,0,.95.62,4.21-.09a1.86,1.86,0,0,0,.65-.31c.51-.28.59-1-.65-1,0,0-1.6.23-2.16-.74A18.05,18.05,0,0,0,9,33.32a.91.91,0,0,1-.39-1.24S8,32.7,7,31.85a9.24,9.24,0,0,0-1.85-1.36h0l-.29,0Z"/><path class="cls-9" d="M10,5.13a7.16,7.16,0,0,1,2.5-2h0L10.06,5.27,10,5.13Z"/><path class="cls-9" d="M5.76,14a3.54,3.54,0,0,1,.87-1.87,5.55,5.55,0,0,0,.9-2.74s.31-3.91,2.16-4.45h0l.06.23h0A3.46,3.46,0,0,0,8.57,7.28a10.78,10.78,0,0,0-.57,3A3,3,0,0,1,6.91,12c-.82.42-.51,1.78-.51,1.78s.28.65-.34.51-.3-.25-.3-.34Z"/><path class="cls-9" d="M5.19,13.82c-.22-.08-.45.06-.14-.54A6.83,6.83,0,0,0,6.6,11.13C7,9.86,7.3,8,7.53,7.4s.5-2.47,2.41-3h0l0,.22h0S8.79,4.54,8,6.72a13.61,13.61,0,0,0-.9,3.76A9.84,9.84,0,0,1,5.81,13c-.34.6-.39.93-.62.82Z"/><path class="cls-9" d="M6.09,11.47A6.16,6.16,0,0,0,6.82,9a3,3,0,0,1,.73-2A1.89,1.89,0,0,0,6.49,8.78,12.89,12.89,0,0,1,6.12,11a3.06,3.06,0,0,1,0,.48Z"/><path class="cls-9" d="M10.42,6.38l-1.66,1-.28.74h0a9.12,9.12,0,0,0,1.89-1.58h0l.05-.2Z"/><polygon class="cls-9" points="9.07 6.63 10.09 6.24 8.99 7 9.07 6.63"/><path class="cls-9" d="M6.18,19.23l.31-.09h0a14.8,14.8,0,0,1,1.12-3.62h0l-.9-.85.79-1.33.25-1.13h0a11.36,11.36,0,0,0-1.66,6.68h0l.09.34Z"/><path class="cls-7" d="M5.62,20.11s.3-3.77.44-4.65a6.71,6.71,0,0,0-.67,2.35s.48,0,0,.54c0,0,.25.59-.14.59a2.35,2.35,0,0,0,0,1h0l.31.17Z"/><path class="cls-9" d="M5.67,15a5.78,5.78,0,0,0-.81,2.64h0l.33.14h0a9.27,9.27,0,0,1,.57-2.58h0L5.67,15Z"/><path class="cls-9" d="M3.84,17.16s-.39.62.2.4.53-1.13.53-1.13a10.8,10.8,0,0,0,.17-2h0l-.25-.11h0s-.31,2-.45,2.52-.2.31-.2.31Z"/><path class="cls-9" d="M2.86,11.25,6,8.53l.08-.37h0a9.58,9.58,0,0,1-2,1.27c-.45.06-.73.83-.73.83h0l-.48,1Z"/><path class="cls-9" d="M1.12,14s4.24-4.56,4.8-4.92h0l.17-.29h0s-4.8,4.22-5,5,0,.25,0,.25Z"/><path class="cls-9" d="M5.87,9.52s-3.35,3.37-4.33,4.64a2.62,2.62,0,0,0-.65,1.7c.09.88.26,2.21.26,2.21h0l.47.39h0a12.73,12.73,0,0,0-.33-1.67,2,2,0,0,1,.81-2.12c.7-.62,3.71-3.79,3.71-3.79A2.44,2.44,0,0,0,6,9.46H6l-.14.06Z"/><path class="cls-9" d="M2.94,19l-.11-.51-.5-2.12h0A3.59,3.59,0,0,1,2.24,15s-1.15.88-.64,1.81a3.88,3.88,0,0,1,.5,1.65h0l0,.19.81.34Z"/><path class="cls-9" d="M2.83,16.65a8.07,8.07,0,0,1,1.83-4.33h0L2.92,14.16h0a3.56,3.56,0,0,0-.37,1.93h0l.28.56Z"/><path class="cls-7" d="M4,14.05a4.29,4.29,0,0,0-.71,2.8h0l.17.68h0A9.46,9.46,0,0,0,4,14.05Z"/><path class="cls-9" d="M4.63,12.72a3.4,3.4,0,0,1,1-1.08s-.2,1-.85,1.11h0l-.14,0Z"/><path class="cls-9" d="M7,12.18s.45,0,1-.74a15.27,15.27,0,0,1,3.74-2.71,7.45,7.45,0,0,0-3.24,1.7l-.33.31A3.69,3.69,0,0,1,7.19,12h0l-.2.14Z"/><path class="cls-9" d="M1.23,23,1,22.94H1A4,4,0,0,0,1.9,25.2h0l.54.28h0a20.52,20.52,0,0,1-1-1.95h0L1.23,23Z"/><polygon class="cls-9" points="3.14 25.6 2.19 23.59 1.54 23.19 2.63 25.34 3.14 25.6"/><path class="cls-9" d="M4.15,25.48a14.15,14.15,0,0,1-1-1.7h0l-.47-.14.78,1.87h0l.73,0Z"/><polygon class="cls-9" points="3.93 23.95 4.38 24.58 3.87 24.63 3.31 23.79 3.93 23.95"/><polygon class="cls-9" points="7.86 25.51 7.33 24.49 6.99 24.38 7.53 25.48 7.86 25.51"/><polygon class="cls-9" points="7.33 25.43 6.71 24.32 6.12 24.21 6.91 25.43 7.33 25.43"/><polygon class="cls-9" points="6.68 25.48 5.98 24.24 5.76 24.35 6.21 25.48 6.68 25.48"/><path class="cls-9" d="M4.32,19.54s0-.79-.28-.68a.23.23,0,0,0-.17.25v.29h0l.45.14Z"/><path class="cls-9" d="M3.17,19.11s.17-.53,0-.73a.25.25,0,0,1,.31-.4A3.16,3.16,0,0,0,5,18.44c.76-.06.47.39.11.39v.68c0,.23-.14.09-.14.09H5l-.09-.74h0s.2,0-.31-.11a1.77,1.77,0,0,1-1-.43c-.11-.14-.14,0-.14.26v.59h0l-.25-.06Z"/><path class="cls-9" d="M5.25,18s-.82.34-.82-.05h0v-.2h0s-.25.48-.87.08c0,0-.33-.11-.14.12a2.8,2.8,0,0,0,1.69.34c.28,0,.28,0,.28-.26s-.14,0-.14,0Z"/><path class="cls-9" d="M4.63,13.65s.17.68,1.6.82c0,0,.28.09.09.2,0,0-.54.31-1.69-.54,0,0-.36-.22-.2-.45s.2,0,.2,0Z"/><polygon class="cls-9" points="8.37 10.03 9.27 9.35 8.31 9.69 8.37 10.03"/><path class="cls-9" d="M4.77,30a3,3,0,0,1,1.15.51c.48.37,1.33.88,1.33.88s.87.54.28.62a.89.89,0,0,1-.85-.51,6.16,6.16,0,0,0-1.91-1.3c-.7-.14,0-.2,0-.2Z"/><path class="cls-9" d="M5.42,29.9l.45-.09h0a12.6,12.6,0,0,0,2.05,1.08c.65.23,1,.4.62.65s-.7.23-.84,0a7.64,7.64,0,0,0-1.89-1.39h0l-.39-.22Z"/><path class="cls-9" d="M6.8,29.67a8.28,8.28,0,0,0,1.77.88s1,.08.62.48a.8.8,0,0,1-.93-.17A7.16,7.16,0,0,0,6.71,30h0l-.39-.31.48-.06Z"/><path class="cls-9" d="M7.64,29.59l.62.53h0s-.73-.05-1-.42.34-.11.34-.11Z"/><path class="cls-9" d="M9.44,30.24s-1-.2-1-.65A.32.32,0,0,1,9,29.42c.45.31.45.62.45.62h0v.2Z"/><path class="cls-9" d="M9.66,30.61a3,3,0,0,1-1.4-1.08h0L8,29.45H8a3,3,0,0,0,1.29,1s.11.37.37.29.05-.17.05-.17Z"/><path class="cls-9" d="M8,31.88s.28.17,1.12-.51S9.78,31,10,31h0v.17h0a2.26,2.26,0,0,0-1.52.8.46.46,0,0,1-.73.11h0l.2-.17Z"/><path class="cls-9" d="M4,24.75a5.46,5.46,0,0,0,1.32,0s.42-.2.4.06c0,0,.16.25-.74.25s-1-.17-1-.17H4v-.11Z"/><path class="cls-9" d="M4.41,23.93a.64.64,0,0,1,.22.39c.09.26.25.2.25.2a.23.23,0,0,0,0-.31C4.8,24,4.74,24,4.74,24h0l-.33-.05Z"/><path class="cls-9" d="M5.47,25.74a1.27,1.27,0,0,1-.14-.29c0-.11-.08-.22-.22-.19s-.23.11-.11.22a1.7,1.7,0,0,1,.17.26h.3Z"/><path class="cls-9" d="M29.45,4.23l1,.45h0a2.67,2.67,0,0,1,1.58,1.61c.59,1.33,1.66,3.48,1.66,3.48s-.37,0-.42.26c0,0-.2-.14-.68.11h0l-.93-3.2h0A3.58,3.58,0,0,0,30.61,5h0l-1.35-.88.19.09Z"/><path class="cls-9" d="M32.41,10.54c.11-.11-1-4.08-1-4.08s-.09-1.13-2-2.09h0l1.21,1.22h0s.48.39.73,2,.7,4.05.7,4.05-.14-.74.37-.71a.55.55,0,0,1,.06-.34Z"/><path class="cls-9" d="M30.3,5.61s.42.17.62,1.42c0,0,.92,6.06,1,6.11a2.54,2.54,0,0,1-1-2.06h0l-.29-2.44h0a.48.48,0,0,1,.17-.45.37.37,0,0,0-.14-.6h0l-.08-.08-.14-1.27h0a2.44,2.44,0,0,0-.54-1c-.31-.23.4.36.4.36Z"/><path class="cls-9" d="M30.49,9.41a4.51,4.51,0,0,0-2.55-.82,14.27,14.27,0,0,1,2.72,1.95h0l-.17-1.13Z"/><path class="cls-9" d="M37.55,16.79V15h0s.11-.51-.65-.71c0,0-.19,0-.16-.59h0l0-2.1h0a1.08,1.08,0,0,0-.42-1h0L33.16,8.13l-.33-.56h0s1.8,1,1.94,1a1.46,1.46,0,0,1,.62.56,7.12,7.12,0,0,0,1.09,1.08,5.71,5.71,0,0,1,1.38,4.5s-.23,1.87-.23,1.95h0l-.08.11Z"/><path class="cls-9" d="M37.66,18.66s1-5.38.31-6.28c0,0,.87.28.65,3.06s-.45,2.94-.45,2.94h0l-.51.28Z"/><path class="cls-9" d="M38.48,18.24c-.06,0,.36-1.42.31-1.7a5.25,5.25,0,0,1,.14,1.3s-.28.4-.45.4Z"/><path class="cls-9" d="M35.67,19.62a24.51,24.51,0,0,1,.45-3.05s.05-.29.17-.37h0l1-.51h0a19.55,19.55,0,0,1,.08,3.14h0l-1.68.79Z"/><polygon class="cls-7" points="36.31 11.33 36.28 10.99 33.3 8.56 33.22 8.67 36.28 11.59 36.31 11.33"/><polygon class="cls-9" points="32.46 25.54 33.19 24.24 33.78 24.21 33.19 25.54 32.46 25.54"/><polygon class="cls-9" points="33.45 25.54 34.12 24.18 34.99 24.07 34.26 25.62 33.45 25.54"/><polygon class="cls-9" points="34.66 25.68 35.47 23.95 36.17 23.84 35.33 25.65 34.66 25.68"/><polygon class="cls-9" points="35.64 25.68 36.57 23.79 37.33 23.53 36.2 25.68 35.64 25.68"/><path class="cls-9" d="M36.51,25.68l1.15-2.26,1.1-.57h0a12.24,12.24,0,0,1-1.29,2.69h0l-1,.14Z"/><path class="cls-9" d="M30,30.12a3.3,3.3,0,0,0,1.09-.87h0l.74.08h0s-1.1,1.79-1.8,1.05h0l0-.26Z"/><path class="cls-9" d="M32.1,29.42s-.57,1.1-1.3,1.24a.68.68,0,0,0,.62.63.87.87,0,0,0,.87-.32,1.35,1.35,0,0,1,.2-1.47h0l-.39-.08Z"/><path class="cls-9" d="M32.43,30.83s-.28-.65.54-1.3h0l.64.06h0s-.84,1-1.09,1.19c-.11.08-.09,0-.09,0Z"/><path class="cls-9" d="M32.6,31.06s1.21-1.27,1.27-1.39h0l.73.09h0a1.65,1.65,0,0,1-1,.56,1,1,0,0,0-.45.46.52.52,0,0,1-.56.28Z"/><path class="cls-9" d="M33.22,31a1.07,1.07,0,0,1,.65-.65,7.06,7.06,0,0,0,1-.57h0l.25,0h0s-.06.17-.73.4a2.11,2.11,0,0,0-1,.73s-.08.12-.16.12-.09-.06-.09-.06Z"/><polygon class="cls-9" points="30.21 6.18 28.61 5.78 30.33 6.77 30.21 6.18"/><path class="cls-2" d="M12.53,39.63a14.71,14.71,0,0,0,4.27-.56,61.87,61.87,0,0,0,7.43-2.94h1.09a64.72,64.72,0,0,1-7.17,3c-2.84.94-4.52,1.19-5.51.65h0l-.11-.2Z"/><path class="cls-2" d="M23.55,38.25s3.4.88,5,.45c0,0,0,.91-3.48.48a7.38,7.38,0,0,1-1.94-.37h0l.39-.56Z"/><path class="cls-2" d="M21.25,39.3a14.71,14.71,0,0,0,5.28,1s-.28.9-3.26.28a7,7,0,0,1-2.45-.91h0l.43-.33Z"/><path class="cls-2" d="M16.64,37.12l-1.13-.57h0s-.45-.42.17-.48a1.31,1.31,0,0,1,1,.28,7.53,7.53,0,0,1,.68.62h0l-.73.15Z"/><path class="cls-2" d="M17.84,36.8l-.42-.25h0s-.48-.31.23-.31a1.31,1.31,0,0,1,1,.25h0l-.85.31Z"/><path class="cls-1" d="M20,24.1l-.06,0,.37.57H26l-1.15-1h0A9.29,9.29,0,0,0,20,24.1Zm4.75-.26s.67.57.87.74H20.4c0-.06-.19-.31-.25-.4a9.57,9.57,0,0,1,4.61-.34Z"/><path class="cls-1" d="M24,19.85l.76,3.88,1.18,1.1-1.07-4.41-.9-.74,0,.17Zm.17.14a4.24,4.24,0,0,0,.59.48c0,.06.84,3.6,1,4l-.85-.77s-.64-3.34-.7-3.68Z"/><polygon class="cls-1" points="19.84 19.85 19.84 24.1 19.95 24.1 19.95 19.85 19.84 19.85"/><path class="cls-1" d="M15,23.78h0l-1.12,1H19.5l.37-.6-.06,0h0c-1.77-.87-4.75-.37-4.78-.37Zm4.64.46a2.45,2.45,0,0,1-.25.42h-5.2c.17-.17.84-.73.87-.76a9.46,9.46,0,0,1,4.58.34Z"/><path class="cls-1" d="M15.71,20l-.68.31-1.09,4.59,1.18-1.11L15.85,20l-.14,0Zm-.06.17c0,.23-.65,3.51-.67,3.57s-.59.56-.82.76c.09-.37,1-4.05,1-4.1l.5-.23Z"/><path class="cls-1" d="M27,25.6,17.06,15.1l-.28.08-.57-.59h0a.59.59,0,0,0-.73.05s-.11-.39.45-.48a.91.91,0,0,0,.82-.37h0l-.06-.14h0s-.05.4-1,.43c0,0-.59.11-.34.76a.86.86,0,0,1-.11.88h0l-2.93,3.54-1.54-1.62,2.55-3.48h0a1,1,0,0,1,1-.25c.64.14.7,0,.76-.14s.56-1.14,1.32-.88h0l1.32,1.55-.08.23,9.58,10.59h0s.2.11,0,.28-.31.06-.31.06Z"/><path class="cls-1" d="M15.15,13.68l0,.09,0,0h0c-.09.09-.14.23-.73.09a.91.91,0,0,0-1,.28h0l-2.58,3.48,1.57,1.64,2.93-3.56h0a.84.84,0,0,0,.19-.54,1.11,1.11,0,0,0-.05-.34.53.53,0,0,1-.06-.28.3.3,0,0,1,.06-.23.57.57,0,0,1,.33-.23c.71,0,.88-.28.93-.39a.22.22,0,0,0,0,.08.94.94,0,0,1-.79.34.59.59,0,0,0-.42.23.48.48,0,0,0-.06.28h0v0l0,0h0a.64.64,0,0,1,.73,0h0l.54.57,0,0h0a2.3,2.3,0,0,1,.25-.09L26.92,25.6h0a.24.24,0,0,0,.14,0,.49.49,0,0,0,.23-.08.24.24,0,0,0,.08-.17v0c0-.09-.08-.11-.11-.14S17.87,14.87,17.7,14.67a2.3,2.3,0,0,1,.09-.25h0l-1.32-1.53h0c-.73-.26-1.18.54-1.32.79Zm0,.11,0,0,0-.06h0c.17-.26.59-1,1.27-.79,0,0,1.21,1.41,1.29,1.52l-.08.23h0l9.58,10.61h0a.1.1,0,0,1,.09.09v0a.26.26,0,0,1-.09.14.21.21,0,0,1-.17.08.11.11,0,0,1-.08-.05h0l-9.92-10.5h0l-.28.08s-.57-.56-.57-.56a.63.63,0,0,0-.73,0v0a.35.35,0,0,1,.06-.17c.05-.12.2-.17.39-.2a1,1,0,0,0,.85-.37h0v0l-.12-.19v.05h0s-.05.37-.92.43a.55.55,0,0,0-.37.22.82.82,0,0,0-.06.26.94.94,0,0,0,.06.28.92.92,0,0,1,.08.34,1,1,0,0,1-.19.54l-2.9,3.51-1.52-1.62s2.56-3.45,2.56-3.45a1,1,0,0,1,1-.23c.59.12.7,0,.76-.14Z"/><path class="cls-10" d="M10.93,25.34a13.7,13.7,0,0,0,.9,1.16s.19.09.53-.31a7.73,7.73,0,0,0,1.13-1.44A5.88,5.88,0,0,1,15,23h0l-.59-.51-.84.77-.62.14-2,1.61h0a.31.31,0,0,0,0,.34Z"/><path class="cls-10" d="M15.68,22.79a9.54,9.54,0,0,1,.62,1.14s.05.59.42.36h0l.39-.31h0s.31-.11-.05-.45a4.25,4.25,0,0,1-.73-1.36h0l-.65.62Z"/><polygon class="cls-1" points="14.84 21.75 16.44 20.36 16.35 20.22 14.81 21.38 14.84 21.75"/><path class="cls-1" d="M16.33,20.19l-1.55,1.19,0,.42,1.66-1.44-.12-.17Zm0,.06s.06.08.06.11l-1.55,1.36c0-.09,0-.31,0-.31s1.49-1.14,1.54-1.16Z"/><polygon class="cls-1" points="16.69 20.19 18.13 18.97 18.01 18.86 16.49 19.99 16.69 20.19"/><path class="cls-1" d="M18,18.83,16.47,20l.19.23L18.15,19,18,18.83Zm0,.06s.06.08.09.08l-1.41,1.19L16.52,20c.06,0,1.46-1.07,1.49-1.1Z"/><polygon class="cls-1" points="16.38 19.79 17.9 18.75 17.96 18.8 16.47 19.91 16.38 19.79"/><path class="cls-1" d="M17.9,18.72l-1.55,1.07.12.15L18,18.8l-.08-.08Zm0,.05a0,0,0,0,1,0,0s-1.44,1.05-1.46,1.08,0-.06-.06-.09,1.46-1,1.49-1Z"/><path class="cls-1" d="M17.9,18.38l.39.39.82-.67-.31-.37h0s-.11-.09-.23.05-.67.6-.67.6Z"/><path class="cls-1" d="M18.69,17.7a.39.39,0,0,0-.14.06,5.68,5.68,0,0,1-.68.59h0v0l.42.42.88-.7-.37-.37h0a.16.16,0,0,0-.11,0Zm-.09.08s.06-.05.09-.05a.12.12,0,0,1,.08,0l.31.34s-.73.62-.79.65a4.13,4.13,0,0,0-.36-.37c.08-.09.56-.48.67-.6Z"/><polygon class="cls-5" points="19.92 2.16 20.51 3.86 22.45 3.86 20.91 4.91 21.47 6.6 19.92 5.56 18.38 6.6 18.97 4.91 17.42 3.86 19.33 3.86 19.92 2.16"/><path class="cls-2" d="M19.87,1.17l-.82,2.32H16.24S18.46,5,18.52,5.05l-.87,2.49L19.92,6C20,6,22.2,7.54,22.2,7.54l-.84-2.49c.05-.06,2.25-1.56,2.25-1.56H20.8L19.92,1h0l-.05.17Zm-.76,2.46h.06s.67-1.92.75-2.23c.12.31.79,2.23.79,2.23h2.5c-.28.17-2,1.36-2,1.36s.67,1.93.76,2.24l-2-1.39-2,1.39L18.69,5s-1.75-1.19-2-1.36Z"/><path class="cls-2" d="M32.74,10.48c.2-.11.4-.11.45,0s0,.26-.25.37-.39.11-.45,0,.06-.25.25-.34Z"/><path class="cls-2" d="M33.08,10.88c.25-.17.53-.2.59-.09s0,.34-.28.48-.53.2-.62.09.06-.34.31-.48Z"/><path class="cls-2" d="M33.42,11.39c.28-.17.56-.2.67-.06s-.05.37-.33.54-.57.2-.65.08,0-.39.31-.56Z"/><path class="cls-2" d="M33.81,12c.28-.17.59-.19.7,0s0,.39-.31.59-.61.2-.7.06,0-.43.31-.6Z"/><path class="cls-2" d="M34.18,12.63c.28-.2.62-.22.7-.08s0,.42-.31.59-.62.23-.7.06,0-.4.31-.57Z"/><path class="cls-2" d="M34.63,13.28c.31-.14.64-.11.73.09s-.06.45-.37.59a.6.6,0,0,1-.76-.05c-.11-.2.06-.48.4-.63Z"/><path class="cls-2" d="M35.05,14.1c.31-.14.62-.11.73.09s-.06.45-.37.59a.63.63,0,0,1-.76,0c-.08-.2.09-.46.4-.63Z"/><path class="cls-2" d="M35.44,14.93c.34-.15.68-.09.73.11s-.11.45-.45.56-.67.06-.76-.11.14-.45.48-.56Z"/><path class="cls-2" d="M36.51,15.86c0,.06.06,0,0,.11h0l-.42.2h0c-.09.06-.09.2-.12.26-.33.11-.67.08-.75-.12s.14-.45.5-.56.68-.09.76.11Z"/><path class="cls-2" d="M33.81,10a.45.45,0,0,1,.45.06c.06.08,0,.2-.2.22a.46.46,0,0,1-.45,0c-.08-.09,0-.17.2-.23Z"/><path class="cls-2" d="M34.18,10.37c.22-.09.5-.09.59,0s0,.25-.23.34a.62.62,0,0,1-.59,0c-.08-.11,0-.26.23-.34Z"/><path class="cls-2" d="M34.6,10.82a.65.65,0,0,1,.65.06c.11.11,0,.28-.26.37a.64.64,0,0,1-.64,0c-.12-.12,0-.31.25-.4Z"/><path class="cls-2" d="M35.08,11.33a.62.62,0,0,1,.67.06c.11.11,0,.31-.22.39a.67.67,0,0,1-.71,0c-.11-.12,0-.31.26-.4Z"/><path class="cls-2" d="M35.47,11.93a.65.65,0,0,1,.7.05c.12.12,0,.31-.22.43a.83.83,0,0,1-.7-.06c-.12-.14,0-.34.22-.42Z"/><path class="cls-2" d="M35.55,13c-.11-.17,0-.37.29-.45a.82.82,0,0,1,.75.19h0V13h0a.41.41,0,0,1-.28.17.84.84,0,0,1-.76-.17Z"/><path class="cls-2" d="M35.92,13.82c-.14-.2,0-.39.28-.48a.85.85,0,0,1,.39,0h0v.4h0a1.6,1.6,0,0,0,0,.31.72.72,0,0,1-.67-.23Z"/><path class="cls-2" d="M36.43,14.93c-.17-.2,0-.4.25-.49h.06c.56.15.67.46.67.6a.24.24,0,0,1-.2.08.8.8,0,0,1-.78-.19Z"/><path class="cls-2" d="M33,12.07c.14,0,.16.25,0,.45s-.28.31-.39.25-.17-.25-.06-.45.28-.31.4-.25Z"/><path class="cls-2" d="M32.6,11.56c.12,0,.14.22,0,.42s-.25.28-.34.23-.14-.23,0-.4.22-.28.33-.25Z"/><path class="cls-2" d="M33.31,12.66c.11.06.14.28,0,.48s-.31.37-.42.31-.11-.28,0-.48.31-.37.43-.31Z"/><path class="cls-2" d="M33.59,13.28c.14,0,.17.26.08.49s-.25.36-.39.31-.17-.26-.06-.48.25-.37.37-.32Z"/><path class="cls-2" d="M34,13.88c.14,0,.2.31.08.54s-.28.42-.42.36-.19-.28-.08-.53.28-.4.42-.37Z"/><path class="cls-2" d="M34.32,14.76c.17.05.22.31.11.59s-.31.42-.48.37-.19-.31-.11-.57.34-.45.48-.39Z"/><path class="cls-2" d="M34.63,15.66c.17.06.19.31.08.57s-.31.45-.45.39-.22-.31-.11-.56.34-.46.48-.4Z"/><path class="cls-2" d="M35,16.54c.14.06.12.31,0,.54s-.4.36-.54.31-.11-.34.06-.57.36-.37.5-.28Z"/><path class="cls-2" d="M35.33,17.3c.11.06.11.31-.06.54s-.39.37-.5.28-.14-.31,0-.53.39-.37.53-.29Z"/><path class="cls-2" d="M35.5,18.12c.14.09.14.34,0,.57s-.39.37-.53.28-.12-.34.05-.56.4-.37.51-.29Z"/><path class="cls-2" d="M32.49,13.71c0-.06.08-.09.11-.14l.26.48c-.12.11-.23.17-.31.11s-.14-.25-.06-.45Z"/><path class="cls-2" d="M32.77,14.39a.6.6,0,0,1,.14-.2,3.82,3.82,0,0,0,.23.51c-.12.14-.26.23-.37.17s-.11-.26,0-.48Z"/><path class="cls-2" d="M33.05,15.1a.74.74,0,0,1,.14-.23,3.23,3.23,0,0,1,.23.57.33.33,0,0,1-.31.14c-.11,0-.14-.26-.06-.48Z"/><path class="cls-2" d="M33.31,15.83a.9.9,0,0,1,.16-.25c.09.22.14.45.23.65a.31.31,0,0,1-.31.14c-.14-.06-.17-.28-.08-.54Z"/><path class="cls-2" d="M33.53,16.62a1.67,1.67,0,0,1,.2-.31c.08.23.14.46.19.65s-.22.23-.31.2-.16-.28-.08-.54Z"/><path class="cls-2" d="M33.7,17.44c.08-.17.17-.28.28-.31.06.23.14.46.2.65-.12.15-.26.23-.37.17s-.2-.28-.11-.51Z"/><path class="cls-2" d="M34,18.24a.77.77,0,0,1,.19-.23l.17.65c-.14.11-.28.17-.39.11s-.11-.31,0-.53Z"/><path class="cls-2" d="M34.15,19.17a.61.61,0,0,1,.31-.25c0,.22.11.42.14.59-.14.2-.37.31-.48.23s-.11-.31,0-.57Z"/><path class="cls-2" d="M32.27,13a2.77,2.77,0,0,1,.22.37c-.08.2-.22.28-.34.25s-.11-.22,0-.42a.5.5,0,0,1,.15-.2Z"/><path class="cls-2" d="M12.53,35.25v-.12h0c-.14,0-.2-.05-.2-.19v-.31h0l0-.74h0l.42,1.1.09,0,.42-1.13h0v1.25l-.11,0v.11l.64-.06v-.11h-.11l0-1.36.12,0v-.11l-.57,0-.28.85h0l-.25-.8-.59,0v.12h.14l-.06,1.16h0c0,.11,0,.22-.19.22h0v.12l.53,0Z"/><path class="cls-2" d="M14.81,35.05c-.31,0-.4-.31-.4-.71s.09-.73.4-.73.36.31.36.73-.05.71-.36.71Zm0,.14a.86.86,0,0,0,.81-.85.82.82,0,1,0-.81.85Z"/><path class="cls-2" d="M16.16,35.64a.43.43,0,0,0,.25.09c.14,0,.31,0,.31-.17s0-.17-.23-.2h-.08l.08-.14h-.11l-.11.23h.11c.06,0,.09,0,.09.11s-.06.06-.12.06a.35.35,0,0,1-.16-.06h0l0,.08Zm.9-.82c-.12.14-.23.29-.43.26-.36,0-.42-.57-.42-.88s0-.54.28-.51.43.31.51.51h.11L17,33.63h0a.34.34,0,0,1-.17,0c-.06,0-.08,0-.14,0a.53.53,0,0,0-.2-.05c-.36,0-.73.2-.73.85a.86.86,0,0,0,.73.85.63.63,0,0,0,.62-.4h0l-.08-.06Z"/><path class="cls-2" d="M17.7,35.36v-.14h0c-.11,0-.22,0-.22-.11s0-.06,0-.09h0l0-.17.56.06.12.34-.14,0v.11l.64.06v-.12l-.11,0-.51-1.52-.42-.06.06.17-.39,1h0c0,.11-.06.25-.23.25h0v.11l.56.06ZM17.84,34h0l.23.74-.48-.06.25-.68Z"/><path class="cls-2" d="M19.25,35.42V35.3h0a.18.18,0,0,1-.2-.19c0-.12,0-.2,0-.32h0l0-.73h0l.39,1.1h.11l.4-1.1h0l0,1.24H19.9v.12h.67V35.3h-.14l0-1.35.14,0V33.8H20l-.28.83h0l-.28-.83h-.56v.12L19,34l-.06,1.16h0c0,.11,0,.19-.22.19h0v.15l.53,0Z"/><path class="cls-2" d="M20.88,35.25l-.14,0v.11l.84-.09h0c.45,0,.59-.22.59-.48s-.28-.36-.59-.39h0c.26,0,.51-.14.51-.4s-.31-.37-.65-.31h0l-.7.06v.11h.14v1.36Zm.39-.71a.11.11,0,0,1,.09,0c.31,0,.39.12.39.34s-.08.34-.36.37h-.12v-.68Zm0-.68a.21.21,0,0,1,.14,0c.23,0,.29.12.29.26a.29.29,0,0,1-.29.31h-.14v-.54Z"/><polygon class="cls-2" points="22.4 33.72 22.57 33.72 22.57 35.08 22.4 35.11 22.4 35.22 23.16 35.13 23.16 35.02 22.96 35.02 22.96 33.66 23.16 33.63 23.16 33.52 22.4 33.61 22.4 33.72"/><path class="cls-2" d="M24.08,34.82c.09,0,.15.06.15.17s-.06,0-.09,0c-.31,0-.36-.31-.36-.73s0-.74.36-.74.39.31.39.74a1.06,1.06,0,0,1-.11.56.27.27,0,0,0-.25-.11h-.09v.08Zm.85.37s-.09,0-.14,0-.17-.09-.23-.23a.78.78,0,0,0,.4-.7.83.83,0,0,0-.82-.85.85.85,0,0,0,0,1.69.28.28,0,0,0,.14,0,.37.37,0,0,0,.37.31.66.66,0,0,0,.28-.09h0v-.14Z"/><path class="cls-2" d="M26.16,33.52v.14h0c.12,0,.2.06.2.26h0v.71h0c0,.22-.08.42-.36.42a.37.37,0,0,1-.37-.4h0v-1h.17v-.11l-.68,0v.12l.12,0v1h0c0,.33.28.53.64.53.54,0,.59-.31.59-.53h0v-.77h0a.19.19,0,0,1,.17-.2h0v-.11l-.48,0Z"/><path class="cls-2" d="M27.35,34.48l.14,0h0c.16,0,.19.17.19.31h.12V34.2l-.12,0h0c0,.12,0,.26-.19.23h0l-.14,0V33.8h.16a.83.83,0,0,1,.59.49h.12l-.12-.54h0a1.21,1.21,0,0,1-.33,0h0l-1-.17v.11l.11,0v1.36h-.11v.11l1,.17h0l.33.09h0l.15-.51-.12-.06h0a.54.54,0,0,1-.62.31l-.16,0h0v-.68Z"/><path class="cls-2" d="M13.09,31.79h.12a.24.24,0,0,1,.22.26c0,.11-.06.25-.22.23h-.12v-.49Zm-.28,1-.11,0v.09h.51v-.09h-.12v-.45h0c.06,0,.09,0,.12,0h0l.25.57h.36v-.09h-.08l-.23-.51h0a.27.27,0,0,0,.23-.28c0-.23-.17-.34-.45-.34H12.7v.08h.11v1Z"/><path class="cls-2" d="M14.53,32.39h.11c.11,0,.14.14.17.23h.08v-.49h-.08c0,.09-.06.2-.17.17h-.11v-.45h0a.25.25,0,0,1,.14,0c.22,0,.33.11.45.31h.08l-.08-.4h-.26l-.73-.05v.08l.12,0v1h-.12V33l.73,0h0a.55.55,0,0,1,.26.06h0l.11-.4-.11,0h0c-.12.17-.23.29-.45.26a.22.22,0,0,1-.14,0h0v-.48Z"/><path class="cls-2" d="M15.93,32.08H16a.27.27,0,0,1,.23.28c0,.14-.06.26-.23.2h-.11v-.48Zm-.28,1h-.11v.08l.5.09v-.09l-.11,0v-.46l.14,0h0c.28,0,.51,0,.51-.25s-.25-.37-.56-.43h0l-.48-.08V32l.11,0v1Z"/><path class="cls-2" d="M17.39,32.05l.26-.14h0c.05,0,.08,0,.08-.09s0-.08-.11-.08-.11.05-.17.14h0l-.17.17Zm.23.08v.09h0a.18.18,0,0,1,.14.2h0V33h0c0,.16-.06.31-.28.31s-.25-.09-.25-.29h0v-.76h.11v-.09l-.51,0v.08l.09,0V33h0c0,.25.22.39.47.42.43,0,.45-.26.45-.42h0v-.57h0c0-.09,0-.14.14-.14h0v-.09l-.36,0Z"/><path class="cls-2" d="M18.38,33.29h-.11v.09l.64,0h0c.34,0,.45-.12.45-.31s-.22-.29-.45-.34h0c.2,0,.4-.06.4-.26s-.26-.31-.51-.31h0l-.53,0v.09l.11,0v1Zm.28-.5h.08a.25.25,0,0,1,.28.28c0,.2-.05.25-.25.25a.15.15,0,0,1-.11,0h0v-.5Zm0-.51h.11a.21.21,0,0,1,.23.22c0,.12-.06.2-.23.2h-.11v-.42Z"/><path class="cls-2" d="M20.66,33l-.09,0h0c-.08.14-.14.31-.36.31h-.12v-1h.09v-.09H19.7v.09h.08v1l-.08,0v.09h.59a.75.75,0,0,1,.28,0h0l.09-.43Z"/><polygon class="cls-2" points="20.94 32.25 21.05 32.25 21.05 33.27 20.94 33.3 20.94 33.38 21.5 33.35 21.5 33.27 21.36 33.27 21.36 32.25 21.5 32.22 21.5 32.13 20.94 32.16 20.94 32.25"/><path class="cls-2" d="M22.76,32.9a.36.36,0,0,1-.31.25c-.28,0-.31-.36-.31-.62s0-.4.23-.4.31.17.37.32h0l.08,0-.08-.4h0s-.06,0-.12,0h-.25c-.28,0-.53.25-.53.74a.47.47,0,0,0,.53.5.56.56,0,0,0,.48-.36h0l-.09,0Z"/><path class="cls-2" d="M23.44,33.18v-.11h0c-.09,0-.14,0-.14-.06v0h0l0-.15.42-.05.08.25-.08,0v.08l.48-.08V33h-.09l-.39-1.05-.31.05,0,.09-.28.88h0c-.05.08-.05.17-.17.22h0v.09l.4-.06Zm.11-1h0l.17.51-.37,0,.2-.54Z"/><path class="cls-2" d="M25.55,31.79h.08c.37,0,.39.26.39.49s0,.53-.39.56h-.08V31.79Zm-.28,1.05-.12,0V33l.57,0h0a.63.63,0,0,0,.61-.65.52.52,0,0,0-.61-.57h0l-.57,0v.08h.12v1Z"/><path class="cls-2" d="M27.09,32.28h.09c.14,0,.17.11.17.19h.08V32h-.08c0,.09,0,.2-.17.2h-.09v-.42h0a.18.18,0,0,1,.12,0,.44.44,0,0,1,.44.31h0l.09,0-.09-.4h0a.61.61,0,0,1-.25,0h0l-.7,0v.09h.08v1H26.7v.08h.7a.56.56,0,0,1,.25,0h0l.12-.4-.09,0h0a.49.49,0,0,1-.47.32h-.12v-.51Z"/><path class="cls-7" d="M8.93,33.35s-.5.68,0,.91a.89.89,0,0,0,.84,0h0l-.87-.91Z"/><path class="cls-7" d="M19.92,24l-.56.65h0s-.05.42.62.34.56-.34.56-.34h0L19.92,24Z"/><path class="cls-1" d="M19.9,24l-.62.68h0a.39.39,0,0,0,.14.31.64.64,0,0,0,.56.14c.31-.05.51-.11.59-.25a.21.21,0,0,0,.06-.2h0l-.71-.73,0,.05Zm0,.14.57.6h0a.18.18,0,0,1,0,.08A.7.7,0,0,1,20,25a.57.57,0,0,1-.45-.08.22.22,0,0,1-.08-.2s.45-.48.5-.57Z"/><path class="cls-1" d="M17,21.21l.28.31h0s0,.26-.45.42-.51,0-.62-.11h0l.2-.17h0a.51.51,0,0,0,.5.06s.12-.09-.14-.09-.17-.14-.17-.14h0l.4-.28Zm-2.45,1.07,1.94-1.78.06.06-.09.31.31-.37v-.17L18.43,19l.48.48h0s0,.09-.25.2h0l-.37.34h0a4,4,0,0,0,3.15.79h0l.06,1.31h0a7,7,0,0,1-4.13-1h0l-.12,0,.2.37h0s.06.12-.22.37a.86.86,0,0,1-1,.17h0l-.9.85h0s-.19.11-.25,0a3.61,3.61,0,0,0-.51-.48h0l0-.15Z"/><path class="cls-1" d="M17,21.18l-.37.28h0s0,.06,0,.12.09.05.17.05.14,0,.14,0v0c-.31.11-.5,0-.5-.06h0l-.2.2,0,0h0c.09.14.23.28.65.11s.45-.45.45-.45a2.89,2.89,0,0,0-.28-.31h0l0,0Zm0,.06.28.28s0,.23-.45.42-.48,0-.59-.08v0s.14-.11.17-.14a.52.52,0,0,0,.5.06l.06-.06s0,0,0,0,0-.05-.17-.05a.22.22,0,0,1-.14-.06v-.06s.28-.2.37-.25Z"/><path class="cls-1" d="M18.43,19,16.78,20.3v.2h0l-.23.28.06-.22h0l-.09-.09-2,1.79,0,.19h0a5.65,5.65,0,0,1,.51.46s0,.05,0,.05a.38.38,0,0,0,.22-.08l.9-.82a.85.85,0,0,0,1-.2c.22-.17.25-.28.25-.34v-.06s-.17-.25-.2-.31.09,0,.09,0a6.93,6.93,0,0,0,4.13,1h0l-.06-1.31h0A4,4,0,0,1,18.35,20l.34-.31c.25-.11.25-.2.25-.23h0L18.46,19h0l0,0v0Zm0,0,.48.48a.53.53,0,0,1-.25.14,3.81,3.81,0,0,1-.37.34h0l0,0h0a4.14,4.14,0,0,0,3.12.82s.06,1.22.06,1.25a6.69,6.69,0,0,1-4.08-1h0l-.17.05.22.37h0s.06.12-.22.34a.77.77,0,0,1-1,.17h0l-.92.85h0c-.06,0-.14.09-.17.06h0a2.34,2.34,0,0,0-.51-.48l0-.15,1.91-1.75a0,0,0,0,0,0,0s-.06.31-.06.31h0l.28-.34h0v-.2S18.41,19,18.43,19Z"/><path class="cls-7" d="M18.29,20.36a4.2,4.2,0,0,0,2.81.71h0V21h0a4.12,4.12,0,0,1-2.72-.68h0l-.09.09Z"/><path class="cls-7" d="M18.1,20.56a4.66,4.66,0,0,0,2.95.73h0v-.11h0a4.77,4.77,0,0,1-2.87-.71h0l-.08.09Z"/><path class="cls-7" d="M17.87,20.73a4.78,4.78,0,0,0,3.21.82h0v-.11h0a4.71,4.71,0,0,1-3.12-.8h0l-.09.09Z"/><path class="cls-7" d="M17.68,20.93a5.41,5.41,0,0,0,3.42.93h0v-.14h0a5.58,5.58,0,0,1-3.34-.88h0l-.08.09Z"/><path class="cls-1" d="M15.15,20.7c0,.06.3-.23.3-.23h0l0-.2h0s-.31.17-.28.43Zm-.34.54v-.31l.14-.17h0s0-.49.64-.68h0l.12.19.42-.28.14.17-1.46,1.08Z"/><path class="cls-1" d="M15.4,20.25s-.31.19-.28.45h0v0h0s0,0,.33-.26h0l-.05-.22Zm0,.05c0,.06,0,.14,0,.17l-.26.2a.52.52,0,0,1,.23-.37Z"/><path class="cls-1" d="M16.13,20l-.42.26a1.17,1.17,0,0,0-.12-.2h0c-.64.2-.67.62-.67.71h0l-.14.14s0,.34,0,.34h0v.05l1.49-1.13-.17-.2v0Zm-.42.31s.39-.25.42-.28l.11.14s-1.35,1-1.4,1.05,0-.28,0-.28.17-.15.17-.15,0-.48.59-.67c0,0,.14.22.14.22h0v0Z"/><polygon class="cls-7" points="17.73 14.95 17.48 15.15 25.1 23.13 17.73 14.95"/><path class="cls-10" d="M18.69,18.89l.48.51h0A.84.84,0,0,0,19.5,19a8,8,0,0,1,1.83-1.67h0l.22-.14-.45-.48-2.41,2.15Z"/><polygon class="cls-1" points="19.16 17.59 19.36 17.84 20.96 16.54 20.74 16.28 19.16 17.59"/><path class="cls-1" d="M20.74,16.28l-1.6,1.31.22.28L21,16.54l-.25-.28v0Zm0,0,.2.23s-1.52,1.24-1.58,1.27a.87.87,0,0,0-.17-.22s1.52-1.25,1.55-1.28Z"/><polygon class="cls-7" points="11.21 17.45 12.47 18.75 12.33 18.95 11.07 17.59 11.21 17.45"/><polygon class="cls-7" points="16.52 14.25 17 14.78 16.83 14.87 16.3 14.33 16.52 14.25"/><polygon class="cls-7" points="17 14.02 17.37 14.53 17.54 14.39 17.03 13.79 17 14.02"/><path class="cls-7" d="M15.65,13.93a1,1,0,0,0,.87-.62h0l-.14-.14h0s-.31.57-.76.57h0l0,.19Z"/><path class="cls-7" d="M15.54,13.57s.14-.43.5-.48c0,0,.4-.17.15.17a.84.84,0,0,1-.6.36h0l-.05,0Z"/><path class="cls-5" d="M39,15.63s1.24,2.3-1,3.09c0,0-2.19,1-3.62,1.55-.68.26-2.28.4-2.37,2a3.66,3.66,0,0,1-.36,1.55,1.25,1.25,0,0,0,.53,1.79h0v-.37h0a1,1,0,0,1,1-1.05A16.68,16.68,0,0,0,38,23.25c1.69-.82,2.08-1.36,1.86-2.86a3.71,3.71,0,0,1,.08-2.21A2.62,2.62,0,0,0,39,15.24h0v.39Z"/><path class="cls-8" d="M.84,17.81.78,16h0s-.37.31-.17,1.36a1.87,1.87,0,0,0,.14.37.4.4,0,0,0,.09.11Z"/><path class="cls-8" d="M.75,15.94a1.66,1.66,0,0,0-.17,1.39,1.34,1.34,0,0,0,.14.37h0l.14.2v-.09l0-1.89-.06,0Zm0,1.76a1.87,1.87,0,0,1-.14-.37,2,2,0,0,1-.06-.56A1.38,1.38,0,0,1,.75,16c0,.11.06,1.58.06,1.73a.09.09,0,0,1,0-.06Z"/><path class="cls-8" d="M7.86,25.68s.59-1.3-.75-1.5H6.8l.64,1.47.42,0Z"/><path class="cls-8" d="M6.77,24.15l.67,1.53.45,0h0a1.38,1.38,0,0,0,0-1.1,1,1,0,0,0-.78-.46H6.77Zm.34,0a1.17,1.17,0,0,1,.75.45.9.9,0,0,1,.12.46,2.21,2.21,0,0,1-.12.59,1.85,1.85,0,0,1-.39-.06s-.62-1.38-.65-1.44Z"/><path class="cls-9" d="M9.38,29.47a2.64,2.64,0,0,0,1,1.36h0l.11.14.39-.14-1.09-1.3-.4-.06Z"/><path class="cls-8" d="M1.76,25.31l-.53-1h0a1.06,1.06,0,0,0,.48,1h0l.05,0Z"/><path class="cls-8" d="M35,30.12s.79,1.73-2.22,2.21c0,0-1.07.2-1.51,2a3.62,3.62,0,0,1-1.55,1.44c-1.29.76-1.38,1.16-.59,1.24s2.22.4,1.12,1.28c0,0-.95.59-4.21-.12a2,2,0,0,1-.68-.31c-.5-.28-.59-1,.68-1,0,0,1.57.23,2.16-.73a17.76,17.76,0,0,1,2.76-2.67.92.92,0,0,0,.47-1,2,2,0,0,0-.08-.22,3.91,3.91,0,0,0-.56-.6,1.15,1.15,0,0,0,1,0c-.12-.31.39-.34.39-.34a1.85,1.85,0,0,0,1.55-.25,2,2,0,0,1,1.12-.88h0l.11-.09Z"/><path class="cls-8" d="M32.29,25.14l.51-.9h0s-1.52.08-.65,1.44h0l.14-.54Z"/><path class="cls-8" d="M32.8,24.24a1.13,1.13,0,0,0-.84.39c-.17.29-.12.63.16,1.08h0l0,0h0s.17-.57.17-.6l.54-.9H32.8Zm-.9.73a.65.65,0,0,1,.08-.31c.17-.31.65-.37.79-.39l-.48.87a3.68,3.68,0,0,0-.14.48A1.24,1.24,0,0,1,31.9,25Z"/><path class="cls-8" d="M37.66,25.6c-.17-.09,1.58-.17,1-1.79a9.38,9.38,0,0,1-1,1.79Z"/><path class="cls-8" d="M38.59,23.81a9.58,9.58,0,0,1-.87,1.7c-.06,0-.09,0-.09.06h0v0h.06l0,0a.09.09,0,0,1,.06,0,1.36,1.36,0,0,0,.89-.62,1.16,1.16,0,0,0,.12-.46,2.12,2.12,0,0,0-.14-.65h0l0,0,0,0Zm0,.06a1.69,1.69,0,0,1,.11.59.9.9,0,0,1-.11.46,1.24,1.24,0,0,1-.82.56,11.7,11.7,0,0,0,.82-1.61Z"/><path class="cls-8" d="M39.29,17.59a1.79,1.79,0,0,0-.31-2.1,1.88,1.88,0,0,1,0,.62,3.87,3.87,0,0,1,.17,1.59c-.26.59.19-.11.19-.11Z"/><path class="cls-8" d="M39,15.49a2,2,0,0,1-.06.62,3.47,3.47,0,0,1,.17,1.59C39,17.93,39,18,39,18s.06,0,.28-.34h0A1.73,1.73,0,0,0,39,15.49h0l0-.05v.05Zm.14,2.21a.76.76,0,0,0,0-.34A6.82,6.82,0,0,0,39,16.11a1.84,1.84,0,0,0,0-.36v-.2a1.59,1.59,0,0,1,.48,1.1,2.3,2.3,0,0,1-.22.94c-.09.11-.17.25-.23.31s0-.09.06-.2Z"/><path class="cls-4" d="M29.9,25.77a1.47,1.47,0,0,1-1.12.17h0l-.17.31h0A1.85,1.85,0,0,0,30,26.08a2.92,2.92,0,0,0,1.91.05h0l-.14-.31h0A2.76,2.76,0,0,1,30,25.77h0l-.08,0-.06,0Z"/><path class="cls-5" d="M38.42,24.18s.42,1.36-1.35,1.5a20.53,20.53,0,0,1-2.89,0c-1.72-.08-2.42-.2-3.07.85a6.69,6.69,0,0,1-2,2.35s-1.18,1.1-.06,1.95h0l.23-.59h0S29,29,30.92,29.16s3.48.48,3.48.48,2.64.82,3.32-1.1c0,0,.2-1.61.67-2a2.52,2.52,0,0,0,.4-3.2h0l-.37.85Z"/><path class="cls-10" d="M9.69,27.78l.73-.34h0s1,.11,1.13-.34a.8.8,0,0,1,.7-.43s.67-.11.93.14a6.62,6.62,0,0,0,1.8.51s.5.23,1.26-.37c0,0,.09-.11.59-.17a1,1,0,0,0,.7-.65,3.76,3.76,0,0,1,.71-.59.65.65,0,0,0,.31-.34.6.6,0,0,1,.53.06,3.65,3.65,0,0,0,1.55.25,2.81,2.81,0,0,0,1.21.43,4,4,0,0,1,1.74.51,2.49,2.49,0,0,0,2,.45,3.5,3.5,0,0,0,1.37-.23c.26-.22.37-.54.62-.54a7.85,7.85,0,0,0,1.38-.65A2,2,0,0,1,30.13,25a2.15,2.15,0,0,0,1.32-.51h0l.34.62h0s-.51.49-.65.43a7.67,7.67,0,0,0-1.15.2s-.65.14-.79.39-1.24.65-1.24.65-.53.32-.61.54a2.3,2.3,0,0,1-1.86.31c-.7-.17-.81.06-.81.06a2.8,2.8,0,0,1-1.27-.45,2.07,2.07,0,0,0-1.35-.46,4.93,4.93,0,0,1-1.21-.28s-.31-.2-.45-.17a1.92,1.92,0,0,1-1.09-.2c-.12-.14-.62-.19-.71.17s-.73.68-.73.68a2.34,2.34,0,0,1-.5.46c-.23,0-.48.31-.68.42a2.21,2.21,0,0,1-1.4.11c-.2-.08-1.52.32-2.45-.36a.8.8,0,0,0-.82.25,1.25,1.25,0,0,1-1.09.23.48.48,0,0,0-.68.34h0l-.56-.65Z"/><path class="cls-5" d="M1.26,24.38s-.09,1.16,1.68,1.3a21,21,0,0,0,2.93,0c1.68-.08,2.39-.2,3.06.85a6.43,6.43,0,0,0,2,2.35s1.21,1.05.08,1.87h0l-.25-.31h0S11,29,9.13,29.16s-3.51.48-3.51.48S3,30.46,2.3,28.54c0,0-.2-1.61-.68-2A2.41,2.41,0,0,1,.89,23.7h0l.37.68Z"/><path class="cls-8" d="M10.79,30.55s.17-.93-.54-1.27-.81-.12-.81-.12h0l1.35,1.39Z"/><path class="cls-8" d="M9.41,29.13l0,0,1.41,1.42,0,0h0a1.25,1.25,0,0,0-.57-1.3c-.59-.29-.84-.12-.84-.12Zm.82.15a1.11,1.11,0,0,1,.56,1,1.46,1.46,0,0,1,0,.2c-.06,0-1.27-1.3-1.29-1.33s.25-.11.76.12Z"/><path class="cls-8" d="M30,29.25s-2.08.31-.79,1.78c0,0,.31-1.08.59-1.24h0l.2-.54Z"/><path class="cls-8" d="M30,29.22c-.06,0-1,.14-1.18.71-.14.31,0,.68.39,1.13h0l0,0v0h0a3.47,3.47,0,0,1,.59-1.27l.19-.54h0v0Zm-1.18.93a.94.94,0,0,1,0-.22c.2-.46,1-.63,1.13-.68l-.2.51A3.93,3.93,0,0,0,29.23,31a1.43,1.43,0,0,1-.39-.85Z"/><path class="cls-9" d="M29.79,29.64A2,2,0,0,0,29.23,31a5.26,5.26,0,0,1,1.88.91s.82.14.76-.48c0,0-1.26-.12-1.26-.83a.72.72,0,0,1-.73-.9h0l-.09-.09Z"/><path class="cls-2" d="M35.47,17.08c-.08-.2.14-.46.51-.57h0a.23.23,0,0,0,0,.09,5.09,5.09,0,0,0-.14.65.42.42,0,0,1-.34-.17Z"/><path class="cls-7" d="M15.93,14.08a.67.67,0,0,0-.5.22.39.39,0,0,0-.09.31h0l.09,0h0a.3.3,0,0,1,.05-.23.74.74,0,0,1,.48-.2,1.06,1.06,0,0,0,.79-.42h0l-.06-.06h0a1,1,0,0,1-.76.4Z"/><path class="cls-2" d="M35.1,19.17a.82.82,0,0,1,.4-.31h0l-.06.74h0c-.14.14-.28.19-.36.14s-.14-.34,0-.57Z"/><polygon class="cls-1" points="21.05 16.14 22.17 15.24 22.65 15.46 24.03 14.3 23.69 13.62 23.8 13.57 24.34 14.08 24.56 13.91 25.04 13.88 21.58 16.77 21.41 16.54 22.51 15.66 22.23 15.52 21.22 16.34 21.05 16.14"/><path class="cls-1" d="M23.8,13.54l-.14.08h0s.34.65.37.68l-1.38,1.14s-.48-.23-.48-.23h0L21,16.14l.2.23h0s1-.82,1-.82l.22.11c-.05,0-1.09.88-1.09.88h0l.19.25,3.52-2.91h-.54l-.22.17-.54-.51Zm0,.06.54.5.25-.17.39,0c-.11.08-3.37,2.8-3.4,2.83a.66.66,0,0,1-.11-.2l1.07-.88h0l-.31-.17h0l-1,.82-.14-.17s1.09-.85,1.09-.87l.48.22h0l1.41-1.19h0s-.31-.62-.34-.65a.28.28,0,0,1,.08-.05Z"/><path class="cls-1" d="M24.34,14.67l-.11-.14.47-.34.09.06.25.19h0c.17.09.06-.14.06-.14h0L25,14.13h0c-.05-.14.12-.05.12-.05h0l.08.05h0s2.42-1.81,2.7-2,.28-.05.28-.05h0l-2.67,2.57h0a.81.81,0,0,0-.48.17h0L23.19,16.4l-.26-.26L21.81,17l-.09-.14,2.62-2.21Z"/><polygon class="cls-7" points="25.49 14.13 26.81 13.11 25.57 14.22 25.49 14.13"/><polygon class="cls-7" points="23.1 15.92 24.48 14.73 24.59 14.81 23.21 16 23.1 15.92"/><path class="cls-7" d="M31.17,33.32s.5.68-.06.91a1,1,0,0,1-.84,0h0l.9-.91Z"/></g></svg>