<svg id="Layer_1" data-name="Layer 1" xmlns="http://www.w3.org/2000/svg" viewBox="0 0 159 70"><defs><style>.cls-1{fill:#ad033b;}.cls-2,.cls-3{fill:#fff;}.cls-2{fill-rule:evenodd;}</style></defs><title>Untitled-3</title><rect class="cls-1" x="0.47" y="15.53" width="158.53" height="39.47"/><path class="cls-2" d="M28.33,33.92l-5-12.82c-1.57-3.94-3.78-5.57-5.57-6a.87.87,0,0,0-.42-.11H14.66a5.86,5.86,0,0,1,2.68.84c1.32.95,2.11,3.15,1.74,6.1L17.5,34.76c-.21,1.58-.63,4.16-.63,4.16h2.26s.16-2,.37-3.74L21,22.62l5.15,13.14a6.83,6.83,0,0,0,2.37,3.52l6-16.66,1.53,14c.1,1,.16,2.26.16,2.26h3s-.26-1.69-.42-3.05l-1.79-14.3c0-.68-.15-1.79-.15-1.79H33.22a5.26,5.26,0,0,1-.42,1.79L28.33,33.92Z"/><path class="cls-2" d="M106.33,42.23V52.69a11.43,11.43,0,0,0,2.1.26c2.53,0,4.1-1.52,4.1-3.84,0-2-1.31-3.41-2.89-3.41a3.16,3.16,0,0,0-1,.15l-.74,1.27a2.28,2.28,0,0,1,1.16-.32c1.41,0,2.05,1.1,2.05,2.58a2.28,2.28,0,0,1-2.37,2.52,4.21,4.21,0,0,1-1.16-.16V42.23Z"/><path class="cls-2" d="M116.21,45.75v6.62h1.27V48.53c0-1.36.47-2.05,1.47-2.05.84,0,1.57.79,1.57,2.32v3.57h1.21V48.69c0-1.36.32-2.21,1.53-2.21s1.52,1,1.52,2.42v3.47H126V48.53c0-1.83-.47-3-2.42-3a2.35,2.35,0,0,0-2.1,1.26,2.32,2.32,0,0,0-2.1-1.26,2,2,0,0,0-1.89,1.16v-1Z"/><polygon class="cls-2" points="54.87 19.99 54.87 39.13 57.5 39.13 57.5 19.99 54.87 19.99"/><path class="cls-2" d="M68.43,37.34a5.47,5.47,0,0,1-5.78-5.68H73.22A6.27,6.27,0,0,0,66.75,25a6.83,6.83,0,0,0-7.2,7c0,4.1,3.37,7.25,8.25,7.25a10.05,10.05,0,0,0,4-.73l1.47-2.79h-.11A7.15,7.15,0,0,1,68.43,37.34ZM66.49,26.93A3.31,3.31,0,0,1,70.17,30H62.81A3.53,3.53,0,0,1,66.49,26.93Z"/><path class="cls-2" d="M75,25.67V39.13h2.47V30.72c0-1.74.42-3.53,2.89-3.53s3.32,1.63,3.32,4.79v7.15H86.1V31.66c0-1.36.1-3.2-.69-4.36a4.88,4.88,0,0,0-4.15-2.05,4.49,4.49,0,0,0-3.84,2.26V25.67Z"/><path class="cls-2" d="M89,25.72V39.07h2.52V30.72c0-1.69.37-3.47,2.89-3.47s3.31,1.63,3.31,4.73v7.09h2.47V31.66c0-1.36.11-3.15-.68-4.31a4.94,4.94,0,0,0-4.15-2,4.39,4.39,0,0,0-3.84,2.21V25.72Z"/><polygon class="cls-2" points="103.28 26.2 103.28 38.97 105.81 38.97 105.81 26.2 103.28 26.2"/><path class="cls-2" d="M102.76,22.36a1.79,1.79,0,1,1,1.79,1.94,1.85,1.85,0,0,1-1.79-1.94Z"/><path class="cls-2" d="M117.69,26V33.5c0,2.21-1.32,3.73-3.11,3.73-2.36,0-3-1.63-3-4.2V26h-2.47V33.5c0,4,1.52,5.89,4.67,5.89a4.18,4.18,0,0,0,4-2.21V39h2.47V26Z"/><path class="cls-2" d="M123.57,25.93V39H126V31.45c0-2.68,1-4.05,3-4.05,1.68,0,3.1,1.53,3.1,4.53v7h2.47V31.71c0-2.68.63-4.31,3.1-4.31,2.16,0,3,1.84,3,4.74V39h2.47V31.45c0-3.62-1-5.94-4.83-5.94A4.93,4.93,0,0,0,134.09,28a4.65,4.65,0,0,0-4.26-2.47A4.06,4.06,0,0,0,126,27.77V25.93Z"/><rect class="cls-3" x="0.47" y="41.7" width="158.53" height="1.26"/><polygon class="cls-2" points="113.17 45.64 113.17 52.37 114.43 52.37 114.43 45.64 113.17 45.64"/><path class="cls-2" d="M112.9,44.22a.9.9,0,1,1,1.79,0,.9.9,0,1,1-1.79,0Z"/><polygon class="cls-2" points="48.67 19.84 48.67 39.02 51.3 39.02 51.3 19.84 48.67 19.84"/><polygon class="cls-2" points="42.63 26.14 42.63 38.92 45.15 38.92 45.15 26.14 42.63 26.14"/><path class="cls-2" d="M42.1,22.31a1.8,1.8,0,1,1,1.79,1.94,1.89,1.89,0,0,1-1.79-1.94Z"/></svg>